<svg width="24" height="24" viewBox="0 0 24 24" fill="none" xmlns="http://www.w3.org/2000/svg">
<path d="M12 7.25235e-07C9.62663 7.25235e-07 7.30655 0.703784 5.33317 2.02236C3.35977 3.34094 1.8217 5.21508 0.913452 7.4078C0.00519972 9.60047 -0.232441 12.0133 0.230582 14.3411C0.693606 16.6689 1.83649 18.8071 3.51473 20.4853C5.19295 22.1635 7.33114 23.3064 9.65892 23.7694C11.9866 24.2325 14.3995 23.9948 16.5922 23.0866C18.7849 22.1783 20.6591 20.6403 21.9776 18.6669C23.2962 16.6935 24 14.3734 24 12C24.0005 10.424 23.6905 8.86331 23.0877 7.40715C22.4848 5.95099 21.6009 4.62791 20.4865 3.51349C19.3721 2.39908 18.049 1.51519 16.5929 0.912334C15.1367 0.309469 13.5761 -0.000547275 12 7.25235e-07ZM12 3.42916C13.017 3.42916 14.011 3.73072 14.8565 4.29569C15.7021 4.86066 16.3611 5.66368 16.7503 6.6032C17.1394 7.54272 17.2413 8.57653 17.0429 9.57387C16.8445 10.5713 16.3547 11.4875 15.6357 12.2066C14.9166 12.9256 14.0005 13.4153 13.0031 13.6137C12.0057 13.8121 10.9719 13.7103 10.0324 13.3211C9.09286 12.932 8.28984 12.273 7.72487 11.4274C7.15989 10.5819 6.85833 9.58778 6.85833 8.57084C6.85779 7.89547 6.99041 7.22661 7.24861 6.60255C7.5068 5.97849 7.88552 5.41146 8.36307 4.9339C8.84063 4.45634 9.40767 4.07763 10.0317 3.81943C10.6558 3.56123 11.3247 3.42862 12 3.42916ZM19.0541 16.8084C18.2773 17.9659 17.2273 18.9145 15.9971 19.5704C14.7669 20.2263 13.3942 20.5694 12 20.5694C10.6058 20.5694 9.23313 20.2263 8.00292 19.5704C6.7727 18.9145 5.7228 17.9659 4.94584 16.8084C4.73069 16.4938 4.62549 16.117 4.64659 15.7364C4.66769 15.3559 4.8139 14.993 5.06251 14.7042C6.87501 12.6125 9.38751 15.4167 12 15.4167C14.6126 15.4167 17.125 12.6 18.9375 14.6917C19.1891 14.9815 19.3371 15.3468 19.3582 15.7301C19.3794 16.1133 19.2724 16.4926 19.0541 16.8084Z" fill="url(#paint0_linear_427_136)"/>
<defs>
<linearGradient id="paint0_linear_427_136" x1="14.6087" y1="0.377929" x2="7.29524" y2="15.132" gradientUnits="userSpaceOnUse">
<stop stop-color="#FF0169"/>
<stop offset="1" stop-color="#FF0091"/>
</linearGradient>
</defs>
</svg>
