<svg width="35" height="15" viewBox="0 0 35 15" fill="none" xmlns="http://www.w3.org/2000/svg">
<path d="M5.70544 5.43593C4.03959 3.64545 2.31885 1.22273 0.828431 1.71415C0.335108 1.87646 0.059259 2.4156 0.133502 2.93437L0.674412 7.03298C0.744936 7.5719 0.713194 8.11761 0.588132 8.6477C0.00594845 11.0383 -0.453607 13.729 1.39187 13.9637C1.9458 14.029 2.49581 13.8114 2.87625 13.4006C3.74754 12.4759 4.56634 11.1839 5.35967 9.76056C5.53862 9.44244 5.98052 9.41976 6.20541 9.71298C10.0852 14.6858 24.0686 17.2818 33.4616 10.3535C34.5659 9.53907 34.9396 8.01749 34.276 6.81757C31.2073 1.29856 13.4914 -3.59274 6.49222 5.3951C6.29456 5.64082 5.92357 5.67018 5.70544 5.43593Z" fill="#5F1B00"/>
<path d="M2.0471 12.3336C3.17359 11.2683 4.00591 10.0943 4.50743 8.7839C4.6602 8.3904 5.11544 8.22587 5.49403 8.41598C6.14967 8.74699 6.78668 9.13548 7.40805 9.57401C9.73594 11.2349 12.3719 12.4604 15.211 12.8191C20.1912 13.4526 28.2734 12.2902 32.2665 9.0538C32.8544 8.57865 32.9069 7.6776 32.3593 7.15168C27.3039 2.33716 11.8893 -0.522954 7.36344 6.44401C7.1427 6.78008 6.68515 6.85279 6.37892 6.60068C5.02106 5.4699 3.6535 4.33089 2.43439 4.18613C2.05739 4.14383 1.7239 4.44787 1.71967 4.82709L1.65058 12.145C1.64027 12.3659 1.89117 12.4748 2.0471 12.3336Z" fill="#FFA700"/>
<path d="M27.5819 7.53863C27.6583 7.93273 28.0295 8.24973 28.4259 8.26514C28.6036 8.27548 28.782 8.22983 28.9372 8.14462C29.229 7.98842 29.4475 7.69042 29.4921 7.36194C29.5366 7.03345 29.3916 6.68122 29.1227 6.48731C28.4282 5.99359 27.4224 6.73477 27.5819 7.53863Z" fill="#813500"/>
<path d="M16.7534 6.31028C16.678 6.24986 16.6092 6.16182 16.6375 6.06923C16.6748 5.95425 16.8308 5.94294 16.9547 5.95779C17.0077 5.96596 17.0585 5.96893 17.1115 5.9771C17.3138 6.0016 17.5191 6.01864 17.7214 6.04314C18.1163 6.08394 18.13 6.37506 17.7874 6.48502C17.4635 6.58078 17.0156 6.53181 16.7534 6.31028Z" fill="#813500"/>
<path d="M20.1767 7.56875C18.9667 7.57477 17.7565 7.4942 16.5538 7.33002C16.4553 7.31665 16.3396 7.29209 16.2858 7.21001C16.22 7.1145 16.2715 6.97488 16.3625 6.89868C16.4557 6.8277 16.5766 6.80672 16.6923 6.78798C17.3835 6.68301 18.0875 6.66539 18.784 6.73137C19.0803 6.75879 19.4984 6.75255 19.7657 6.88525C20.0188 6.99929 20.0765 7.32098 20.1767 7.56875Z" fill="#813500"/>
<path d="M17.1541 9.49143C16.8286 9.48268 16.4949 9.44035 16.2194 9.27406C15.8579 9.05185 15.3911 8.67071 15.2229 8.27891C14.9971 7.7386 14.8101 7.18782 14.6619 6.62656C14.5474 6.18695 14.7225 5.6725 14.932 5.26702C15.0841 4.9728 15.3684 4.77032 15.6804 4.66113C15.9923 4.55194 16.3245 4.53305 16.653 4.53433C17.2434 4.54066 17.8325 4.61566 18.4021 4.76085C18.9516 4.90232 19.4825 5.10129 19.9873 5.35476C20.861 5.79014 21.6571 6.37636 22.3294 7.07762C22.2497 7.26653 22.0131 7.34954 21.8138 7.31758C21.6092 7.28785 21.4352 7.17077 21.2582 7.06116C19.9633 6.24983 18.4864 5.72079 16.9716 5.53591C16.7111 5.50547 16.4401 5.47953 16.1826 5.52822C15.9251 5.57691 15.6706 5.70472 15.5229 5.92279C15.2865 6.26559 15.3592 6.72313 15.4528 7.12841C15.5322 7.47174 15.6257 7.83374 15.8841 8.07544C16.2509 8.4253 16.8197 8.40998 17.3258 8.3783C18.3559 8.31342 19.4278 8.14402 20.4624 8.17619C20.7192 8.18348 20.9193 8.20275 20.6843 8.43357C20.3009 8.80856 19.6172 9.04639 19.1164 9.20572C18.4492 9.42414 17.8199 9.38499 17.1541 9.49143Z" fill="#813500"/>
<path d="M26.8823 9.36733C26.4435 9.55573 25.9632 9.22982 25.9808 8.75205C25.9838 8.65799 25.9942 8.56692 25.9993 8.47808C26.1484 7.00964 26.29 5.53821 26.4391 4.06977C24.912 3.17872 23.1305 2.71857 21.3659 2.75855C20.7948 2.76863 20.0746 2.97887 20.0339 3.54697C20.0051 3.99862 20.4718 4.33647 20.919 4.39813C21.3662 4.4598 21.8193 4.33334 22.2694 4.34425C22.7195 4.35515 23.2295 4.56308 23.344 5.00269C23.0986 5.28129 22.6559 5.27337 22.2953 5.16836C21.9347 5.06334 21.5837 4.87993 21.2083 4.89883C20.8328 4.91774 20.4389 5.25392 20.5429 5.61142C20.6828 6.0958 21.4038 6.00276 21.8317 6.26449C22.4195 6.62466 22.2894 7.50337 22.1181 8.17084L22.1144 8.19099C22.0976 8.69936 23.1092 10.0036 22.8249 10.206C22.3184 9.67488 21.4122 9.62472 20.7046 9.7491C19.7372 9.91695 18.7496 9.86459 17.7798 9.68084L17.4423 9.61538C16.106 9.51473 14.7698 9.41409 13.455 9.16189C14.1955 9.04197 14.7242 8.18391 14.4856 7.46968C14.2522 6.7532 13.3166 6.37535 12.6472 6.71843C11.9801 7.06673 11.7523 8.04926 12.2014 8.64839C9.87547 7.78474 7.49658 6.91292 5.01895 6.86304C4.20004 6.84342 3.37821 6.91785 2.57136 7.08484C2.16682 7.16573 1.85724 7.49663 1.77539 7.8968C1.59979 8.77031 1.59751 10.9553 1.64234 12.1549C1.66513 12.77 1.96428 12.4868 2.3753 12.032C3.18464 11.1215 4.27373 9.91142 4.53654 8.85198C4.65342 8.3749 4.86533 8.23442 5.62093 8.46683C14.8115 17.2783 33.0069 11.1676 32.7958 8.05335C32.6932 7.54058 32.6242 7.06287 31.912 6.87373C31.2521 6.96524 29.9844 7.74465 29.4015 8.04438C28.8919 8.3127 27.6711 9.02865 26.8823 9.36733Z" fill="#FF9400"/>
<path d="M3.01799 6.28059C3.19401 6.05653 3.22439 5.70939 3.04061 5.49751C2.88596 5.31024 2.62915 5.25964 2.39248 5.21277C2.08489 5.15923 2.01769 5.1324 1.7101 5.07885C1.7101 5.07885 1.66606 6.22997 1.69831 6.4636C2.09042 6.77165 2.73834 6.71 3.01799 6.28059Z" fill="#FF9400"/>
<path d="M8.97668 6.59915C9.17692 6.87821 9.51594 7.0482 9.85487 7.08829C10.199 7.12613 10.5498 7.04976 10.8588 6.90474C11.0864 6.80083 11.3013 6.65288 11.446 6.44227C11.5854 6.23391 11.6472 5.9599 11.5537 5.72781C11.4431 5.44123 11.1391 5.28092 10.8383 5.19976C9.97142 4.95324 8.04273 5.3173 8.97668 6.59915Z" fill="#FF9400"/>
<path d="M12.2706 4.9622C12.3693 5.23535 12.6396 5.40387 12.9085 5.51119C13.1795 5.62373 13.4737 5.68922 13.764 5.64499C14.0544 5.60076 14.3342 5.43112 14.449 5.1653C14.601 4.82779 14.453 4.39642 14.1527 4.17267C13.6135 3.76693 11.9124 3.98378 12.2706 4.9622Z" fill="#FF9400"/>
<path d="M15.5184 3.54919C15.4208 3.8262 15.5367 4.15382 15.76 4.34254C15.9804 4.53872 16.2842 4.61243 16.5821 4.61447C16.8777 4.61129 17.1643 4.54392 17.4487 4.47132C17.6711 4.41295 17.901 4.35757 18.0868 4.2283C18.2778 4.09679 18.4202 3.88095 18.4029 3.65328C18.3871 3.48683 18.284 3.33313 18.1496 3.23618C18.0129 3.134 17.8531 3.07886 17.6844 3.04612C17.214 2.94491 16.8446 3.07876 16.39 3.14401C16.0414 3.18231 15.6644 3.14001 15.5184 3.54919Z" fill="#FF9400"/>
<path d="M26.0275 4.79712C24.9791 5.48234 24.534 8.538 24.8002 10.4406C24.8474 10.7235 24.6481 10.7348 24.4866 10.3587C23.6633 8.13845 23.546 5.68931 25.8122 4.29562C26.1883 4.13414 26.4446 4.58708 26.0275 4.79712Z" fill="#813500"/>
</svg>
