<svg width="77" height="77" viewBox="0 0 77 77" fill="none" xmlns="http://www.w3.org/2000/svg">
<path d="M39.1259 62.3487L36.897 71.4574H43.5638C51.3529 71.4574 57.741 65.4062 58.1447 57.9516C58.1683 57.5375 57.8597 57.1924 57.4322 57.1924L49.097 57.2154C45.0457 57.2432 41.3854 59.2668 39.1259 62.3487Z" fill="url(#paint0_radial_7619_948)"/>
<path d="M39.1259 62.3487L36.897 71.4574H43.5638C51.3529 71.4574 57.741 65.4062 58.1447 57.9516C58.1683 57.5375 57.8597 57.1924 57.4322 57.1924L49.097 57.2154C45.0457 57.2432 41.3854 59.2668 39.1259 62.3487Z" fill="url(#paint1_radial_7619_948)"/>
<path d="M39.1259 62.3487L36.897 71.4574H43.5638C51.3529 71.4574 57.741 65.4062 58.1447 57.9516C58.1683 57.5375 57.8597 57.1924 57.4322 57.1924L49.097 57.2154C45.0457 57.2432 41.3854 59.2668 39.1259 62.3487Z" fill="url(#paint2_linear_7619_948)"/>
<path d="M39.1259 62.3487L36.897 71.4574H43.5638C51.3529 71.4574 57.741 65.4062 58.1447 57.9516C58.1683 57.5375 57.8597 57.1924 57.4322 57.1924L49.097 57.2154C45.0457 57.2432 41.3854 59.2668 39.1259 62.3487Z" fill="url(#paint3_linear_7619_948)"/>
<path d="M39.1259 62.3487L36.897 71.4574H43.5638C51.3529 71.4574 57.741 65.4062 58.1447 57.9516C58.1683 57.5375 57.8597 57.1924 57.4322 57.1924L49.097 57.2154C45.0457 57.2432 41.3854 59.2668 39.1259 62.3487Z" fill="url(#paint4_radial_7619_948)"/>
<path d="M39.1259 62.3487L36.897 71.4574H43.5638C51.3529 71.4574 57.741 65.4062 58.1447 57.9516C58.1683 57.5375 57.8597 57.1924 57.4322 57.1924L49.097 57.2154C45.0457 57.2432 41.3854 59.2668 39.1259 62.3487Z" fill="url(#paint5_radial_7619_948)"/>
<path d="M39.1259 62.3487L36.897 71.4574H43.5638C51.3529 71.4574 57.741 65.4062 58.1447 57.9516C58.1683 57.5375 57.8597 57.1924 57.4322 57.1924L49.097 57.2154C45.0457 57.2432 41.3854 59.2668 39.1259 62.3487Z" fill="url(#paint6_radial_7619_948)"/>
<path d="M39.1259 62.3487L36.897 71.4574H43.5638C51.3529 71.4574 57.741 65.4062 58.1447 57.9516C58.1683 57.5375 57.8597 57.1924 57.4322 57.1924L49.097 57.2154C45.0457 57.2432 41.3854 59.2668 39.1259 62.3487Z" fill="url(#paint7_radial_7619_948)"/>
<path d="M39.1259 71.0989C39.1259 71.297 38.9654 71.4575 38.7673 71.4575H34.7296C34.5315 71.4575 34.3709 71.297 34.3709 71.0989L34.371 64.4841C34.371 64.3138 34.2745 64.1582 34.122 64.0826L31.1613 62.6132C30.5194 62.3041 30.5194 61.3769 31.1613 61.0678L34.122 59.5985C34.2745 59.5228 34.371 59.3672 34.371 59.1969V43.4744H39.1259V47.4769C39.1259 47.6466 39.2219 47.8019 39.3737 47.8778L42.3118 49.3468C42.9537 49.6559 42.9537 50.5831 42.3118 50.8922L39.3786 52.315C39.224 52.39 39.1259 52.5466 39.1259 52.7183L39.1259 62.3489L39.1259 71.0989Z" fill="url(#paint8_linear_7619_948)"/>
<path d="M39.1259 71.0989C39.1259 71.297 38.9654 71.4575 38.7673 71.4575H34.7296C34.5315 71.4575 34.3709 71.297 34.3709 71.0989L34.371 64.4841C34.371 64.3138 34.2745 64.1582 34.122 64.0826L31.1613 62.6132C30.5194 62.3041 30.5194 61.3769 31.1613 61.0678L34.122 59.5985C34.2745 59.5228 34.371 59.3672 34.371 59.1969V43.4744H39.1259V47.4769C39.1259 47.6466 39.2219 47.8019 39.3737 47.8778L42.3118 49.3468C42.9537 49.6559 42.9537 50.5831 42.3118 50.8922L39.3786 52.315C39.224 52.39 39.1259 52.5466 39.1259 52.7183L39.1259 62.3489L39.1259 71.0989Z" fill="url(#paint9_radial_7619_948)"/>
<path d="M39.1259 71.0989C39.1259 71.297 38.9654 71.4575 38.7673 71.4575H34.7296C34.5315 71.4575 34.3709 71.297 34.3709 71.0989L34.371 64.4841C34.371 64.3138 34.2745 64.1582 34.122 64.0826L31.1613 62.6132C30.5194 62.3041 30.5194 61.3769 31.1613 61.0678L34.122 59.5985C34.2745 59.5228 34.371 59.3672 34.371 59.1969V43.4744H39.1259V47.4769C39.1259 47.6466 39.2219 47.8019 39.3737 47.8778L42.3118 49.3468C42.9537 49.6559 42.9537 50.5831 42.3118 50.8922L39.3786 52.315C39.224 52.39 39.1259 52.5466 39.1259 52.7183L39.1259 62.3489L39.1259 71.0989Z" fill="url(#paint10_radial_7619_948)"/>
<path d="M39.1259 71.0989C39.1259 71.297 38.9654 71.4575 38.7673 71.4575H34.7296C34.5315 71.4575 34.3709 71.297 34.3709 71.0989L34.371 64.4841C34.371 64.3138 34.2745 64.1582 34.122 64.0826L31.1613 62.6132C30.5194 62.3041 30.5194 61.3769 31.1613 61.0678L34.122 59.5985C34.2745 59.5228 34.371 59.3672 34.371 59.1969V43.4744H39.1259V47.4769C39.1259 47.6466 39.2219 47.8019 39.3737 47.8778L42.3118 49.3468C42.9537 49.6559 42.9537 50.5831 42.3118 50.8922L39.3786 52.315C39.224 52.39 39.1259 52.5466 39.1259 52.7183L39.1259 62.3489L39.1259 71.0989Z" fill="url(#paint11_radial_7619_948)"/>
<path d="M39.1259 71.0989C39.1259 71.297 38.9654 71.4575 38.7673 71.4575H34.7296C34.5315 71.4575 34.3709 71.297 34.3709 71.0989L34.371 64.4841C34.371 64.3138 34.2745 64.1582 34.122 64.0826L31.1613 62.6132C30.5194 62.3041 30.5194 61.3769 31.1613 61.0678L34.122 59.5985C34.2745 59.5228 34.371 59.3672 34.371 59.1969V43.4744H39.1259V47.4769C39.1259 47.6466 39.2219 47.8019 39.3737 47.8778L42.3118 49.3468C42.9537 49.6559 42.9537 50.5831 42.3118 50.8922L39.3786 52.315C39.224 52.39 39.1259 52.5466 39.1259 52.7183L39.1259 62.3489L39.1259 71.0989Z" fill="url(#paint12_radial_7619_948)"/>
<path d="M39.1259 71.0989C39.1259 71.297 38.9654 71.4575 38.7673 71.4575H34.7296C34.5315 71.4575 34.3709 71.297 34.3709 71.0989L34.371 64.4841C34.371 64.3138 34.2745 64.1582 34.122 64.0826L31.1613 62.6132C30.5194 62.3041 30.5194 61.3769 31.1613 61.0678L34.122 59.5985C34.2745 59.5228 34.371 59.3672 34.371 59.1969V43.4744H39.1259V47.4769C39.1259 47.6466 39.2219 47.8019 39.3737 47.8778L42.3118 49.3468C42.9537 49.6559 42.9537 50.5831 42.3118 50.8922L39.3786 52.315C39.224 52.39 39.1259 52.5466 39.1259 52.7183L39.1259 62.3489L39.1259 71.0989Z" fill="url(#paint13_radial_7619_948)"/>
<path d="M39.1259 71.0989C39.1259 71.297 38.9654 71.4575 38.7673 71.4575H34.7296C34.5315 71.4575 34.3709 71.297 34.3709 71.0989L34.371 64.4841C34.371 64.3138 34.2745 64.1582 34.122 64.0826L31.1613 62.6132C30.5194 62.3041 30.5194 61.3769 31.1613 61.0678L34.122 59.5985C34.2745 59.5228 34.371 59.3672 34.371 59.1969V43.4744H39.1259V47.4769C39.1259 47.6466 39.2219 47.8019 39.3737 47.8778L42.3118 49.3468C42.9537 49.6559 42.9537 50.5831 42.3118 50.8922L39.3786 52.315C39.224 52.39 39.1259 52.5466 39.1259 52.7183L39.1259 62.3489L39.1259 71.0989Z" fill="url(#paint14_linear_7619_948)" fill-opacity="0.8"/>
<path d="M39.1259 71.0989C39.1259 71.297 38.9654 71.4575 38.7673 71.4575H34.7296C34.5315 71.4575 34.3709 71.297 34.3709 71.0989L34.371 64.4841C34.371 64.3138 34.2745 64.1582 34.122 64.0826L31.1613 62.6132C30.5194 62.3041 30.5194 61.3769 31.1613 61.0678L34.122 59.5985C34.2745 59.5228 34.371 59.3672 34.371 59.1969V43.4744H39.1259V47.4769C39.1259 47.6466 39.2219 47.8019 39.3737 47.8778L42.3118 49.3468C42.9537 49.6559 42.9537 50.5831 42.3118 50.8922L39.3786 52.315C39.224 52.39 39.1259 52.5466 39.1259 52.7183L39.1259 62.3489L39.1259 71.0989Z" fill="url(#paint15_linear_7619_948)"/>
<path d="M39.1259 71.0989C39.1259 71.297 38.9654 71.4575 38.7673 71.4575H34.7296C34.5315 71.4575 34.3709 71.297 34.3709 71.0989L34.371 64.4841C34.371 64.3138 34.2745 64.1582 34.122 64.0826L31.1613 62.6132C30.5194 62.3041 30.5194 61.3769 31.1613 61.0678L34.122 59.5985C34.2745 59.5228 34.371 59.3672 34.371 59.1969V43.4744H39.1259V47.4769C39.1259 47.6466 39.2219 47.8019 39.3737 47.8778L42.3118 49.3468C42.9537 49.6559 42.9537 50.5831 42.3118 50.8922L39.3786 52.315C39.224 52.39 39.1259 52.5466 39.1259 52.7183L39.1259 62.3489L39.1259 71.0989Z" fill="url(#paint16_linear_7619_948)"/>
<path d="M26.6954 5.05472C36.0833 4.29318 37.9408 11.7786 37.9408 17.7285V22.793H25.0118V6.71976C25.0118 5.75859 25.7348 5.08894 26.6954 5.05472Z" fill="#C42A3D"/>
<path d="M26.6954 5.05472C36.0833 4.29318 37.9408 11.7786 37.9408 17.7285V22.793H25.0118V6.71976C25.0118 5.75859 25.7348 5.08894 26.6954 5.05472Z" fill="url(#paint17_linear_7619_948)"/>
<path d="M26.6954 5.05472C36.0833 4.29318 37.9408 11.7786 37.9408 17.7285V22.793H25.0118V6.71976C25.0118 5.75859 25.7348 5.08894 26.6954 5.05472Z" fill="url(#paint18_radial_7619_948)"/>
<path d="M26.6954 5.05472C36.0833 4.29318 37.9408 11.7786 37.9408 17.7285V22.793H25.0118V6.71976C25.0118 5.75859 25.7348 5.08894 26.6954 5.05472Z" fill="url(#paint19_linear_7619_948)"/>
<path d="M26.6954 5.05472C36.0833 4.29318 37.9408 11.7786 37.9408 17.7285V22.793H25.0118V6.71976C25.0118 5.75859 25.7348 5.08894 26.6954 5.05472Z" fill="url(#paint20_radial_7619_948)"/>
<path d="M26.6954 5.05472C36.0833 4.29318 37.9408 11.7786 37.9408 17.7285V22.793H25.0118V6.71976C25.0118 5.75859 25.7348 5.08894 26.6954 5.05472Z" fill="url(#paint21_radial_7619_948)" fill-opacity="0.8"/>
<path d="M26.6954 5.05472C36.0833 4.29318 37.9408 11.7786 37.9408 17.7285V22.793H25.0118V6.71976C25.0118 5.75859 25.7348 5.08894 26.6954 5.05472Z" fill="url(#paint22_radial_7619_948)" fill-opacity="0.8"/>
<path d="M26.6954 5.05472C36.0833 4.29318 37.9408 11.7786 37.9408 17.7285V22.793H25.0118V6.71976C25.0118 5.75859 25.7348 5.08894 26.6954 5.05472Z" fill="url(#paint23_radial_7619_948)" fill-opacity="0.8"/>
<path d="M26.6954 5.05472C36.0833 4.29318 37.9408 11.7786 37.9408 17.7285V22.793H25.0118V6.71976C25.0118 5.75859 25.7348 5.08894 26.6954 5.05472Z" fill="url(#paint24_radial_7619_948)" fill-opacity="0.8"/>
<path d="M46.9188 5.05472C37.5308 4.29318 35.6734 11.7786 35.6734 17.7285V22.793H48.6024V6.71976C48.6024 5.75859 47.8793 5.08894 46.9188 5.05472Z" fill="#D4505F"/>
<path d="M46.9188 5.05472C37.5308 4.29318 35.6734 11.7786 35.6734 17.7285V22.793H48.6024V6.71976C48.6024 5.75859 47.8793 5.08894 46.9188 5.05472Z" fill="url(#paint25_linear_7619_948)"/>
<path d="M46.9188 5.05472C37.5308 4.29318 35.6734 11.7786 35.6734 17.7285V22.793H48.6024V6.71976C48.6024 5.75859 47.8793 5.08894 46.9188 5.05472Z" fill="url(#paint26_linear_7619_948)"/>
<path d="M46.9188 5.05472C37.5308 4.29318 35.6734 11.7786 35.6734 17.7285V22.793H48.6024V6.71976C48.6024 5.75859 47.8793 5.08894 46.9188 5.05472Z" fill="url(#paint27_radial_7619_948)"/>
<path d="M46.9188 5.05472C37.5308 4.29318 35.6734 11.7786 35.6734 17.7285V22.793H48.6024V6.71976C48.6024 5.75859 47.8793 5.08894 46.9188 5.05472Z" fill="url(#paint28_radial_7619_948)" fill-opacity="0.7"/>
<path d="M46.9188 5.05472C37.5308 4.29318 35.6734 11.7786 35.6734 17.7285V22.793H48.6024V6.71976C48.6024 5.75859 47.8793 5.08894 46.9188 5.05472Z" fill="url(#paint29_radial_7619_948)" fill-opacity="0.8"/>
<path d="M46.9188 5.05472C37.5308 4.29318 35.6734 11.7786 35.6734 17.7285V22.793H48.6024V6.71976C48.6024 5.75859 47.8793 5.08894 46.9188 5.05472Z" fill="url(#paint30_radial_7619_948)" fill-opacity="0.7"/>
<path d="M46.9188 5.05472C37.5308 4.29318 35.6734 11.7786 35.6734 17.7285V22.793H48.6024V6.71976C48.6024 5.75859 47.8793 5.08894 46.9188 5.05472Z" fill="url(#paint31_radial_7619_948)" fill-opacity="0.6"/>
<path d="M51.3793 20.0218L53.2048 12.9098C53.4364 12.0073 52.7548 11.1287 51.8231 11.1287H46.7062C45.2148 11.1287 43.7071 11.3593 42.4349 12.1377C38.0659 14.8111 33.5606 20.8677 32.3387 32.381C31.3243 41.9399 28.6982 44.8222 32.3387 45.268H42.1166C46.0703 45.268 49.7522 43.2556 51.887 39.9278C53.7205 37.0696 54.2106 33.5519 53.2281 30.3014L51.474 24.4981C51.0341 23.0427 51.0013 21.4945 51.3793 20.0218Z" fill="#EB4A49"/>
<path d="M51.3793 20.0218L53.2048 12.9098C53.4364 12.0073 52.7548 11.1287 51.8231 11.1287H46.7062C45.2148 11.1287 43.7071 11.3593 42.4349 12.1377C38.0659 14.8111 33.5606 20.8677 32.3387 32.381C31.3243 41.9399 28.6982 44.8222 32.3387 45.268H42.1166C46.0703 45.268 49.7522 43.2556 51.887 39.9278C53.7205 37.0696 54.2106 33.5519 53.2281 30.3014L51.474 24.4981C51.0341 23.0427 51.0013 21.4945 51.3793 20.0218Z" fill="url(#paint32_radial_7619_948)"/>
<path d="M51.3793 20.0218L53.2048 12.9098C53.4364 12.0073 52.7548 11.1287 51.8231 11.1287H46.7062C45.2148 11.1287 43.7071 11.3593 42.4349 12.1377C38.0659 14.8111 33.5606 20.8677 32.3387 32.381C31.3243 41.9399 28.6982 44.8222 32.3387 45.268H42.1166C46.0703 45.268 49.7522 43.2556 51.887 39.9278C53.7205 37.0696 54.2106 33.5519 53.2281 30.3014L51.474 24.4981C51.0341 23.0427 51.0013 21.4945 51.3793 20.0218Z" fill="url(#paint33_linear_7619_948)"/>
<path d="M51.3793 20.0218L53.2048 12.9098C53.4364 12.0073 52.7548 11.1287 51.8231 11.1287H46.7062C45.2148 11.1287 43.7071 11.3593 42.4349 12.1377C38.0659 14.8111 33.5606 20.8677 32.3387 32.381C31.3243 41.9399 28.6982 44.8222 32.3387 45.268H42.1166C46.0703 45.268 49.7522 43.2556 51.887 39.9278C53.7205 37.0696 54.2106 33.5519 53.2281 30.3014L51.474 24.4981C51.0341 23.0427 51.0013 21.4945 51.3793 20.0218Z" fill="url(#paint34_linear_7619_948)"/>
<path d="M51.3793 20.0218L53.2048 12.9098C53.4364 12.0073 52.7548 11.1287 51.8231 11.1287H46.7062C45.2148 11.1287 43.7071 11.3593 42.4349 12.1377C38.0659 14.8111 33.5606 20.8677 32.3387 32.381C31.3243 41.9399 28.6982 44.8222 32.3387 45.268H42.1166C46.0703 45.268 49.7522 43.2556 51.887 39.9278C53.7205 37.0696 54.2106 33.5519 53.2281 30.3014L51.474 24.4981C51.0341 23.0427 51.0013 21.4945 51.3793 20.0218Z" fill="url(#paint35_radial_7619_948)"/>
<path d="M51.3793 20.0218L53.2048 12.9098C53.4364 12.0073 52.7548 11.1287 51.8231 11.1287H46.7062C45.2148 11.1287 43.7071 11.3593 42.4349 12.1377C38.0659 14.8111 33.5606 20.8677 32.3387 32.381C31.3243 41.9399 28.6982 44.8222 32.3387 45.268H42.1166C46.0703 45.268 49.7522 43.2556 51.887 39.9278C53.7205 37.0696 54.2106 33.5519 53.2281 30.3014L51.474 24.4981C51.0341 23.0427 51.0013 21.4945 51.3793 20.0218Z" fill="url(#paint36_radial_7619_948)"/>
<path d="M51.3793 20.0218L53.2048 12.9098C53.4364 12.0073 52.7548 11.1287 51.8231 11.1287H46.7062C45.2148 11.1287 43.7071 11.3593 42.4349 12.1377C38.0659 14.8111 33.5606 20.8677 32.3387 32.381C31.3243 41.9399 28.6982 44.8222 32.3387 45.268H42.1166C46.0703 45.268 49.7522 43.2556 51.887 39.9278C53.7205 37.0696 54.2106 33.5519 53.2281 30.3014L51.474 24.4981C51.0341 23.0427 51.0013 21.4945 51.3793 20.0218Z" fill="url(#paint37_radial_7619_948)"/>
<path d="M51.3793 20.0218L53.2048 12.9098C53.4364 12.0073 52.7548 11.1287 51.8231 11.1287H46.7062C45.2148 11.1287 43.7071 11.3593 42.4349 12.1377C38.0659 14.8111 33.5606 20.8677 32.3387 32.381C31.3243 41.9399 28.6982 44.8222 32.3387 45.268H42.1166C46.0703 45.268 49.7522 43.2556 51.887 39.9278C53.7205 37.0696 54.2106 33.5519 53.2281 30.3014L51.474 24.4981C51.0341 23.0427 51.0013 21.4945 51.3793 20.0218Z" fill="url(#paint38_radial_7619_948)"/>
<path d="M51.3793 20.0218L53.2048 12.9098C53.4364 12.0073 52.7548 11.1287 51.8231 11.1287H46.7062C45.2148 11.1287 43.7071 11.3593 42.4349 12.1377C38.0659 14.8111 33.5606 20.8677 32.3387 32.381C31.3243 41.9399 28.6982 44.8222 32.3387 45.268H42.1166C46.0703 45.268 49.7522 43.2556 51.887 39.9278C53.7205 37.0696 54.2106 33.5519 53.2281 30.3014L51.474 24.4981C51.0341 23.0427 51.0013 21.4945 51.3793 20.0218Z" fill="url(#paint39_radial_7619_948)"/>
<path d="M22.0937 20.0218L20.2683 12.9098C20.0366 12.0073 20.7182 11.1287 21.65 11.1287H26.7668C28.2582 11.1287 29.766 11.3593 31.0381 12.1377C35.4071 14.8111 39.9125 20.8677 41.1343 32.381C42.1487 41.9399 36.4908 44.8222 32.8502 45.268H31.3565C27.4027 45.268 23.7209 43.2556 21.5861 39.9278C19.7525 37.0696 19.2624 33.5519 20.2449 30.3014L21.999 24.4981C22.439 23.0427 22.4717 21.4945 22.0937 20.0218Z" fill="#D33939"/>
<path d="M22.0937 20.0218L20.2683 12.9098C20.0366 12.0073 20.7182 11.1287 21.65 11.1287H26.7668C28.2582 11.1287 29.766 11.3593 31.0381 12.1377C35.4071 14.8111 39.9125 20.8677 41.1343 32.381C42.1487 41.9399 36.4908 44.8222 32.8502 45.268H31.3565C27.4027 45.268 23.7209 43.2556 21.5861 39.9278C19.7525 37.0696 19.2624 33.5519 20.2449 30.3014L21.999 24.4981C22.439 23.0427 22.4717 21.4945 22.0937 20.0218Z" fill="url(#paint40_linear_7619_948)"/>
<path d="M22.0937 20.0218L20.2683 12.9098C20.0366 12.0073 20.7182 11.1287 21.65 11.1287H26.7668C28.2582 11.1287 29.766 11.3593 31.0381 12.1377C35.4071 14.8111 39.9125 20.8677 41.1343 32.381C42.1487 41.9399 36.4908 44.8222 32.8502 45.268H31.3565C27.4027 45.268 23.7209 43.2556 21.5861 39.9278C19.7525 37.0696 19.2624 33.5519 20.2449 30.3014L21.999 24.4981C22.439 23.0427 22.4717 21.4945 22.0937 20.0218Z" fill="url(#paint41_radial_7619_948)"/>
<path d="M22.0937 20.0218L20.2683 12.9098C20.0366 12.0073 20.7182 11.1287 21.65 11.1287H26.7668C28.2582 11.1287 29.766 11.3593 31.0381 12.1377C35.4071 14.8111 39.9125 20.8677 41.1343 32.381C42.1487 41.9399 36.4908 44.8222 32.8502 45.268H31.3565C27.4027 45.268 23.7209 43.2556 21.5861 39.9278C19.7525 37.0696 19.2624 33.5519 20.2449 30.3014L21.999 24.4981C22.439 23.0427 22.4717 21.4945 22.0937 20.0218Z" fill="url(#paint42_radial_7619_948)"/>
<path d="M22.0937 20.0218L20.2683 12.9098C20.0366 12.0073 20.7182 11.1287 21.65 11.1287H26.7668C28.2582 11.1287 29.766 11.3593 31.0381 12.1377C35.4071 14.8111 39.9125 20.8677 41.1343 32.381C42.1487 41.9399 36.4908 44.8222 32.8502 45.268H31.3565C27.4027 45.268 23.7209 43.2556 21.5861 39.9278C19.7525 37.0696 19.2624 33.5519 20.2449 30.3014L21.999 24.4981C22.439 23.0427 22.4717 21.4945 22.0937 20.0218Z" fill="url(#paint43_radial_7619_948)"/>
<path d="M22.0937 20.0218L20.2683 12.9098C20.0366 12.0073 20.7182 11.1287 21.65 11.1287H26.7668C28.2582 11.1287 29.766 11.3593 31.0381 12.1377C35.4071 14.8111 39.9125 20.8677 41.1343 32.381C42.1487 41.9399 36.4908 44.8222 32.8502 45.268H31.3565C27.4027 45.268 23.7209 43.2556 21.5861 39.9278C19.7525 37.0696 19.2624 33.5519 20.2449 30.3014L21.999 24.4981C22.439 23.0427 22.4717 21.4945 22.0937 20.0218Z" fill="url(#paint44_radial_7619_948)"/>
<path d="M22.0937 20.0218L20.2683 12.9098C20.0366 12.0073 20.7182 11.1287 21.65 11.1287H26.7668C28.2582 11.1287 29.766 11.3593 31.0381 12.1377C35.4071 14.8111 39.9125 20.8677 41.1343 32.381C42.1487 41.9399 36.4908 44.8222 32.8502 45.268H31.3565C27.4027 45.268 23.7209 43.2556 21.5861 39.9278C19.7525 37.0696 19.2624 33.5519 20.2449 30.3014L21.999 24.4981C22.439 23.0427 22.4717 21.4945 22.0937 20.0218Z" fill="url(#paint45_radial_7619_948)"/>
<path d="M22.0937 20.0218L20.2683 12.9098C20.0366 12.0073 20.7182 11.1287 21.65 11.1287H26.7668C28.2582 11.1287 29.766 11.3593 31.0381 12.1377C35.4071 14.8111 39.9125 20.8677 41.1343 32.381C42.1487 41.9399 36.4908 44.8222 32.8502 45.268H31.3565C27.4027 45.268 23.7209 43.2556 21.5861 39.9278C19.7525 37.0696 19.2624 33.5519 20.2449 30.3014L21.999 24.4981C22.439 23.0427 22.4717 21.4945 22.0937 20.0218Z" fill="url(#paint46_radial_7619_948)"/>
<path d="M22.0937 20.0218L20.2683 12.9098C20.0366 12.0073 20.7182 11.1287 21.65 11.1287H26.7668C28.2582 11.1287 29.766 11.3593 31.0381 12.1377C35.4071 14.8111 39.9125 20.8677 41.1343 32.381C42.1487 41.9399 36.4908 44.8222 32.8502 45.268H31.3565C27.4027 45.268 23.7209 43.2556 21.5861 39.9278C19.7525 37.0696 19.2624 33.5519 20.2449 30.3014L21.999 24.4981C22.439 23.0427 22.4717 21.4945 22.0937 20.0218Z" fill="url(#paint47_radial_7619_948)"/>
<path d="M22.0937 20.0218L20.2683 12.9098C20.0366 12.0073 20.7182 11.1287 21.65 11.1287H26.7668C28.2582 11.1287 29.766 11.3593 31.0381 12.1377C35.4071 14.8111 39.9125 20.8677 41.1343 32.381C42.1487 41.9399 36.4908 44.8222 32.8502 45.268H31.3565C27.4027 45.268 23.7209 43.2556 21.5861 39.9278C19.7525 37.0696 19.2624 33.5519 20.2449 30.3014L21.999 24.4981C22.439 23.0427 22.4717 21.4945 22.0937 20.0218Z" fill="url(#paint48_radial_7619_948)"/>
<path d="M22.0937 20.0218L20.2683 12.9098C20.0366 12.0073 20.7182 11.1287 21.65 11.1287H26.7668C28.2582 11.1287 29.766 11.3593 31.0381 12.1377C35.4071 14.8111 39.9125 20.8677 41.1343 32.381C42.1487 41.9399 36.4908 44.8222 32.8502 45.268H31.3565C27.4027 45.268 23.7209 43.2556 21.5861 39.9278C19.7525 37.0696 19.2624 33.5519 20.2449 30.3014L21.999 24.4981C22.439 23.0427 22.4717 21.4945 22.0937 20.0218Z" fill="url(#paint49_radial_7619_948)" fill-opacity="0.5"/>
<path d="M22.0937 20.0218L20.2683 12.9098C20.0366 12.0073 20.7182 11.1287 21.65 11.1287H26.7668C28.2582 11.1287 29.766 11.3593 31.0381 12.1377C35.4071 14.8111 39.9125 20.8677 41.1343 32.381C42.1487 41.9399 36.4908 44.8222 32.8502 45.268H31.3565C27.4027 45.268 23.7209 43.2556 21.5861 39.9278C19.7525 37.0696 19.2624 33.5519 20.2449 30.3014L21.999 24.4981C22.439 23.0427 22.4717 21.4945 22.0937 20.0218Z" fill="url(#paint50_radial_7619_948)" fill-opacity="0.4"/>
<path d="M22.0937 20.0218L20.2683 12.9098C20.0366 12.0073 20.7182 11.1287 21.65 11.1287H26.7668C28.2582 11.1287 29.766 11.3593 31.0381 12.1377C35.4071 14.8111 39.9125 20.8677 41.1343 32.381C42.1487 41.9399 36.4908 44.8222 32.8502 45.268H31.3565C27.4027 45.268 23.7209 43.2556 21.5861 39.9278C19.7525 37.0696 19.2624 33.5519 20.2449 30.3014L21.999 24.4981C22.439 23.0427 22.4717 21.4945 22.0937 20.0218Z" fill="url(#paint51_radial_7619_948)"/>
<defs>
<radialGradient id="paint0_radial_7619_948" cx="0" cy="0" r="1" gradientUnits="userSpaceOnUse" gradientTransform="translate(55.3226 59.8671) rotate(140.575) scale(24.3341 22.6771)">
<stop stop-color="#94C852"/>
<stop offset="1" stop-color="#6F967C"/>
</radialGradient>
<radialGradient id="paint1_radial_7619_948" cx="0" cy="0" r="1" gradientUnits="userSpaceOnUse" gradientTransform="translate(39.8688 73.5377) rotate(-45.7848) scale(15.3419 11.6825)">
<stop stop-color="#5D807A"/>
<stop offset="1" stop-color="#5D807A" stop-opacity="0"/>
</radialGradient>
<linearGradient id="paint2_linear_7619_948" x1="43.8066" y1="72.4232" x2="43.8066" y2="70.1943" gradientUnits="userSpaceOnUse">
<stop stop-color="#707290"/>
<stop offset="1" stop-color="#707290" stop-opacity="0"/>
</linearGradient>
<linearGradient id="paint3_linear_7619_948" x1="47.5215" y1="57.1924" x2="47.5215" y2="59.2913" gradientUnits="userSpaceOnUse">
<stop stop-color="#89C146"/>
<stop offset="1" stop-color="#89C146" stop-opacity="0"/>
</linearGradient>
<radialGradient id="paint4_radial_7619_948" cx="0" cy="0" r="1" gradientUnits="userSpaceOnUse" gradientTransform="translate(51.5876 73.2538) rotate(-134.074) scale(17.3827 25.0608)">
<stop offset="0.738823" stop-color="#5C9948" stop-opacity="0"/>
<stop offset="1" stop-color="#5C9948"/>
</radialGradient>
<radialGradient id="paint5_radial_7619_948" cx="0" cy="0" r="1" gradientUnits="userSpaceOnUse" gradientTransform="translate(44.5495 55.725) rotate(37.781) scale(15.8866 24.6856)">
<stop offset="0.81566" stop-color="#5C9948" stop-opacity="0"/>
<stop offset="1" stop-color="#5C9948"/>
</radialGradient>
<radialGradient id="paint6_radial_7619_948" cx="0" cy="0" r="1" gradientUnits="userSpaceOnUse" gradientTransform="translate(37.7142 65.1607) rotate(-46.2284) scale(6.73925 1.12142)">
<stop stop-color="#489041"/>
<stop offset="1" stop-color="#489041" stop-opacity="0"/>
</radialGradient>
<radialGradient id="paint7_radial_7619_948" cx="0" cy="0" r="1" gradientUnits="userSpaceOnUse" gradientTransform="translate(58.1459 57.6939) rotate(142.381) scale(5.11214 0.849274)">
<stop offset="0.170171" stop-color="#A1D460"/>
<stop offset="0.982339" stop-color="#A1D460" stop-opacity="0"/>
</radialGradient>
<linearGradient id="paint8_linear_7619_948" x1="36.7366" y1="51.6575" x2="36.7366" y2="71.4575" gradientUnits="userSpaceOnUse">
<stop stop-color="#7EA242"/>
<stop offset="1" stop-color="#639262"/>
</linearGradient>
<radialGradient id="paint9_radial_7619_948" cx="0" cy="0" r="1" gradientUnits="userSpaceOnUse" gradientTransform="translate(33.2193 64.4365) rotate(-51.582) scale(2.74998 5.16575)">
<stop stop-color="#60826D"/>
<stop offset="1" stop-color="#60826D" stop-opacity="0"/>
</radialGradient>
<radialGradient id="paint10_radial_7619_948" cx="0" cy="0" r="1" gradientUnits="userSpaceOnUse" gradientTransform="translate(43.2865 50.0043) rotate(180) scale(4.86643 2.11746)">
<stop stop-color="#87A837"/>
<stop offset="1" stop-color="#87A837" stop-opacity="0"/>
</radialGradient>
<radialGradient id="paint11_radial_7619_948" cx="0" cy="0" r="1" gradientUnits="userSpaceOnUse" gradientTransform="translate(43.2865 50.0044) rotate(-180) scale(2.86042 0.44578)">
<stop stop-color="#99B35D"/>
<stop offset="1" stop-color="#99B35D" stop-opacity="0"/>
</radialGradient>
<radialGradient id="paint12_radial_7619_948" cx="0" cy="0" r="1" gradientUnits="userSpaceOnUse" gradientTransform="translate(40.5889 47.8927) rotate(146.753) scale(2.5828 2.72843)">
<stop stop-color="#778823"/>
<stop offset="1" stop-color="#839624" stop-opacity="0"/>
</radialGradient>
<radialGradient id="paint13_radial_7619_948" cx="0" cy="0" r="1" gradientUnits="userSpaceOnUse" gradientTransform="translate(39.2929 45.0607) rotate(118.04) scale(2.50168 3.05979)">
<stop stop-color="#738B32"/>
<stop offset="1" stop-color="#738B32" stop-opacity="0"/>
</radialGradient>
<linearGradient id="paint14_linear_7619_948" x1="39.0405" y1="55.1069" x2="33.6167" y2="55.1069" gradientUnits="userSpaceOnUse">
<stop stop-color="#98B858" stop-opacity="0"/>
<stop offset="0.270357" stop-color="#98B858" stop-opacity="0.87"/>
<stop offset="0.340731" stop-color="#98B858"/>
<stop offset="0.433121" stop-color="#98B858" stop-opacity="0.77"/>
<stop offset="0.521947" stop-color="#98B858" stop-opacity="0.29"/>
<stop offset="0.641715" stop-color="#98B858" stop-opacity="0"/>
<stop offset="1" stop-color="#98B858" stop-opacity="0"/>
</linearGradient>
<linearGradient id="paint15_linear_7619_948" x1="36.7366" y1="43.4744" x2="36.7366" y2="71.4575" gradientUnits="userSpaceOnUse">
<stop stop-color="#639262" stop-opacity="0"/>
<stop offset="0.6216" stop-color="#639262" stop-opacity="0.0829207"/>
<stop offset="1" stop-color="#639262"/>
</linearGradient>
<linearGradient id="paint16_linear_7619_948" x1="36.7366" y1="70.4174" x2="36.7366" y2="71.7733" gradientUnits="userSpaceOnUse">
<stop stop-color="#65797D" stop-opacity="0"/>
<stop offset="1" stop-color="#65797D"/>
</linearGradient>
<linearGradient id="paint17_linear_7619_948" x1="36.8283" y1="14.7315" x2="31.4763" y2="14.7315" gradientUnits="userSpaceOnUse">
<stop stop-color="#AC1322"/>
<stop offset="1" stop-color="#AC1322" stop-opacity="0"/>
</linearGradient>
<radialGradient id="paint18_radial_7619_948" cx="0" cy="0" r="1" gradientUnits="userSpaceOnUse" gradientTransform="translate(37.3426 17.7409) rotate(-171.703) scale(3.60396 9.51223)">
<stop stop-color="#9F0510"/>
<stop offset="1" stop-color="#9F0510" stop-opacity="0"/>
</radialGradient>
<linearGradient id="paint19_linear_7619_948" x1="23.9692" y1="9.86544" x2="28.427" y2="9.86544" gradientUnits="userSpaceOnUse">
<stop stop-color="#C7676B"/>
<stop offset="1" stop-color="#C7676B" stop-opacity="0"/>
</linearGradient>
<radialGradient id="paint20_radial_7619_948" cx="0" cy="0" r="1" gradientUnits="userSpaceOnUse" gradientTransform="translate(33.1448 14.5461) rotate(-90) scale(10.2529 2.69614)">
<stop stop-color="#BB3B4B"/>
<stop offset="1" stop-color="#BB3B4B" stop-opacity="0"/>
</radialGradient>
<radialGradient id="paint21_radial_7619_948" cx="0" cy="0" r="1" gradientUnits="userSpaceOnUse" gradientTransform="translate(32.6437 7.25544) rotate(119.054) scale(1.24365 4.12677)">
<stop stop-color="#D55E6C" stop-opacity="0.69"/>
<stop offset="0.0885417" stop-color="#D55E6C" stop-opacity="0.61"/>
<stop offset="0.367016" stop-color="#D55E6C" stop-opacity="0.13"/>
<stop offset="0.543302" stop-color="#D55E6C" stop-opacity="0"/>
<stop offset="1" stop-color="#D55E6C" stop-opacity="0"/>
</radialGradient>
<radialGradient id="paint22_radial_7619_948" cx="0" cy="0" r="1" gradientUnits="userSpaceOnUse" gradientTransform="translate(34.0054 8.30277) rotate(128.701) scale(0.641037 3.44714)">
<stop stop-color="#D55E6C" stop-opacity="0.39"/>
<stop offset="0.171902" stop-color="#D55E6C" stop-opacity="0.29"/>
<stop offset="0.578125" stop-color="#D55E6C" stop-opacity="0.0686495"/>
<stop offset="1" stop-color="#D55E6C" stop-opacity="0"/>
</radialGradient>
<radialGradient id="paint23_radial_7619_948" cx="0" cy="0" r="1" gradientUnits="userSpaceOnUse" gradientTransform="translate(31.4522 6.66256) rotate(115.478) scale(0.533915 2.05544)">
<stop stop-color="#D55E6C" stop-opacity="0.53"/>
<stop offset="0.547846" stop-color="#D55E6C" stop-opacity="0.196562"/>
<stop offset="1" stop-color="#D55E6C" stop-opacity="0"/>
</radialGradient>
<radialGradient id="paint24_radial_7619_948" cx="0" cy="0" r="1" gradientUnits="userSpaceOnUse" gradientTransform="translate(30.8418 6.38301) rotate(104.621) scale(0.441503 2.43882)">
<stop stop-color="#D55E6C" stop-opacity="0.58"/>
<stop offset="0.569757" stop-color="#D55E6C" stop-opacity="0.196562"/>
<stop offset="1" stop-color="#D55E6C" stop-opacity="0"/>
</radialGradient>
<linearGradient id="paint25_linear_7619_948" x1="37.6398" y1="13.3791" x2="44.4918" y2="13.3791" gradientUnits="userSpaceOnUse">
<stop stop-color="#B01E2E"/>
<stop offset="1" stop-color="#B01E2E" stop-opacity="0"/>
</linearGradient>
<linearGradient id="paint26_linear_7619_948" x1="51.1635" y1="13.3791" x2="47.8276" y2="13.3791" gradientUnits="userSpaceOnUse">
<stop stop-color="#B01E2E"/>
<stop offset="1" stop-color="#B01E2E" stop-opacity="0"/>
</linearGradient>
<radialGradient id="paint27_radial_7619_948" cx="0" cy="0" r="1" gradientUnits="userSpaceOnUse" gradientTransform="translate(43.8764 15.4652) rotate(-105.224) scale(10.216 14.1375)">
<stop stop-color="#B11F2F" stop-opacity="0"/>
<stop offset="0.897744" stop-color="#B11F2F" stop-opacity="0"/>
<stop offset="0.93823" stop-color="#B11F2F" stop-opacity="0.232387"/>
<stop offset="1" stop-color="#B11F2F"/>
</radialGradient>
<radialGradient id="paint28_radial_7619_948" cx="0" cy="0" r="1" gradientUnits="userSpaceOnUse" gradientTransform="translate(47.1649 5.80788) rotate(93.3274) scale(0.816241 1.48133)">
<stop stop-color="#EE6372"/>
<stop offset="0.518519" stop-color="#EE6372" stop-opacity="0.166667"/>
<stop offset="1" stop-color="#EE6372" stop-opacity="0"/>
</radialGradient>
<radialGradient id="paint29_radial_7619_948" cx="0" cy="0" r="1" gradientUnits="userSpaceOnUse" gradientTransform="translate(45.7436 5.92158) rotate(86.777) scale(0.731917 2.24126)">
<stop stop-color="#EE6372" stop-opacity="0.55"/>
<stop offset="0.379442" stop-color="#EE6372" stop-opacity="0.25"/>
<stop offset="1" stop-color="#EE6372" stop-opacity="0"/>
</radialGradient>
<radialGradient id="paint30_radial_7619_948" cx="0" cy="0" r="1" gradientUnits="userSpaceOnUse" gradientTransform="translate(46.4921 5.69417) rotate(87.3057) scale(0.806281 2.61427)">
<stop stop-color="#EE6372"/>
<stop offset="0.541667" stop-color="#EE6372" stop-opacity="0.25"/>
<stop offset="0.697917" stop-color="#EE6372" stop-opacity="0.110724"/>
<stop offset="1" stop-color="#EE6372" stop-opacity="0"/>
</radialGradient>
<radialGradient id="paint31_radial_7619_948" cx="0" cy="0" r="1" gradientUnits="userSpaceOnUse" gradientTransform="translate(44.3805 6.02283) rotate(81.5276) scale(0.58012 2.6388)">
<stop stop-color="#EE6372" stop-opacity="0.71"/>
<stop offset="0.151042" stop-color="#EE6372" stop-opacity="0.54"/>
<stop offset="0.75" stop-color="#EE6372" stop-opacity="0.0963461"/>
<stop offset="1" stop-color="#EE6372" stop-opacity="0"/>
</radialGradient>
<radialGradient id="paint32_radial_7619_948" cx="0" cy="0" r="1" gradientUnits="userSpaceOnUse" gradientTransform="translate(38.6059 34.5321) scale(5.49796 24.0721)">
<stop stop-color="#DF2C28"/>
<stop offset="1" stop-color="#DF2C28" stop-opacity="0"/>
</radialGradient>
<linearGradient id="paint33_linear_7619_948" x1="50.7129" y1="45.7459" x2="50.7129" y2="26.0915" gradientUnits="userSpaceOnUse">
<stop stop-color="#CB4151"/>
<stop offset="1" stop-color="#CB4151" stop-opacity="0"/>
</linearGradient>
<linearGradient id="paint34_linear_7619_948" x1="42.0978" y1="11.9367" x2="42.0978" y2="15.9938" gradientUnits="userSpaceOnUse">
<stop stop-color="#F86560"/>
<stop offset="1" stop-color="#F86560" stop-opacity="0"/>
</linearGradient>
<radialGradient id="paint35_radial_7619_948" cx="0" cy="0" r="1" gradientUnits="userSpaceOnUse" gradientTransform="translate(48.0956 10.9631) rotate(89.9145) scale(2.22996 27.2223)">
<stop stop-color="#E22A28"/>
<stop offset="0.27415" stop-color="#E22A28" stop-opacity="0.496912"/>
<stop offset="0.405676" stop-color="#E22A28" stop-opacity="0.288515"/>
<stop offset="0.513702" stop-color="#E22A28" stop-opacity="0.105979"/>
<stop offset="0.663995" stop-color="#E22A28" stop-opacity="0"/>
<stop offset="1" stop-color="#E22A28" stop-opacity="0"/>
</radialGradient>
<radialGradient id="paint36_radial_7619_948" cx="0" cy="0" r="1" gradientUnits="userSpaceOnUse" gradientTransform="translate(41.714 12.2079) rotate(64.2419) scale(3.15906 25.4656)">
<stop offset="0.06549" stop-color="#E22A28"/>
<stop offset="0.241376" stop-color="#E22A28" stop-opacity="0.496912"/>
<stop offset="0.356075" stop-color="#E22A28" stop-opacity="0.143586"/>
<stop offset="0.448237" stop-color="#E22A28" stop-opacity="0"/>
<stop offset="1" stop-color="#E22A28" stop-opacity="0"/>
</radialGradient>
<radialGradient id="paint37_radial_7619_948" cx="0" cy="0" r="1" gradientUnits="userSpaceOnUse" gradientTransform="translate(37.7626 16.3198) rotate(36.8699) scale(2.8725 23.1556)">
<stop stop-color="#E22A28"/>
<stop offset="0.2362" stop-color="#E22A28" stop-opacity="0.496912"/>
<stop offset="0.394622" stop-color="#E22A28" stop-opacity="0.143586"/>
<stop offset="0.561451" stop-color="#E22A28" stop-opacity="0"/>
<stop offset="1" stop-color="#E22A28" stop-opacity="0"/>
</radialGradient>
<radialGradient id="paint38_radial_7619_948" cx="0" cy="0" r="1" gradientUnits="userSpaceOnUse" gradientTransform="translate(43.3454 31.8619) rotate(85.9144) scale(8.22419 8.59992)">
<stop stop-color="#F56563" stop-opacity="0.85"/>
<stop offset="0.28125" stop-color="#F56563" stop-opacity="0.775906"/>
<stop offset="0.583333" stop-color="#F56563" stop-opacity="0.582304"/>
<stop offset="1" stop-color="#F56563" stop-opacity="0"/>
</radialGradient>
<radialGradient id="paint39_radial_7619_948" cx="0" cy="0" r="1" gradientUnits="userSpaceOnUse" gradientTransform="translate(42.2668 26.3964) rotate(81.8699) scale(4.54093 8.63815)">
<stop stop-color="#F56563" stop-opacity="0.91"/>
<stop offset="0.352681" stop-color="#F56563" stop-opacity="0.807374"/>
<stop offset="0.56404" stop-color="#F56563" stop-opacity="0.582304"/>
<stop offset="1" stop-color="#F56563" stop-opacity="0"/>
</radialGradient>
<linearGradient id="paint40_linear_7619_948" x1="34.2222" y1="46.9397" x2="34.2222" y2="30.743" gradientUnits="userSpaceOnUse">
<stop stop-color="#CE2F5C"/>
<stop offset="1" stop-color="#CE2F5C" stop-opacity="0"/>
</linearGradient>
<radialGradient id="paint41_radial_7619_948" cx="0" cy="0" r="1" gradientUnits="userSpaceOnUse" gradientTransform="translate(19.7484 22.1246) scale(7.63849 19.4657)">
<stop stop-color="#D0716F"/>
<stop offset="1" stop-color="#D0716F" stop-opacity="0"/>
</radialGradient>
<radialGradient id="paint42_radial_7619_948" cx="0" cy="0" r="1" gradientUnits="userSpaceOnUse" gradientTransform="translate(38.5314 13.8033) rotate(153.452) scale(8.9766 16.0813)">
<stop stop-color="#F03954"/>
<stop offset="1" stop-color="#F03954" stop-opacity="0"/>
</radialGradient>
<radialGradient id="paint43_radial_7619_948" cx="0" cy="0" r="1" gradientUnits="userSpaceOnUse" gradientTransform="translate(40.3888 42.4076) rotate(-119.691) scale(9.74987 17.015)">
<stop stop-color="#E42E5E"/>
<stop offset="1" stop-color="#E42E5E" stop-opacity="0"/>
</radialGradient>
<radialGradient id="paint44_radial_7619_948" cx="0" cy="0" r="1" gradientUnits="userSpaceOnUse" gradientTransform="translate(22.4207 29.9576) rotate(-22.1052) scale(18.0244 26.4258)">
<stop stop-color="#F76763" stop-opacity="0"/>
<stop offset="0.927818" stop-color="#F76763" stop-opacity="0"/>
<stop offset="0.953276" stop-color="#F76763" stop-opacity="0.1"/>
<stop offset="0.975085" stop-color="#F76763" stop-opacity="0.432502"/>
<stop offset="1" stop-color="#F76763" stop-opacity="0.88"/>
</radialGradient>
<radialGradient id="paint45_radial_7619_948" cx="0" cy="0" r="1" gradientUnits="userSpaceOnUse" gradientTransform="translate(20.4451 31.3907) rotate(-56.4076) scale(21.9921 32.2429)">
<stop stop-color="#F76763" stop-opacity="0"/>
<stop offset="0.908288" stop-color="#F76763" stop-opacity="0"/>
<stop offset="0.943705" stop-color="#F76763" stop-opacity="0"/>
<stop offset="0.971262" stop-color="#F76763" stop-opacity="0.23"/>
<stop offset="1" stop-color="#F76763" stop-opacity="0.67"/>
</radialGradient>
<radialGradient id="paint46_radial_7619_948" cx="0" cy="0" r="1" gradientUnits="userSpaceOnUse" gradientTransform="translate(26.8253 11.104) rotate(97.9435) scale(0.797253 6.10094)">
<stop stop-color="#F76763" stop-opacity="0.67"/>
<stop offset="0.436111" stop-color="#F76763" stop-opacity="0.28"/>
<stop offset="0.711123" stop-color="#F76763" stop-opacity="0.127855"/>
<stop offset="1" stop-color="#F76763" stop-opacity="0"/>
</radialGradient>
<radialGradient id="paint47_radial_7619_948" cx="0" cy="0" r="1" gradientUnits="userSpaceOnUse" gradientTransform="translate(24.1381 11.0874) rotate(89.3545) scale(0.682103 5.21975)">
<stop stop-color="#F76763"/>
<stop offset="0.512945" stop-color="#F76763" stop-opacity="0.28"/>
<stop offset="0.711123" stop-color="#F76763" stop-opacity="0.127855"/>
<stop offset="1" stop-color="#F76763" stop-opacity="0"/>
</radialGradient>
<radialGradient id="paint48_radial_7619_948" cx="0" cy="0" r="1" gradientUnits="userSpaceOnUse" gradientTransform="translate(41.4227 35.603) rotate(-177.306) scale(1.53155 11.7201)">
<stop stop-color="#F76763" stop-opacity="0.81"/>
<stop offset="0.424941" stop-color="#F76763" stop-opacity="0.28"/>
<stop offset="0.66082" stop-color="#F76763" stop-opacity="0.127855"/>
<stop offset="1" stop-color="#F76763" stop-opacity="0"/>
</radialGradient>
<radialGradient id="paint49_radial_7619_948" cx="0" cy="0" r="1" gradientUnits="userSpaceOnUse" gradientTransform="translate(40.0197 40.8523) rotate(-153.947) scale(2.05115 15.6963)">
<stop stop-color="#F76763" stop-opacity="0.81"/>
<stop offset="0.424941" stop-color="#F76763" stop-opacity="0.28"/>
<stop offset="0.66082" stop-color="#F76763" stop-opacity="0.127855"/>
<stop offset="1" stop-color="#F76763" stop-opacity="0"/>
</radialGradient>
<radialGradient id="paint50_radial_7619_948" cx="0" cy="0" r="1" gradientUnits="userSpaceOnUse" gradientTransform="translate(37.1942 44.1692) rotate(-117.848) scale(2.45457 18.7835)">
<stop stop-color="#F76763" stop-opacity="0.81"/>
<stop offset="0.424941" stop-color="#F76763" stop-opacity="0.28"/>
<stop offset="0.66082" stop-color="#F76763" stop-opacity="0.127855"/>
<stop offset="1" stop-color="#F76763" stop-opacity="0"/>
</radialGradient>
<radialGradient id="paint51_radial_7619_948" cx="0" cy="0" r="1" gradientUnits="userSpaceOnUse" gradientTransform="translate(21.5885 11.2693) rotate(80.1159) scale(2.41158 13.5673)">
<stop stop-color="#F76763"/>
<stop offset="0.301615" stop-color="#F76763" stop-opacity="0.28"/>
<stop offset="0.442994" stop-color="#F76763" stop-opacity="0.064267"/>
<stop offset="0.611931" stop-color="#F76763" stop-opacity="0"/>
<stop offset="1" stop-color="#F76763" stop-opacity="0"/>
</radialGradient>
</defs>
</svg>
