<svg width="86" height="86" viewBox="0 0 86 86" fill="none" xmlns="http://www.w3.org/2000/svg">
<path d="M42.2264 60.8162H28.762L30.9658 78.5608C31.1001 79.7257 32.0945 80.5927 33.2501 80.5927H42.2533H53.702C54.8576 80.5927 55.8251 79.7257 55.9864 78.5608L58.1901 60.8162H42.2264Z" fill="url(#paint0_linear_9661_1777)"/>
<path d="M42.2264 60.8162H28.762L30.9658 78.5608C31.1001 79.7257 32.0945 80.5927 33.2501 80.5927H42.2533H53.702C54.8576 80.5927 55.8251 79.7257 55.9864 78.5608L58.1901 60.8162H42.2264Z" fill="url(#paint1_linear_9661_1777)"/>
<g opacity="0.5">
<path d="M53.3256 60.8162H49.5631L43.6238 66.8033L37.6844 60.8162H33.9219L29.2994 65.4758L30.1594 72.4924L34.0563 76.4206L31.1538 79.3465C31.53 80.0779 32.3094 80.5927 33.1963 80.5927H33.3844L35.7763 78.1815L38.1681 80.5927H41.635L37.5769 76.4206L43.6506 70.298L49.7244 76.4206L45.5856 80.5927H49.0525L51.4444 78.1815L53.8363 80.5927C54.75 80.5385 55.5025 79.9425 55.825 79.1026L53.1644 76.4206L56.6581 72.8988L57.1419 68.9164L51.4175 74.6868L45.3438 68.5642L51.4175 62.4416L57.2225 68.2933L57.5988 65.1778L53.3256 60.8162ZM35.83 74.6597L29.7563 68.5371L35.83 62.4145L41.9038 68.5371L35.83 74.6597Z" fill="url(#paint2_linear_9661_1777)"/>
<path d="M53.3256 60.8162H49.5631L43.6238 66.8033L37.6844 60.8162H33.9219L29.2994 65.4758L30.1594 72.4924L34.0563 76.4206L31.1538 79.3465C31.53 80.0779 32.3094 80.5927 33.1963 80.5927H33.3844L35.7763 78.1815L38.1681 80.5927H41.635L37.5769 76.4206L43.6506 70.298L49.7244 76.4206L45.5856 80.5927H49.0525L51.4444 78.1815L53.8363 80.5927C54.75 80.5385 55.5025 79.9425 55.825 79.1026L53.1644 76.4206L56.6581 72.8988L57.1419 68.9164L51.4175 74.6868L45.3438 68.5642L51.4175 62.4416L57.2225 68.2933L57.5988 65.1778L53.3256 60.8162ZM35.83 74.6597L29.7563 68.5371L35.83 62.4145L41.9038 68.5371L35.83 74.6597Z" fill="url(#paint3_linear_9661_1777)"/>
</g>
<path d="M58.6841 19.9043C58.6841 17.3638 55.1357 15.6212 53.2041 15.6212H50.1807C49.7238 15.6483 48.375 15.3063 48.375 14.2775C48.375 14.2775 48.249 11.5812 48.249 10.1623C48.249 8.74332 47.5125 6.62804 45.1206 6.84477C43.105 7.03441 42.4144 8.90986 42.2531 9.7226C42.0919 10.6166 41.4648 11.9075 40.2285 12.8286C37.6754 14.725 30.0034 17.7207 30.0034 17.7207C27.7423 18.4804 25.9159 21.001 26.0981 23.3896C26.0981 24.584 26.938 25.6792 26.938 26.5391C26.938 27.3989 25.3003 27.8618 25.3003 27.8618L59.167 25.1534C59.167 25.1534 57.9282 24.3975 57.9282 23.4947C57.9282 22.7388 58.6841 21.962 58.6841 19.9043Z" fill="url(#paint4_linear_9661_1777)"/>
<path d="M58.6841 19.9043C58.6841 17.3638 55.1357 15.6212 53.2041 15.6212H50.1807C49.7238 15.6483 48.375 15.3063 48.375 14.2775C48.375 14.2775 48.249 11.5812 48.249 10.1623C48.249 8.74332 47.5125 6.62804 45.1206 6.84477C43.105 7.03441 42.4144 8.90986 42.2531 9.7226C42.0919 10.6166 41.4648 11.9075 40.2285 12.8286C37.6754 14.725 30.0034 17.7207 30.0034 17.7207C27.7423 18.4804 25.9159 21.001 26.0981 23.3896C26.0981 24.584 26.938 25.6792 26.938 26.5391C26.938 27.3989 25.3003 27.8618 25.3003 27.8618L59.167 25.1534C59.167 25.1534 57.9282 24.3975 57.9282 23.4947C57.9282 22.7388 58.6841 21.962 58.6841 19.9043Z" fill="url(#paint5_radial_9661_1777)"/>
<path d="M58.6841 19.9043C58.6841 17.3638 55.1357 15.6212 53.2041 15.6212H50.1807C49.7238 15.6483 48.375 15.3063 48.375 14.2775C48.375 14.2775 48.249 11.5812 48.249 10.1623C48.249 8.74332 47.5125 6.62804 45.1206 6.84477C43.105 7.03441 42.4144 8.90986 42.2531 9.7226C42.0919 10.6166 41.4648 11.9075 40.2285 12.8286C37.6754 14.725 30.0034 17.7207 30.0034 17.7207C27.7423 18.4804 25.9159 21.001 26.0981 23.3896C26.0981 24.584 26.938 25.6792 26.938 26.5391C26.938 27.3989 25.3003 27.8618 25.3003 27.8618L59.167 25.1534C59.167 25.1534 57.9282 24.3975 57.9282 23.4947C57.9282 22.7388 58.6841 21.962 58.6841 19.9043Z" fill="url(#paint6_radial_9661_1777)"/>
<path d="M58.6841 19.9043C58.6841 17.3638 55.1357 15.6212 53.2041 15.6212H50.1807C49.7238 15.6483 48.375 15.3063 48.375 14.2775C48.375 14.2775 48.249 11.5812 48.249 10.1623C48.249 8.74332 47.5125 6.62804 45.1206 6.84477C43.105 7.03441 42.4144 8.90986 42.2531 9.7226C42.0919 10.6166 41.4648 11.9075 40.2285 12.8286C37.6754 14.725 30.0034 17.7207 30.0034 17.7207C27.7423 18.4804 25.9159 21.001 26.0981 23.3896C26.0981 24.584 26.938 25.6792 26.938 26.5391C26.938 27.3989 25.3003 27.8618 25.3003 27.8618L59.167 25.1534C59.167 25.1534 57.9282 24.3975 57.9282 23.4947C57.9282 22.7388 58.6841 21.962 58.6841 19.9043Z" fill="url(#paint7_radial_9661_1777)"/>
<path d="M57.2494 24.8393C53.1902 25.1763 26.5044 27.5484 26.5044 27.5484C22.8494 27.8735 20.4082 31.0322 20.4082 33.9927C20.4082 36.1343 21.5 36.6592 21.5 37.9399C21.5 39.2207 20.4082 39.5776 20.4082 39.5776L65.0249 36.6593C65.0249 36.6593 63.9309 35.9454 63.9309 34.3184C63.9309 33.3209 64.668 32.964 64.668 31.0323C64.668 27.6099 61.3086 24.5023 57.2494 24.8393Z" fill="url(#paint8_linear_9661_1777)"/>
<path d="M57.2494 24.8393C53.1902 25.1763 26.5044 27.5484 26.5044 27.5484C22.8494 27.8735 20.4082 31.0322 20.4082 33.9927C20.4082 36.1343 21.5 36.6592 21.5 37.9399C21.5 39.2207 20.4082 39.5776 20.4082 39.5776L65.0249 36.6593C65.0249 36.6593 63.9309 35.9454 63.9309 34.3184C63.9309 33.3209 64.668 32.964 64.668 31.0323C64.668 27.6099 61.3086 24.5023 57.2494 24.8393Z" fill="url(#paint9_radial_9661_1777)"/>
<path d="M57.2494 24.8393C53.1902 25.1763 26.5044 27.5484 26.5044 27.5484C22.8494 27.8735 20.4082 31.0322 20.4082 33.9927C20.4082 36.1343 21.5 36.6592 21.5 37.9399C21.5 39.2207 20.4082 39.5776 20.4082 39.5776L65.0249 36.6593C65.0249 36.6593 63.9309 35.9454 63.9309 34.3184C63.9309 33.3209 64.668 32.964 64.668 31.0323C64.668 27.6099 61.3086 24.5023 57.2494 24.8393Z" fill="url(#paint10_radial_9661_1777)"/>
<path d="M69.2625 42.8818C68.8594 38.3847 64.9357 35.0525 60.4744 35.4318L22.9569 38.7369C18.4957 39.1432 15.19 43.0985 15.5663 47.5957C15.9694 52.0928 19.8932 55.425 24.3544 55.0457L45.9619 53.1493C46.6875 53.0951 55.1532 52.3366 55.7982 52.2824L61.8719 51.7406C66.3332 51.3342 69.6388 47.3789 69.2625 42.8818Z" fill="url(#paint11_radial_9661_1777)"/>
<path d="M59.7219 60.8164H27.5525C26.2894 60.8164 25.2412 59.787 25.2412 58.4866V54.45L62.0062 51.6055V58.4866C62.0331 59.787 60.985 60.8164 59.7219 60.8164Z" fill="url(#paint12_linear_9661_1777)"/>
<path d="M59.7219 60.8164H27.5525C26.2894 60.8164 25.2412 59.787 25.2412 58.4866V54.45L62.0062 51.6055V58.4866C62.0331 59.787 60.985 60.8164 59.7219 60.8164Z" fill="url(#paint13_linear_9661_1777)"/>
<path d="M59.7219 60.8164H27.5525C26.2894 60.8164 25.2412 59.787 25.2412 58.4866V54.45L62.0062 51.6055V58.4866C62.0331 59.787 60.985 60.8164 59.7219 60.8164Z" fill="url(#paint14_radial_9661_1777)"/>
<path d="M59.7219 60.8164H27.5525C26.2894 60.8164 25.2412 59.787 25.2412 58.4866V54.45L62.0062 51.6055V58.4866C62.0331 59.787 60.985 60.8164 59.7219 60.8164Z" fill="url(#paint15_radial_9661_1777)"/>
<path d="M69.2625 42.8818C68.8594 38.3847 64.9357 35.0525 60.4744 35.4318L22.9569 38.7369C18.4957 39.1432 15.19 43.0985 15.5663 47.5957C15.9694 52.0928 19.8932 55.425 24.3544 55.0457L30.6163 54.5039C31.2075 54.4497 31.7182 54.9373 31.7182 55.5333L31.7988 56.0481C31.7988 57.4026 32.9007 58.5134 34.2444 58.5134C35.5882 58.5134 36.69 57.4026 36.69 56.0481L36.6094 54.9102C36.6094 54.3684 37.0125 53.935 37.55 53.8808L45.935 53.1493C46.6607 53.0951 55.1263 52.3366 55.7713 52.2824L61.845 51.7406C66.3332 51.3342 69.6388 47.3789 69.2625 42.8818Z" fill="url(#paint16_linear_9661_1777)"/>
<path d="M69.2625 42.8818C68.8594 38.3847 64.9357 35.0525 60.4744 35.4318L22.9569 38.7369C18.4957 39.1432 15.19 43.0985 15.5663 47.5957C15.9694 52.0928 19.8932 55.425 24.3544 55.0457L30.6163 54.5039C31.2075 54.4497 31.7182 54.9373 31.7182 55.5333L31.7988 56.0481C31.7988 57.4026 32.9007 58.5134 34.2444 58.5134C35.5882 58.5134 36.69 57.4026 36.69 56.0481L36.6094 54.9102C36.6094 54.3684 37.0125 53.935 37.55 53.8808L45.935 53.1493C46.6607 53.0951 55.1263 52.3366 55.7713 52.2824L61.845 51.7406C66.3332 51.3342 69.6388 47.3789 69.2625 42.8818Z" fill="url(#paint17_radial_9661_1777)"/>
<path d="M69.2625 42.8818C68.8594 38.3847 64.9357 35.0525 60.4744 35.4318L22.9569 38.7369C18.4957 39.1432 15.19 43.0985 15.5663 47.5957C15.9694 52.0928 19.8932 55.425 24.3544 55.0457L30.6163 54.5039C31.2075 54.4497 31.7182 54.9373 31.7182 55.5333L31.7988 56.0481C31.7988 57.4026 32.9007 58.5134 34.2444 58.5134C35.5882 58.5134 36.69 57.4026 36.69 56.0481L36.6094 54.9102C36.6094 54.3684 37.0125 53.935 37.55 53.8808L45.935 53.1493C46.6607 53.0951 55.1263 52.3366 55.7713 52.2824L61.845 51.7406C66.3332 51.3342 69.6388 47.3789 69.2625 42.8818Z" fill="url(#paint18_radial_9661_1777)"/>
<path d="M69.2625 42.8818C68.8594 38.3847 64.9357 35.0525 60.4744 35.4318L22.9569 38.7369C18.4957 39.1432 15.19 43.0985 15.5663 47.5957C15.9694 52.0928 19.8932 55.425 24.3544 55.0457L30.6163 54.5039C31.2075 54.4497 31.7182 54.9373 31.7182 55.5333L31.7988 56.0481C31.7988 57.4026 32.9007 58.5134 34.2444 58.5134C35.5882 58.5134 36.69 57.4026 36.69 56.0481L36.6094 54.9102C36.6094 54.3684 37.0125 53.935 37.55 53.8808L45.935 53.1493C46.6607 53.0951 55.1263 52.3366 55.7713 52.2824L61.845 51.7406C66.3332 51.3342 69.6388 47.3789 69.2625 42.8818Z" fill="url(#paint19_radial_9661_1777)"/>
<defs>
<linearGradient id="paint0_linear_9661_1777" x1="29.8986" y1="71.8906" x2="57.1095" y2="71.8906" gradientUnits="userSpaceOnUse">
<stop stop-color="#C5987C"/>
<stop offset="0.216049" stop-color="#CC8953"/>
<stop offset="0.567901" stop-color="#EAA36E"/>
<stop offset="1" stop-color="#FCBD73"/>
</linearGradient>
<linearGradient id="paint1_linear_9661_1777" x1="43.4761" y1="60.8162" x2="43.4761" y2="80.5927" gradientUnits="userSpaceOnUse">
<stop offset="0.882728" stop-color="#C8746A" stop-opacity="0"/>
<stop offset="1" stop-color="#BE6D82"/>
</linearGradient>
<linearGradient id="paint2_linear_9661_1777" x1="29.2994" y1="69.2031" x2="57.5988" y2="69.2031" gradientUnits="userSpaceOnUse">
<stop stop-color="#D4A789"/>
<stop offset="0.424775" stop-color="#FAB88D"/>
<stop offset="0.757159" stop-color="#FFF0C9"/>
<stop offset="1" stop-color="#F9CF9A"/>
</linearGradient>
<linearGradient id="paint3_linear_9661_1777" x1="43.4491" y1="60.8162" x2="43.4491" y2="80.5927" gradientUnits="userSpaceOnUse">
<stop offset="0.916702" stop-color="#E09A80" stop-opacity="0"/>
<stop offset="1" stop-color="#CA7D95"/>
</linearGradient>
<linearGradient id="paint4_linear_9661_1777" x1="43.6719" y1="26.4551" x2="41.9187" y2="8.57864" gradientUnits="userSpaceOnUse">
<stop offset="0.0275603" stop-color="#FFE4A8"/>
<stop offset="0.143815" stop-color="#FFD59B"/>
<stop offset="0.250725" stop-color="#FEDCAB"/>
</linearGradient>
<radialGradient id="paint5_radial_9661_1777" cx="0" cy="0" r="1" gradientUnits="userSpaceOnUse" gradientTransform="translate(56.2695 18.4766) rotate(115.278) scale(6.68718 11.0083)">
<stop stop-color="#FFF6BA"/>
<stop offset="1" stop-color="#FFE5B1" stop-opacity="0"/>
</radialGradient>
<radialGradient id="paint6_radial_9661_1777" cx="0" cy="0" r="1" gradientUnits="userSpaceOnUse" gradientTransform="translate(46.1914 21.668) rotate(82.6476) scale(15.7506 29.2668)">
<stop offset="0.45355" stop-color="#E0BB89" stop-opacity="0"/>
<stop offset="0.662231" stop-color="#E6BE8D"/>
</radialGradient>
<radialGradient id="paint7_radial_9661_1777" cx="0" cy="0" r="1" gradientUnits="userSpaceOnUse" gradientTransform="translate(48.123 12.0098) rotate(177.089) scale(9.92296 25.3656)">
<stop offset="0.128265" stop-color="#FFF8BA"/>
<stop offset="0.347135" stop-color="#FFE0AF"/>
<stop offset="0.645989" stop-color="#FAD8A6" stop-opacity="0"/>
</radialGradient>
<linearGradient id="paint8_linear_9661_1777" x1="45.4332" y1="36.9639" x2="44.4014" y2="25.6634" gradientUnits="userSpaceOnUse">
<stop offset="0.0571005" stop-color="#FFE4A8"/>
<stop offset="0.157977" stop-color="#FFD59B"/>
<stop offset="0.356286" stop-color="#FFDEA7"/>
<stop offset="0.846352" stop-color="#FFE1A8"/>
<stop offset="0.968133" stop-color="#FDD594"/>
</linearGradient>
<radialGradient id="paint9_radial_9661_1777" cx="0" cy="0" r="1" gradientUnits="userSpaceOnUse" gradientTransform="translate(54.9258 29.3946) rotate(174.189) scale(38.157 21.0583)">
<stop offset="0.685205" stop-color="#FED29C" stop-opacity="0"/>
<stop offset="0.780293" stop-color="#F9C994"/>
<stop offset="0.880128" stop-color="#E4B783"/>
</radialGradient>
<radialGradient id="paint10_radial_9661_1777" cx="0" cy="0" r="1" gradientUnits="userSpaceOnUse" gradientTransform="translate(61.4766 28.3868) rotate(123.275) scale(6.42906 9.82633)">
<stop stop-color="#FFF8BD"/>
<stop offset="1" stop-color="#FFE7B1" stop-opacity="0"/>
</radialGradient>
<radialGradient id="paint11_radial_9661_1777" cx="0" cy="0" r="1" gradientUnits="userSpaceOnUse" gradientTransform="translate(42.4144 45.2358) scale(20.2181 20.3806)">
<stop offset="0.00558659" stop-color="#FFF5D4"/>
<stop offset="1" stop-color="#FFDEA3"/>
</radialGradient>
<linearGradient id="paint12_linear_9661_1777" x1="25.2412" y1="58.1172" x2="60.8046" y2="58.1172" gradientUnits="userSpaceOnUse">
<stop stop-color="#D2AD8C"/>
<stop offset="0.0884459" stop-color="#D19870"/>
<stop offset="0.319877" stop-color="#EAA26B"/>
<stop offset="0.744954" stop-color="#F8BA81"/>
<stop offset="1" stop-color="#F8C589"/>
</linearGradient>
<linearGradient id="paint13_linear_9661_1777" x1="43.624" y1="51.6055" x2="43.624" y2="60.8164" gradientUnits="userSpaceOnUse">
<stop offset="0.798134" stop-color="#DB9176" stop-opacity="0"/>
<stop offset="0.89843" stop-color="#E19978"/>
<stop offset="1" stop-color="#C97758"/>
</linearGradient>
<radialGradient id="paint14_radial_9661_1777" cx="0" cy="0" r="1" gradientUnits="userSpaceOnUse" gradientTransform="translate(34.0173 55.5666) rotate(90) scale(4.35438)">
<stop offset="0.385417" stop-color="#C67B4D"/>
<stop offset="1" stop-color="#C67B4D" stop-opacity="0"/>
</radialGradient>
<radialGradient id="paint15_radial_9661_1777" cx="0" cy="0" r="1" gradientUnits="userSpaceOnUse" gradientTransform="translate(58.4018 49.3365) rotate(172.579) scale(32.1568 4.5691)">
<stop offset="0.453125" stop-color="#C67B4D"/>
<stop offset="1" stop-color="#C67B4D" stop-opacity="0"/>
</radialGradient>
<linearGradient id="paint16_linear_9661_1777" x1="45.6875" y1="54.7578" x2="44.5117" y2="36.6172" gradientUnits="userSpaceOnUse">
<stop offset="0.029796" stop-color="#D89387"/>
<stop offset="0.312982" stop-color="#F8C6A3"/>
<stop offset="0.577315" stop-color="#FFDBA7"/>
<stop offset="0.840851" stop-color="#FFE0A6"/>
<stop offset="0.978024" stop-color="#FDD594"/>
</linearGradient>
<radialGradient id="paint17_radial_9661_1777" cx="0" cy="0" r="1" gradientUnits="userSpaceOnUse" gradientTransform="translate(49.8867 41.4883) rotate(83.3255) scale(15.8968 36.9749)">
<stop offset="0.720443" stop-color="#E1AE83" stop-opacity="0"/>
<stop offset="0.925198" stop-color="#E7B286"/>
</radialGradient>
<radialGradient id="paint18_radial_9661_1777" cx="0" cy="0" r="1" gradientUnits="userSpaceOnUse" gradientTransform="translate(65.3398 40.1445) rotate(113.929) scale(7.45405 9.80494)">
<stop stop-color="#FFF8BD"/>
<stop offset="1" stop-color="#FFEEB6" stop-opacity="0"/>
</radialGradient>
<radialGradient id="paint19_radial_9661_1777" cx="0" cy="0" r="1" gradientUnits="userSpaceOnUse" gradientTransform="translate(35.7773 56.0176) rotate(-5.0796) scale(3.7942 6.74051)">
<stop offset="0.197452" stop-color="#FFD4A8"/>
<stop offset="0.407382" stop-color="#FDC59F"/>
<stop offset="0.831214" stop-color="#FBC49E" stop-opacity="0"/>
</radialGradient>
</defs>
</svg>
