<svg width="77" height="77" viewBox="0 0 77 77" fill="none" xmlns="http://www.w3.org/2000/svg">
<path d="M54.9457 23.2971C58.5187 22.8742 61.0723 19.6348 60.6493 16.0618C60.2264 12.4888 56.987 9.93524 53.414 10.3582C49.841 10.7811 47.2874 14.0205 47.7104 17.5935C48.1333 21.1665 51.3727 23.7201 54.9457 23.2971Z" fill="url(#paint0_radial_7619_1078)"/>
<path d="M38.6334 25.228C42.2064 24.8051 44.76 21.5657 44.337 17.9927C43.9141 14.4197 40.6747 11.8661 37.1017 12.2891C33.5287 12.7121 30.9751 15.9514 31.3981 19.5244C31.8211 23.0974 35.0604 25.651 38.6334 25.228Z" fill="url(#paint1_radial_7619_1078)"/>
<path d="M60.3162 19.877L64.6973 19.3583L65.6868 21.4625L65.2159 23.7395L60.8348 24.2581L60.3162 19.877Z" fill="#D9D9D9"/>
<path d="M60.3162 19.877L64.6973 19.3583L65.6868 21.4625L65.2159 23.7395L60.8348 24.2581L60.3162 19.877Z" fill="url(#paint2_linear_7619_1078)"/>
<path d="M62.2178 35.9409L66.5989 35.4223L67.5884 37.5264L67.1175 39.8034L62.7364 40.322L62.2178 35.9409Z" fill="url(#paint3_linear_7619_1078)"/>
<path d="M70.4135 23.8645L71.6236 34.0871L69.5195 35.0766L67.2425 34.6057L66.0324 24.3831L68.1365 23.3936L70.4135 23.8645Z" fill="url(#paint4_linear_7619_1078)"/>
<path fill-rule="evenodd" clip-rule="evenodd" d="M64.6975 19.3586C67.5204 19.0245 70.0797 21.042 70.4139 23.8649L66.0326 24.3835C65.9848 23.9804 65.6193 23.6923 65.2161 23.74L64.6975 19.3586Z" fill="url(#paint5_radial_7619_1078)"/>
<path fill-rule="evenodd" clip-rule="evenodd" d="M64.6975 19.3586C67.5204 19.0245 70.0797 21.042 70.4139 23.8649L66.0326 24.3835C65.9848 23.9804 65.6193 23.6923 65.2161 23.74L64.6975 19.3586Z" fill="url(#paint6_radial_7619_1078)"/>
<path fill-rule="evenodd" clip-rule="evenodd" d="M64.6975 19.3586C67.5204 19.0245 70.0797 21.042 70.4139 23.8649L66.0326 24.3835C65.9848 23.9804 65.6193 23.6923 65.2161 23.74L64.6975 19.3586Z" fill="url(#paint7_radial_7619_1078)"/>
<path fill-rule="evenodd" clip-rule="evenodd" d="M71.624 34.0872C71.9581 36.9101 69.9406 39.4694 67.1177 39.8035L66.5991 35.4225C66.5993 35.4225 66.5994 35.4225 66.5996 35.4225C67.0028 35.3747 67.2911 35.0091 67.2433 34.6058C67.2433 34.6058 67.2433 34.6058 67.2433 34.6057L71.624 34.0872Z" fill="url(#paint8_radial_7619_1078)"/>
<ellipse cx="69.2829" cy="26.6871" rx="0.750604" ry="5.41956" transform="rotate(-6.75104 69.2829 26.6871)" fill="url(#paint9_radial_7619_1078)"/>
<ellipse cx="67.4863" cy="28.9282" rx="0.429073" ry="5.41956" transform="rotate(-6.75104 67.4863 28.9282)" fill="url(#paint10_radial_7619_1078)"/>
<path d="M31.4984 20.3711L34.6153 46.7017C34.9023 49.1259 37.1492 50.8442 39.6173 50.5521L59.9019 48.1509C62.3699 47.8587 64.1519 45.6486 63.8666 43.239L60.7497 16.9084L31.4984 20.3711Z" fill="#C7EDFF"/>
<path d="M31.4984 20.3711L34.6153 46.7017C34.9023 49.1259 37.1492 50.8442 39.6173 50.5521L59.9019 48.1509C62.3699 47.8587 64.1519 45.6486 63.8666 43.239L60.7497 16.9084L31.4984 20.3711Z" fill="url(#paint11_radial_7619_1078)"/>
<path d="M31.4984 20.3711L34.6153 46.7017C34.9023 49.1259 37.1492 50.8442 39.6173 50.5521L59.9019 48.1509C62.3699 47.8587 64.1519 45.6486 63.8666 43.239L60.7497 16.9084L31.4984 20.3711Z" fill="url(#paint12_radial_7619_1078)"/>
<path d="M31.4984 20.3711L34.6153 46.7017C34.9023 49.1259 37.1492 50.8442 39.6173 50.5521L59.9019 48.1509C62.3699 47.8587 64.1519 45.6486 63.8666 43.239L60.7497 16.9084L31.4984 20.3711Z" fill="url(#paint13_radial_7619_1078)"/>
<path d="M31.4984 20.3711L34.6153 46.7017C34.9023 49.1259 37.1492 50.8442 39.6173 50.5521L59.9019 48.1509C62.3699 47.8587 64.1519 45.6486 63.8666 43.239L60.7497 16.9084L31.4984 20.3711Z" fill="url(#paint14_radial_7619_1078)"/>
<path d="M31.4984 20.3711L34.6153 46.7017C34.9023 49.1259 37.1492 50.8442 39.6173 50.5521L59.9019 48.1509C62.3699 47.8587 64.1519 45.6486 63.8666 43.239L60.7497 16.9084L31.4984 20.3711Z" fill="url(#paint15_linear_7619_1078)"/>
<path d="M31.4984 20.3711L34.6153 46.7017C34.9023 49.1259 37.1492 50.8442 39.6173 50.5521L59.9019 48.1509C62.3699 47.8587 64.1519 45.6486 63.8666 43.239L60.7497 16.9084L31.4984 20.3711Z" fill="url(#paint16_linear_7619_1078)"/>
<path d="M37.8704 46.3019L34.7501 19.9421L57.4881 17.2505L60.6085 43.6103C60.688 44.282 60.2116 44.8863 59.5398 44.9659L39.226 47.3705C38.5543 47.4501 37.95 46.9737 37.8704 46.3019Z" fill="url(#paint17_linear_7619_1078)"/>
<path d="M37.8704 46.3019L34.7501 19.9421L57.4881 17.2505L60.6085 43.6103C60.688 44.282 60.2116 44.8863 59.5398 44.9659L39.226 47.3705C38.5543 47.4501 37.95 46.9737 37.8704 46.3019Z" fill="url(#paint18_linear_7619_1078)"/>
<path d="M37.8704 46.3019L34.7501 19.9421L57.4881 17.2505L60.6085 43.6103C60.688 44.282 60.2116 44.8863 59.5398 44.9659L39.226 47.3705C38.5543 47.4501 37.95 46.9737 37.8704 46.3019Z" fill="url(#paint19_radial_7619_1078)"/>
<path d="M37.8704 46.3019L34.7501 19.9421L57.4881 17.2505L60.6085 43.6103C60.688 44.282 60.2116 44.8863 59.5398 44.9659L39.226 47.3705C38.5543 47.4501 37.95 46.9737 37.8704 46.3019Z" fill="url(#paint20_linear_7619_1078)"/>
<path d="M37.8704 46.3019L34.7501 19.9421L57.4881 17.2505L60.6085 43.6103C60.688 44.282 60.2116 44.8863 59.5398 44.9659L39.226 47.3705C38.5543 47.4501 37.95 46.9737 37.8704 46.3019Z" fill="url(#paint21_radial_7619_1078)"/>
<path d="M37.8704 46.3019L34.7501 19.9421L57.4881 17.2505L60.6085 43.6103C60.688 44.282 60.2116 44.8863 59.5398 44.9659L39.226 47.3705C38.5543 47.4501 37.95 46.9737 37.8704 46.3019Z" fill="url(#paint22_radial_7619_1078)"/>
<path d="M44.5125 42.4947C43.7093 42.5898 42.9744 42.0104 42.8793 41.2072L41.0849 26.0485C40.9898 25.2453 41.5692 24.5103 42.3724 24.4153C43.1756 24.3202 43.9105 24.8996 44.0056 25.7028L45.8 40.8615C45.8951 41.6647 45.3157 42.3996 44.5125 42.4947Z" fill="url(#paint23_linear_7619_1078)"/>
<path d="M53.275 41.4571C52.4718 41.5522 51.7368 40.9728 51.6417 40.1696L49.8473 25.0109C49.7522 24.2077 50.3316 23.4727 51.1348 23.3777C51.938 23.2826 52.673 23.862 52.768 24.6652L54.5625 39.8239C54.6575 40.6271 54.0782 41.362 53.275 41.4571Z" fill="url(#paint24_linear_7619_1078)"/>
<path d="M56.16 35.4297C56.6278 35.3743 56.9622 34.9502 56.9068 34.4824C56.8514 34.0146 56.4273 33.6803 55.9595 33.7357C55.4917 33.791 55.1574 34.2152 55.2128 34.683C55.2681 35.1508 55.6922 35.4851 56.16 35.4297Z" fill="url(#paint25_radial_7619_1078)"/>
<path d="M47.0036 28.8867C47.4714 28.8314 47.8058 28.4072 47.7504 27.9395C47.695 27.4717 47.2709 27.1373 46.8031 27.1927C46.3353 27.2481 46.001 27.6722 46.0564 28.14C46.1117 28.6078 46.5358 28.9421 47.0036 28.8867Z" fill="url(#paint26_radial_7619_1078)"/>
<path d="M52.4857 14.8958C52.0051 10.8359 48.3157 7.94076 44.2447 8.45229C40.2175 8.95863 37.3859 12.6849 37.8648 16.7302L38.7378 24.1051C38.9764 26.1204 40.8073 27.577 42.8373 27.3367C44.8526 27.0981 46.3092 25.2672 46.0689 23.2373L45.7819 20.813C45.6273 19.6319 46.477 18.5539 47.6599 18.4139L52.2309 17.8728C52.5198 16.9353 52.6084 15.9326 52.4857 14.8958Z" fill="#BCBBBC"/>
<path d="M52.4857 14.8958C52.0051 10.8359 48.3157 7.94076 44.2447 8.45229C40.2175 8.95863 37.3859 12.6849 37.8648 16.7302L38.7378 24.1051C38.9764 26.1204 40.8073 27.577 42.8373 27.3367C44.8526 27.0981 46.3092 25.2672 46.0689 23.2373L45.7819 20.813C45.6273 19.6319 46.477 18.5539 47.6599 18.4139L52.2309 17.8728C52.5198 16.9353 52.6084 15.9326 52.4857 14.8958Z" fill="url(#paint27_radial_7619_1078)"/>
<path d="M52.4857 14.8958C52.0051 10.8359 48.3157 7.94076 44.2447 8.45229C40.2175 8.95863 37.3859 12.6849 37.8648 16.7302L38.7378 24.1051C38.9764 26.1204 40.8073 27.577 42.8373 27.3367C44.8526 27.0981 46.3092 25.2672 46.0689 23.2373L45.7819 20.813C45.6273 19.6319 46.477 18.5539 47.6599 18.4139L52.2309 17.8728C52.5198 16.9353 52.6084 15.9326 52.4857 14.8958Z" fill="url(#paint28_radial_7619_1078)"/>
<path d="M52.4857 14.8958C52.0051 10.8359 48.3157 7.94076 44.2447 8.45229C40.2175 8.95863 37.3859 12.6849 37.8648 16.7302L38.7378 24.1051C38.9764 26.1204 40.8073 27.577 42.8373 27.3367C44.8526 27.0981 46.3092 25.2672 46.0689 23.2373L45.7819 20.813C45.6273 19.6319 46.477 18.5539 47.6599 18.4139L52.2309 17.8728C52.5198 16.9353 52.6084 15.9326 52.4857 14.8958Z" fill="url(#paint29_radial_7619_1078)"/>
<path d="M52.4857 14.8958C52.0051 10.8359 48.3157 7.94076 44.2447 8.45229C40.2175 8.95863 37.3859 12.6849 37.8648 16.7302L38.7378 24.1051C38.9764 26.1204 40.8073 27.577 42.8373 27.3367C44.8526 27.0981 46.3092 25.2672 46.0689 23.2373L45.7819 20.813C45.6273 19.6319 46.477 18.5539 47.6599 18.4139L52.2309 17.8728C52.5198 16.9353 52.6084 15.9326 52.4857 14.8958Z" fill="url(#paint30_radial_7619_1078)"/>
<path d="M54.6492 22.6659C55.3267 22.5857 55.8109 21.9714 55.7307 21.294C55.6505 20.6165 55.0363 20.1323 54.3588 20.2125C53.6813 20.2927 53.1971 20.9069 53.2773 21.5844C53.3575 22.2619 53.9717 22.7461 54.6492 22.6659Z" fill="url(#paint31_radial_7619_1078)"/>
<path d="M22.2818 44.7798C18.7088 44.3568 16.1552 41.1175 16.5782 37.5445C17.0012 33.9715 20.2405 31.4179 23.8135 31.8409C27.3865 32.2638 29.9401 35.5032 29.5171 39.0762C29.0942 42.6491 25.8548 45.2027 22.2818 44.7798Z" fill="url(#paint32_radial_7619_1078)"/>
<path d="M38.5941 46.7107C35.0211 46.2877 32.4675 43.0484 32.8905 39.4754C33.3134 35.9024 36.5528 33.3488 40.1258 33.7718C43.6987 34.1947 46.2523 37.4341 45.8294 41.0071C45.4064 44.58 42.1671 47.1337 38.5941 46.7107Z" fill="url(#paint33_radial_7619_1078)"/>
<path d="M16.9113 41.3596L12.5302 40.841L11.5407 42.9451L12.0116 45.2221L16.3927 45.7407L16.9113 41.3596Z" fill="#D9D9D9"/>
<path d="M16.9113 41.3596L12.5302 40.841L11.5407 42.9451L12.0116 45.2221L16.3927 45.7407L16.9113 41.3596Z" fill="url(#paint34_linear_7619_1078)"/>
<path d="M15.0097 57.4236L10.6286 56.905L9.63908 59.0091L10.11 61.2861L14.4911 61.8047L15.0097 57.4236Z" fill="url(#paint35_linear_7619_1078)"/>
<path d="M6.81395 45.3471L5.60384 55.5698L7.70796 56.5593L9.98496 56.0884L11.1951 45.8658L9.09095 44.8763L6.81395 45.3471Z" fill="url(#paint36_linear_7619_1078)"/>
<path fill-rule="evenodd" clip-rule="evenodd" d="M12.53 40.8413C9.7071 40.5071 7.14779 42.5247 6.81363 45.3476L11.1948 45.8662C11.2427 45.4631 11.6082 45.175 12.0114 45.2226L12.53 40.8413Z" fill="url(#paint37_radial_7619_1078)"/>
<path fill-rule="evenodd" clip-rule="evenodd" d="M5.60376 55.5701C5.2696 58.393 7.28712 60.9523 10.11 61.2864L10.6286 56.9056C10.6285 56.9056 10.6283 56.9056 10.6282 56.9056C10.2249 56.8578 9.93671 56.4922 9.98445 56.0889C9.98446 56.0888 9.98447 56.0887 9.98448 56.0886L5.60376 55.5701Z" fill="url(#paint38_radial_7619_1078)"/>
<path d="M45.7291 41.8538L42.6122 68.1843C42.3252 70.6086 40.0782 72.3269 37.6102 72.0347L17.3256 69.6335C14.8576 69.3414 13.0756 67.1313 13.3609 64.7217L16.4778 38.3911L45.7291 41.8538Z" fill="#C7EDFF"/>
<path d="M45.7291 41.8538L42.6122 68.1843C42.3252 70.6086 40.0782 72.3269 37.6102 72.0347L17.3256 69.6335C14.8576 69.3414 13.0756 67.1313 13.3609 64.7217L16.4778 38.3911L45.7291 41.8538Z" fill="url(#paint39_radial_7619_1078)"/>
<path d="M45.7291 41.8538L42.6122 68.1843C42.3252 70.6086 40.0782 72.3269 37.6102 72.0347L17.3256 69.6335C14.8576 69.3414 13.0756 67.1313 13.3609 64.7217L16.4778 38.3911L45.7291 41.8538Z" fill="url(#paint40_radial_7619_1078)"/>
<path d="M45.7291 41.8538L42.6122 68.1843C42.3252 70.6086 40.0782 72.3269 37.6102 72.0347L17.3256 69.6335C14.8576 69.3414 13.0756 67.1313 13.3609 64.7217L16.4778 38.3911L45.7291 41.8538Z" fill="url(#paint41_radial_7619_1078)"/>
<path d="M45.7291 41.8538L42.6122 68.1843C42.3252 70.6086 40.0782 72.3269 37.6102 72.0347L17.3256 69.6335C14.8576 69.3414 13.0756 67.1313 13.3609 64.7217L16.4778 38.3911L45.7291 41.8538Z" fill="url(#paint42_radial_7619_1078)"/>
<path d="M45.7291 41.8538L42.6122 68.1843C42.3252 70.6086 40.0782 72.3269 37.6102 72.0347L17.3256 69.6335C14.8576 69.3414 13.0756 67.1313 13.3609 64.7217L16.4778 38.3911L45.7291 41.8538Z" fill="url(#paint43_linear_7619_1078)"/>
<path d="M45.7291 41.8538L42.6122 68.1843C42.3252 70.6086 40.0782 72.3269 37.6102 72.0347L17.3256 69.6335C14.8576 69.3414 13.0756 67.1313 13.3609 64.7217L16.4778 38.3911L45.7291 41.8538Z" fill="url(#paint44_linear_7619_1078)"/>
<path d="M16.642 65.1187L19.709 38.7527L42.4525 41.3983L39.3854 67.7644C39.3073 68.4363 38.7039 68.9139 38.032 68.8357L17.7134 66.4722C17.0414 66.394 16.5638 65.7907 16.642 65.1187Z" fill="url(#paint45_linear_7619_1078)"/>
<path d="M16.642 65.1187L19.709 38.7527L42.4525 41.3983L39.3854 67.7644C39.3073 68.4363 38.7039 68.9139 38.032 68.8357L17.7134 66.4722C17.0414 66.394 16.5638 65.7907 16.642 65.1187Z" fill="url(#paint46_radial_7619_1078)"/>
<path d="M16.642 65.1187L19.709 38.7527L42.4525 41.3983L39.3854 67.7644C39.3073 68.4363 38.7039 68.9139 38.032 68.8357L17.7134 66.4722C17.0414 66.394 16.5638 65.7907 16.642 65.1187Z" fill="url(#paint47_linear_7619_1078)"/>
<path d="M16.642 65.1187L19.709 38.7527L42.4525 41.3983L39.3854 67.7644C39.3073 68.4363 38.7039 68.9139 38.032 68.8357L17.7134 66.4722C17.0414 66.394 16.5638 65.7907 16.642 65.1187Z" fill="url(#paint48_radial_7619_1078)"/>
<path d="M32.7149 63.9774C33.5181 64.0725 34.2531 63.4931 34.3482 62.6899L36.1426 47.5312C36.2377 46.728 35.6583 45.993 34.8551 45.8979C34.0519 45.8028 33.3169 46.3822 33.2219 47.1854L31.4274 62.3441C31.3324 63.1473 31.9117 63.8823 32.7149 63.9774Z" fill="url(#paint49_linear_7619_1078)"/>
<path d="M23.9525 62.9403C24.7557 63.0353 25.4907 62.456 25.5858 61.6528L27.3802 46.4941C27.4753 45.6909 26.8959 44.9559 26.0927 44.8608C25.2895 44.7657 24.5545 45.3451 24.4594 46.1483L22.665 61.307C22.5699 62.1102 23.1493 62.8452 23.9525 62.9403Z" fill="url(#paint50_linear_7619_1078)"/>
<path d="M21.0674 56.9121C20.5996 56.8568 20.2653 56.4326 20.3207 55.9648C20.3761 55.497 20.8002 55.1627 21.268 55.2181C21.7358 55.2735 22.0701 55.6976 22.0147 56.1654C21.9593 56.6332 21.5352 56.9675 21.0674 56.9121Z" fill="url(#paint51_radial_7619_1078)"/>
<path d="M30.2238 50.3699C29.756 50.3145 29.4217 49.8904 29.4771 49.4226C29.5325 48.9548 29.9566 48.6205 30.4244 48.6759C30.8922 48.7312 31.2265 49.1553 31.1711 49.6231C31.1158 50.0909 30.6916 50.4253 30.2238 50.3699Z" fill="url(#paint52_radial_7619_1078)"/>
<path d="M24.742 36.3782C25.2226 32.3183 28.912 29.4232 32.983 29.9347C37.0102 30.4411 39.8418 34.1674 39.3629 38.2126L38.4899 45.5875C38.2513 47.6028 36.4204 49.0594 34.3904 48.8191C32.3751 48.5806 30.9185 46.7496 31.1588 44.7197L31.4458 42.2955C31.6004 41.1143 30.7507 40.0363 29.5677 39.8963L24.9968 39.3552C24.7079 38.4177 24.6193 37.415 24.742 36.3782Z" fill="#BCBBBC"/>
<path d="M24.742 36.3782C25.2226 32.3183 28.912 29.4232 32.983 29.9347C37.0102 30.4411 39.8418 34.1674 39.3629 38.2126L38.4899 45.5875C38.2513 47.6028 36.4204 49.0594 34.3904 48.8191C32.3751 48.5806 30.9185 46.7496 31.1588 44.7197L31.4458 42.2955C31.6004 41.1143 30.7507 40.0363 29.5677 39.8963L24.9968 39.3552C24.7079 38.4177 24.6193 37.415 24.742 36.3782Z" fill="url(#paint53_radial_7619_1078)"/>
<path d="M24.742 36.3782C25.2226 32.3183 28.912 29.4232 32.983 29.9347C37.0102 30.4411 39.8418 34.1674 39.3629 38.2126L38.4899 45.5875C38.2513 47.6028 36.4204 49.0594 34.3904 48.8191C32.3751 48.5806 30.9185 46.7496 31.1588 44.7197L31.4458 42.2955C31.6004 41.1143 30.7507 40.0363 29.5677 39.8963L24.9968 39.3552C24.7079 38.4177 24.6193 37.415 24.742 36.3782Z" fill="url(#paint54_radial_7619_1078)"/>
<path d="M24.742 36.3782C25.2226 32.3183 28.912 29.4232 32.983 29.9347C37.0102 30.4411 39.8418 34.1674 39.3629 38.2126L38.4899 45.5875C38.2513 47.6028 36.4204 49.0594 34.3904 48.8191C32.3751 48.5806 30.9185 46.7496 31.1588 44.7197L31.4458 42.2955C31.6004 41.1143 30.7507 40.0363 29.5677 39.8963L24.9968 39.3552C24.7079 38.4177 24.6193 37.415 24.742 36.3782Z" fill="url(#paint55_radial_7619_1078)"/>
<path d="M22.5783 44.1485C21.9008 44.0683 21.4166 43.4541 21.4968 42.7766C21.577 42.0991 22.1912 41.6149 22.8687 41.6951C23.5462 41.7753 24.0304 42.3896 23.9502 43.067C23.87 43.7445 23.2558 44.2287 22.5783 44.1485Z" fill="url(#paint56_radial_7619_1078)"/>
<path d="M26.9261 27.0982C28.2523 27.0982 29.3274 26.0231 29.3274 24.6969C29.3274 23.3707 28.2523 22.2957 26.9261 22.2957C25.6 22.2957 24.5249 23.3707 24.5249 24.6969C24.5249 26.0231 25.6 27.0982 26.9261 27.0982Z" fill="url(#paint57_radial_7619_1078)"/>
<path d="M19.7698 19.9898C21.096 19.9898 22.1711 18.9147 22.1711 17.5885C22.1711 16.2623 21.096 15.1873 19.7698 15.1873C18.4436 15.1873 17.3686 16.2623 17.3686 17.5885C17.3686 18.9147 18.4436 19.9898 19.7698 19.9898Z" fill="url(#paint58_radial_7619_1078)"/>
<defs>
<radialGradient id="paint0_radial_7619_1078" cx="0" cy="0" r="1" gradientUnits="userSpaceOnUse" gradientTransform="translate(58.5931 13.1397) rotate(106.664) scale(12.1193 12.1193)">
<stop stop-color="#F6F5F7"/>
<stop offset="0.33476" stop-color="#EDEBEF"/>
<stop offset="0.906688" stop-color="#BAB9BB"/>
</radialGradient>
<radialGradient id="paint1_radial_7619_1078" cx="0" cy="0" r="1" gradientUnits="userSpaceOnUse" gradientTransform="translate(39.0401 16.8425) rotate(92.3868) scale(8.75066 8.75066)">
<stop offset="0.348299" stop-color="#E8E5EC"/>
<stop offset="0.906688" stop-color="#BAB9BB"/>
</radialGradient>
<linearGradient id="paint2_linear_7619_1078" x1="63.0253" y1="23.9988" x2="62.5067" y2="19.6176" gradientUnits="userSpaceOnUse">
<stop stop-color="#BDD9F5"/>
<stop offset="0.231242" stop-color="#C7EDFF"/>
<stop offset="0.736527" stop-color="#C7EDFF"/>
<stop offset="1" stop-color="#BDD9F5"/>
</linearGradient>
<linearGradient id="paint3_linear_7619_1078" x1="64.927" y1="40.0627" x2="64.4083" y2="35.6816" gradientUnits="userSpaceOnUse">
<stop stop-color="#BDD9F5"/>
<stop offset="0.247973" stop-color="#C7EDFF"/>
<stop offset="0.747313" stop-color="#C7EDFF"/>
<stop offset="1" stop-color="#BDD9F5"/>
</linearGradient>
<linearGradient id="paint4_linear_7619_1078" x1="66.6375" y1="29.4944" x2="71.0186" y2="28.9758" gradientUnits="userSpaceOnUse">
<stop stop-color="#BDD9F5"/>
<stop offset="0.248182" stop-color="#C7EDFF"/>
<stop offset="0.765355" stop-color="#C7EDFF"/>
<stop offset="1" stop-color="#BDD9F5"/>
</linearGradient>
<radialGradient id="paint5_radial_7619_1078" cx="0" cy="0" r="1" gradientUnits="userSpaceOnUse" gradientTransform="translate(65.3025 24.47) rotate(-51.751) scale(7.27896)">
<stop offset="0.0920759" stop-color="#BDD9F5"/>
<stop offset="0.251514" stop-color="#C7EDFF"/>
<stop offset="0.550863" stop-color="#C7EDFF"/>
<stop offset="0.709349" stop-color="#BDD9F5"/>
</radialGradient>
<radialGradient id="paint6_radial_7619_1078" cx="0" cy="0" r="1" gradientUnits="userSpaceOnUse" gradientTransform="translate(68.8366 20.817) rotate(117.89) scale(1.61964)">
<stop stop-color="white" stop-opacity="0.5"/>
<stop offset="1" stop-color="white" stop-opacity="0"/>
</radialGradient>
<radialGradient id="paint7_radial_7619_1078" cx="0" cy="0" r="1" gradientUnits="userSpaceOnUse" gradientTransform="translate(66.4851 23.416) rotate(124.204) scale(0.806268)">
<stop stop-color="white" stop-opacity="0.5"/>
<stop offset="1" stop-color="white" stop-opacity="0"/>
</radialGradient>
<radialGradient id="paint8_radial_7619_1078" cx="0" cy="0" r="1" gradientUnits="userSpaceOnUse" gradientTransform="translate(66.5126 34.6922) rotate(38.2489) scale(7.27896 7.27896)">
<stop offset="0.0920759" stop-color="#BDD9F5"/>
<stop offset="0.264526" stop-color="#C7EDFF"/>
<stop offset="0.557506" stop-color="#C7EDFF"/>
<stop offset="0.709349" stop-color="#BDD9F5"/>
</radialGradient>
<radialGradient id="paint9_radial_7619_1078" cx="0" cy="0" r="1" gradientUnits="userSpaceOnUse" gradientTransform="translate(69.2829 26.6871) rotate(90) scale(5.41956 0.750604)">
<stop stop-color="white" stop-opacity="0.4"/>
<stop offset="1" stop-color="white" stop-opacity="0"/>
</radialGradient>
<radialGradient id="paint10_radial_7619_1078" cx="0" cy="0" r="1" gradientUnits="userSpaceOnUse" gradientTransform="translate(67.4863 28.9282) rotate(90) scale(5.41956 0.429073)">
<stop stop-color="white" stop-opacity="0.2"/>
<stop offset="1" stop-color="white" stop-opacity="0"/>
</radialGradient>
<radialGradient id="paint11_radial_7619_1078" cx="0" cy="0" r="1" gradientUnits="userSpaceOnUse" gradientTransform="translate(36.2978 49.6695) rotate(-53.571) scale(4.35069 3.62584)">
<stop offset="0.188389" stop-color="#BDD9F5"/>
<stop offset="1" stop-color="#C7EDFF" stop-opacity="0"/>
</radialGradient>
<radialGradient id="paint12_radial_7619_1078" cx="0" cy="0" r="1" gradientUnits="userSpaceOnUse" gradientTransform="translate(63.001 46.0752) rotate(-141.751) scale(4.06192 3.38518)">
<stop offset="0.12" stop-color="#BDD9F5"/>
<stop offset="1" stop-color="#C7EDFF" stop-opacity="0"/>
</radialGradient>
<radialGradient id="paint13_radial_7619_1078" cx="0" cy="0" r="1" gradientUnits="userSpaceOnUse" gradientTransform="translate(38.3798 46.8054) rotate(-51.751) scale(3.12814)">
<stop offset="0.744955" stop-color="#C7EDFF"/>
<stop offset="1" stop-color="#C7EDFF" stop-opacity="0"/>
</radialGradient>
<radialGradient id="paint14_radial_7619_1078" cx="0" cy="0" r="1" gradientUnits="userSpaceOnUse" gradientTransform="translate(60.5418 44.2608) rotate(-141.751) scale(3.21704)">
<stop offset="0.646465" stop-color="#C7EDFF"/>
<stop offset="1" stop-color="#C7EDFF" stop-opacity="0"/>
</radialGradient>
<linearGradient id="paint15_linear_7619_1078" x1="49.7596" y1="49.3515" x2="46.1241" y2="18.6398" gradientUnits="userSpaceOnUse">
<stop stop-color="#BDD9F5"/>
<stop offset="0.0327023" stop-color="#BDD9F5" stop-opacity="0"/>
<stop offset="0.967237" stop-color="#BDD9F5" stop-opacity="0"/>
<stop offset="1" stop-color="#BDD9F5"/>
</linearGradient>
<linearGradient id="paint16_linear_7619_1078" x1="33.3162" y1="35.7269" x2="62.5675" y2="32.2643" gradientUnits="userSpaceOnUse">
<stop stop-color="#BDD9F5"/>
<stop offset="0.0327023" stop-color="#BDD9F5" stop-opacity="0"/>
<stop offset="0.967237" stop-color="#BDD9F5" stop-opacity="0"/>
<stop offset="1" stop-color="#BDD9F5"/>
</linearGradient>
<linearGradient id="paint17_linear_7619_1078" x1="36.2495" y1="35.815" x2="59.3618" y2="33.0791" gradientUnits="userSpaceOnUse">
<stop stop-color="#BE986C"/>
<stop offset="0.0845946" stop-color="#CD9658"/>
<stop offset="0.262305" stop-color="#DD9642"/>
<stop offset="0.491354" stop-color="#F8A369"/>
<stop offset="0.582184" stop-color="#FFAE78"/>
<stop offset="0.878368" stop-color="#FFCF86"/>
<stop offset="1" stop-color="#F5BF7F"/>
</linearGradient>
<linearGradient id="paint18_linear_7619_1078" x1="46.8529" y1="39.0559" x2="59.8867" y2="37.513" gradientUnits="userSpaceOnUse">
<stop offset="0.0991736" stop-color="#F9A27C" stop-opacity="0"/>
<stop offset="0.330579" stop-color="#FBA582"/>
<stop offset="0.581234" stop-color="#FFBE9F"/>
<stop offset="0.875352" stop-color="#FFC990"/>
<stop offset="1" stop-color="#EBAE82"/>
</linearGradient>
<radialGradient id="paint19_radial_7619_1078" cx="0" cy="0" r="1" gradientUnits="userSpaceOnUse" gradientTransform="translate(42.7549 45.0942) rotate(83.249) scale(21.3233 14.3838)">
<stop offset="0.0769231" stop-color="#BF634C"/>
<stop offset="1" stop-color="#F09771" stop-opacity="0"/>
</radialGradient>
<linearGradient id="paint20_linear_7619_1078" x1="49.1984" y1="44.6091" x2="49.3829" y2="46.1682" gradientUnits="userSpaceOnUse">
<stop stop-color="#DA6788" stop-opacity="0"/>
<stop offset="1" stop-color="#D567AB"/>
</linearGradient>
<radialGradient id="paint21_radial_7619_1078" cx="0" cy="0" r="1" gradientUnits="userSpaceOnUse" gradientTransform="translate(50.9634 20.6142) rotate(83.249) scale(14.5219 20.4042)">
<stop offset="0.134409" stop-color="#FFF09E"/>
<stop offset="0.411919" stop-color="#FFD57F"/>
<stop offset="0.908108" stop-color="#E9A442" stop-opacity="0"/>
</radialGradient>
<radialGradient id="paint22_radial_7619_1078" cx="0" cy="0" r="1" gradientUnits="userSpaceOnUse" gradientTransform="translate(53.5332 25.1227) rotate(83.249) scale(17.7388 6.59554)">
<stop offset="0.0777202" stop-color="#FFF29A"/>
<stop offset="1" stop-color="#FFE492" stop-opacity="0"/>
</radialGradient>
<linearGradient id="paint23_linear_7619_1078" x1="42.3724" y1="24.4153" x2="44.5125" y2="42.4947" gradientUnits="userSpaceOnUse">
<stop offset="0.120749" stop-color="#FEB861"/>
<stop offset="0.383269" stop-color="#F6B56F"/>
<stop offset="1" stop-color="#F2C3AA"/>
</linearGradient>
<linearGradient id="paint24_linear_7619_1078" x1="51.1348" y1="23.3777" x2="53.275" y2="41.4571" gradientUnits="userSpaceOnUse">
<stop stop-color="#FFF19E"/>
<stop offset="0.272203" stop-color="#FFECAA"/>
<stop offset="0.570062" stop-color="#FFEABC"/>
<stop offset="1" stop-color="#FFE8CE"/>
</linearGradient>
<radialGradient id="paint25_radial_7619_1078" cx="0" cy="0" r="1" gradientUnits="userSpaceOnUse" gradientTransform="translate(56.4515 34.2205) rotate(114.146) scale(1.35947)">
<stop offset="0.0766474" stop-color="#FFC579"/>
<stop offset="0.736795" stop-color="#FFA672"/>
</radialGradient>
<radialGradient id="paint26_radial_7619_1078" cx="0" cy="0" r="1" gradientUnits="userSpaceOnUse" gradientTransform="translate(47.2951 27.6775) rotate(114.146) scale(1.35947)">
<stop offset="0.0766474" stop-color="#FFD96C"/>
<stop offset="1" stop-color="#F3A857"/>
</radialGradient>
<radialGradient id="paint27_radial_7619_1078" cx="0" cy="0" r="1" gradientUnits="userSpaceOnUse" gradientTransform="translate(48.7721 12.2661) rotate(48.2569) scale(13.463 17.3181)">
<stop stop-color="#F8F7F9"/>
<stop offset="0.428446" stop-color="#E2DBE9"/>
<stop offset="0.593435" stop-color="#D2C9DB"/>
<stop offset="0.750985" stop-color="#D7D2DC" stop-opacity="0"/>
</radialGradient>
<radialGradient id="paint28_radial_7619_1078" cx="0" cy="0" r="1" gradientUnits="userSpaceOnUse" gradientTransform="translate(46.1722 24.2355) rotate(83.249) scale(11.7646 8.23524)">
<stop offset="0.27907" stop-color="#FFF7FF"/>
<stop offset="1" stop-color="#D1C8DC" stop-opacity="0"/>
</radialGradient>
<radialGradient id="paint29_radial_7619_1078" cx="0" cy="0" r="1" gradientUnits="userSpaceOnUse" gradientTransform="translate(48.6637 18.3874) rotate(83.249) scale(0.873153 7.53668)">
<stop offset="0.157894" stop-color="#D7BEE2"/>
<stop offset="1" stop-color="#D7BEE1" stop-opacity="0"/>
</radialGradient>
<radialGradient id="paint30_radial_7619_1078" cx="0" cy="0" r="1" gradientUnits="userSpaceOnUse" gradientTransform="translate(42.965 27.3216) rotate(83.249) scale(4.29755 5.67276)">
<stop stop-color="#D2BBE5"/>
<stop offset="1" stop-color="#D1BEE5" stop-opacity="0"/>
</radialGradient>
<radialGradient id="paint31_radial_7619_1078" cx="0" cy="0" r="1" gradientUnits="userSpaceOnUse" gradientTransform="translate(55.0713 20.9146) rotate(114.146) scale(1.96889 1.96889)">
<stop offset="0.0766474" stop-color="#FFE57B"/>
<stop offset="0.736795" stop-color="#FFC56D"/>
</radialGradient>
<radialGradient id="paint32_radial_7619_1078" cx="0" cy="0" r="1" gradientUnits="userSpaceOnUse" gradientTransform="translate(27.2584 32.3948) rotate(145.008) scale(12.6986 12.6986)">
<stop stop-color="#F6F5F7"/>
<stop offset="0.33476" stop-color="#EDEBEF"/>
<stop offset="0.906688" stop-color="#BAB9BB"/>
</radialGradient>
<radialGradient id="paint33_radial_7619_1078" cx="0" cy="0" r="1" gradientUnits="userSpaceOnUse" gradientTransform="translate(45.4001 33.006) rotate(115.966) scale(15.6412 15.6412)">
<stop offset="0.348299" stop-color="#E8E5EC"/>
<stop offset="0.906688" stop-color="#BAB9BB"/>
</radialGradient>
<linearGradient id="paint34_linear_7619_1078" x1="14.2021" y1="45.4814" x2="14.7208" y2="41.1003" gradientUnits="userSpaceOnUse">
<stop stop-color="#BDD9F5"/>
<stop offset="0.231242" stop-color="#C7EDFF"/>
<stop offset="0.736527" stop-color="#C7EDFF"/>
<stop offset="1" stop-color="#BDD9F5"/>
</linearGradient>
<linearGradient id="paint35_linear_7619_1078" x1="12.3005" y1="61.5454" x2="12.8191" y2="57.1643" gradientUnits="userSpaceOnUse">
<stop stop-color="#BDD9F5"/>
<stop offset="0.247973" stop-color="#C7EDFF"/>
<stop offset="0.747313" stop-color="#C7EDFF"/>
<stop offset="1" stop-color="#BDD9F5"/>
</linearGradient>
<linearGradient id="paint36_linear_7619_1078" x1="10.59" y1="50.9771" x2="6.2089" y2="50.4584" gradientUnits="userSpaceOnUse">
<stop stop-color="#BDD9F5"/>
<stop offset="0.248182" stop-color="#C7EDFF"/>
<stop offset="0.765355" stop-color="#C7EDFF"/>
<stop offset="1" stop-color="#BDD9F5"/>
</linearGradient>
<radialGradient id="paint37_radial_7619_1078" cx="0" cy="0" r="1" gradientUnits="userSpaceOnUse" gradientTransform="translate(11.9249 45.9526) rotate(-128.249) scale(7.27896)">
<stop offset="0.0920759" stop-color="#BDD9F5"/>
<stop offset="0.251514" stop-color="#C7EDFF"/>
<stop offset="0.550863" stop-color="#C7EDFF"/>
<stop offset="0.709349" stop-color="#BDD9F5"/>
</radialGradient>
<radialGradient id="paint38_radial_7619_1078" cx="0" cy="0" r="1" gradientUnits="userSpaceOnUse" gradientTransform="translate(10.7151 56.1751) rotate(141.751) scale(7.27896)">
<stop offset="0.0920759" stop-color="#BDD9F5"/>
<stop offset="0.264526" stop-color="#C7EDFF"/>
<stop offset="0.557506" stop-color="#C7EDFF"/>
<stop offset="0.709349" stop-color="#BDD9F5"/>
</radialGradient>
<radialGradient id="paint39_radial_7619_1078" cx="0" cy="0" r="1" gradientUnits="userSpaceOnUse" gradientTransform="translate(40.9296 71.1522) rotate(-126.429) scale(4.35069 3.62584)">
<stop offset="0.188389" stop-color="#BDD9F5"/>
<stop offset="1" stop-color="#C7EDFF" stop-opacity="0"/>
</radialGradient>
<radialGradient id="paint40_radial_7619_1078" cx="0" cy="0" r="1" gradientUnits="userSpaceOnUse" gradientTransform="translate(14.2264 67.5579) rotate(-38.249) scale(4.06192 3.38518)">
<stop offset="0.12" stop-color="#BDD9F5"/>
<stop offset="1" stop-color="#C7EDFF" stop-opacity="0"/>
</radialGradient>
<radialGradient id="paint41_radial_7619_1078" cx="0" cy="0" r="1" gradientUnits="userSpaceOnUse" gradientTransform="translate(38.8477 68.288) rotate(-128.249) scale(3.12814)">
<stop offset="0.744955" stop-color="#C7EDFF"/>
<stop offset="1" stop-color="#C7EDFF" stop-opacity="0"/>
</radialGradient>
<radialGradient id="paint42_radial_7619_1078" cx="0" cy="0" r="1" gradientUnits="userSpaceOnUse" gradientTransform="translate(16.6856 65.7435) rotate(-38.249) scale(3.21704)">
<stop offset="0.646465" stop-color="#C7EDFF"/>
<stop offset="1" stop-color="#C7EDFF" stop-opacity="0"/>
</radialGradient>
<linearGradient id="paint43_linear_7619_1078" x1="27.4679" y1="70.8341" x2="31.1034" y2="40.1224" gradientUnits="userSpaceOnUse">
<stop stop-color="#BDD9F5"/>
<stop offset="0.0327023" stop-color="#BDD9F5" stop-opacity="0"/>
<stop offset="0.967237" stop-color="#BDD9F5" stop-opacity="0"/>
<stop offset="1" stop-color="#BDD9F5"/>
</linearGradient>
<linearGradient id="paint44_linear_7619_1078" x1="43.9113" y1="57.2096" x2="14.66" y2="53.7469" gradientUnits="userSpaceOnUse">
<stop stop-color="#BDD9F5"/>
<stop offset="0.0327023" stop-color="#BDD9F5" stop-opacity="0"/>
<stop offset="0.967237" stop-color="#BDD9F5" stop-opacity="0"/>
<stop offset="1" stop-color="#BDD9F5"/>
</linearGradient>
<linearGradient id="paint45_linear_7619_1078" x1="17.493" y1="54.5415" x2="40.6108" y2="57.2307" gradientUnits="userSpaceOnUse">
<stop stop-color="#BE986C"/>
<stop offset="0.0845946" stop-color="#CD9658"/>
<stop offset="0.262305" stop-color="#DD9642"/>
<stop offset="0.491354" stop-color="#F8A369"/>
<stop offset="0.582184" stop-color="#FFAE78"/>
<stop offset="0.878368" stop-color="#FFCF86"/>
<stop offset="1" stop-color="#F5BF7F"/>
</linearGradient>
<radialGradient id="paint46_radial_7619_1078" cx="0" cy="0" r="1" gradientUnits="userSpaceOnUse" gradientTransform="translate(21.6734 65.0746) rotate(96.6351) scale(21.3233 14.3838)">
<stop offset="0.0769231" stop-color="#BF634C"/>
<stop offset="1" stop-color="#F09771" stop-opacity="0"/>
</radialGradient>
<linearGradient id="paint47_linear_7619_1078" x1="28.0541" y1="66.0944" x2="27.8727" y2="67.6539" gradientUnits="userSpaceOnUse">
<stop stop-color="#DA6788" stop-opacity="0"/>
<stop offset="1" stop-color="#D567AB"/>
</linearGradient>
<radialGradient id="paint48_radial_7619_1078" cx="0" cy="0" r="1" gradientUnits="userSpaceOnUse" gradientTransform="translate(35.3263 43.16) rotate(96.6351) scale(14.5219 20.4042)">
<stop offset="0.134409" stop-color="#FFF09E"/>
<stop offset="0.411919" stop-color="#FFD57F"/>
<stop offset="0.908108" stop-color="#E9A442" stop-opacity="0"/>
</radialGradient>
<linearGradient id="paint49_linear_7619_1078" x1="34.8551" y1="45.8979" x2="32.7149" y2="63.9774" gradientUnits="userSpaceOnUse">
<stop stop-color="white" stop-opacity="0"/>
<stop offset="1" stop-color="white" stop-opacity="0.7"/>
</linearGradient>
<linearGradient id="paint50_linear_7619_1078" x1="26.0927" y1="44.8608" x2="23.9525" y2="62.9403" gradientUnits="userSpaceOnUse">
<stop stop-color="white" stop-opacity="0"/>
<stop offset="1" stop-color="white" stop-opacity="0.7"/>
</linearGradient>
<radialGradient id="paint51_radial_7619_1078" cx="0" cy="0" r="1" gradientUnits="userSpaceOnUse" gradientTransform="translate(20.776 55.7029) rotate(65.854) scale(1.35947)">
<stop offset="0.0766474" stop-color="#FFC579"/>
<stop offset="0.736795" stop-color="#FFA672"/>
</radialGradient>
<radialGradient id="paint52_radial_7619_1078" cx="0" cy="0" r="1" gradientUnits="userSpaceOnUse" gradientTransform="translate(29.9324 49.1607) rotate(65.8541) scale(1.35947 1.35947)">
<stop offset="0.0766474" stop-color="#FFD96C"/>
<stop offset="1" stop-color="#F3A857"/>
</radialGradient>
<radialGradient id="paint53_radial_7619_1078" cx="0" cy="0" r="1" gradientUnits="userSpaceOnUse" gradientTransform="translate(36.0785 32.2588) rotate(149.114) scale(17.1818 22.1019)">
<stop stop-color="#F8F7F9"/>
<stop offset="0.428446" stop-color="#E2DBE9"/>
<stop offset="0.593435" stop-color="#D2C9DB"/>
<stop offset="0.750985" stop-color="#D7D2DC" stop-opacity="0"/>
</radialGradient>
<radialGradient id="paint54_radial_7619_1078" cx="0" cy="0" r="1" gradientUnits="userSpaceOnUse" gradientTransform="translate(28.5639 39.8698) rotate(96.751) scale(0.873153 7.53668)">
<stop offset="0.157894" stop-color="#D7BEE2"/>
<stop offset="1" stop-color="#D7BEE1" stop-opacity="0"/>
</radialGradient>
<radialGradient id="paint55_radial_7619_1078" cx="0" cy="0" r="1" gradientUnits="userSpaceOnUse" gradientTransform="translate(34.2627 48.804) rotate(96.751) scale(4.29755 5.67276)">
<stop stop-color="#D2BBE5"/>
<stop offset="1" stop-color="#D1BEE5" stop-opacity="0"/>
</radialGradient>
<radialGradient id="paint56_radial_7619_1078" cx="0" cy="0" r="1" gradientUnits="userSpaceOnUse" gradientTransform="translate(22.1562 42.3973) rotate(65.854) scale(1.96889 1.96889)">
<stop offset="0.0766474" stop-color="#FFE57B"/>
<stop offset="0.736795" stop-color="#FFC56D"/>
</radialGradient>
<radialGradient id="paint57_radial_7619_1078" cx="0" cy="0" r="1" gradientUnits="userSpaceOnUse" gradientTransform="translate(27.9638 23.5568) rotate(127.569) scale(3.65567)">
<stop stop-color="#FAF8FC"/>
<stop offset="1" stop-color="#BDBAC1"/>
</radialGradient>
<radialGradient id="paint58_radial_7619_1078" cx="0" cy="0" r="1" gradientUnits="userSpaceOnUse" gradientTransform="translate(20.8075 16.4484) rotate(127.569) scale(3.65567 3.65567)">
<stop stop-color="#FAF8FC"/>
<stop offset="1" stop-color="#BDBAC1"/>
</radialGradient>
</defs>
</svg>
