<svg width="77" height="77" viewBox="0 0 77 77" fill="none" xmlns="http://www.w3.org/2000/svg">
<path d="M38.4802 19.2517H59.3986C62.2175 19.2279 64.4917 16.9426 64.4917 14.1335C64.4917 6.08724 54.874 1.99269 49.1176 7.5632L38.4802 17.8771V19.2517Z" fill="#DE2236"/>
<path d="M38.4802 19.2517H59.3986C62.2175 19.2279 64.4917 16.9426 64.4917 14.1335C64.4917 6.08724 54.874 1.99269 49.1176 7.5632L38.4802 17.8771V19.2517Z" fill="url(#paint0_radial_7619_1019)"/>
<path d="M38.4802 19.2517H59.3986C62.2175 19.2279 64.4917 16.9426 64.4917 14.1335C64.4917 6.08724 54.874 1.99269 49.1176 7.5632L38.4802 17.8771V19.2517Z" fill="url(#paint1_radial_7619_1019)"/>
<path d="M38.4802 19.2517H59.3986C62.2175 19.2279 64.4917 16.9426 64.4917 14.1335C64.4917 6.08724 54.874 1.99269 49.1176 7.5632L38.4802 17.8771V19.2517Z" fill="url(#paint2_linear_7619_1019)"/>
<path d="M38.4802 19.2517H59.3986C62.2175 19.2279 64.4917 16.9426 64.4917 14.1335C64.4917 6.08724 54.874 1.99269 49.1176 7.5632L38.4802 17.8771V19.2517Z" fill="url(#paint3_radial_7619_1019)"/>
<path d="M38.4802 19.2517H59.3986C62.2175 19.2279 64.4917 16.9426 64.4917 14.1335C64.4917 6.08724 54.874 1.99269 49.1176 7.5632L38.4802 17.8771V19.2517Z" fill="url(#paint4_radial_7619_1019)"/>
<path d="M38.4802 19.2517H59.3986C62.2175 19.2279 64.4917 16.9426 64.4917 14.1335C64.4917 6.08724 54.874 1.99269 49.1176 7.5632L38.4802 17.8771V19.2517Z" fill="url(#paint5_linear_7619_1019)"/>
<path d="M38.4802 19.2517H59.3986C62.2175 19.2279 64.4917 16.9426 64.4917 14.1335C64.4917 6.08724 54.874 1.99269 49.1176 7.5632L38.4802 17.8771V19.2517Z" fill="url(#paint6_radial_7619_1019)" fill-opacity="0.8"/>
<path d="M38.4802 19.2517H17.5619C14.7429 19.2279 12.4688 16.9426 12.4688 14.1335C12.4688 6.08724 22.0865 1.99269 27.8429 7.5632L38.4802 17.8771V19.2517Z" fill="url(#paint7_linear_7619_1019)"/>
<path d="M38.4802 19.2517H17.5619C14.7429 19.2279 12.4688 16.9426 12.4688 14.1335C12.4688 6.08724 22.0865 1.99269 27.8429 7.5632L38.4802 17.8771V19.2517Z" fill="url(#paint8_linear_7619_1019)"/>
<path d="M38.4802 19.2517H17.5619C14.7429 19.2279 12.4688 16.9426 12.4688 14.1335C12.4688 6.08724 22.0865 1.99269 27.8429 7.5632L38.4802 17.8771V19.2517Z" fill="url(#paint9_radial_7619_1019)"/>
<path d="M38.4802 19.2517H17.5619C14.7429 19.2279 12.4688 16.9426 12.4688 14.1335C12.4688 6.08724 22.0865 1.99269 27.8429 7.5632L38.4802 17.8771V19.2517Z" fill="url(#paint10_radial_7619_1019)"/>
<path d="M38.4802 19.2517H17.5619C14.7429 19.2279 12.4688 16.9426 12.4688 14.1335C12.4688 6.08724 22.0865 1.99269 27.8429 7.5632L38.4802 17.8771V19.2517Z" fill="url(#paint11_radial_7619_1019)" fill-opacity="0.8"/>
<path d="M38.4802 19.2517H17.5619C14.7429 19.2279 12.4688 16.9426 12.4688 14.1335C12.4688 6.08724 22.0865 1.99269 27.8429 7.5632L38.4802 17.8771V19.2517Z" fill="url(#paint12_radial_7619_1019)" fill-opacity="0.7"/>
<path d="M38.4802 19.2517H17.5619C14.7429 19.2279 12.4688 16.9426 12.4688 14.1335C12.4688 6.08724 22.0865 1.99269 27.8429 7.5632L38.4802 17.8771V19.2517Z" fill="url(#paint13_radial_7619_1019)"/>
<path d="M38.4802 19.2517H17.5619C14.7429 19.2279 12.4688 16.9426 12.4688 14.1335C12.4688 6.08724 22.0865 1.99269 27.8429 7.5632L38.4802 17.8771V19.2517Z" fill="url(#paint14_radial_7619_1019)" fill-opacity="0.6"/>
<path d="M38.4802 19.2517H17.5619C14.7429 19.2279 12.4688 16.9426 12.4688 14.1335C12.4688 6.08724 22.0865 1.99269 27.8429 7.5632L38.4802 17.8771V19.2517Z" fill="url(#paint15_radial_7619_1019)" fill-opacity="0.6"/>
<path d="M59.4704 71.5565H17.2076C14.4234 71.5565 12.1866 69.3467 12.1866 66.5962V35.894H64.4915V66.5962C64.4915 69.3232 62.2546 71.5565 59.4704 71.5565Z" fill="url(#paint16_linear_7619_1019)"/>
<path d="M59.4704 71.5565H17.2076C14.4234 71.5565 12.1866 69.3467 12.1866 66.5962V35.894H64.4915V66.5962C64.4915 69.3232 62.2546 71.5565 59.4704 71.5565Z" fill="url(#paint17_linear_7619_1019)"/>
<path d="M59.4704 71.5565H17.2076C14.4234 71.5565 12.1866 69.3467 12.1866 66.5962V35.894H64.4915V66.5962C64.4915 69.3232 62.2546 71.5565 59.4704 71.5565Z" fill="url(#paint18_linear_7619_1019)"/>
<path d="M59.4704 71.5565H17.2076C14.4234 71.5565 12.1866 69.3467 12.1866 66.5962V35.894H64.4915V66.5962C64.4915 69.3232 62.2546 71.5565 59.4704 71.5565Z" fill="url(#paint19_radial_7619_1019)"/>
<path d="M59.4704 71.5565H17.2076C14.4234 71.5565 12.1866 69.3467 12.1866 66.5962V35.894H64.4915V66.5962C64.4915 69.3232 62.2546 71.5565 59.4704 71.5565Z" fill="url(#paint20_radial_7619_1019)"/>
<path d="M59.4704 71.5565H17.2076C14.4234 71.5565 12.1866 69.3467 12.1866 66.5962V35.894H64.4915V66.5962C64.4915 69.3232 62.2546 71.5565 59.4704 71.5565Z" fill="url(#paint21_linear_7619_1019)"/>
<path d="M59.4704 71.5565H17.2076C14.4234 71.5565 12.1866 69.3467 12.1866 66.5962V35.894H64.4915V66.5962C64.4915 69.3232 62.2546 71.5565 59.4704 71.5565Z" fill="url(#paint22_linear_7619_1019)"/>
<path d="M59.4704 71.5565H17.2076C14.4234 71.5565 12.1866 69.3467 12.1866 66.5962V35.894H64.4915V66.5962C64.4915 69.3232 62.2546 71.5565 59.4704 71.5565Z" fill="url(#paint23_radial_7619_1019)"/>
<path d="M59.4704 71.5565H17.2076C14.4234 71.5565 12.1866 69.3467 12.1866 66.5962V35.894H64.4915V66.5962C64.4915 69.3232 62.2546 71.5565 59.4704 71.5565Z" fill="url(#paint24_radial_7619_1019)"/>
<path d="M66.0643 19.2517H10.6138C8.85648 19.2517 7.43164 20.6802 7.43164 22.4421V32.7038C7.43164 34.4656 8.85648 35.8942 10.6138 35.8942H66.0643C67.8217 35.8942 69.2465 34.4656 69.2465 32.7038V22.4421C69.2465 20.6802 67.8217 19.2517 66.0643 19.2517Z" fill="url(#paint25_linear_7619_1019)"/>
<path d="M66.0643 19.2517H10.6138C8.85648 19.2517 7.43164 20.6802 7.43164 22.4421V32.7038C7.43164 34.4656 8.85648 35.8942 10.6138 35.8942H66.0643C67.8217 35.8942 69.2465 34.4656 69.2465 32.7038V22.4421C69.2465 20.6802 67.8217 19.2517 66.0643 19.2517Z" fill="url(#paint26_linear_7619_1019)"/>
<path d="M66.0643 19.2517H10.6138C8.85648 19.2517 7.43164 20.6802 7.43164 22.4421V32.7038C7.43164 34.4656 8.85648 35.8942 10.6138 35.8942H66.0643C67.8217 35.8942 69.2465 34.4656 69.2465 32.7038V22.4421C69.2465 20.6802 67.8217 19.2517 66.0643 19.2517Z" fill="url(#paint27_radial_7619_1019)" fill-opacity="0.8"/>
<path d="M66.0643 19.2517H10.6138C8.85648 19.2517 7.43164 20.6802 7.43164 22.4421V32.7038C7.43164 34.4656 8.85648 35.8942 10.6138 35.8942H66.0643C67.8217 35.8942 69.2465 34.4656 69.2465 32.7038V22.4421C69.2465 20.6802 67.8217 19.2517 66.0643 19.2517Z" fill="url(#paint28_radial_7619_1019)" fill-opacity="0.3"/>
<path d="M66.0643 19.2517H10.6138C8.85648 19.2517 7.43164 20.6802 7.43164 22.4421V32.7038C7.43164 34.4656 8.85648 35.8942 10.6138 35.8942H66.0643C67.8217 35.8942 69.2465 34.4656 69.2465 32.7038V22.4421C69.2465 20.6802 67.8217 19.2517 66.0643 19.2517Z" fill="url(#paint29_radial_7619_1019)" fill-opacity="0.6"/>
<path d="M66.0643 19.2517H10.6138C8.85648 19.2517 7.43164 20.6802 7.43164 22.4421V32.7038C7.43164 34.4656 8.85648 35.8942 10.6138 35.8942H66.0643C67.8217 35.8942 69.2465 34.4656 69.2465 32.7038V22.4421C69.2465 20.6802 67.8217 19.2517 66.0643 19.2517Z" fill="url(#paint30_linear_7619_1019)"/>
<path d="M66.0643 19.2517H10.6138C8.85648 19.2517 7.43164 20.6802 7.43164 22.4421V32.7038C7.43164 34.4656 8.85648 35.8942 10.6138 35.8942H66.0643C67.8217 35.8942 69.2465 34.4656 69.2465 32.7038V22.4421C69.2465 20.6802 67.8217 19.2517 66.0643 19.2517Z" fill="url(#paint31_radial_7619_1019)"/>
<path d="M66.0643 19.2517H10.6138C8.85648 19.2517 7.43164 20.6802 7.43164 22.4421V32.7038C7.43164 34.4656 8.85648 35.8942 10.6138 35.8942H66.0643C67.8217 35.8942 69.2465 34.4656 69.2465 32.7038V22.4421C69.2465 20.6802 67.8217 19.2517 66.0643 19.2517Z" fill="url(#paint32_linear_7619_1019)"/>
<path d="M66.0643 19.2517H10.6138C8.85648 19.2517 7.43164 20.6802 7.43164 22.4421V32.7038C7.43164 34.4656 8.85648 35.8942 10.6138 35.8942H66.0643C67.8217 35.8942 69.2465 34.4656 69.2465 32.7038V22.4421C69.2465 20.6802 67.8217 19.2517 66.0643 19.2517Z" fill="url(#paint33_radial_7619_1019)"/>
<path d="M38.351 7.36426C34.4029 7.36426 31.2068 10.6193 31.2068 14.6403V71.5566H45.4717V14.6403C45.4952 10.6193 42.2991 7.36426 38.351 7.36426Z" fill="url(#paint34_linear_7619_1019)"/>
<path d="M38.351 7.36426C34.4029 7.36426 31.2068 10.6193 31.2068 14.6403V71.5566H45.4717V14.6403C45.4952 10.6193 42.2991 7.36426 38.351 7.36426Z" fill="url(#paint35_linear_7619_1019)"/>
<path d="M38.351 7.36426C34.4029 7.36426 31.2068 10.6193 31.2068 14.6403V71.5566H45.4717V14.6403C45.4952 10.6193 42.2991 7.36426 38.351 7.36426Z" fill="url(#paint36_radial_7619_1019)"/>
<path d="M38.351 7.36426C34.4029 7.36426 31.2068 10.6193 31.2068 14.6403V71.5566H45.4717V14.6403C45.4952 10.6193 42.2991 7.36426 38.351 7.36426Z" fill="url(#paint37_radial_7619_1019)"/>
<path d="M38.351 7.36426C34.4029 7.36426 31.2068 10.6193 31.2068 14.6403V71.5566H45.4717V14.6403C45.4952 10.6193 42.2991 7.36426 38.351 7.36426Z" fill="url(#paint38_linear_7619_1019)"/>
<path d="M38.351 7.36426C34.4029 7.36426 31.2068 10.6193 31.2068 14.6403V71.5566H45.4717V14.6403C45.4952 10.6193 42.2991 7.36426 38.351 7.36426Z" fill="url(#paint39_radial_7619_1019)"/>
<path d="M38.351 7.36426C34.4029 7.36426 31.2068 10.6193 31.2068 14.6403V71.5566H45.4717V14.6403C45.4952 10.6193 42.2991 7.36426 38.351 7.36426Z" fill="url(#paint40_radial_7619_1019)"/>
<path d="M38.351 7.36426C34.4029 7.36426 31.2068 10.6193 31.2068 14.6403V71.5566H45.4717V14.6403C45.4952 10.6193 42.2991 7.36426 38.351 7.36426Z" fill="url(#paint41_linear_7619_1019)"/>
<defs>
<radialGradient id="paint0_radial_7619_1019" cx="0" cy="0" r="1" gradientUnits="userSpaceOnUse" gradientTransform="translate(63.3123 9.99551) rotate(161.323) scale(9.49982 20.4634)">
<stop stop-color="#FB5157" stop-opacity="0.35"/>
<stop offset="0.760014" stop-color="#FB5157" stop-opacity="0.155599"/>
<stop offset="1" stop-color="#FB5157" stop-opacity="0"/>
</radialGradient>
<radialGradient id="paint1_radial_7619_1019" cx="0" cy="0" r="1" gradientUnits="userSpaceOnUse" gradientTransform="translate(51.1604 16.5488) rotate(-30.6716) scale(13.6588 13.0396)">
<stop stop-color="#FB5157" stop-opacity="0"/>
<stop offset="0.785828" stop-color="#FB5157" stop-opacity="0"/>
<stop offset="0.817688" stop-color="#FB5157" stop-opacity="0.153978"/>
<stop offset="0.841351" stop-color="#FB5157" stop-opacity="0.327228"/>
<stop offset="0.876786" stop-color="#FB5157" stop-opacity="0.68"/>
<stop offset="0.907275" stop-color="#FB5157" stop-opacity="0.867629"/>
<stop offset="0.926291" stop-color="#FB5157" stop-opacity="0.86"/>
<stop offset="0.957593" stop-color="#FB5157" stop-opacity="0.682713"/>
<stop offset="1" stop-color="#FB5157" stop-opacity="0"/>
</radialGradient>
<linearGradient id="paint2_linear_7619_1019" x1="54.2921" y1="20.3926" x2="54.2921" y2="15.9762" gradientUnits="userSpaceOnUse">
<stop offset="0.281039" stop-color="#CE280A"/>
<stop offset="0.773458" stop-color="#CE280A" stop-opacity="0.223506"/>
<stop offset="1" stop-color="#CE280A" stop-opacity="0"/>
</linearGradient>
<radialGradient id="paint3_radial_7619_1019" cx="0" cy="0" r="1" gradientUnits="userSpaceOnUse" gradientTransform="translate(63.748 18.5158) rotate(-132.522) scale(3.9973 16.9986)">
<stop stop-color="#DE2236"/>
<stop offset="0.499788" stop-color="#DE2236"/>
<stop offset="0.782723" stop-color="#DE2236" stop-opacity="0.222514"/>
<stop offset="1" stop-color="#DE2236" stop-opacity="0"/>
</radialGradient>
<radialGradient id="paint4_radial_7619_1019" cx="0" cy="0" r="1" gradientUnits="userSpaceOnUse" gradientTransform="translate(54.5036 3.55096) rotate(69.6521) scale(5.03197 21.3985)">
<stop stop-color="#DE2236"/>
<stop offset="0.499788" stop-color="#DE2236"/>
<stop offset="0.780931" stop-color="#DE2236" stop-opacity="0.222514"/>
<stop offset="1" stop-color="#DE2236" stop-opacity="0"/>
</radialGradient>
<linearGradient id="paint5_linear_7619_1019" x1="47.4715" y1="8.82917" x2="49.6653" y2="11.3504" gradientUnits="userSpaceOnUse">
<stop stop-color="#B23C3E"/>
<stop offset="0.692708" stop-color="#B23C3E" stop-opacity="0.259759"/>
<stop offset="1" stop-color="#B23C3E" stop-opacity="0"/>
</linearGradient>
<radialGradient id="paint6_radial_7619_1019" cx="0" cy="0" r="1" gradientUnits="userSpaceOnUse" gradientTransform="translate(56.4851 19.7076) rotate(-78.9407) scale(14.4444 14.6987)">
<stop stop-color="#B23C3E" stop-opacity="0"/>
<stop offset="0.831316" stop-color="#B23C3E" stop-opacity="0"/>
<stop offset="0.877061" stop-color="#B23C3E" stop-opacity="0.259759"/>
<stop offset="0.936366" stop-color="#B23C3E" stop-opacity="0.626319"/>
<stop offset="1" stop-color="#B23C3E"/>
</radialGradient>
<linearGradient id="paint7_linear_7619_1019" x1="29.6339" y1="8.06351" x2="25.4745" y2="19.2517" gradientUnits="userSpaceOnUse">
<stop stop-color="#DF2332"/>
<stop offset="1" stop-color="#D9213B"/>
</linearGradient>
<linearGradient id="paint8_linear_7619_1019" x1="22.6683" y1="20.3926" x2="22.6683" y2="15.9762" gradientUnits="userSpaceOnUse">
<stop offset="0.175365" stop-color="#CE280A"/>
<stop offset="0.776867" stop-color="#CE280A" stop-opacity="0.211088"/>
<stop offset="1" stop-color="#CE280A" stop-opacity="0"/>
</linearGradient>
<radialGradient id="paint9_radial_7619_1019" cx="0" cy="0" r="1" gradientUnits="userSpaceOnUse" gradientTransform="translate(32.4862 19.9326) rotate(-173.603) scale(6.1106 16.072)">
<stop offset="0.150943" stop-color="#BD1123"/>
<stop offset="1" stop-color="#BD1123" stop-opacity="0"/>
</radialGradient>
<radialGradient id="paint10_radial_7619_1019" cx="0" cy="0" r="1" gradientUnits="userSpaceOnUse" gradientTransform="translate(14.7483 18.7197) rotate(-57.1306) scale(3.70957 17.5615)">
<stop stop-color="#B23C3E"/>
<stop offset="0.664656" stop-color="#B23C3E" stop-opacity="0.326073"/>
<stop offset="1" stop-color="#B23C3E" stop-opacity="0"/>
</radialGradient>
<radialGradient id="paint11_radial_7619_1019" cx="0" cy="0" r="1" gradientUnits="userSpaceOnUse" gradientTransform="translate(29.0637 18.5466) rotate(-141.705) scale(17.4167 13.5612)">
<stop stop-color="#B23C3E" stop-opacity="0"/>
<stop offset="0.831316" stop-color="#B23C3E" stop-opacity="0"/>
<stop offset="0.879941" stop-color="#B23C3E" stop-opacity="0.259759"/>
<stop offset="0.936366" stop-color="#B23C3E" stop-opacity="0.626319"/>
<stop offset="1" stop-color="#B23C3E"/>
</radialGradient>
<radialGradient id="paint12_radial_7619_1019" cx="0" cy="0" r="1" gradientUnits="userSpaceOnUse" gradientTransform="translate(29.3467 10.7718) rotate(125.49) scale(5.9681 13.3359)">
<stop stop-color="#FB5157" stop-opacity="0.73"/>
<stop offset="0.177703" stop-color="#FB5157" stop-opacity="0.68"/>
<stop offset="0.490193" stop-color="#FB5157" stop-opacity="0.303009"/>
<stop offset="0.722196" stop-color="#FB5157" stop-opacity="0.04"/>
<stop offset="1" stop-color="#FB5157" stop-opacity="0"/>
</radialGradient>
<radialGradient id="paint13_radial_7619_1019" cx="0" cy="0" r="1" gradientUnits="userSpaceOnUse" gradientTransform="translate(29.2876 10.9272) rotate(128.157) scale(2.07091 13.6944)">
<stop stop-color="#FB5157" stop-opacity="0.95"/>
<stop offset="0.202351" stop-color="#FB5157" stop-opacity="0.79"/>
<stop offset="0.490193" stop-color="#FB5157" stop-opacity="0.303009"/>
<stop offset="0.722196" stop-color="#FB5157" stop-opacity="0.04"/>
<stop offset="1" stop-color="#FB5157" stop-opacity="0"/>
</radialGradient>
<radialGradient id="paint14_radial_7619_1019" cx="0" cy="0" r="1" gradientUnits="userSpaceOnUse" gradientTransform="translate(24.9229 8.01537) rotate(116.369) scale(1.54918 5.1466)">
<stop stop-color="#FB5157" stop-opacity="0.73"/>
<stop offset="0.177703" stop-color="#FB5157" stop-opacity="0.68"/>
<stop offset="0.424401" stop-color="#FB5157" stop-opacity="0.303009"/>
<stop offset="0.722196" stop-color="#FB5157" stop-opacity="0.04"/>
<stop offset="1" stop-color="#FB5157" stop-opacity="0"/>
</radialGradient>
<radialGradient id="paint15_radial_7619_1019" cx="0" cy="0" r="1" gradientUnits="userSpaceOnUse" gradientTransform="translate(22.9993 7.09926) rotate(97.1935) scale(1.73337 5.7585)">
<stop stop-color="#FB5157" stop-opacity="0.73"/>
<stop offset="0.177703" stop-color="#FB5157" stop-opacity="0.68"/>
<stop offset="0.424401" stop-color="#FB5157" stop-opacity="0.303009"/>
<stop offset="0.722196" stop-color="#FB5157" stop-opacity="0.04"/>
<stop offset="1" stop-color="#FB5157" stop-opacity="0"/>
</radialGradient>
<linearGradient id="paint16_linear_7619_1019" x1="12.1866" y1="58.6288" x2="64.4915" y2="58.6288" gradientUnits="userSpaceOnUse">
<stop stop-color="#F1A738"/>
<stop offset="1" stop-color="#FAD42C"/>
</linearGradient>
<linearGradient id="paint17_linear_7619_1019" x1="65.2216" y1="56.8457" x2="58.5022" y2="56.8457" gradientUnits="userSpaceOnUse">
<stop stop-color="#FFF733"/>
<stop offset="0.720904" stop-color="#FFF733" stop-opacity="0.136144"/>
<stop offset="1" stop-color="#FFF733" stop-opacity="0"/>
</linearGradient>
<linearGradient id="paint18_linear_7619_1019" x1="38.339" y1="32.313" x2="38.339" y2="38.8659" gradientUnits="userSpaceOnUse">
<stop stop-color="#C97525"/>
<stop offset="0.808655" stop-color="#C97525" stop-opacity="0.142955"/>
<stop offset="1" stop-color="#C97525" stop-opacity="0"/>
</linearGradient>
<radialGradient id="paint19_radial_7619_1019" cx="0" cy="0" r="1" gradientUnits="userSpaceOnUse" gradientTransform="translate(6.9055 59.7517) scale(19.1154 54.2274)">
<stop offset="0.215641" stop-color="#DE7550" stop-opacity="0.12"/>
<stop offset="0.648277" stop-color="#DE7550" stop-opacity="0.158562"/>
<stop offset="1" stop-color="#DE7550" stop-opacity="0"/>
</radialGradient>
<radialGradient id="paint20_radial_7619_1019" cx="0" cy="0" r="1" gradientUnits="userSpaceOnUse" gradientTransform="translate(31.74 50.902) rotate(-180) scale(4.66594 47.2637)">
<stop stop-color="#C87C28"/>
<stop offset="0.736532" stop-color="#C87C28" stop-opacity="0.111376"/>
<stop offset="1" stop-color="#C87C28" stop-opacity="0"/>
</radialGradient>
<linearGradient id="paint21_linear_7619_1019" x1="11.7298" y1="53.7253" x2="19.6288" y2="53.7253" gradientUnits="userSpaceOnUse">
<stop offset="0.062763" stop-color="#C2773F"/>
<stop offset="0.557292" stop-color="#C2773F" stop-opacity="0.319771"/>
<stop offset="0.751516" stop-color="#C2773F" stop-opacity="0.13"/>
<stop offset="0.869792" stop-color="#C2773F" stop-opacity="0.0544971"/>
<stop offset="1" stop-color="#C2773F" stop-opacity="0"/>
</linearGradient>
<linearGradient id="paint22_linear_7619_1019" x1="39.5586" y1="73.7347" x2="39.5586" y2="65.1339" gradientUnits="userSpaceOnUse">
<stop stop-color="#E68370"/>
<stop offset="0.696478" stop-color="#E68370" stop-opacity="0.202348"/>
<stop offset="0.81579" stop-color="#E68370" stop-opacity="0.0982455"/>
<stop offset="1" stop-color="#E68370" stop-opacity="0"/>
</linearGradient>
<radialGradient id="paint23_radial_7619_1019" cx="0" cy="0" r="1" gradientUnits="userSpaceOnUse" gradientTransform="translate(18.5292 75.2453) rotate(-90) scale(10.9681 31.1147)">
<stop offset="0.215641" stop-color="#DE7550"/>
<stop offset="0.804562" stop-color="#DE7550" stop-opacity="0.158562"/>
<stop offset="1" stop-color="#DE7550" stop-opacity="0"/>
</radialGradient>
<radialGradient id="paint24_radial_7619_1019" cx="0" cy="0" r="1" gradientUnits="userSpaceOnUse" gradientTransform="translate(18.9992 35.096) rotate(88.2101) scale(2.60868 16.2782)">
<stop stop-color="#DE7550"/>
<stop offset="0.768755" stop-color="#DE7550" stop-opacity="0.158562"/>
<stop offset="1" stop-color="#DE7550" stop-opacity="0"/>
</radialGradient>
<linearGradient id="paint25_linear_7619_1019" x1="69.2465" y1="28.7309" x2="7.43205" y2="28.5712" gradientUnits="userSpaceOnUse">
<stop stop-color="#F6D729"/>
<stop offset="1" stop-color="#F39B3A"/>
</linearGradient>
<linearGradient id="paint26_linear_7619_1019" x1="69.2465" y1="27.5729" x2="65.1397" y2="27.5729" gradientUnits="userSpaceOnUse">
<stop stop-color="#FFF850"/>
<stop offset="0.695278" stop-color="#FFF850" stop-opacity="0.15634"/>
<stop offset="1" stop-color="#FFF850" stop-opacity="0"/>
</linearGradient>
<radialGradient id="paint27_radial_7619_1019" cx="0" cy="0" r="1" gradientUnits="userSpaceOnUse" gradientTransform="translate(58.5272 19.0132) rotate(90) scale(4.17642 25.9109)">
<stop stop-color="#FFF850" stop-opacity="0.6"/>
<stop offset="0.671477" stop-color="#FFF850" stop-opacity="0.15634"/>
<stop offset="1" stop-color="#FFF850" stop-opacity="0"/>
</radialGradient>
<radialGradient id="paint28_radial_7619_1019" cx="0" cy="0" r="1" gradientUnits="userSpaceOnUse" gradientTransform="translate(21.9834 19.2844) rotate(90) scale(5.74245 35.6266)">
<stop stop-color="#FFF850" stop-opacity="0.6"/>
<stop offset="0.671477" stop-color="#FFF850" stop-opacity="0.15634"/>
<stop offset="1" stop-color="#FFF850" stop-opacity="0"/>
</radialGradient>
<radialGradient id="paint29_radial_7619_1019" cx="0" cy="0" r="1" gradientUnits="userSpaceOnUse" gradientTransform="translate(67.2868 21.8586) rotate(-123.341) scale(2.59669 4.08536)">
<stop stop-color="white" stop-opacity="0.64"/>
<stop offset="0.672805" stop-color="white" stop-opacity="0.15634"/>
<stop offset="0.870446" stop-color="white" stop-opacity="0.0479534"/>
<stop offset="1" stop-color="white" stop-opacity="0"/>
</radialGradient>
<linearGradient id="paint30_linear_7619_1019" x1="38.3391" y1="36.6519" x2="38.3391" y2="32.1148" gradientUnits="userSpaceOnUse">
<stop offset="0.125527" stop-color="#E8AF21"/>
<stop offset="0.769626" stop-color="#E8AF21" stop-opacity="0.18586"/>
<stop offset="1" stop-color="#E8AF21" stop-opacity="0"/>
</linearGradient>
<radialGradient id="paint31_radial_7619_1019" cx="0" cy="0" r="1" gradientUnits="userSpaceOnUse" gradientTransform="translate(14.9275 37.6156) rotate(-90) scale(5.11843 36.7719)">
<stop offset="0.215641" stop-color="#DE7550"/>
<stop offset="0.804562" stop-color="#DE7550" stop-opacity="0.158562"/>
<stop offset="1" stop-color="#DE7550" stop-opacity="0"/>
</radialGradient>
<linearGradient id="paint32_linear_7619_1019" x1="7.47328" y1="28.578" x2="11.5288" y2="28.578" gradientUnits="userSpaceOnUse">
<stop stop-color="#BE7841"/>
<stop offset="0.606593" stop-color="#BE7841" stop-opacity="0.217187"/>
<stop offset="0.8324" stop-color="#BE7841" stop-opacity="0.0717493"/>
<stop offset="1" stop-color="#BE7841" stop-opacity="0"/>
</linearGradient>
<radialGradient id="paint33_radial_7619_1019" cx="0" cy="0" r="1" gradientUnits="userSpaceOnUse" gradientTransform="translate(33.4636 30.0247) rotate(180) scale(6.01803 41.6805)">
<stop offset="0.188888" stop-color="#C57E10" stop-opacity="0.7"/>
<stop offset="0.763803" stop-color="#C57E10" stop-opacity="0.145026"/>
<stop offset="0.885514" stop-color="#C57E10" stop-opacity="0.072038"/>
<stop offset="1" stop-color="#C57E10" stop-opacity="0"/>
</radialGradient>
<linearGradient id="paint34_linear_7619_1019" x1="38.3578" y1="7.36857" x2="38.3578" y2="71.5537" gradientUnits="userSpaceOnUse">
<stop stop-color="#D12136"/>
<stop offset="1" stop-color="#B6246E"/>
</linearGradient>
<linearGradient id="paint35_linear_7619_1019" x1="31.415" y1="40.0521" x2="32.6648" y2="40.0521" gradientUnits="userSpaceOnUse">
<stop stop-color="#BA1A27"/>
<stop offset="0.589026" stop-color="#BA1A27" stop-opacity="0.261528"/>
<stop offset="1" stop-color="#BA1A27" stop-opacity="0"/>
</linearGradient>
<radialGradient id="paint36_radial_7619_1019" cx="0" cy="0" r="1" gradientUnits="userSpaceOnUse" gradientTransform="translate(32.605 10.2114) rotate(23.4986) scale(1.6888 9.40957)">
<stop stop-color="#BA1A27"/>
<stop offset="0.589026" stop-color="#BA1A27" stop-opacity="0.261528"/>
<stop offset="1" stop-color="#BA1A27" stop-opacity="0"/>
</radialGradient>
<radialGradient id="paint37_radial_7619_1019" cx="0" cy="0" r="1" gradientUnits="userSpaceOnUse" gradientTransform="translate(34.6924 8.29233) rotate(60.7087) scale(1.58277 8.81882)">
<stop stop-color="#BA1A27"/>
<stop offset="0.589026" stop-color="#BA1A27" stop-opacity="0.261528"/>
<stop offset="1" stop-color="#BA1A27" stop-opacity="0"/>
</radialGradient>
<linearGradient id="paint38_linear_7619_1019" x1="45.3638" y1="44.6393" x2="43.4251" y2="44.6393" gradientUnits="userSpaceOnUse">
<stop stop-color="#E44D57"/>
<stop offset="0.509552" stop-color="#E44D57" stop-opacity="0.272435"/>
<stop offset="0.705965" stop-color="#E44D57" stop-opacity="0.0833426"/>
<stop offset="1" stop-color="#E44D57" stop-opacity="0"/>
</linearGradient>
<radialGradient id="paint39_radial_7619_1019" cx="0" cy="0" r="1" gradientUnits="userSpaceOnUse" gradientTransform="translate(21.5271 46.9364) rotate(-58.9068) scale(43.2801 36.6875)">
<stop stop-color="#E44D57" stop-opacity="0"/>
<stop offset="0.960718" stop-color="#E44D57" stop-opacity="0"/>
<stop offset="0.976618" stop-color="#E44D57" stop-opacity="0.224248"/>
<stop offset="1" stop-color="#E44D57"/>
</radialGradient>
<radialGradient id="paint40_radial_7619_1019" cx="0" cy="0" r="1" gradientUnits="userSpaceOnUse" gradientTransform="translate(44.6645 11.5148) rotate(151.512) scale(1.53047 5.40648)">
<stop stop-color="#E44D57"/>
<stop offset="0.508631" stop-color="#E44D57" stop-opacity="0.272435"/>
<stop offset="1" stop-color="#E44D57" stop-opacity="0"/>
</radialGradient>
<linearGradient id="paint41_linear_7619_1019" x1="38.3393" y1="72.1634" x2="38.3393" y2="64.9937" gradientUnits="userSpaceOnUse">
<stop stop-color="#B3368C"/>
<stop offset="1" stop-color="#B3368C" stop-opacity="0"/>
</linearGradient>
</defs>
</svg>
