<svg width="77" height="77" viewBox="0 0 77 77" fill="none" xmlns="http://www.w3.org/2000/svg">
<path d="M25.1599 26.0931H20.4049V16.488C20.4049 15.7986 20.6902 15.1329 21.1657 14.6574L22.7824 13.0645L24.3991 14.6574C24.8746 15.1329 25.1599 15.7986 25.1599 16.488V26.0931Z" fill="url(#paint0_linear_7619_968)"/>
<path d="M25.1599 26.0931H20.4049V16.488C20.4049 15.7986 20.6902 15.1329 21.1657 14.6574L22.7824 13.0645L24.3991 14.6574C24.8746 15.1329 25.1599 15.7986 25.1599 16.488V26.0931Z" fill="url(#paint1_radial_7619_968)"/>
<path d="M25.8255 9.10639L23.6858 5.51637C23.2816 4.8269 22.2593 4.8269 21.8551 5.51637L19.7391 9.10639C19.335 9.77209 19.1448 10.5567 19.2399 11.3888C19.4301 13.0293 20.7377 14.3369 22.3782 14.5033C24.5179 14.7411 26.3486 13.0768 26.3486 10.9608C26.3248 10.2951 26.1346 9.65321 25.8255 9.10639Z" fill="url(#paint2_radial_7619_968)"/>
<path d="M24.2326 9.55757L22.7824 7.70312L21.3321 9.55757C20.9755 9.93797 20.7615 10.4135 20.7615 10.9603C20.7615 12.0777 21.665 12.9812 22.7824 12.9812C23.8998 12.9812 24.8032 12.0777 24.8032 10.9603C24.8032 10.4135 24.5893 9.93797 24.2326 9.55757Z" fill="url(#paint3_radial_7619_968)"/>
<path d="M40.6135 26.0931H35.8586V16.488C35.8586 15.7986 36.1438 15.1329 36.6193 14.6574L38.236 13.0645L39.8527 14.6574C40.3282 15.1329 40.6135 15.7986 40.6135 16.488V26.0931Z" fill="url(#paint4_linear_7619_968)"/>
<path d="M40.6135 26.0931H35.8586V16.488C35.8586 15.7986 36.1438 15.1329 36.6193 14.6574L38.236 13.0645L39.8527 14.6574C40.3282 15.1329 40.6135 15.7986 40.6135 16.488V26.0931Z" fill="url(#paint5_radial_7619_968)"/>
<path d="M41.2792 9.10639L39.1633 5.51637C38.7591 4.8269 37.7368 4.8269 37.3326 5.51637L35.2166 9.10639C34.8125 9.74831 34.6223 10.5567 34.7174 11.3888C34.9076 13.0055 36.2152 14.3131 37.8556 14.5033C39.9954 14.7411 41.8261 13.0768 41.8261 10.9608C41.8023 10.2951 41.6121 9.65321 41.2792 9.10639Z" fill="url(#paint6_radial_7619_968)"/>
<path d="M39.6862 9.61714L38.236 7.7627L36.7857 9.64092C36.4291 9.99754 36.2151 10.4968 36.2151 11.0436C36.2151 12.1611 37.1185 13.0645 38.236 13.0645C39.3534 13.0645 40.2568 12.1611 40.2568 11.0436C40.2568 10.473 40.0429 9.99754 39.6862 9.61714Z" fill="url(#paint7_radial_7619_968)"/>
<path d="M56.0674 26.2867H51.3124V16.6816C51.3124 15.9922 51.5977 15.3265 52.0732 14.851L53.6899 13.2581L55.3066 14.851C55.8058 15.3265 56.0674 15.9922 56.0674 16.6816V26.2867Z" fill="url(#paint8_linear_7619_968)"/>
<path d="M56.0674 26.2867H51.3124V16.6816C51.3124 15.9922 51.5977 15.3265 52.0732 14.851L53.6899 13.2581L55.3066 14.851C55.8058 15.3265 56.0674 15.9922 56.0674 16.6816V26.2867Z" fill="url(#paint9_radial_7619_968)"/>
<path d="M56.733 9.10639L54.6171 5.51637C54.2129 4.8269 53.1906 4.8269 52.7864 5.51637L50.6704 9.10639C50.2662 9.74831 50.076 10.5567 50.1711 11.3888C50.3613 13.0293 51.669 14.3369 53.2857 14.5033C55.4492 14.7411 57.2561 13.0768 57.2561 10.9608C57.2561 10.2951 57.0659 9.65321 56.733 9.10639Z" fill="url(#paint10_radial_7619_968)"/>
<path d="M55.1401 9.55757L53.6898 7.70312L52.2395 9.58135C51.8829 9.93797 51.6689 10.4372 51.6689 10.9841C51.6689 12.1015 52.5724 13.0049 53.6898 13.0049C54.8072 13.0049 55.7107 12.1015 55.7107 10.9841C55.7107 10.4135 55.4967 9.93797 55.1401 9.55757Z" fill="url(#paint11_radial_7619_968)"/>
<path d="M64.3513 71.4515H11.8978C8.88883 71.4515 7.3286 69.8228 7.3286 66.7766V35.7891H69.1435V66.7766C69.1435 69.7485 67.8061 71.4515 64.3513 71.4515Z" fill="url(#paint12_linear_7619_968)"/>
<path d="M64.3513 71.4515H11.8978C8.88883 71.4515 7.3286 69.8228 7.3286 66.7766V35.7891H69.1435V66.7766C69.1435 69.7485 67.8061 71.4515 64.3513 71.4515Z" fill="url(#paint13_radial_7619_968)"/>
<path d="M64.3513 71.4515H11.8978C8.88883 71.4515 7.3286 69.8228 7.3286 66.7766V35.7891H69.1435V66.7766C69.1435 69.7485 67.8061 71.4515 64.3513 71.4515Z" fill="url(#paint14_linear_7619_968)"/>
<path d="M64.3513 71.4515H11.8978C8.88883 71.4515 7.3286 69.8228 7.3286 66.7766V35.7891H69.1435V66.7766C69.1435 69.7485 67.8061 71.4515 64.3513 71.4515Z" fill="url(#paint15_linear_7619_968)"/>
<path d="M64.3513 71.4515H11.8978C8.88883 71.4515 7.3286 69.8228 7.3286 66.7766V35.7891H69.1435V66.7766C69.1435 69.7485 67.8061 71.4515 64.3513 71.4515Z" fill="url(#paint16_radial_7619_968)"/>
<path d="M64.3513 71.4515H11.8978C8.88883 71.4515 7.3286 69.8228 7.3286 66.7766V35.7891H69.1435V66.7766C69.1435 69.7485 67.8061 71.4515 64.3513 71.4515Z" fill="url(#paint17_radial_7619_968)"/>
<path d="M64.3513 71.4515H11.8978C8.88883 71.4515 7.3286 69.8228 7.3286 66.7766V35.7891H69.1435V66.7766C69.1435 69.7485 67.8061 71.4515 64.3513 71.4515Z" fill="url(#paint18_radial_7619_968)"/>
<path d="M64.3513 71.4515H11.8978C8.88883 71.4515 7.3286 69.8228 7.3286 66.7766V35.7891H69.1435V66.7766C69.1435 69.7485 67.8061 71.4515 64.3513 71.4515Z" fill="url(#paint19_radial_7619_968)"/>
<path d="M64.3513 71.4515H11.8978C8.88883 71.4515 7.3286 69.8228 7.3286 66.7766V35.7891H69.1435V66.7766C69.1435 69.7485 67.8061 71.4515 64.3513 71.4515Z" fill="url(#paint20_radial_7619_968)"/>
<path d="M64.3513 71.4515H11.8978C8.88883 71.4515 7.3286 69.8228 7.3286 66.7766V35.7891H69.1435V66.7766C69.1435 69.7485 67.8061 71.4515 64.3513 71.4515Z" fill="url(#paint21_radial_7619_968)"/>
<path d="M64.3513 71.4515H11.8978C8.88883 71.4515 7.3286 69.8228 7.3286 66.7766V35.7891H69.1435V66.7766C69.1435 69.7485 67.8061 71.4515 64.3513 71.4515Z" fill="url(#paint22_radial_7619_968)"/>
<path d="M64.3513 71.4515H11.8978C8.88883 71.4515 7.3286 69.8228 7.3286 66.7766V35.7891H69.1435V66.7766C69.1435 69.7485 67.8061 71.4515 64.3513 71.4515Z" fill="url(#paint23_radial_7619_968)"/>
<path d="M64.3513 71.4515H11.8978C8.88883 71.4515 7.3286 69.8228 7.3286 66.7766V35.7891H69.1435V66.7766C69.1435 69.7485 67.8061 71.4515 64.3513 71.4515Z" fill="url(#paint24_radial_7619_968)"/>
<path d="M64.3513 71.4515H11.8978C8.88883 71.4515 7.3286 69.8228 7.3286 66.7766V35.7891H69.1435V66.7766C69.1435 69.7485 67.8061 71.4515 64.3513 71.4515Z" fill="url(#paint25_radial_7619_968)"/>
<path d="M69.1435 52.4028H7.3286V57.1578H69.1435V52.4028Z" fill="url(#paint26_linear_7619_968)"/>
<path d="M4.95113 29.3683V41.8755C4.95113 44.1719 7.36577 44.9149 8.66002 44.9149C10.3376 44.9149 11.1209 44.0642 12.2508 43.1118C13.0866 42.4074 15.0858 42.3712 16.0213 43.1118C19.4687 45.7984 24.2965 45.7984 27.7439 43.1118C29.0525 42.092 31.1326 42.1339 32.3874 43.1118C34.1182 44.4606 36.1964 45.3662 38.2733 45.3607C40.3333 45.3552 42.3918 44.4496 44.1085 43.1118C45.3395 42.1525 47.4502 42.1403 48.6747 43.0946C52.3742 45.9776 57.6515 45.3574 60.4879 43.1118C62.277 41.6954 65.5029 44.9335 67.4904 44.9335C68.8649 44.9335 71.5448 44.4505 71.5448 41.8755V40.5441V29.3683C71.5448 22.8673 66.9146 21.5671 62.011 21.5671H15.3898C7.8487 21.5671 4.95113 24.2047 4.95113 29.3683Z" fill="#EDC8AE"/>
<path d="M4.95113 29.3683V41.8755C4.95113 44.1719 7.36577 44.9149 8.66002 44.9149C10.3376 44.9149 11.1209 44.0642 12.2508 43.1118C13.0866 42.4074 15.0858 42.3712 16.0213 43.1118C19.4687 45.7984 24.2965 45.7984 27.7439 43.1118C29.0525 42.092 31.1326 42.1339 32.3874 43.1118C34.1182 44.4606 36.1964 45.3662 38.2733 45.3607C40.3333 45.3552 42.3918 44.4496 44.1085 43.1118C45.3395 42.1525 47.4502 42.1403 48.6747 43.0946C52.3742 45.9776 57.6515 45.3574 60.4879 43.1118C62.277 41.6954 65.5029 44.9335 67.4904 44.9335C68.8649 44.9335 71.5448 44.4505 71.5448 41.8755V40.5441V29.3683C71.5448 22.8673 66.9146 21.5671 62.011 21.5671H15.3898C7.8487 21.5671 4.95113 24.2047 4.95113 29.3683Z" fill="url(#paint27_radial_7619_968)"/>
<path d="M4.95113 29.3683V41.8755C4.95113 44.1719 7.36577 44.9149 8.66002 44.9149C10.3376 44.9149 11.1209 44.0642 12.2508 43.1118C13.0866 42.4074 15.0858 42.3712 16.0213 43.1118C19.4687 45.7984 24.2965 45.7984 27.7439 43.1118C29.0525 42.092 31.1326 42.1339 32.3874 43.1118C34.1182 44.4606 36.1964 45.3662 38.2733 45.3607C40.3333 45.3552 42.3918 44.4496 44.1085 43.1118C45.3395 42.1525 47.4502 42.1403 48.6747 43.0946C52.3742 45.9776 57.6515 45.3574 60.4879 43.1118C62.277 41.6954 65.5029 44.9335 67.4904 44.9335C68.8649 44.9335 71.5448 44.4505 71.5448 41.8755V40.5441V29.3683C71.5448 22.8673 66.9146 21.5671 62.011 21.5671H15.3898C7.8487 21.5671 4.95113 24.2047 4.95113 29.3683Z" fill="url(#paint28_radial_7619_968)"/>
<path d="M4.95113 29.3683V41.8755C4.95113 44.1719 7.36577 44.9149 8.66002 44.9149C10.3376 44.9149 11.1209 44.0642 12.2508 43.1118C13.0866 42.4074 15.0858 42.3712 16.0213 43.1118C19.4687 45.7984 24.2965 45.7984 27.7439 43.1118C29.0525 42.092 31.1326 42.1339 32.3874 43.1118C34.1182 44.4606 36.1964 45.3662 38.2733 45.3607C40.3333 45.3552 42.3918 44.4496 44.1085 43.1118C45.3395 42.1525 47.4502 42.1403 48.6747 43.0946C52.3742 45.9776 57.6515 45.3574 60.4879 43.1118C62.277 41.6954 65.5029 44.9335 67.4904 44.9335C68.8649 44.9335 71.5448 44.4505 71.5448 41.8755V40.5441V29.3683C71.5448 22.8673 66.9146 21.5671 62.011 21.5671H15.3898C7.8487 21.5671 4.95113 24.2047 4.95113 29.3683Z" fill="url(#paint29_linear_7619_968)"/>
<path d="M4.95113 29.3683V41.8755C4.95113 44.1719 7.36577 44.9149 8.66002 44.9149C10.3376 44.9149 11.1209 44.0642 12.2508 43.1118C13.0866 42.4074 15.0858 42.3712 16.0213 43.1118C19.4687 45.7984 24.2965 45.7984 27.7439 43.1118C29.0525 42.092 31.1326 42.1339 32.3874 43.1118C34.1182 44.4606 36.1964 45.3662 38.2733 45.3607C40.3333 45.3552 42.3918 44.4496 44.1085 43.1118C45.3395 42.1525 47.4502 42.1403 48.6747 43.0946C52.3742 45.9776 57.6515 45.3574 60.4879 43.1118C62.277 41.6954 65.5029 44.9335 67.4904 44.9335C68.8649 44.9335 71.5448 44.4505 71.5448 41.8755V40.5441V29.3683C71.5448 22.8673 66.9146 21.5671 62.011 21.5671H15.3898C7.8487 21.5671 4.95113 24.2047 4.95113 29.3683Z" fill="url(#paint30_linear_7619_968)"/>
<path d="M4.95113 29.3683V41.8755C4.95113 44.1719 7.36577 44.9149 8.66002 44.9149C10.3376 44.9149 11.1209 44.0642 12.2508 43.1118C13.0866 42.4074 15.0858 42.3712 16.0213 43.1118C19.4687 45.7984 24.2965 45.7984 27.7439 43.1118C29.0525 42.092 31.1326 42.1339 32.3874 43.1118C34.1182 44.4606 36.1964 45.3662 38.2733 45.3607C40.3333 45.3552 42.3918 44.4496 44.1085 43.1118C45.3395 42.1525 47.4502 42.1403 48.6747 43.0946C52.3742 45.9776 57.6515 45.3574 60.4879 43.1118C62.277 41.6954 65.5029 44.9335 67.4904 44.9335C68.8649 44.9335 71.5448 44.4505 71.5448 41.8755V40.5441V29.3683C71.5448 22.8673 66.9146 21.5671 62.011 21.5671H15.3898C7.8487 21.5671 4.95113 24.2047 4.95113 29.3683Z" fill="url(#paint31_linear_7619_968)"/>
<path d="M4.95113 29.3683V41.8755C4.95113 44.1719 7.36577 44.9149 8.66002 44.9149C10.3376 44.9149 11.1209 44.0642 12.2508 43.1118C13.0866 42.4074 15.0858 42.3712 16.0213 43.1118C19.4687 45.7984 24.2965 45.7984 27.7439 43.1118C29.0525 42.092 31.1326 42.1339 32.3874 43.1118C34.1182 44.4606 36.1964 45.3662 38.2733 45.3607C40.3333 45.3552 42.3918 44.4496 44.1085 43.1118C45.3395 42.1525 47.4502 42.1403 48.6747 43.0946C52.3742 45.9776 57.6515 45.3574 60.4879 43.1118C62.277 41.6954 65.5029 44.9335 67.4904 44.9335C68.8649 44.9335 71.5448 44.4505 71.5448 41.8755V40.5441V29.3683C71.5448 22.8673 66.9146 21.5671 62.011 21.5671H15.3898C7.8487 21.5671 4.95113 24.2047 4.95113 29.3683Z" fill="url(#paint32_radial_7619_968)"/>
<path d="M4.95113 29.3683V41.8755C4.95113 44.1719 7.36577 44.9149 8.66002 44.9149C10.3376 44.9149 11.1209 44.0642 12.2508 43.1118C13.0866 42.4074 15.0858 42.3712 16.0213 43.1118C19.4687 45.7984 24.2965 45.7984 27.7439 43.1118C29.0525 42.092 31.1326 42.1339 32.3874 43.1118C34.1182 44.4606 36.1964 45.3662 38.2733 45.3607C40.3333 45.3552 42.3918 44.4496 44.1085 43.1118C45.3395 42.1525 47.4502 42.1403 48.6747 43.0946C52.3742 45.9776 57.6515 45.3574 60.4879 43.1118C62.277 41.6954 65.5029 44.9335 67.4904 44.9335C68.8649 44.9335 71.5448 44.4505 71.5448 41.8755V40.5441V29.3683C71.5448 22.8673 66.9146 21.5671 62.011 21.5671H15.3898C7.8487 21.5671 4.95113 24.2047 4.95113 29.3683Z" fill="url(#paint33_radial_7619_968)"/>
<path d="M4.95113 29.3683V41.8755C4.95113 44.1719 7.36577 44.9149 8.66002 44.9149C10.3376 44.9149 11.1209 44.0642 12.2508 43.1118C13.0866 42.4074 15.0858 42.3712 16.0213 43.1118C19.4687 45.7984 24.2965 45.7984 27.7439 43.1118C29.0525 42.092 31.1326 42.1339 32.3874 43.1118C34.1182 44.4606 36.1964 45.3662 38.2733 45.3607C40.3333 45.3552 42.3918 44.4496 44.1085 43.1118C45.3395 42.1525 47.4502 42.1403 48.6747 43.0946C52.3742 45.9776 57.6515 45.3574 60.4879 43.1118C62.277 41.6954 65.5029 44.9335 67.4904 44.9335C68.8649 44.9335 71.5448 44.4505 71.5448 41.8755V40.5441V29.3683C71.5448 22.8673 66.9146 21.5671 62.011 21.5671H15.3898C7.8487 21.5671 4.95113 24.2047 4.95113 29.3683Z" fill="url(#paint34_radial_7619_968)"/>
<path d="M4.95113 29.3683V41.8755C4.95113 44.1719 7.36577 44.9149 8.66002 44.9149C10.3376 44.9149 11.1209 44.0642 12.2508 43.1118C13.0866 42.4074 15.0858 42.3712 16.0213 43.1118C19.4687 45.7984 24.2965 45.7984 27.7439 43.1118C29.0525 42.092 31.1326 42.1339 32.3874 43.1118C34.1182 44.4606 36.1964 45.3662 38.2733 45.3607C40.3333 45.3552 42.3918 44.4496 44.1085 43.1118C45.3395 42.1525 47.4502 42.1403 48.6747 43.0946C52.3742 45.9776 57.6515 45.3574 60.4879 43.1118C62.277 41.6954 65.5029 44.9335 67.4904 44.9335C68.8649 44.9335 71.5448 44.4505 71.5448 41.8755V40.5441V29.3683C71.5448 22.8673 66.9146 21.5671 62.011 21.5671H15.3898C7.8487 21.5671 4.95113 24.2047 4.95113 29.3683Z" fill="url(#paint35_radial_7619_968)"/>
<path d="M4.95113 29.3683V41.8755C4.95113 44.1719 7.36577 44.9149 8.66002 44.9149C10.3376 44.9149 11.1209 44.0642 12.2508 43.1118C13.0866 42.4074 15.0858 42.3712 16.0213 43.1118C19.4687 45.7984 24.2965 45.7984 27.7439 43.1118C29.0525 42.092 31.1326 42.1339 32.3874 43.1118C34.1182 44.4606 36.1964 45.3662 38.2733 45.3607C40.3333 45.3552 42.3918 44.4496 44.1085 43.1118C45.3395 42.1525 47.4502 42.1403 48.6747 43.0946C52.3742 45.9776 57.6515 45.3574 60.4879 43.1118C62.277 41.6954 65.5029 44.9335 67.4904 44.9335C68.8649 44.9335 71.5448 44.4505 71.5448 41.8755V40.5441V29.3683C71.5448 22.8673 66.9146 21.5671 62.011 21.5671H15.3898C7.8487 21.5671 4.95113 24.2047 4.95113 29.3683Z" fill="url(#paint36_radial_7619_968)"/>
<path d="M4.95113 29.3683V41.8755C4.95113 44.1719 7.36577 44.9149 8.66002 44.9149C10.3376 44.9149 11.1209 44.0642 12.2508 43.1118C13.0866 42.4074 15.0858 42.3712 16.0213 43.1118C19.4687 45.7984 24.2965 45.7984 27.7439 43.1118C29.0525 42.092 31.1326 42.1339 32.3874 43.1118C34.1182 44.4606 36.1964 45.3662 38.2733 45.3607C40.3333 45.3552 42.3918 44.4496 44.1085 43.1118C45.3395 42.1525 47.4502 42.1403 48.6747 43.0946C52.3742 45.9776 57.6515 45.3574 60.4879 43.1118C62.277 41.6954 65.5029 44.9335 67.4904 44.9335C68.8649 44.9335 71.5448 44.4505 71.5448 41.8755V40.5441V29.3683C71.5448 22.8673 66.9146 21.5671 62.011 21.5671H15.3898C7.8487 21.5671 4.95113 24.2047 4.95113 29.3683Z" fill="url(#paint37_radial_7619_968)"/>
<path d="M4.95113 29.3683V41.8755C4.95113 44.1719 7.36577 44.9149 8.66002 44.9149C10.3376 44.9149 11.1209 44.0642 12.2508 43.1118C13.0866 42.4074 15.0858 42.3712 16.0213 43.1118C19.4687 45.7984 24.2965 45.7984 27.7439 43.1118C29.0525 42.092 31.1326 42.1339 32.3874 43.1118C34.1182 44.4606 36.1964 45.3662 38.2733 45.3607C40.3333 45.3552 42.3918 44.4496 44.1085 43.1118C45.3395 42.1525 47.4502 42.1403 48.6747 43.0946C52.3742 45.9776 57.6515 45.3574 60.4879 43.1118C62.277 41.6954 65.5029 44.9335 67.4904 44.9335C68.8649 44.9335 71.5448 44.4505 71.5448 41.8755V40.5441V29.3683C71.5448 22.8673 66.9146 21.5671 62.011 21.5671H15.3898C7.8487 21.5671 4.95113 24.2047 4.95113 29.3683Z" fill="url(#paint38_radial_7619_968)"/>
<path d="M4.95113 29.3683V41.8755C4.95113 44.1719 7.36577 44.9149 8.66002 44.9149C10.3376 44.9149 11.1209 44.0642 12.2508 43.1118C13.0866 42.4074 15.0858 42.3712 16.0213 43.1118C19.4687 45.7984 24.2965 45.7984 27.7439 43.1118C29.0525 42.092 31.1326 42.1339 32.3874 43.1118C34.1182 44.4606 36.1964 45.3662 38.2733 45.3607C40.3333 45.3552 42.3918 44.4496 44.1085 43.1118C45.3395 42.1525 47.4502 42.1403 48.6747 43.0946C52.3742 45.9776 57.6515 45.3574 60.4879 43.1118C62.277 41.6954 65.5029 44.9335 67.4904 44.9335C68.8649 44.9335 71.5448 44.4505 71.5448 41.8755V40.5441V29.3683C71.5448 22.8673 66.9146 21.5671 62.011 21.5671H15.3898C7.8487 21.5671 4.95113 24.2047 4.95113 29.3683Z" fill="url(#paint39_radial_7619_968)"/>
<path d="M4.95113 29.3683V41.8755C4.95113 44.1719 7.36577 44.9149 8.66002 44.9149C10.3376 44.9149 11.1209 44.0642 12.2508 43.1118C13.0866 42.4074 15.0858 42.3712 16.0213 43.1118C19.4687 45.7984 24.2965 45.7984 27.7439 43.1118C29.0525 42.092 31.1326 42.1339 32.3874 43.1118C34.1182 44.4606 36.1964 45.3662 38.2733 45.3607C40.3333 45.3552 42.3918 44.4496 44.1085 43.1118C45.3395 42.1525 47.4502 42.1403 48.6747 43.0946C52.3742 45.9776 57.6515 45.3574 60.4879 43.1118C62.277 41.6954 65.5029 44.9335 67.4904 44.9335C68.8649 44.9335 71.5448 44.4505 71.5448 41.8755V40.5441V29.3683C71.5448 22.8673 66.9146 21.5671 62.011 21.5671H15.3898C7.8487 21.5671 4.95113 24.2047 4.95113 29.3683Z" fill="url(#paint40_radial_7619_968)"/>
<path d="M4.95113 29.3683V41.8755C4.95113 44.1719 7.36577 44.9149 8.66002 44.9149C10.3376 44.9149 11.1209 44.0642 12.2508 43.1118C13.0866 42.4074 15.0858 42.3712 16.0213 43.1118C19.4687 45.7984 24.2965 45.7984 27.7439 43.1118C29.0525 42.092 31.1326 42.1339 32.3874 43.1118C34.1182 44.4606 36.1964 45.3662 38.2733 45.3607C40.3333 45.3552 42.3918 44.4496 44.1085 43.1118C45.3395 42.1525 47.4502 42.1403 48.6747 43.0946C52.3742 45.9776 57.6515 45.3574 60.4879 43.1118C62.277 41.6954 65.5029 44.9335 67.4904 44.9335C68.8649 44.9335 71.5448 44.4505 71.5448 41.8755V40.5441V29.3683C71.5448 22.8673 66.9146 21.5671 62.011 21.5671H15.3898C7.8487 21.5671 4.95113 24.2047 4.95113 29.3683Z" fill="url(#paint41_radial_7619_968)"/>
<path d="M4.95113 29.3683V41.8755C4.95113 44.1719 7.36577 44.9149 8.66002 44.9149C10.3376 44.9149 11.1209 44.0642 12.2508 43.1118C13.0866 42.4074 15.0858 42.3712 16.0213 43.1118C19.4687 45.7984 24.2965 45.7984 27.7439 43.1118C29.0525 42.092 31.1326 42.1339 32.3874 43.1118C34.1182 44.4606 36.1964 45.3662 38.2733 45.3607C40.3333 45.3552 42.3918 44.4496 44.1085 43.1118C45.3395 42.1525 47.4502 42.1403 48.6747 43.0946C52.3742 45.9776 57.6515 45.3574 60.4879 43.1118C62.277 41.6954 65.5029 44.9335 67.4904 44.9335C68.8649 44.9335 71.5448 44.4505 71.5448 41.8755V40.5441V29.3683C71.5448 22.8673 66.9146 21.5671 62.011 21.5671H15.3898C7.8487 21.5671 4.95113 24.2047 4.95113 29.3683Z" fill="url(#paint42_radial_7619_968)"/>
<path d="M4.95113 29.3683V41.8755C4.95113 44.1719 7.36577 44.9149 8.66002 44.9149C10.3376 44.9149 11.1209 44.0642 12.2508 43.1118C13.0866 42.4074 15.0858 42.3712 16.0213 43.1118C19.4687 45.7984 24.2965 45.7984 27.7439 43.1118C29.0525 42.092 31.1326 42.1339 32.3874 43.1118C34.1182 44.4606 36.1964 45.3662 38.2733 45.3607C40.3333 45.3552 42.3918 44.4496 44.1085 43.1118C45.3395 42.1525 47.4502 42.1403 48.6747 43.0946C52.3742 45.9776 57.6515 45.3574 60.4879 43.1118C62.277 41.6954 65.5029 44.9335 67.4904 44.9335C68.8649 44.9335 71.5448 44.4505 71.5448 41.8755V40.5441V29.3683C71.5448 22.8673 66.9146 21.5671 62.011 21.5671H15.3898C7.8487 21.5671 4.95113 24.2047 4.95113 29.3683Z" fill="url(#paint43_radial_7619_968)"/>
<path d="M4.95113 29.3683V41.8755C4.95113 44.1719 7.36577 44.9149 8.66002 44.9149C10.3376 44.9149 11.1209 44.0642 12.2508 43.1118C13.0866 42.4074 15.0858 42.3712 16.0213 43.1118C19.4687 45.7984 24.2965 45.7984 27.7439 43.1118C29.0525 42.092 31.1326 42.1339 32.3874 43.1118C34.1182 44.4606 36.1964 45.3662 38.2733 45.3607C40.3333 45.3552 42.3918 44.4496 44.1085 43.1118C45.3395 42.1525 47.4502 42.1403 48.6747 43.0946C52.3742 45.9776 57.6515 45.3574 60.4879 43.1118C62.277 41.6954 65.5029 44.9335 67.4904 44.9335C68.8649 44.9335 71.5448 44.4505 71.5448 41.8755V40.5441V29.3683C71.5448 22.8673 66.9146 21.5671 62.011 21.5671H15.3898C7.8487 21.5671 4.95113 24.2047 4.95113 29.3683Z" fill="url(#paint44_radial_7619_968)"/>
<path d="M4.95113 29.3683V41.8755C4.95113 44.1719 7.36577 44.9149 8.66002 44.9149C10.3376 44.9149 11.1209 44.0642 12.2508 43.1118C13.0866 42.4074 15.0858 42.3712 16.0213 43.1118C19.4687 45.7984 24.2965 45.7984 27.7439 43.1118C29.0525 42.092 31.1326 42.1339 32.3874 43.1118C34.1182 44.4606 36.1964 45.3662 38.2733 45.3607C40.3333 45.3552 42.3918 44.4496 44.1085 43.1118C45.3395 42.1525 47.4502 42.1403 48.6747 43.0946C52.3742 45.9776 57.6515 45.3574 60.4879 43.1118C62.277 41.6954 65.5029 44.9335 67.4904 44.9335C68.8649 44.9335 71.5448 44.4505 71.5448 41.8755V40.5441V29.3683C71.5448 22.8673 66.9146 21.5671 62.011 21.5671H15.3898C7.8487 21.5671 4.95113 24.2047 4.95113 29.3683Z" fill="url(#paint45_radial_7619_968)"/>
<path d="M4.95113 29.3683V41.8755C4.95113 44.1719 7.36577 44.9149 8.66002 44.9149C10.3376 44.9149 11.1209 44.0642 12.2508 43.1118C13.0866 42.4074 15.0858 42.3712 16.0213 43.1118C19.4687 45.7984 24.2965 45.7984 27.7439 43.1118C29.0525 42.092 31.1326 42.1339 32.3874 43.1118C34.1182 44.4606 36.1964 45.3662 38.2733 45.3607C40.3333 45.3552 42.3918 44.4496 44.1085 43.1118C45.3395 42.1525 47.4502 42.1403 48.6747 43.0946C52.3742 45.9776 57.6515 45.3574 60.4879 43.1118C62.277 41.6954 65.5029 44.9335 67.4904 44.9335C68.8649 44.9335 71.5448 44.4505 71.5448 41.8755V40.5441V29.3683C71.5448 22.8673 66.9146 21.5671 62.011 21.5671H15.3898C7.8487 21.5671 4.95113 24.2047 4.95113 29.3683Z" fill="url(#paint46_radial_7619_968)"/>
<path d="M4.95113 29.3683V41.8755C4.95113 44.1719 7.36577 44.9149 8.66002 44.9149C10.3376 44.9149 11.1209 44.0642 12.2508 43.1118C13.0866 42.4074 15.0858 42.3712 16.0213 43.1118C19.4687 45.7984 24.2965 45.7984 27.7439 43.1118C29.0525 42.092 31.1326 42.1339 32.3874 43.1118C34.1182 44.4606 36.1964 45.3662 38.2733 45.3607C40.3333 45.3552 42.3918 44.4496 44.1085 43.1118C45.3395 42.1525 47.4502 42.1403 48.6747 43.0946C52.3742 45.9776 57.6515 45.3574 60.4879 43.1118C62.277 41.6954 65.5029 44.9335 67.4904 44.9335C68.8649 44.9335 71.5448 44.4505 71.5448 41.8755V40.5441V29.3683C71.5448 22.8673 66.9146 21.5671 62.011 21.5671H15.3898C7.8487 21.5671 4.95113 24.2047 4.95113 29.3683Z" fill="url(#paint47_radial_7619_968)"/>
<path d="M4.95113 29.3683V41.8755C4.95113 44.1719 7.36577 44.9149 8.66002 44.9149C10.3376 44.9149 11.1209 44.0642 12.2508 43.1118C13.0866 42.4074 15.0858 42.3712 16.0213 43.1118C19.4687 45.7984 24.2965 45.7984 27.7439 43.1118C29.0525 42.092 31.1326 42.1339 32.3874 43.1118C34.1182 44.4606 36.1964 45.3662 38.2733 45.3607C40.3333 45.3552 42.3918 44.4496 44.1085 43.1118C45.3395 42.1525 47.4502 42.1403 48.6747 43.0946C52.3742 45.9776 57.6515 45.3574 60.4879 43.1118C62.277 41.6954 65.5029 44.9335 67.4904 44.9335C68.8649 44.9335 71.5448 44.4505 71.5448 41.8755V40.5441V29.3683C71.5448 22.8673 66.9146 21.5671 62.011 21.5671H15.3898C7.8487 21.5671 4.95113 24.2047 4.95113 29.3683Z" fill="url(#paint48_radial_7619_968)"/>
<path d="M4.95113 29.3683V41.8755C4.95113 44.1719 7.36577 44.9149 8.66002 44.9149C10.3376 44.9149 11.1209 44.0642 12.2508 43.1118C13.0866 42.4074 15.0858 42.3712 16.0213 43.1118C19.4687 45.7984 24.2965 45.7984 27.7439 43.1118C29.0525 42.092 31.1326 42.1339 32.3874 43.1118C34.1182 44.4606 36.1964 45.3662 38.2733 45.3607C40.3333 45.3552 42.3918 44.4496 44.1085 43.1118C45.3395 42.1525 47.4502 42.1403 48.6747 43.0946C52.3742 45.9776 57.6515 45.3574 60.4879 43.1118C62.277 41.6954 65.5029 44.9335 67.4904 44.9335C68.8649 44.9335 71.5448 44.4505 71.5448 41.8755V40.5441V29.3683C71.5448 22.8673 66.9146 21.5671 62.011 21.5671H15.3898C7.8487 21.5671 4.95113 24.2047 4.95113 29.3683Z" fill="url(#paint49_radial_7619_968)"/>
<path d="M4.95113 29.3683V41.8755C4.95113 44.1719 7.36577 44.9149 8.66002 44.9149C10.3376 44.9149 11.1209 44.0642 12.2508 43.1118C13.0866 42.4074 15.0858 42.3712 16.0213 43.1118C19.4687 45.7984 24.2965 45.7984 27.7439 43.1118C29.0525 42.092 31.1326 42.1339 32.3874 43.1118C34.1182 44.4606 36.1964 45.3662 38.2733 45.3607C40.3333 45.3552 42.3918 44.4496 44.1085 43.1118C45.3395 42.1525 47.4502 42.1403 48.6747 43.0946C52.3742 45.9776 57.6515 45.3574 60.4879 43.1118C62.277 41.6954 65.5029 44.9335 67.4904 44.9335C68.8649 44.9335 71.5448 44.4505 71.5448 41.8755V40.5441V29.3683C71.5448 22.8673 66.9146 21.5671 62.011 21.5671H15.3898C7.8487 21.5671 4.95113 24.2047 4.95113 29.3683Z" fill="url(#paint50_radial_7619_968)"/>
<path d="M4.95113 29.3683V41.8755C4.95113 44.1719 7.36577 44.9149 8.66002 44.9149C10.3376 44.9149 11.1209 44.0642 12.2508 43.1118C13.0866 42.4074 15.0858 42.3712 16.0213 43.1118C19.4687 45.7984 24.2965 45.7984 27.7439 43.1118C29.0525 42.092 31.1326 42.1339 32.3874 43.1118C34.1182 44.4606 36.1964 45.3662 38.2733 45.3607C40.3333 45.3552 42.3918 44.4496 44.1085 43.1118C45.3395 42.1525 47.4502 42.1403 48.6747 43.0946C52.3742 45.9776 57.6515 45.3574 60.4879 43.1118C62.277 41.6954 65.5029 44.9335 67.4904 44.9335C68.8649 44.9335 71.5448 44.4505 71.5448 41.8755V40.5441V29.3683C71.5448 22.8673 66.9146 21.5671 62.011 21.5671H15.3898C7.8487 21.5671 4.95113 24.2047 4.95113 29.3683Z" fill="url(#paint51_radial_7619_968)"/>
<path d="M4.95113 29.3683V41.8755C4.95113 44.1719 7.36577 44.9149 8.66002 44.9149C10.3376 44.9149 11.1209 44.0642 12.2508 43.1118C13.0866 42.4074 15.0858 42.3712 16.0213 43.1118C19.4687 45.7984 24.2965 45.7984 27.7439 43.1118C29.0525 42.092 31.1326 42.1339 32.3874 43.1118C34.1182 44.4606 36.1964 45.3662 38.2733 45.3607C40.3333 45.3552 42.3918 44.4496 44.1085 43.1118C45.3395 42.1525 47.4502 42.1403 48.6747 43.0946C52.3742 45.9776 57.6515 45.3574 60.4879 43.1118C62.277 41.6954 65.5029 44.9335 67.4904 44.9335C68.8649 44.9335 71.5448 44.4505 71.5448 41.8755V40.5441V29.3683C71.5448 22.8673 66.9146 21.5671 62.011 21.5671H15.3898C7.8487 21.5671 4.95113 24.2047 4.95113 29.3683Z" fill="url(#paint52_radial_7619_968)"/>
<path d="M4.95113 29.3683V41.8755C4.95113 44.1719 7.36577 44.9149 8.66002 44.9149C10.3376 44.9149 11.1209 44.0642 12.2508 43.1118C13.0866 42.4074 15.0858 42.3712 16.0213 43.1118C19.4687 45.7984 24.2965 45.7984 27.7439 43.1118C29.0525 42.092 31.1326 42.1339 32.3874 43.1118C34.1182 44.4606 36.1964 45.3662 38.2733 45.3607C40.3333 45.3552 42.3918 44.4496 44.1085 43.1118C45.3395 42.1525 47.4502 42.1403 48.6747 43.0946C52.3742 45.9776 57.6515 45.3574 60.4879 43.1118C62.277 41.6954 65.5029 44.9335 67.4904 44.9335C68.8649 44.9335 71.5448 44.4505 71.5448 41.8755V40.5441V29.3683C71.5448 22.8673 66.9146 21.5671 62.011 21.5671H15.3898C7.8487 21.5671 4.95113 24.2047 4.95113 29.3683Z" fill="url(#paint53_radial_7619_968)"/>
<path d="M4.95113 29.3683V41.8755C4.95113 44.1719 7.36577 44.9149 8.66002 44.9149C10.3376 44.9149 11.1209 44.0642 12.2508 43.1118C13.0866 42.4074 15.0858 42.3712 16.0213 43.1118C19.4687 45.7984 24.2965 45.7984 27.7439 43.1118C29.0525 42.092 31.1326 42.1339 32.3874 43.1118C34.1182 44.4606 36.1964 45.3662 38.2733 45.3607C40.3333 45.3552 42.3918 44.4496 44.1085 43.1118C45.3395 42.1525 47.4502 42.1403 48.6747 43.0946C52.3742 45.9776 57.6515 45.3574 60.4879 43.1118C62.277 41.6954 65.5029 44.9335 67.4904 44.9335C68.8649 44.9335 71.5448 44.4505 71.5448 41.8755V40.5441V29.3683C71.5448 22.8673 66.9146 21.5671 62.011 21.5671H15.3898C7.8487 21.5671 4.95113 24.2047 4.95113 29.3683Z" fill="url(#paint54_radial_7619_968)"/>
<path d="M4.95113 29.3683V41.8755C4.95113 44.1719 7.36577 44.9149 8.66002 44.9149C10.3376 44.9149 11.1209 44.0642 12.2508 43.1118C13.0866 42.4074 15.0858 42.3712 16.0213 43.1118C19.4687 45.7984 24.2965 45.7984 27.7439 43.1118C29.0525 42.092 31.1326 42.1339 32.3874 43.1118C34.1182 44.4606 36.1964 45.3662 38.2733 45.3607C40.3333 45.3552 42.3918 44.4496 44.1085 43.1118C45.3395 42.1525 47.4502 42.1403 48.6747 43.0946C52.3742 45.9776 57.6515 45.3574 60.4879 43.1118C62.277 41.6954 65.5029 44.9335 67.4904 44.9335C68.8649 44.9335 71.5448 44.4505 71.5448 41.8755V40.5441V29.3683C71.5448 22.8673 66.9146 21.5671 62.011 21.5671H15.3898C7.8487 21.5671 4.95113 24.2047 4.95113 29.3683Z" fill="url(#paint55_radial_7619_968)"/>
<path d="M4.95113 29.3683V41.8755C4.95113 44.1719 7.36577 44.9149 8.66002 44.9149C10.3376 44.9149 11.1209 44.0642 12.2508 43.1118C13.0866 42.4074 15.0858 42.3712 16.0213 43.1118C19.4687 45.7984 24.2965 45.7984 27.7439 43.1118C29.0525 42.092 31.1326 42.1339 32.3874 43.1118C34.1182 44.4606 36.1964 45.3662 38.2733 45.3607C40.3333 45.3552 42.3918 44.4496 44.1085 43.1118C45.3395 42.1525 47.4502 42.1403 48.6747 43.0946C52.3742 45.9776 57.6515 45.3574 60.4879 43.1118C62.277 41.6954 65.5029 44.9335 67.4904 44.9335C68.8649 44.9335 71.5448 44.4505 71.5448 41.8755V40.5441V29.3683C71.5448 22.8673 66.9146 21.5671 62.011 21.5671H15.3898C7.8487 21.5671 4.95113 24.2047 4.95113 29.3683Z" fill="url(#paint56_radial_7619_968)"/>
<path d="M51.2083 37.8338C50.7328 38.3093 49.9957 38.3093 49.5202 37.8338L47.7609 36.0744C47.2854 35.5989 47.2854 34.8619 47.7609 34.3864C48.2364 33.9109 48.9734 33.9109 49.4489 34.3864L51.2083 36.1458C51.6838 36.6213 51.6838 37.3821 51.2083 37.8338Z" fill="url(#paint57_linear_7619_968)"/>
<path d="M51.2083 37.8338C50.7328 38.3093 49.9957 38.3093 49.5202 37.8338L47.7609 36.0744C47.2854 35.5989 47.2854 34.8619 47.7609 34.3864C48.2364 33.9109 48.9734 33.9109 49.4489 34.3864L51.2083 36.1458C51.6838 36.6213 51.6838 37.3821 51.2083 37.8338Z" fill="url(#paint58_radial_7619_968)"/>
<path d="M28.7113 34.3683C28.2358 33.8928 27.4988 33.8928 27.0233 34.3683L25.2639 36.1277C24.7884 36.6032 24.7884 37.3402 25.2639 37.8157C25.7394 38.2912 26.4765 38.2912 26.952 37.8157L28.7113 36.0564C29.163 35.5809 29.163 34.8438 28.7113 34.3683Z" fill="url(#paint59_linear_7619_968)"/>
<path d="M28.7113 34.3683C28.2358 33.8928 27.4988 33.8928 27.0233 34.3683L25.2639 36.1277C24.7884 36.6032 24.7884 37.3402 25.2639 37.8157C25.7394 38.2912 26.4765 38.2912 26.952 37.8157L28.7113 36.0564C29.163 35.5809 29.163 34.8438 28.7113 34.3683Z" fill="url(#paint60_radial_7619_968)"/>
<path d="M28.7113 34.3683C28.2358 33.8928 27.4988 33.8928 27.0233 34.3683L25.2639 36.1277C24.7884 36.6032 24.7884 37.3402 25.2639 37.8157C25.7394 38.2912 26.4765 38.2912 26.952 37.8157L28.7113 36.0564C29.163 35.5809 29.163 34.8438 28.7113 34.3683Z" fill="url(#paint61_radial_7619_968)"/>
<path d="M18.3773 30.6466C17.8287 31.0356 17.1021 30.9119 16.7132 30.3633L15.2742 28.3336C14.8852 27.785 15.009 27.0584 15.5575 26.6695C16.1061 26.2806 16.8327 26.4043 17.2216 26.9529L18.6607 28.9826C19.0301 29.5037 18.9024 30.2537 18.3773 30.6466Z" fill="url(#paint62_linear_7619_968)"/>
<path d="M18.3773 30.6466C17.8287 31.0356 17.1021 30.9119 16.7132 30.3633L15.2742 28.3336C14.8852 27.785 15.009 27.0584 15.5575 26.6695C16.1061 26.2806 16.8327 26.4043 17.2216 26.9529L18.6607 28.9826C19.0301 29.5037 18.9024 30.2537 18.3773 30.6466Z" fill="url(#paint63_radial_7619_968)"/>
<path d="M60.9235 26.693C60.3819 26.2945 59.6532 26.4054 59.2547 26.9471L57.7803 28.9513C57.3818 29.4929 57.4927 30.2215 58.0344 30.62C58.5761 31.0185 59.3047 30.9076 59.7032 30.3659L61.1776 28.3618C61.5761 27.8201 61.4616 27.068 60.9235 26.693Z" fill="url(#paint64_linear_7619_968)"/>
<path d="M60.9235 26.693C60.3819 26.2945 59.6532 26.4054 59.2547 26.9471L57.7803 28.9513C57.3818 29.4929 57.4927 30.2215 58.0344 30.62C58.5761 31.0185 59.3047 30.9076 59.7032 30.3659L61.1776 28.3618C61.5761 27.8201 61.4616 27.068 60.9235 26.693Z" fill="url(#paint65_radial_7619_968)"/>
<path d="M36.5242 26.9326C36.0487 27.4081 36.0487 28.1451 36.5242 28.6206L38.2836 30.3799C38.7591 30.8554 39.4961 30.8554 39.9716 30.3799C40.4471 29.9044 40.4471 29.1674 39.9716 28.6919L38.2122 26.9326C37.7367 26.4571 36.976 26.4571 36.5242 26.9326Z" fill="url(#paint66_linear_7619_968)"/>
<defs>
<linearGradient id="paint0_linear_7619_968" x1="20.4049" y1="18.8552" x2="25.1599" y2="18.8552" gradientUnits="userSpaceOnUse">
<stop stop-color="#3F92A6"/>
<stop offset="0.136719" stop-color="#52B4CF"/>
<stop offset="0.5625" stop-color="#73E5FF"/>
<stop offset="0.816406" stop-color="#71E2FC"/>
<stop offset="1" stop-color="#5BD0EF"/>
</linearGradient>
<radialGradient id="paint1_radial_7619_968" cx="0" cy="0" r="1" gradientUnits="userSpaceOnUse" gradientTransform="translate(23.804 15.6233) rotate(90) scale(1.20732 2.32177)">
<stop stop-color="#8BFDFF"/>
<stop offset="1" stop-color="#8DFFFF" stop-opacity="0"/>
</radialGradient>
<radialGradient id="paint2_radial_7619_968" cx="0" cy="0" r="1" gradientUnits="userSpaceOnUse" gradientTransform="translate(25.0112 4.21915) rotate(117.14) scale(9.93522 24.6966)">
<stop offset="0.175334" stop-color="#FFEF5B"/>
<stop offset="0.814394" stop-color="#FDA43A"/>
</radialGradient>
<radialGradient id="paint3_radial_7619_968" cx="0" cy="0" r="1" gradientUnits="userSpaceOnUse" gradientTransform="translate(23.3025 7.70312) rotate(106.757) scale(4.89615 4.89615)">
<stop stop-color="#FECF4D"/>
<stop offset="1" stop-color="#FF9B32"/>
</radialGradient>
<linearGradient id="paint4_linear_7619_968" x1="35.8586" y1="18.8552" x2="40.6135" y2="18.8552" gradientUnits="userSpaceOnUse">
<stop stop-color="#3F92A6"/>
<stop offset="0.136719" stop-color="#52B4CF"/>
<stop offset="0.5625" stop-color="#73E5FF"/>
<stop offset="0.816406" stop-color="#71E2FC"/>
<stop offset="1" stop-color="#5BD0EF"/>
</linearGradient>
<radialGradient id="paint5_radial_7619_968" cx="0" cy="0" r="1" gradientUnits="userSpaceOnUse" gradientTransform="translate(39.2576 15.6233) rotate(90) scale(1.20732 2.32177)">
<stop stop-color="#8BFDFF"/>
<stop offset="1" stop-color="#8DFFFF" stop-opacity="0"/>
</radialGradient>
<radialGradient id="paint6_radial_7619_968" cx="0" cy="0" r="1" gradientUnits="userSpaceOnUse" gradientTransform="translate(40.4887 4.21915) rotate(117.14) scale(9.93522 24.6966)">
<stop offset="0.175334" stop-color="#FFEF5B"/>
<stop offset="0.814394" stop-color="#FDA43A"/>
</radialGradient>
<radialGradient id="paint7_radial_7619_968" cx="0" cy="0" r="1" gradientUnits="userSpaceOnUse" gradientTransform="translate(38.756 7.7627) rotate(106.686) scale(4.91638 4.89797)">
<stop stop-color="#FECF4D"/>
<stop offset="1" stop-color="#FF9B32"/>
</radialGradient>
<linearGradient id="paint8_linear_7619_968" x1="51.3124" y1="19.0488" x2="56.0674" y2="19.0488" gradientUnits="userSpaceOnUse">
<stop stop-color="#3F92A6"/>
<stop offset="0.136719" stop-color="#52B4CF"/>
<stop offset="0.5625" stop-color="#73E5FF"/>
<stop offset="0.816406" stop-color="#71E2FC"/>
<stop offset="1" stop-color="#5BD0EF"/>
</linearGradient>
<radialGradient id="paint9_radial_7619_968" cx="0" cy="0" r="1" gradientUnits="userSpaceOnUse" gradientTransform="translate(54.7115 15.8169) rotate(90) scale(1.20732 2.32177)">
<stop stop-color="#8BFDFF"/>
<stop offset="1" stop-color="#8DFFFF" stop-opacity="0"/>
</radialGradient>
<radialGradient id="paint10_radial_7619_968" cx="0" cy="0" r="1" gradientUnits="userSpaceOnUse" gradientTransform="translate(55.9232 4.21915) rotate(117.062) scale(9.92834 24.6314)">
<stop offset="0.175334" stop-color="#FFEF5B"/>
<stop offset="0.814394" stop-color="#FDA43A"/>
</radialGradient>
<radialGradient id="paint11_radial_7619_968" cx="0" cy="0" r="1" gradientUnits="userSpaceOnUse" gradientTransform="translate(54.2099 7.70312) rotate(106.686) scale(4.91638 4.89798)">
<stop stop-color="#FECF4D"/>
<stop offset="1" stop-color="#FF9B32"/>
</radialGradient>
<linearGradient id="paint12_linear_7619_968" x1="4.9511" y1="53.6203" x2="70.4808" y2="53.6203" gradientUnits="userSpaceOnUse">
<stop offset="0.00558659" stop-color="#BB8960"/>
<stop offset="0.129252" stop-color="#DC9A6F"/>
<stop offset="0.543269" stop-color="#F6A377"/>
<stop offset="0.698413" stop-color="#F8A672"/>
<stop offset="0.858173" stop-color="#FBAA6C"/>
<stop offset="0.938776" stop-color="#E99952"/>
<stop offset="0.981859" stop-color="#CC894F"/>
</linearGradient>
<radialGradient id="paint13_radial_7619_968" cx="0" cy="0" r="1" gradientUnits="userSpaceOnUse" gradientTransform="translate(50.4207 57.6381) rotate(90) scale(27.1926 15.8671)">
<stop offset="0.00558659" stop-color="#FFBE8A"/>
<stop offset="0.981859" stop-color="#FFBB8A" stop-opacity="0"/>
</radialGradient>
<linearGradient id="paint14_linear_7619_968" x1="38.236" y1="59.124" x2="38.236" y2="72.0517" gradientUnits="userSpaceOnUse">
<stop offset="0.738506" stop-color="#F7A378" stop-opacity="0"/>
<stop offset="0.862069" stop-color="#E4828A"/>
<stop offset="0.954023" stop-color="#BA5CA3"/>
</linearGradient>
<linearGradient id="paint15_linear_7619_968" x1="38.236" y1="59.124" x2="38.236" y2="42.1831" gradientUnits="userSpaceOnUse">
<stop offset="0.827149" stop-color="#F7A378" stop-opacity="0"/>
<stop offset="1" stop-color="#B46653"/>
</linearGradient>
<radialGradient id="paint16_radial_7619_968" cx="0" cy="0" r="1" gradientUnits="userSpaceOnUse" gradientTransform="translate(33.0806 41.0179) rotate(-55.5176) scale(3.52619 7.28671)">
<stop offset="0.520894" stop-color="#D3725F"/>
<stop offset="0.953125" stop-color="#A95F3A" stop-opacity="0"/>
</radialGradient>
<radialGradient id="paint17_radial_7619_968" cx="0" cy="0" r="1" gradientUnits="userSpaceOnUse" gradientTransform="translate(50.3032 40.4684) rotate(-62.1597) scale(5.29184 7.84579)">
<stop offset="0.671875" stop-color="#B95C3F"/>
<stop offset="0.953125" stop-color="#A95F3A" stop-opacity="0"/>
</radialGradient>
<radialGradient id="paint18_radial_7619_968" cx="0" cy="0" r="1" gradientUnits="userSpaceOnUse" gradientTransform="translate(7.3286 39.2822) rotate(59.9082) scale(7.77763 5.67828)">
<stop offset="0.73255" stop-color="#CA5E39"/>
<stop offset="0.953125" stop-color="#A95F3A" stop-opacity="0"/>
</radialGradient>
<radialGradient id="paint19_radial_7619_968" cx="0" cy="0" r="1" gradientUnits="userSpaceOnUse" gradientTransform="translate(9.45594 37.8218) rotate(66.0032) scale(7.36537 5.3773)">
<stop offset="0.73255" stop-color="#CA5E39"/>
<stop offset="0.953125" stop-color="#A95F3A" stop-opacity="0"/>
</radialGradient>
<radialGradient id="paint20_radial_7619_968" cx="0" cy="0" r="1" gradientUnits="userSpaceOnUse" gradientTransform="translate(66.3215 41.0049) rotate(-80.4241) scale(5.28954 7.84238)">
<stop offset="0.671875" stop-color="#B95C3F"/>
<stop offset="0.953125" stop-color="#A95F3A" stop-opacity="0"/>
</radialGradient>
<radialGradient id="paint21_radial_7619_968" cx="0" cy="0" r="1" gradientUnits="userSpaceOnUse" gradientTransform="translate(19.2941 40.7575) rotate(-59.4208) scale(4.83009 7.16119)">
<stop offset="0.671875" stop-color="#C06A5A"/>
<stop offset="0.953125" stop-color="#A95F3A" stop-opacity="0"/>
</radialGradient>
<radialGradient id="paint22_radial_7619_968" cx="0" cy="0" r="1" gradientUnits="userSpaceOnUse" gradientTransform="translate(24.1751 41.2576) rotate(-115.074) scale(4.70325 6.97313)">
<stop offset="0.744622" stop-color="#C16B5B"/>
<stop offset="0.953125" stop-color="#A95F3A" stop-opacity="0"/>
</radialGradient>
<radialGradient id="paint23_radial_7619_968" cx="0" cy="0" r="1" gradientUnits="userSpaceOnUse" gradientTransform="translate(38.9332 41.311) rotate(-106.128) scale(5.28824 7.84045)">
<stop offset="0.671875" stop-color="#B95C3F"/>
<stop offset="0.953125" stop-color="#A95F3A" stop-opacity="0"/>
</radialGradient>
<radialGradient id="paint24_radial_7619_968" cx="0" cy="0" r="1" gradientUnits="userSpaceOnUse" gradientTransform="translate(32.3756 38.9169) rotate(-43.0694) scale(5.2509 9.73113)">
<stop offset="0.701734" stop-color="#C26D5D"/>
<stop offset="0.953125" stop-color="#A95F3A" stop-opacity="0"/>
</radialGradient>
<radialGradient id="paint25_radial_7619_968" cx="0" cy="0" r="1" gradientUnits="userSpaceOnUse" gradientTransform="translate(56.3376 41.3405) rotate(-115.641) scale(4.40519 6.53122)">
<stop offset="0.671875" stop-color="#C26D5C"/>
<stop offset="0.953125" stop-color="#A95F3A" stop-opacity="0"/>
</radialGradient>
<linearGradient id="paint26_linear_7619_968" x1="6.28844" y1="54.7803" x2="70.4808" y2="54.7803" gradientUnits="userSpaceOnUse">
<stop offset="0.00558659" stop-color="#C7A88A"/>
<stop offset="0.0378251" stop-color="#D3B08F"/>
<stop offset="0.205674" stop-color="#FFD0B4"/>
<stop offset="0.510638" stop-color="#FFE3CA"/>
<stop offset="0.799054" stop-color="#FFF7CF"/>
<stop offset="0.93287" stop-color="#FFE5B6"/>
<stop offset="0.991898" stop-color="#E9CAA0"/>
</linearGradient>
<radialGradient id="paint27_radial_7619_968" cx="0" cy="0" r="1" gradientUnits="userSpaceOnUse" gradientTransform="translate(62.011 27.6223) rotate(141.595) scale(52.1453 83.3597)">
<stop stop-color="#FFF2C2"/>
<stop offset="0.225954" stop-color="#FFF2C2" stop-opacity="0.644957"/>
<stop offset="0.636414" stop-color="#FFF1C1" stop-opacity="0"/>
</radialGradient>
<radialGradient id="paint28_radial_7619_968" cx="0" cy="0" r="1" gradientUnits="userSpaceOnUse" gradientTransform="translate(57.7018 26.4336) rotate(90) scale(3.19476 20.3573)">
<stop stop-color="#FFFCC8"/>
<stop offset="1" stop-color="#FFF9C7" stop-opacity="0"/>
</radialGradient>
<linearGradient id="paint29_linear_7619_968" x1="71.5448" y1="36.0921" x2="65.4286" y2="36.0921" gradientUnits="userSpaceOnUse">
<stop stop-color="#EAD3A8"/>
<stop offset="0.4655" stop-color="#FEE6B8"/>
<stop offset="0.902818" stop-color="#FFF0C2" stop-opacity="0"/>
</linearGradient>
<linearGradient id="paint30_linear_7619_968" x1="38.2479" y1="21.5671" x2="38.2479" y2="45.3607" gradientUnits="userSpaceOnUse">
<stop stop-color="#D8B38B"/>
<stop offset="0.0299084" stop-color="#F9C588"/>
<stop offset="0.160122" stop-color="#FFE59F" stop-opacity="0"/>
</linearGradient>
<linearGradient id="paint31_linear_7619_968" x1="4.95113" y1="36.0921" x2="19.3647" y2="36.0921" gradientUnits="userSpaceOnUse">
<stop stop-color="#A9967B"/>
<stop offset="0.412371" stop-color="#D2B79E"/>
<stop offset="1" stop-color="#DBBEA7" stop-opacity="0"/>
</linearGradient>
<radialGradient id="paint32_radial_7619_968" cx="0" cy="0" r="1" gradientUnits="userSpaceOnUse" gradientTransform="translate(11.1791 45.9722) rotate(-93.9312) scale(13.5867 28.3221)">
<stop offset="0.0510603" stop-color="#DD929D"/>
<stop offset="0.205516" stop-color="#D697AC" stop-opacity="0"/>
</radialGradient>
<radialGradient id="paint33_radial_7619_968" cx="0" cy="0" r="1" gradientUnits="userSpaceOnUse" gradientTransform="translate(58.5934 46.7167) rotate(-102.785) scale(19.8083 41.2912)">
<stop offset="0.0510603" stop-color="#DD929D"/>
<stop offset="0.205516" stop-color="#D697AC" stop-opacity="0"/>
</radialGradient>
<radialGradient id="paint34_radial_7619_968" cx="0" cy="0" r="1" gradientUnits="userSpaceOnUse" gradientTransform="translate(53.8384 46.4938) rotate(-88.8854) scale(19.0979 39.8103)">
<stop offset="0.0510603" stop-color="#DD929D"/>
<stop offset="0.170536" stop-color="#D697AC" stop-opacity="0"/>
</radialGradient>
<radialGradient id="paint35_radial_7619_968" cx="0" cy="0" r="1" gradientUnits="userSpaceOnUse" gradientTransform="translate(48.7862 45.3607) rotate(-73.1974) scale(18.7621 39.1104)">
<stop offset="0.0510603" stop-color="#DD929D"/>
<stop offset="0.170536" stop-color="#D697AC" stop-opacity="0"/>
</radialGradient>
<radialGradient id="paint36_radial_7619_968" cx="0" cy="0" r="1" gradientUnits="userSpaceOnUse" gradientTransform="translate(35.9329 48.7227) rotate(-49.3987) scale(28.0843 58.5429)">
<stop offset="0.0510603" stop-color="#DD929D"/>
<stop offset="0.170536" stop-color="#D697AC" stop-opacity="0"/>
</radialGradient>
<radialGradient id="paint37_radial_7619_968" cx="0" cy="0" r="1" gradientUnits="userSpaceOnUse" gradientTransform="translate(38.2479 47.9798) rotate(-86.4297) scale(24.8634 51.8288)">
<stop offset="0.0510603" stop-color="#DD929D"/>
<stop offset="0.170536" stop-color="#D697AC" stop-opacity="0"/>
</radialGradient>
<radialGradient id="paint38_radial_7619_968" cx="0" cy="0" r="1" gradientUnits="userSpaceOnUse" gradientTransform="translate(44.1798 46.3452) rotate(-100.708) scale(23.5914 49.1773)">
<stop offset="0.0510603" stop-color="#DD929D"/>
<stop offset="0.170536" stop-color="#D697AC" stop-opacity="0"/>
</radialGradient>
<radialGradient id="paint39_radial_7619_968" cx="0" cy="0" r="1" gradientUnits="userSpaceOnUse" gradientTransform="translate(46.7802 45.3607) rotate(-67.8589) scale(24.4443 26.9316)">
<stop offset="0.0510603" stop-color="#DD929D"/>
<stop offset="0.170536" stop-color="#D697AC" stop-opacity="0"/>
</radialGradient>
<radialGradient id="paint40_radial_7619_968" cx="0" cy="0" r="1" gradientUnits="userSpaceOnUse" gradientTransform="translate(19.1418 47.7569) rotate(-68.1117) scale(27.3034 56.9151)">
<stop offset="0.0510603" stop-color="#DD929D"/>
<stop offset="0.170536" stop-color="#D697AC" stop-opacity="0"/>
</radialGradient>
<radialGradient id="paint41_radial_7619_968" cx="0" cy="0" r="1" gradientUnits="userSpaceOnUse" gradientTransform="translate(25.6799 47.9055) rotate(-81.8699) scale(25.7425 53.6614)">
<stop offset="0.0510603" stop-color="#DD929D"/>
<stop offset="0.170536" stop-color="#D697AC" stop-opacity="0"/>
</radialGradient>
<radialGradient id="paint42_radial_7619_968" cx="0" cy="0" r="1" gradientUnits="userSpaceOnUse" gradientTransform="translate(28.0946 44.4507) rotate(-110.007) scale(15.4183 32.1401)">
<stop stop-color="#DD929D"/>
<stop offset="0.170536" stop-color="#D697AC" stop-opacity="0"/>
</radialGradient>
<radialGradient id="paint43_radial_7619_968" cx="0" cy="0" r="1" gradientUnits="userSpaceOnUse" gradientTransform="translate(6.65995 46.4195) rotate(-45.522) scale(23.0641 48.0782)">
<stop stop-color="#DD929D"/>
<stop offset="0.170536" stop-color="#D697AC" stop-opacity="0"/>
</radialGradient>
<radialGradient id="paint44_radial_7619_968" cx="0" cy="0" r="1" gradientUnits="userSpaceOnUse" gradientTransform="translate(11.7864 44.7479) rotate(-110.642) scale(11.5915 24.1629)">
<stop stop-color="#DD929D"/>
<stop offset="0.170536" stop-color="#D697AC" stop-opacity="0"/>
</radialGradient>
<radialGradient id="paint45_radial_7619_968" cx="0" cy="0" r="1" gradientUnits="userSpaceOnUse" gradientTransform="translate(13.421 44.0049) rotate(-92.6174) scale(13.0155 27.1314)">
<stop stop-color="#DD929D"/>
<stop offset="0.170536" stop-color="#D697AC" stop-opacity="0"/>
</radialGradient>
<radialGradient id="paint46_radial_7619_968" cx="0" cy="0" r="1" gradientUnits="userSpaceOnUse" gradientTransform="translate(69.4778 47.794) rotate(-126.82) scale(25.4764 53.1066)">
<stop offset="0.0510603" stop-color="#DD929D"/>
<stop offset="0.170536" stop-color="#D697AC" stop-opacity="0"/>
</radialGradient>
<radialGradient id="paint47_radial_7619_968" cx="0" cy="0" r="1" gradientUnits="userSpaceOnUse" gradientTransform="translate(64.76 46.3081) rotate(-91.4086) scale(18.1339 37.8009)">
<stop offset="0.0510603" stop-color="#DD929D"/>
<stop offset="0.170536" stop-color="#D697AC" stop-opacity="0"/>
</radialGradient>
<radialGradient id="paint48_radial_7619_968" cx="0" cy="0" r="1" gradientUnits="userSpaceOnUse" gradientTransform="translate(63.1255 43.8934) rotate(-79.2055) scale(9.71911 19.1446)">
<stop offset="0.0510603" stop-color="#DD929D"/>
<stop offset="0.170536" stop-color="#D697AC" stop-opacity="0"/>
</radialGradient>
<radialGradient id="paint49_radial_7619_968" cx="0" cy="0" r="1" gradientUnits="userSpaceOnUse" gradientTransform="translate(58.8534 29.7771) rotate(36.8699) scale(7.61542 10.1788)">
<stop offset="0.0510603" stop-color="#DD929D"/>
<stop offset="0.19122" stop-color="#D697AC" stop-opacity="0"/>
</radialGradient>
<radialGradient id="paint50_radial_7619_968" cx="0" cy="0" r="1" gradientUnits="userSpaceOnUse" gradientTransform="translate(48.6004 36.278) rotate(-44.2631) scale(8.16998 10.92)">
<stop offset="0.0143198" stop-color="#B46B75"/>
<stop offset="0.169546" stop-color="#D697AC" stop-opacity="0"/>
</radialGradient>
<radialGradient id="paint51_radial_7619_968" cx="0" cy="0" r="1" gradientUnits="userSpaceOnUse" gradientTransform="translate(49.4734 37.0953) rotate(-52.6371) scale(8.20266 10.9637)">
<stop offset="0.0143198" stop-color="#B46B75"/>
<stop offset="0.169546" stop-color="#D697AC" stop-opacity="0"/>
</radialGradient>
<radialGradient id="paint52_radial_7619_968" cx="0" cy="0" r="1" gradientUnits="userSpaceOnUse" gradientTransform="translate(37.6045 29.1827) rotate(-48.2155) scale(1.17076 2.33563)">
<stop offset="0.0143198" stop-color="#A88282"/>
<stop offset="1" stop-color="#D697AC" stop-opacity="0"/>
</radialGradient>
<radialGradient id="paint53_radial_7619_968" cx="0" cy="0" r="1" gradientUnits="userSpaceOnUse" gradientTransform="translate(38.106 29.6285) rotate(-44.3969) scale(1.24779 2.48931)">
<stop offset="0.0143198" stop-color="#7B5C5C"/>
<stop offset="1" stop-color="#D697AC" stop-opacity="0"/>
</radialGradient>
<radialGradient id="paint54_radial_7619_968" cx="0" cy="0" r="1" gradientUnits="userSpaceOnUse" gradientTransform="translate(16.1699 29.0155) rotate(-35.8034) scale(1.39702 2.78701)">
<stop offset="0.235706" stop-color="#AD7D7D"/>
<stop offset="1" stop-color="#D697AC" stop-opacity="0"/>
</radialGradient>
<radialGradient id="paint55_radial_7619_968" cx="0" cy="0" r="1" gradientUnits="userSpaceOnUse" gradientTransform="translate(16.6529 29.2941) rotate(-35.6279) scale(1.3711 2.73529)">
<stop offset="0.235706" stop-color="#AD7D7D"/>
<stop offset="1" stop-color="#D697AC" stop-opacity="0"/>
</radialGradient>
<radialGradient id="paint56_radial_7619_968" cx="0" cy="0" r="1" gradientUnits="userSpaceOnUse" gradientTransform="translate(25.8657 37.2067) rotate(-133.21) scale(1.68196 2.16991)">
<stop stop-color="#684848"/>
<stop offset="1" stop-color="#D697AC" stop-opacity="0"/>
</radialGradient>
<linearGradient id="paint57_linear_7619_968" x1="50.3824" y1="35.4363" x2="48.8431" y2="37.024" gradientUnits="userSpaceOnUse">
<stop stop-color="#FF79C8"/>
<stop offset="0.383961" stop-color="#FF79D8"/>
<stop offset="1" stop-color="#C557AB"/>
</linearGradient>
<radialGradient id="paint58_radial_7619_968" cx="0" cy="0" r="1" gradientUnits="userSpaceOnUse" gradientTransform="translate(50.9702 36.8817) rotate(127.091) scale(0.921184 0.918318)">
<stop stop-color="#FF80E2"/>
<stop offset="1" stop-color="#FF80E2" stop-opacity="0"/>
</radialGradient>
<linearGradient id="paint59_linear_7619_968" x1="26.0966" y1="35.2868" x2="27.7679" y2="36.887" gradientUnits="userSpaceOnUse">
<stop stop-color="#D29440"/>
<stop offset="0.309854" stop-color="#E29B3E"/>
<stop offset="0.635489" stop-color="#EE9744"/>
<stop offset="1" stop-color="#F19542"/>
</linearGradient>
<radialGradient id="paint60_radial_7619_968" cx="0" cy="0" r="1" gradientUnits="userSpaceOnUse" gradientTransform="translate(28.3918 34.9033) rotate(136.827) scale(4.77792 3.73764)">
<stop offset="0.629362" stop-color="#CF794B" stop-opacity="0"/>
<stop offset="1" stop-color="#CF794B"/>
</radialGradient>
<radialGradient id="paint61_radial_7619_968" cx="0" cy="0" r="1" gradientUnits="userSpaceOnUse" gradientTransform="translate(28.7633 34.4204) rotate(45) scale(2.36411 1.65488)">
<stop stop-color="#FFC054"/>
<stop offset="1" stop-color="#FFBD42" stop-opacity="0"/>
</radialGradient>
<linearGradient id="paint62_linear_7619_968" x1="17.9531" y1="28.1425" x2="16.1699" y2="29.4427" gradientUnits="userSpaceOnUse">
<stop stop-color="#FF79C8"/>
<stop offset="0.383961" stop-color="#FF79D8"/>
<stop offset="1" stop-color="#C557AB"/>
</linearGradient>
<radialGradient id="paint63_radial_7619_968" cx="0" cy="0" r="1" gradientUnits="userSpaceOnUse" gradientTransform="translate(18.2874 29.6655) rotate(136.637) scale(0.91975 0.915808)">
<stop stop-color="#FF80E2"/>
<stop offset="1" stop-color="#FF80E2" stop-opacity="0"/>
</radialGradient>
<linearGradient id="paint64_linear_7619_968" x1="58.4819" y1="27.9939" x2="60.3765" y2="29.3312" gradientUnits="userSpaceOnUse">
<stop stop-color="#FBA947"/>
<stop offset="0.309854" stop-color="#FFB841"/>
<stop offset="0.635489" stop-color="#FFC656"/>
<stop offset="1" stop-color="#F3A740"/>
</linearGradient>
<radialGradient id="paint65_radial_7619_968" cx="0" cy="0" r="1" gradientUnits="userSpaceOnUse" gradientTransform="translate(57.5532 31.3372) rotate(-15.2551) scale(2.54134)">
<stop offset="0.303141" stop-color="#D88043"/>
<stop offset="1" stop-color="#D98044" stop-opacity="0"/>
</radialGradient>
<linearGradient id="paint66_linear_7619_968" x1="39.2019" y1="27.8822" x2="37.6045" y2="29.5167" gradientUnits="userSpaceOnUse">
<stop stop-color="#4FC3FF"/>
<stop offset="0.370938" stop-color="#45B2FF"/>
<stop offset="1" stop-color="#417EDD"/>
</linearGradient>
</defs>
</svg>
