<svg width="200" height="94" viewBox="0 0 200 94" fill="none" xmlns="http://www.w3.org/2000/svg">
<path d="M0.107718 79.6216C6.44551 83.541 8.66483 87.1352 10.428 93.5007L36.0508 91.6705C36.0741 90.6224 36.0883 89.5712 36.0947 88.5177H34.8754H16.4778C16.4778 86.355 16.1841 83.311 15.8321 79.6643C13.9254 59.9084 10.3117 22.4654 42.4565 11.6554C6.82745 21.1032 -1.05593 40.4431 0.107718 79.6216Z" fill="#1D1D1D"/>
<path d="M70.9262 6.66792C74.1556 1.68496 80.8906 -0.806143 82.67 6.12619L70.9262 6.66792Z" fill="#262626"/>
<path d="M83.7376 6.08106C83.7376 6.08106 83.7376 -0.450271 77.3319 0.617491C70.9262 1.68525 70.9262 6.66792 70.9262 6.66792C74.1556 1.68496 80.8906 -0.806143 82.67 6.12619C83.0277 6.1109 83.3836 6.09586 83.7376 6.08106Z" fill="#3C3C3B"/>
<path d="M158.827 78.554C178.962 72.2092 191.266 68.3073 197.617 64.3551C182.519 50.4637 71.638 74.9946 41.9942 91.1087L158.827 78.554Z" fill="#1D1D1D"/>
<path d="M116.122 66.531C115.806 66.5987 115.491 66.6667 115.175 66.735C81.9557 73.9215 49.3506 83.9573 38.7716 91.1087C38.5682 91.2462 38.373 91.3826 38.186 91.5179L41.9942 91.1087C71.638 74.9946 182.519 50.4637 197.617 64.3551C198.582 63.7541 198.576 63.8447 200 62.4212C196.085 57.0831 178.517 56.752 155.925 59.5931C154.306 59.7967 152.662 60.0157 150.997 60.2492C140.415 61.7335 128.974 63.8039 117.545 66.2273C117.071 66.3279 116.596 66.4292 116.122 66.531Z" fill="#3C3C3B"/>
<path d="M34.8754 88.5177H36.0947C36.1301 82.6836 35.9275 76.7799 35.7275 70.9493C34.8615 45.7103 34.0427 21.8433 52.7768 10.9384C33.1017 20.85 33.6884 42.0415 34.5246 72.2397C34.6676 77.4059 34.818 82.8357 34.8754 88.5177Z" fill="#020101"/>
<path d="M38.186 91.5179C38.373 91.3826 38.5682 91.2462 38.7716 91.1087C38.7988 74.3194 38.8493 65.1781 39.6095 53.9989C38.0827 64.3516 38.1172 73.0004 38.1676 85.6264L38.1676 85.6284C38.1751 87.4982 38.1829 89.4552 38.186 91.5179Z" fill="#020101"/>
<path d="M115.716 55.4898C114.728 26.8495 114.07 7.76743 100.819 5.59561C113.1 8.5796 113.83 29.0391 115.082 64.1177L115.082 64.1364C115.104 64.7399 115.125 65.3479 115.147 65.9601C115.157 66.2176 115.166 66.4759 115.175 66.735C115.491 66.6667 115.806 66.5987 116.122 66.531C116.111 66.2732 116.101 66.0161 116.091 65.7596C115.948 62.2179 115.83 58.7918 115.716 55.4925L115.716 55.4898Z" fill="#020101"/>
<path d="M155.85 58.9791C155.875 59.183 155.9 59.3877 155.925 59.5931C178.517 56.752 196.085 57.0831 200 62.4212C197.865 56.7273 179.813 56.0441 155.85 58.9791Z" fill="#020101"/>
<path fill-rule="evenodd" clip-rule="evenodd" d="M117.527 65.4576C116.679 30.1781 116.047 10.7675 107.225 7.37891C138.414 9.95359 147.125 22.6009 150.933 59.6166C140.384 61.0572 128.959 63.0693 117.527 65.4576Z" fill="#262626"/>
<path d="M117.545 66.2273C128.974 63.8039 140.415 61.7335 150.997 60.2492C150.977 60.0478 150.957 59.847 150.936 59.647L150.933 59.6166C140.384 61.0572 128.959 63.0693 117.527 65.4576L117.545 66.2273Z" fill="#020101"/>
<path d="M150.997 60.2492C152.662 60.0157 154.306 59.7967 155.925 59.5931C155.9 59.3877 155.875 59.183 155.85 58.9791C154.235 59.1769 152.595 59.3896 150.933 59.6166L150.936 59.647C150.957 59.847 150.977 60.0478 150.997 60.2492Z" fill="#020101"/>
<path fill-rule="evenodd" clip-rule="evenodd" d="M36.0508 91.6705L38.186 91.5179C38.1829 89.4552 38.1751 87.4982 38.1676 85.6284L38.1676 85.6264C38.1172 73.0004 38.0827 64.3516 39.6095 53.9989C38.8493 65.1781 38.7988 74.3194 38.7716 91.1087C50.4754 82.7935 82.6014 72.9068 115.147 65.9601C115.125 65.3479 115.104 64.7399 115.082 64.1364L115.082 64.1177C113.83 29.0391 113.1 8.5796 100.819 5.59561C95.6562 5.63805 89.9816 5.82019 83.7376 6.08106C83.3836 6.09586 83.0277 6.1109 82.67 6.12619L70.9262 6.66792C59.8903 7.9053 50.4714 9.53004 42.4565 11.6554C10.3117 22.4654 13.9254 59.9084 15.8321 79.6643C16.1841 83.311 16.4778 86.355 16.4778 88.5177H34.8754C34.818 82.8357 34.6676 77.4059 34.5246 72.2397C33.6884 42.0415 33.1017 20.85 52.7768 10.9384C34.0427 21.8433 34.8615 45.7103 35.7275 70.9493C35.9275 76.7799 36.1301 82.6836 36.0947 88.5177C36.0883 89.5712 36.0741 90.6224 36.0508 91.6705Z" fill="#262626"/>
<path fill-rule="evenodd" clip-rule="evenodd" d="M155.85 58.9791C154.235 59.1769 152.595 59.3896 150.933 59.6166L150.936 59.647C147.13 22.6078 138.423 9.9543 107.225 7.37891C116.047 10.7675 116.679 30.1781 117.527 65.4576C117.048 65.5576 116.569 65.6583 116.091 65.7596C115.948 62.2179 115.83 58.7918 115.716 55.4925L115.716 55.4898C114.728 26.8495 114.07 7.76743 100.819 5.59561C141.078 5.26471 150.248 13.4269 155.85 58.9791Z" fill="#3C3C3B"/>
<path d="M116.122 66.531C116.596 66.4292 117.071 66.3279 117.545 66.2273L117.527 65.4576C117.048 65.5576 116.569 65.6583 116.091 65.7596C116.101 66.0161 116.111 66.2732 116.122 66.531Z" fill="#020101"/>
<path d="M38.7716 91.1087C49.3506 83.9573 81.9557 73.9215 115.175 66.735L115.147 65.9601C82.6014 72.9068 50.4754 82.7935 38.7716 91.1087Z" fill="#020101"/>
<path d="M83.2177 77.7288C135.76 65.3508 157.335 61.8024 181.438 62.0704" stroke="black" stroke-width="1.42349"/>
<path d="M3.90383 78.0892C3.43417 63.681 3.3955 53.5562 7.11722 43.9164" stroke="black" stroke-width="1.42349"/>
<path d="M110.083 22.4089C112.148 21.3136 114.65 21.3499 116.686 22.5183H116.685L127.318 28.5955C129.427 29.8015 130.723 32.0276 130.723 34.4392V46.5994C130.723 49.0122 129.42 51.2377 127.319 52.4431H127.318L116.685 58.5251C114.583 59.731 111.986 59.7321 109.884 58.5261V58.5251L99.2524 52.4431H99.2515C97.1505 51.2377 95.8472 49.0122 95.8472 46.5994V34.4392C95.8472 32.0264 97.1505 29.8008 99.2515 28.5955H99.2524L109.884 22.5183L110.083 22.4089ZM110.117 33.3953C109.495 33.3953 108.928 33.7214 108.625 34.2458L108.624 34.2488L105.461 39.6707C105.157 40.1979 105.157 40.8433 105.461 41.3708L108.629 46.7957L108.63 46.7986C108.934 47.3232 109.501 47.6501 110.123 47.6501H116.454C117.075 47.6501 117.642 47.3232 117.946 46.7986L117.947 46.7957L121.109 41.3708C121.413 40.8438 121.411 40.2033 121.1 39.6794L121.097 39.6736L117.935 34.2488L117.933 34.2458C117.63 33.7215 117.062 33.3953 116.441 33.3953H110.117Z" fill="#F5F5F5"/>
<path d="M110.083 22.4089C112.148 21.3136 114.65 21.3499 116.686 22.5183H116.685L127.318 28.5955C129.427 29.8015 130.723 32.0276 130.723 34.4392V46.5994C130.723 49.0122 129.42 51.2377 127.319 52.4431H127.318L116.685 58.5251C114.583 59.731 111.986 59.7321 109.884 58.5261V58.5251L99.2524 52.4431H99.2515C97.1505 51.2377 95.8472 49.0122 95.8472 46.5994V34.4392C95.8472 32.0264 97.1505 29.8008 99.2515 28.5955H99.2524L109.884 22.5183L110.083 22.4089ZM110.117 33.3953C109.495 33.3953 108.928 33.7214 108.625 34.2458L108.624 34.2488L105.461 39.6707C105.157 40.1979 105.157 40.8433 105.461 41.3708L108.629 46.7957L108.63 46.7986C108.934 47.3232 109.501 47.6501 110.123 47.6501H116.454C117.075 47.6501 117.642 47.3232 117.946 46.7986L117.947 46.7957L121.109 41.3708C121.413 40.8438 121.411 40.2033 121.1 39.6794L121.097 39.6736L117.935 34.2488L117.933 34.2458C117.63 33.7215 117.062 33.3953 116.441 33.3953H110.117Z" fill="#FF4860"/>
<path d="M110.083 22.4089C112.148 21.3136 114.65 21.3499 116.686 22.5183H116.685L127.318 28.5955C129.427 29.8015 130.723 32.0276 130.723 34.4392V46.5994C130.723 49.0122 129.42 51.2377 127.319 52.4431H127.318L116.685 58.5251C114.583 59.731 111.986 59.7321 109.884 58.5261V58.5251L99.2524 52.4431H99.2515C97.1505 51.2377 95.8472 49.0122 95.8472 46.5994V34.4392C95.8472 32.0264 97.1505 29.8008 99.2515 28.5955H99.2524L109.884 22.5183L110.083 22.4089ZM110.117 33.3953C109.495 33.3953 108.928 33.7214 108.625 34.2458L108.624 34.2488L105.461 39.6707C105.157 40.1979 105.157 40.8433 105.461 41.3708L108.629 46.7957L108.63 46.7986C108.934 47.3232 109.501 47.6501 110.123 47.6501H116.454C117.075 47.6501 117.642 47.3232 117.946 46.7986L117.947 46.7957L121.109 41.3708C121.413 40.8438 121.411 40.2033 121.1 39.6794L121.097 39.6736L117.935 34.2488L117.933 34.2458C117.63 33.7215 117.062 33.3953 116.441 33.3953H110.117Z" fill="url(#paint0_linear_9718_1731)"/>
<path d="M110.083 22.4089C112.148 21.3136 114.65 21.3499 116.686 22.5183H116.685L127.318 28.5955C129.427 29.8015 130.723 32.0276 130.723 34.4392V46.5994C130.723 49.0122 129.42 51.2377 127.319 52.4431H127.318L116.685 58.5251C114.583 59.731 111.986 59.7321 109.884 58.5261V58.5251L99.2524 52.4431H99.2515C97.1505 51.2377 95.8472 49.0122 95.8472 46.5994V34.4392C95.8472 32.0264 97.1505 29.8008 99.2515 28.5955H99.2524L109.884 22.5183L110.083 22.4089ZM110.117 33.3953C109.495 33.3953 108.928 33.7214 108.625 34.2458L108.624 34.2488L105.461 39.6707C105.157 40.1979 105.157 40.8433 105.461 41.3708L108.629 46.7957L108.63 46.7986C108.934 47.3232 109.501 47.6501 110.123 47.6501H116.454C117.075 47.6501 117.642 47.3232 117.946 46.7986L117.947 46.7957L121.109 41.3708C121.413 40.8438 121.411 40.2033 121.1 39.6794L121.097 39.6736L117.935 34.2488L117.933 34.2458C117.63 33.7215 117.062 33.3953 116.441 33.3953H110.117Z" fill="url(#paint1_radial_9718_1731)"/>
<path d="M110.083 22.4089C112.148 21.3136 114.65 21.3499 116.686 22.5183H116.685L127.318 28.5955C129.427 29.8015 130.723 32.0276 130.723 34.4392V46.5994C130.723 49.0122 129.42 51.2377 127.319 52.4431H127.318L116.685 58.5251C114.583 59.731 111.986 59.7321 109.884 58.5261V58.5251L99.2524 52.4431H99.2515C97.1505 51.2377 95.8472 49.0122 95.8472 46.5994V34.4392C95.8472 32.0264 97.1505 29.8008 99.2515 28.5955H99.2524L109.884 22.5183L110.083 22.4089ZM110.117 33.3953C109.495 33.3953 108.928 33.7214 108.625 34.2458L108.624 34.2488L105.461 39.6707C105.157 40.1979 105.157 40.8433 105.461 41.3708L108.629 46.7957L108.63 46.7986C108.934 47.3232 109.501 47.6501 110.123 47.6501H116.454C117.075 47.6501 117.642 47.3232 117.946 46.7986L117.947 46.7957L121.109 41.3708C121.413 40.8438 121.411 40.2033 121.1 39.6794L121.097 39.6736L117.935 34.2488L117.933 34.2458C117.63 33.7215 117.062 33.3953 116.441 33.3953H110.117Z" fill="url(#paint2_radial_9718_1731)"/>
<path d="M110.083 22.4089C112.148 21.3136 114.65 21.3499 116.686 22.5183H116.685L127.318 28.5955C129.427 29.8015 130.723 32.0276 130.723 34.4392V46.5994C130.723 49.0122 129.42 51.2377 127.319 52.4431H127.318L116.685 58.5251C114.583 59.731 111.986 59.7321 109.884 58.5261V58.5251L99.2524 52.4431H99.2515C97.1505 51.2377 95.8472 49.0122 95.8472 46.5994V34.4392C95.8472 32.0264 97.1505 29.8008 99.2515 28.5955H99.2524L109.884 22.5183L110.083 22.4089ZM110.117 33.3953C109.495 33.3953 108.928 33.7214 108.625 34.2458L108.624 34.2488L105.461 39.6707C105.157 40.1979 105.157 40.8433 105.461 41.3708L108.629 46.7957L108.63 46.7986C108.934 47.3232 109.501 47.6501 110.123 47.6501H116.454C117.075 47.6501 117.642 47.3232 117.946 46.7986L117.947 46.7957L121.109 41.3708C121.413 40.8438 121.411 40.2033 121.1 39.6794L121.097 39.6736L117.935 34.2488L117.933 34.2458C117.63 33.7215 117.062 33.3953 116.441 33.3953H110.117Z" fill="url(#paint3_radial_9718_1731)"/>
<path d="M110.083 22.4089C112.148 21.3136 114.65 21.3499 116.686 22.5183H116.685L127.318 28.5955C129.427 29.8015 130.723 32.0276 130.723 34.4392V46.5994C130.723 49.0122 129.42 51.2377 127.319 52.4431H127.318L116.685 58.5251C114.583 59.731 111.986 59.7321 109.884 58.5261V58.5251L99.2524 52.4431H99.2515C97.1505 51.2377 95.8472 49.0122 95.8472 46.5994V34.4392C95.8472 32.0264 97.1505 29.8008 99.2515 28.5955H99.2524L109.884 22.5183L110.083 22.4089ZM110.117 33.3953C109.495 33.3953 108.928 33.7214 108.625 34.2458L108.624 34.2488L105.461 39.6707C105.157 40.1979 105.157 40.8433 105.461 41.3708L108.629 46.7957L108.63 46.7986C108.934 47.3232 109.501 47.6501 110.123 47.6501H116.454C117.075 47.6501 117.642 47.3232 117.946 46.7986L117.947 46.7957L121.109 41.3708C121.413 40.8438 121.411 40.2033 121.1 39.6794L121.097 39.6736L117.935 34.2488L117.933 34.2458C117.63 33.7215 117.062 33.3953 116.441 33.3953H110.117Z" fill="url(#paint4_radial_9718_1731)"/>
<path d="M110.083 22.4089C112.148 21.3136 114.65 21.3499 116.686 22.5183H116.685L127.318 28.5955C129.427 29.8015 130.723 32.0276 130.723 34.4392V46.5994C130.723 49.0122 129.42 51.2377 127.319 52.4431H127.318L116.685 58.5251C114.583 59.731 111.986 59.7321 109.884 58.5261V58.5251L99.2524 52.4431H99.2515C97.1505 51.2377 95.8472 49.0122 95.8472 46.5994V34.4392C95.8472 32.0264 97.1505 29.8008 99.2515 28.5955H99.2524L109.884 22.5183L110.083 22.4089ZM110.117 33.3953C109.495 33.3953 108.928 33.7214 108.625 34.2458L108.624 34.2488L105.461 39.6707C105.157 40.1979 105.157 40.8433 105.461 41.3708L108.629 46.7957L108.63 46.7986C108.934 47.3232 109.501 47.6501 110.123 47.6501H116.454C117.075 47.6501 117.642 47.3232 117.946 46.7986L117.947 46.7957L121.109 41.3708C121.413 40.8438 121.411 40.2033 121.1 39.6794L121.097 39.6736L117.935 34.2488L117.933 34.2458C117.63 33.7215 117.062 33.3953 116.441 33.3953H110.117Z" fill="url(#paint5_radial_9718_1731)"/>
<path d="M110.083 22.4089C112.148 21.3136 114.65 21.3499 116.686 22.5183H116.685L127.318 28.5955C129.427 29.8015 130.723 32.0276 130.723 34.4392V46.5994C130.723 49.0122 129.42 51.2377 127.319 52.4431H127.318L116.685 58.5251C114.583 59.731 111.986 59.7321 109.884 58.5261V58.5251L99.2524 52.4431H99.2515C97.1505 51.2377 95.8472 49.0122 95.8472 46.5994V34.4392C95.8472 32.0264 97.1505 29.8008 99.2515 28.5955H99.2524L109.884 22.5183L110.083 22.4089ZM110.117 33.3953C109.495 33.3953 108.928 33.7214 108.625 34.2458L108.624 34.2488L105.461 39.6707C105.157 40.1979 105.157 40.8433 105.461 41.3708L108.629 46.7957L108.63 46.7986C108.934 47.3232 109.501 47.6501 110.123 47.6501H116.454C117.075 47.6501 117.642 47.3232 117.946 46.7986L117.947 46.7957L121.109 41.3708C121.413 40.8438 121.411 40.2033 121.1 39.6794L121.097 39.6736L117.935 34.2488L117.933 34.2458C117.63 33.7215 117.062 33.3953 116.441 33.3953H110.117Z" fill="url(#paint6_radial_9718_1731)"/>
<path d="M110.083 22.4089C112.148 21.3136 114.65 21.3499 116.686 22.5183H116.685L127.318 28.5955C129.427 29.8015 130.723 32.0276 130.723 34.4392V46.5994C130.723 49.0122 129.42 51.2377 127.319 52.4431H127.318L116.685 58.5251C114.583 59.731 111.986 59.7321 109.884 58.5261V58.5251L99.2524 52.4431H99.2515C97.1505 51.2377 95.8472 49.0122 95.8472 46.5994V34.4392C95.8472 32.0264 97.1505 29.8008 99.2515 28.5955H99.2524L109.884 22.5183L110.083 22.4089ZM110.117 33.3953C109.495 33.3953 108.928 33.7214 108.625 34.2458L108.624 34.2488L105.461 39.6707C105.157 40.1979 105.157 40.8433 105.461 41.3708L108.629 46.7957L108.63 46.7986C108.934 47.3232 109.501 47.6501 110.123 47.6501H116.454C117.075 47.6501 117.642 47.3232 117.946 46.7986L117.947 46.7957L121.109 41.3708C121.413 40.8438 121.411 40.2033 121.1 39.6794L121.097 39.6736L117.935 34.2488L117.933 34.2458C117.63 33.7215 117.062 33.3953 116.441 33.3953H110.117Z" stroke="#020101" stroke-width="1.42349"/>
<defs>
<linearGradient id="paint0_linear_9718_1731" x1="124.256" y1="40.2398" x2="104.059" y2="40.3348" gradientUnits="userSpaceOnUse">
<stop offset="0.313754" stop-color="#FF58AD"/>
<stop offset="0.706857" stop-color="#FF58AD" stop-opacity="0"/>
</linearGradient>
<radialGradient id="paint1_radial_9718_1731" cx="0" cy="0" r="1" gradientUnits="userSpaceOnUse" gradientTransform="translate(123.215 42.2897) rotate(133.171) scale(8.58848 4.72454)">
<stop stop-color="#FF6099"/>
<stop offset="1" stop-color="#FF6099" stop-opacity="0"/>
</radialGradient>
<radialGradient id="paint2_radial_9718_1731" cx="0" cy="0" r="1" gradientUnits="userSpaceOnUse" gradientTransform="translate(115.315 22.3259) rotate(84.2417) scale(4.60975 6.11225)">
<stop stop-color="#A7464A"/>
<stop offset="1" stop-color="#A7464A" stop-opacity="0"/>
</radialGradient>
<radialGradient id="paint3_radial_9718_1731" cx="0" cy="0" r="1" gradientUnits="userSpaceOnUse" gradientTransform="translate(99.0499 34.623) rotate(-61.2746) scale(22.1334 4.91349)">
<stop offset="0.326622" stop-color="#B34146"/>
<stop offset="1" stop-color="#B34146" stop-opacity="0"/>
</radialGradient>
<radialGradient id="paint4_radial_9718_1731" cx="0" cy="0" r="1" gradientUnits="userSpaceOnUse" gradientTransform="translate(110.227 22.3259) rotate(49.3555) scale(6.74551 2.68478)">
<stop stop-color="#EE7278"/>
<stop offset="1" stop-color="#EE7278" stop-opacity="0"/>
</radialGradient>
<radialGradient id="paint5_radial_9718_1731" cx="0" cy="0" r="1" gradientUnits="userSpaceOnUse" gradientTransform="translate(108.3 42.8654) rotate(79.7989) scale(3.91723 8.36874)">
<stop offset="0.2" stop-color="#E7284F"/>
<stop offset="1" stop-color="#EE2B51" stop-opacity="0"/>
</radialGradient>
<radialGradient id="paint6_radial_9718_1731" cx="0" cy="0" r="1" gradientUnits="userSpaceOnUse" gradientTransform="translate(109.533 41.6689) rotate(90) scale(3.32354 9.17299)">
<stop offset="0.36" stop-color="#AD1638"/>
<stop offset="0.84" stop-color="#B11739" stop-opacity="0"/>
</radialGradient>
</defs>
</svg>
