<svg width="89" height="88" viewBox="0 0 89 88" fill="none" xmlns="http://www.w3.org/2000/svg">
<path fill-rule="evenodd" clip-rule="evenodd" d="M67.9899 18.8988C65.5197 18.2086 62.952 19.6413 62.2402 22.1234C61.878 23.3864 60.5605 24.1167 59.2974 23.7545C58.0344 23.3923 57.3041 22.0748 57.6663 20.8117C59.093 15.8367 64.2479 12.9329 69.2355 14.3063C69.3287 14.3295 69.5157 14.3764 69.6845 14.4327C76.53 16.7145 77.0745 26.0033 70.9353 29.398C70.935 29.3981 70.9355 29.3978 70.9353 29.398L57.2883 36.9491C56.1386 37.5852 54.6909 37.1689 54.0548 36.0192C53.4186 34.8695 53.8349 33.4218 54.9846 32.7856L68.6315 25.2345C71.3279 23.744 70.8914 19.8649 68.1953 18.952L68.1784 18.9474C68.1481 18.9393 68.1118 18.9302 68.0532 18.9155C68.032 18.9102 68.0109 18.9046 67.9899 18.8988Z" fill="#FFD340"/>
<path fill-rule="evenodd" clip-rule="evenodd" d="M67.9899 18.8988C65.5197 18.2086 62.952 19.6413 62.2402 22.1234C61.878 23.3864 60.5605 24.1167 59.2974 23.7545C58.0344 23.3923 57.3041 22.0748 57.6663 20.8117C59.093 15.8367 64.2479 12.9329 69.2355 14.3063C69.3287 14.3295 69.5157 14.3764 69.6845 14.4327C76.53 16.7145 77.0745 26.0033 70.9353 29.398C70.935 29.3981 70.9355 29.3978 70.9353 29.398L57.2883 36.9491C56.1386 37.5852 54.6909 37.1689 54.0548 36.0192C53.4186 34.8695 53.8349 33.4218 54.9846 32.7856L68.6315 25.2345C71.3279 23.744 70.8914 19.8649 68.1953 18.952L68.1784 18.9474C68.1481 18.9393 68.1118 18.9302 68.0532 18.9155C68.032 18.9102 68.0109 18.9046 67.9899 18.8988Z" fill="url(#paint0_linear_9879_2036)"/>
<path fill-rule="evenodd" clip-rule="evenodd" d="M67.9899 18.8988C65.5197 18.2086 62.952 19.6413 62.2402 22.1234C61.878 23.3864 60.5605 24.1167 59.2974 23.7545C58.0344 23.3923 57.3041 22.0748 57.6663 20.8117C59.093 15.8367 64.2479 12.9329 69.2355 14.3063C69.3287 14.3295 69.5157 14.3764 69.6845 14.4327C76.53 16.7145 77.0745 26.0033 70.9353 29.398C70.935 29.3981 70.9355 29.3978 70.9353 29.398L57.2883 36.9491C56.1386 37.5852 54.6909 37.1689 54.0548 36.0192C53.4186 34.8695 53.8349 33.4218 54.9846 32.7856L68.6315 25.2345C71.3279 23.744 70.8914 19.8649 68.1953 18.952L68.1784 18.9474C68.1481 18.9393 68.1118 18.9302 68.0532 18.9155C68.032 18.9102 68.0109 18.9046 67.9899 18.8988Z" fill="url(#paint1_radial_9879_2036)"/>
<path fill-rule="evenodd" clip-rule="evenodd" d="M17.8854 14.3063C22.873 12.9329 28.0279 15.8367 29.4546 20.8117C29.8168 22.0748 29.0865 23.3923 27.8235 23.7545C26.5604 24.1167 25.2429 23.3864 24.8807 22.1234C24.1689 19.6413 21.6012 18.2086 19.131 18.8988C19.11 18.9046 19.0889 18.9102 19.0677 18.9155C19.0091 18.9302 18.9727 18.9393 18.9425 18.9474L18.9256 18.952C16.2295 19.8649 15.7922 23.7435 18.4885 25.2341L32.1363 32.7856C33.286 33.4218 33.7023 34.8695 33.0661 36.0192C32.43 37.1689 30.9823 37.5852 29.8326 36.9491L16.1865 29.3984C16.1862 29.3983 16.1868 29.3986 16.1865 29.3984C10.0472 26.0038 10.5909 16.7145 17.4364 14.4327C17.6053 14.3764 17.7922 14.3295 17.8854 14.3063Z" fill="#EAA73A"/>
<path fill-rule="evenodd" clip-rule="evenodd" d="M17.8854 14.3063C22.873 12.9329 28.0279 15.8367 29.4546 20.8117C29.8168 22.0748 29.0865 23.3923 27.8235 23.7545C26.5604 24.1167 25.2429 23.3864 24.8807 22.1234C24.1689 19.6413 21.6012 18.2086 19.131 18.8988C19.11 18.9046 19.0889 18.9102 19.0677 18.9155C19.0091 18.9302 18.9727 18.9393 18.9425 18.9474L18.9256 18.952C16.2295 19.8649 15.7922 23.7435 18.4885 25.2341L32.1363 32.7856C33.286 33.4218 33.7023 34.8695 33.0661 36.0192C32.43 37.1689 30.9823 37.5852 29.8326 36.9491L16.1865 29.3984C16.1862 29.3983 16.1868 29.3986 16.1865 29.3984C10.0472 26.0038 10.5909 16.7145 17.4364 14.4327C17.6053 14.3764 17.7922 14.3295 17.8854 14.3063Z" fill="url(#paint2_linear_9879_2036)"/>
<path d="M48.1461 48.2401V36.6526H38.9748V48.2401C38.9748 50.272 38.0687 52.2216 36.5036 53.5121L31.2316 57.9055H55.8893L50.6173 53.5121C49.0522 52.1941 48.1461 50.272 48.1461 48.2401Z" fill="url(#paint3_linear_9879_2036)"/>
<path d="M48.1461 48.2401V36.6526H38.9748V48.2401C38.9748 50.272 38.0687 52.2216 36.5036 53.5121L31.2316 57.9055H55.8893L50.6173 53.5121C49.0522 52.1941 48.1461 50.272 48.1461 48.2401Z" fill="url(#paint4_radial_9879_2036)"/>
<path d="M48.1461 48.2401V36.6526H38.9748V48.2401C38.9748 50.272 38.0687 52.2216 36.5036 53.5121L31.2316 57.9055H55.8893L50.6173 53.5121C49.0522 52.1941 48.1461 50.272 48.1461 48.2401Z" fill="url(#paint5_radial_9879_2036)"/>
<path d="M43.5606 45.5766C32.989 45.5766 24.4219 37.0095 24.4219 26.438V7.60139C24.4219 6.53051 25.3006 5.65186 26.3715 5.65186H60.7771C61.8479 5.65186 62.7267 6.53051 62.7267 7.60139V26.438C62.7267 37.0095 54.1596 45.5766 43.5606 45.5766Z" fill="#EA873A"/>
<path d="M43.5606 45.5766C32.989 45.5766 24.4219 37.0095 24.4219 26.438V7.60139C24.4219 6.53051 25.3006 5.65186 26.3715 5.65186H60.7771C61.8479 5.65186 62.7267 6.53051 62.7267 7.60139V26.438C62.7267 37.0095 54.1596 45.5766 43.5606 45.5766Z" fill="url(#paint6_radial_9879_2036)"/>
<path d="M43.5606 45.5766C32.989 45.5766 24.4219 37.0095 24.4219 26.438V7.60139C24.4219 6.53051 25.3006 5.65186 26.3715 5.65186H60.7771C61.8479 5.65186 62.7267 6.53051 62.7267 7.60139V26.438C62.7267 37.0095 54.1596 45.5766 43.5606 45.5766Z" fill="url(#paint7_radial_9879_2036)"/>
<path d="M43.5606 45.5766C32.989 45.5766 24.4219 37.0095 24.4219 26.438V7.60139C24.4219 6.53051 25.3006 5.65186 26.3715 5.65186H60.7771C61.8479 5.65186 62.7267 6.53051 62.7267 7.60139V26.438C62.7267 37.0095 54.1596 45.5766 43.5606 45.5766Z" fill="url(#paint8_radial_9879_2036)"/>
<path d="M62.5619 57.9055H24.5592C22.5547 57.9055 20.8523 59.3059 20.4679 61.2555L16.2667 80.7236C16.0745 81.6297 16.761 82.4809 17.6945 82.4809H69.454C70.3876 82.4809 71.0741 81.6297 70.8819 80.7236L66.6807 61.2555C66.2688 59.3059 64.5664 57.9055 62.5619 57.9055Z" fill="url(#paint9_linear_9879_2036)"/>
<path d="M62.5619 57.9055H24.5592C22.5547 57.9055 20.8523 59.3059 20.4679 61.2555L16.2667 80.7236C16.0745 81.6297 16.761 82.4809 17.6945 82.4809H69.454C70.3876 82.4809 71.0741 81.6297 70.8819 80.7236L66.6807 61.2555C66.2688 59.3059 64.5664 57.9055 62.5619 57.9055Z" fill="url(#paint10_linear_9879_2036)"/>
<path d="M62.5619 57.9055H24.5592C22.5547 57.9055 20.8523 59.3059 20.4679 61.2555L16.2667 80.7236C16.0745 81.6297 16.761 82.4809 17.6945 82.4809H69.454C70.3876 82.4809 71.0741 81.6297 70.8819 80.7236L66.6807 61.2555C66.2688 59.3059 64.5664 57.9055 62.5619 57.9055Z" fill="url(#paint11_linear_9879_2036)"/>
<path d="M62.5619 57.9055H24.5592C22.5547 57.9055 20.8523 59.3059 20.4679 61.2555L16.2667 80.7236C16.0745 81.6297 16.761 82.4809 17.6945 82.4809H69.454C70.3876 82.4809 71.0741 81.6297 70.8819 80.7236L66.6807 61.2555C66.2688 59.3059 64.5664 57.9055 62.5619 57.9055Z" fill="url(#paint12_linear_9879_2036)"/>
<path d="M51.0954 65.7146H34.5653C33.6042 65.7146 32.808 66.4834 32.808 67.4719V72.442C32.808 73.403 33.5768 74.1993 34.5653 74.1993H51.0954C52.0565 74.1993 52.8527 73.4305 52.8527 72.442V67.4719C52.8527 66.5109 52.0839 65.7146 51.0954 65.7146Z" fill="#914556"/>
<path d="M51.8254 65.2092H35.2953C34.3343 65.2092 33.538 65.9781 33.538 66.9666V71.9366C33.538 72.8977 34.3068 73.694 35.2953 73.694H51.8254C52.7865 73.694 53.5827 72.9251 53.5827 71.9366V66.9666C53.5827 66.0055 52.814 65.2092 51.8254 65.2092Z" fill="url(#paint13_linear_9879_2036)"/>
<defs>
<linearGradient id="paint0_linear_9879_2036" x1="61.6241" y1="32.9294" x2="71.5959" y2="23.9331" gradientUnits="userSpaceOnUse">
<stop stop-color="#FEC551"/>
<stop offset="1" stop-color="#FEC551" stop-opacity="0"/>
</linearGradient>
<radialGradient id="paint1_radial_9879_2036" cx="0" cy="0" r="1" gradientUnits="userSpaceOnUse" gradientTransform="translate(61.7325 24.5834) rotate(-21.5519) scale(13.8679 12.7745)">
<stop offset="0.72717" stop-color="#FFEC6A" stop-opacity="0"/>
<stop offset="1" stop-color="#FFEC6A"/>
</radialGradient>
<linearGradient id="paint2_linear_9879_2036" x1="26.8312" y1="21.9821" x2="20.0027" y2="20.0311" gradientUnits="userSpaceOnUse">
<stop stop-color="#D27840"/>
<stop offset="1" stop-color="#D27840" stop-opacity="0"/>
</linearGradient>
<linearGradient id="paint3_linear_9879_2036" x1="47.118" y1="54.3908" x2="33.2171" y2="54.3908" gradientUnits="userSpaceOnUse">
<stop stop-color="#FBC33A"/>
<stop offset="1" stop-color="#DB7B3C"/>
</linearGradient>
<radialGradient id="paint4_radial_9879_2036" cx="0" cy="0" r="1" gradientUnits="userSpaceOnUse" gradientTransform="translate(47.8903 47.2791) rotate(90) scale(5.73885 5.23429)">
<stop offset="0.192585" stop-color="#FFE469"/>
<stop offset="1" stop-color="#FFE469" stop-opacity="0"/>
</radialGradient>
<radialGradient id="paint5_radial_9879_2036" cx="0" cy="0" r="1" gradientUnits="userSpaceOnUse" gradientTransform="translate(53.8123 56.0174) rotate(149.162) scale(6.24663 9.48433)">
<stop stop-color="#FFD34D"/>
<stop offset="1" stop-color="#FFD34D" stop-opacity="0"/>
</radialGradient>
<radialGradient id="paint6_radial_9879_2036" cx="0" cy="0" r="1" gradientUnits="userSpaceOnUse" gradientTransform="translate(50.5504 8.74095) rotate(83.702) scale(34.1136 21.9053)">
<stop offset="0.120527" stop-color="#FFFA73"/>
<stop offset="1" stop-color="#FFFA73" stop-opacity="0"/>
</radialGradient>
<radialGradient id="paint7_radial_9879_2036" cx="0" cy="0" r="1" gradientUnits="userSpaceOnUse" gradientTransform="translate(50.7704 5.65186) rotate(90) scale(1.934 21.6141)">
<stop stop-color="#FFF45B"/>
<stop offset="1" stop-color="#FFF45B" stop-opacity="0"/>
</radialGradient>
<radialGradient id="paint8_radial_9879_2036" cx="0" cy="0" r="1" gradientUnits="userSpaceOnUse" gradientTransform="translate(52.7814 13.203) rotate(121.572) scale(36.0561 34.5931)">
<stop offset="0.787409" stop-color="#C55D73" stop-opacity="0"/>
<stop offset="1" stop-color="#C55D73"/>
</radialGradient>
<linearGradient id="paint9_linear_9879_2036" x1="16.2335" y1="70.1855" x2="70.9036" y2="70.1855" gradientUnits="userSpaceOnUse">
<stop stop-color="#9D5B6C"/>
<stop offset="1" stop-color="#955569"/>
</linearGradient>
<linearGradient id="paint10_linear_9879_2036" x1="43.5743" y1="83.5481" x2="43.5743" y2="57.9055" gradientUnits="userSpaceOnUse">
<stop stop-color="#8C3A79"/>
<stop offset="0.199358" stop-color="#8C3A79" stop-opacity="0"/>
<stop offset="0.832827" stop-color="#834646" stop-opacity="0"/>
<stop offset="1" stop-color="#834646"/>
</linearGradient>
<linearGradient id="paint11_linear_9879_2036" x1="38.3004" y1="70.1932" x2="19.6454" y2="66.8877" gradientUnits="userSpaceOnUse">
<stop offset="0.832827" stop-color="#834646" stop-opacity="0"/>
<stop offset="1" stop-color="#834646"/>
</linearGradient>
<linearGradient id="paint12_linear_9879_2036" x1="68.8568" y1="72.9858" x2="66.2807" y2="73.5869" gradientUnits="userSpaceOnUse">
<stop stop-color="#B0817C"/>
<stop offset="1" stop-color="#B0817C" stop-opacity="0"/>
</linearGradient>
<linearGradient id="paint13_linear_9879_2036" x1="54.6109" y1="69.4516" x2="33.538" y2="69.4515" gradientUnits="userSpaceOnUse">
<stop stop-color="#FFE767"/>
<stop offset="1" stop-color="#FEBB5B"/>
</linearGradient>
</defs>
</svg>
