<svg width="77" height="77" viewBox="0 0 77 77" fill="none" xmlns="http://www.w3.org/2000/svg">
<path d="M35.2921 10.3121C37.1354 6.09793 41.1641 4.24722 45.2479 5.63131C49.6324 7.11546 51.5631 11.5737 49.1485 17.8518C47.8004 21.3567 46.2138 26.173 46.2138 26.173C46.2138 26.173 44.7577 28.0901 44.1143 28.7107C51.2829 32.3731 56.1951 39.8626 56.1951 48.5065C56.1951 50.8484 55.8346 53.1055 55.1663 55.2247L52.9376 71.2358C52.9376 71.2358 36.8895 70.9386 35.4407 70.9386C33.9919 70.9386 11.9258 71.7559 11.9258 48.5065C11.9258 34.459 21.3987 31.1188 24.1848 29.1096C26.9709 27.1004 29.731 24.0997 30.8343 22.0495C32.6882 18.6049 33.8029 13.7167 35.2921 10.3121Z" fill="url(#paint0_radial_7619_963)"/>
<path d="M35.2921 10.3121C37.1354 6.09793 41.1641 4.24722 45.2479 5.63131C49.6324 7.11546 51.5631 11.5737 49.1485 17.8518C47.8004 21.3567 46.2138 26.173 46.2138 26.173C46.2138 26.173 44.7577 28.0901 44.1143 28.7107C51.2829 32.3731 56.1951 39.8626 56.1951 48.5065C56.1951 50.8484 55.8346 53.1055 55.1663 55.2247L52.9376 71.2358C52.9376 71.2358 36.8895 70.9386 35.4407 70.9386C33.9919 70.9386 11.9258 71.7559 11.9258 48.5065C11.9258 34.459 21.3987 31.1188 24.1848 29.1096C26.9709 27.1004 29.731 24.0997 30.8343 22.0495C32.6882 18.6049 33.8029 13.7167 35.2921 10.3121Z" fill="url(#paint1_radial_7619_963)"/>
<path d="M35.2921 10.3121C37.1354 6.09793 41.1641 4.24722 45.2479 5.63131C49.6324 7.11546 51.5631 11.5737 49.1485 17.8518C47.8004 21.3567 46.2138 26.173 46.2138 26.173C46.2138 26.173 44.7577 28.0901 44.1143 28.7107C51.2829 32.3731 56.1951 39.8626 56.1951 48.5065C56.1951 50.8484 55.8346 53.1055 55.1663 55.2247L52.9376 71.2358C52.9376 71.2358 36.8895 70.9386 35.4407 70.9386C33.9919 70.9386 11.9258 71.7559 11.9258 48.5065C11.9258 34.459 21.3987 31.1188 24.1848 29.1096C26.9709 27.1004 29.731 24.0997 30.8343 22.0495C32.6882 18.6049 33.8029 13.7167 35.2921 10.3121Z" fill="url(#paint2_radial_7619_963)"/>
<path d="M35.2921 10.3121C37.1354 6.09793 41.1641 4.24722 45.2479 5.63131C49.6324 7.11546 51.5631 11.5737 49.1485 17.8518C47.8004 21.3567 46.2138 26.173 46.2138 26.173C46.2138 26.173 44.7577 28.0901 44.1143 28.7107C51.2829 32.3731 56.1951 39.8626 56.1951 48.5065C56.1951 50.8484 55.8346 53.1055 55.1663 55.2247L52.9376 71.2358C52.9376 71.2358 36.8895 70.9386 35.4407 70.9386C33.9919 70.9386 11.9258 71.7559 11.9258 48.5065C11.9258 34.459 21.3987 31.1188 24.1848 29.1096C26.9709 27.1004 29.731 24.0997 30.8343 22.0495C32.6882 18.6049 33.8029 13.7167 35.2921 10.3121Z" fill="url(#paint3_linear_7619_963)"/>
<path d="M35.2921 10.3121C37.1354 6.09793 41.1641 4.24722 45.2479 5.63131C49.6324 7.11546 51.5631 11.5737 49.1485 17.8518C47.8004 21.3567 46.2138 26.173 46.2138 26.173C46.2138 26.173 44.7577 28.0901 44.1143 28.7107C51.2829 32.3731 56.1951 39.8626 56.1951 48.5065C56.1951 50.8484 55.8346 53.1055 55.1663 55.2247L52.9376 71.2358C52.9376 71.2358 36.8895 70.9386 35.4407 70.9386C33.9919 70.9386 11.9258 71.7559 11.9258 48.5065C11.9258 34.459 21.3987 31.1188 24.1848 29.1096C26.9709 27.1004 29.731 24.0997 30.8343 22.0495C32.6882 18.6049 33.8029 13.7167 35.2921 10.3121Z" fill="url(#paint4_radial_7619_963)"/>
<path d="M35.2921 10.3121C37.1354 6.09793 41.1641 4.24722 45.2479 5.63131C49.6324 7.11546 51.5631 11.5737 49.1485 17.8518C47.8004 21.3567 46.2138 26.173 46.2138 26.173C46.2138 26.173 44.7577 28.0901 44.1143 28.7107C51.2829 32.3731 56.1951 39.8626 56.1951 48.5065C56.1951 50.8484 55.8346 53.1055 55.1663 55.2247L52.9376 71.2358C52.9376 71.2358 36.8895 70.9386 35.4407 70.9386C33.9919 70.9386 11.9258 71.7559 11.9258 48.5065C11.9258 34.459 21.3987 31.1188 24.1848 29.1096C26.9709 27.1004 29.731 24.0997 30.8343 22.0495C32.6882 18.6049 33.8029 13.7167 35.2921 10.3121Z" fill="url(#paint5_radial_7619_963)"/>
<path d="M35.2921 10.3121C37.1354 6.09793 41.1641 4.24722 45.2479 5.63131C49.6324 7.11546 51.5631 11.5737 49.1485 17.8518C47.8004 21.3567 46.2138 26.173 46.2138 26.173C46.2138 26.173 44.7577 28.0901 44.1143 28.7107C51.2829 32.3731 56.1951 39.8626 56.1951 48.5065C56.1951 50.8484 55.8346 53.1055 55.1663 55.2247L52.9376 71.2358C52.9376 71.2358 36.8895 70.9386 35.4407 70.9386C33.9919 70.9386 11.9258 71.7559 11.9258 48.5065C11.9258 34.459 21.3987 31.1188 24.1848 29.1096C26.9709 27.1004 29.731 24.0997 30.8343 22.0495C32.6882 18.6049 33.8029 13.7167 35.2921 10.3121Z" fill="url(#paint6_radial_7619_963)"/>
<path d="M35.2921 10.3121C37.1354 6.09793 41.1641 4.24722 45.2479 5.63131C49.6324 7.11546 51.5631 11.5737 49.1485 17.8518C47.8004 21.3567 46.2138 26.173 46.2138 26.173C46.2138 26.173 44.7577 28.0901 44.1143 28.7107C51.2829 32.3731 56.1951 39.8626 56.1951 48.5065C56.1951 50.8484 55.8346 53.1055 55.1663 55.2247L52.9376 71.2358C52.9376 71.2358 36.8895 70.9386 35.4407 70.9386C33.9919 70.9386 11.9258 71.7559 11.9258 48.5065C11.9258 34.459 21.3987 31.1188 24.1848 29.1096C26.9709 27.1004 29.731 24.0997 30.8343 22.0495C32.6882 18.6049 33.8029 13.7167 35.2921 10.3121Z" fill="url(#paint7_radial_7619_963)"/>
<path d="M35.2921 10.3121C37.1354 6.09793 41.1641 4.24722 45.2479 5.63131C49.6324 7.11546 51.5631 11.5737 49.1485 17.8518C47.8004 21.3567 46.2138 26.173 46.2138 26.173C46.2138 26.173 44.7577 28.0901 44.1143 28.7107C51.2829 32.3731 56.1951 39.8626 56.1951 48.5065C56.1951 50.8484 55.8346 53.1055 55.1663 55.2247L52.9376 71.2358C52.9376 71.2358 36.8895 70.9386 35.4407 70.9386C33.9919 70.9386 11.9258 71.7559 11.9258 48.5065C11.9258 34.459 21.3987 31.1188 24.1848 29.1096C26.9709 27.1004 29.731 24.0997 30.8343 22.0495C32.6882 18.6049 33.8029 13.7167 35.2921 10.3121Z" fill="url(#paint8_radial_7619_963)"/>
<path d="M35.2909 10.3138C37.1342 6.09964 41.1629 4.24893 45.2467 5.63302C49.6312 7.11716 51.5619 11.5754 49.1473 17.8535C47.7992 21.3584 46.2125 26.1747 46.2125 26.1747L44.1131 28.7125C33.8421 33.9374 24.1836 29.1113 24.1836 29.1113C26.9697 27.1021 29.7297 24.1014 30.8331 22.0512C32.687 18.6066 33.8017 13.7184 35.2909 10.3138Z" fill="#6FA2A5"/>
<path d="M35.2909 10.3138C37.1342 6.09964 41.1629 4.24893 45.2467 5.63302C49.6312 7.11716 51.5619 11.5754 49.1473 17.8535C47.7992 21.3584 46.2125 26.1747 46.2125 26.1747L44.1131 28.7125C33.8421 33.9374 24.1836 29.1113 24.1836 29.1113C26.9697 27.1021 29.7297 24.1014 30.8331 22.0512C32.687 18.6066 33.8017 13.7184 35.2909 10.3138Z" fill="url(#paint9_radial_7619_963)"/>
<path d="M35.2909 10.3138C37.1342 6.09964 41.1629 4.24893 45.2467 5.63302C49.6312 7.11716 51.5619 11.5754 49.1473 17.8535C47.7992 21.3584 46.2125 26.1747 46.2125 26.1747L44.1131 28.7125C33.8421 33.9374 24.1836 29.1113 24.1836 29.1113C26.9697 27.1021 29.7297 24.1014 30.8331 22.0512C32.687 18.6066 33.8017 13.7184 35.2909 10.3138Z" fill="url(#paint10_radial_7619_963)"/>
<path d="M35.2909 10.3138C37.1342 6.09964 41.1629 4.24893 45.2467 5.63302C49.6312 7.11716 51.5619 11.5754 49.1473 17.8535C47.7992 21.3584 46.2125 26.1747 46.2125 26.1747L44.1131 28.7125C33.8421 33.9374 24.1836 29.1113 24.1836 29.1113C26.9697 27.1021 29.7297 24.1014 30.8331 22.0512C32.687 18.6066 33.8017 13.7184 35.2909 10.3138Z" fill="url(#paint11_radial_7619_963)"/>
<path d="M35.2909 10.3138C37.1342 6.09964 41.1629 4.24893 45.2467 5.63302C49.6312 7.11716 51.5619 11.5754 49.1473 17.8535C47.7992 21.3584 46.2125 26.1747 46.2125 26.1747L44.1131 28.7125C33.8421 33.9374 24.1836 29.1113 24.1836 29.1113C26.9697 27.1021 29.7297 24.1014 30.8331 22.0512C32.687 18.6066 33.8017 13.7184 35.2909 10.3138Z" fill="url(#paint12_radial_7619_963)"/>
<path d="M35.2909 10.3138C37.1342 6.09964 41.1629 4.24893 45.2467 5.63302C49.6312 7.11716 51.5619 11.5754 49.1473 17.8535C47.7992 21.3584 46.2125 26.1747 46.2125 26.1747L44.1131 28.7125C33.8421 33.9374 24.1836 29.1113 24.1836 29.1113C26.9697 27.1021 29.7297 24.1014 30.8331 22.0512C32.687 18.6066 33.8017 13.7184 35.2909 10.3138Z" fill="url(#paint13_radial_7619_963)"/>
<rect x="61.8439" y="26.0901" width="13.8375" height="21.5009" rx="5.21801" transform="rotate(90 61.8439 26.0901)" fill="url(#paint14_radial_7619_963)"/>
<rect x="61.8439" y="26.0901" width="13.8375" height="21.5009" rx="5.21801" transform="rotate(90 61.8439 26.0901)" fill="url(#paint15_linear_7619_963)"/>
<rect x="61.8439" y="26.0901" width="13.8375" height="21.5009" rx="5.21801" transform="rotate(90 61.8439 26.0901)" fill="url(#paint16_radial_7619_963)"/>
<rect x="60.1432" y="57.8608" width="13.4652" height="17.0882" rx="5.21801" transform="rotate(90 60.1432 57.8608)" fill="url(#paint17_radial_7619_963)"/>
<rect x="60.1432" y="57.8608" width="13.4652" height="17.0882" rx="5.21801" transform="rotate(90 60.1432 57.8608)" fill="url(#paint18_radial_7619_963)"/>
<rect x="60.1432" y="57.8608" width="13.4652" height="17.0882" rx="5.21801" transform="rotate(90 60.1432 57.8608)" fill="url(#paint19_radial_7619_963)"/>
<rect x="60.1432" y="57.8608" width="13.4652" height="17.0882" rx="5.21801" transform="rotate(90 60.1432 57.8608)" fill="url(#paint20_radial_7619_963)"/>
<rect x="60.1432" y="57.8608" width="13.4652" height="17.0882" rx="5.21801" transform="rotate(90 60.1432 57.8608)" fill="url(#paint21_radial_7619_963)"/>
<rect x="60.1432" y="57.8608" width="13.4652" height="17.0882" rx="5.21801" transform="rotate(90 60.1432 57.8608)" fill="url(#paint22_radial_7619_963)"/>
<rect x="60.1432" y="57.8608" width="13.4652" height="17.0882" rx="5.21801" transform="rotate(90 60.1432 57.8608)" fill="url(#paint23_radial_7619_963)"/>
<rect x="60.1432" y="57.8608" width="13.4652" height="17.0882" rx="5.21801" transform="rotate(90 60.1432 57.8608)" fill="url(#paint24_radial_7619_963)"/>
<rect x="63.3008" y="48.2026" width="13.5592" height="22.959" rx="5.21801" transform="rotate(90 63.3008 48.2026)" fill="url(#paint25_radial_7619_963)"/>
<rect x="63.3008" y="48.2026" width="13.5592" height="22.959" rx="5.21801" transform="rotate(90 63.3008 48.2026)" fill="url(#paint26_radial_7619_963)"/>
<rect x="63.3008" y="48.2026" width="13.5592" height="22.959" rx="5.21801" transform="rotate(90 63.3008 48.2026)" fill="url(#paint27_radial_7619_963)"/>
<rect x="63.3008" y="48.2026" width="13.5592" height="22.959" rx="5.21801" transform="rotate(90 63.3008 48.2026)" fill="url(#paint28_radial_7619_963)"/>
<rect x="64.3873" y="37.5781" width="12.519" height="25.976" rx="5.21801" transform="rotate(90 64.3873 37.5781)" fill="url(#paint29_radial_7619_963)"/>
<rect x="64.3873" y="37.5781" width="12.519" height="25.976" rx="5.21801" transform="rotate(90 64.3873 37.5781)" fill="url(#paint30_radial_7619_963)"/>
<defs>
<radialGradient id="paint0_radial_7619_963" cx="0" cy="0" r="1" gradientUnits="userSpaceOnUse" gradientTransform="translate(51.2288 50.3553) rotate(-180) scale(58.843 53.345)">
<stop stop-color="#9A6F6B"/>
<stop offset="0.507576" stop-color="#A77E6E"/>
<stop offset="0.689394" stop-color="#90695F"/>
<stop offset="1" stop-color="#CCA289"/>
</radialGradient>
<radialGradient id="paint1_radial_7619_963" cx="0" cy="0" r="1" gradientUnits="userSpaceOnUse" gradientTransform="translate(34.0616 48.1264) rotate(75.9588) scale(52.3841 53.0748)">
<stop offset="0.345735" stop-color="#8D6B5C" stop-opacity="0"/>
<stop offset="0.427604" stop-color="#8D6B5C"/>
</radialGradient>
<radialGradient id="paint2_radial_7619_963" cx="0" cy="0" r="1" gradientUnits="userSpaceOnUse" gradientTransform="translate(45.4336 54.5159) rotate(85.3196) scale(25.4945 18.2006)">
<stop offset="0.529843" stop-color="#A57A6F"/>
<stop offset="1" stop-color="#A57A6F" stop-opacity="0"/>
</radialGradient>
<linearGradient id="paint3_linear_7619_963" x1="27.4538" y1="72.3471" x2="27.4538" y2="45.8975" gradientUnits="userSpaceOnUse">
<stop stop-color="#985885"/>
<stop offset="1" stop-color="#985885" stop-opacity="0"/>
</linearGradient>
<radialGradient id="paint4_radial_7619_963" cx="0" cy="0" r="1" gradientUnits="userSpaceOnUse" gradientTransform="translate(45.2851 37.1305) rotate(-1.52076) scale(16.797 12.6286)">
<stop offset="0.193422" stop-color="#5D4036"/>
<stop offset="0.643579" stop-color="#A57A6F" stop-opacity="0"/>
</radialGradient>
<radialGradient id="paint5_radial_7619_963" cx="0" cy="0" r="1" gradientUnits="userSpaceOnUse" gradientTransform="translate(43.2047 46.9376) rotate(-6.14661) scale(19.4288 18.0196)">
<stop offset="0.215957" stop-color="#5D4036"/>
<stop offset="0.701321" stop-color="#A57A6F" stop-opacity="0"/>
</radialGradient>
<radialGradient id="paint6_radial_7619_963" cx="0" cy="0" r="1" gradientUnits="userSpaceOnUse" gradientTransform="translate(45.2851 55.036) rotate(0.753843) scale(16.9411 22.6839)">
<stop offset="0.287032" stop-color="#5D4036"/>
<stop offset="0.569673" stop-color="#A57A6F" stop-opacity="0"/>
</radialGradient>
<radialGradient id="paint7_radial_7619_963" cx="0" cy="0" r="1" gradientUnits="userSpaceOnUse" gradientTransform="translate(45.8794 63.5801) rotate(-15.3885) scale(16.7989 17.9845)">
<stop offset="0.174171" stop-color="#5D4036"/>
<stop offset="0.643579" stop-color="#A57A6F" stop-opacity="0"/>
</radialGradient>
<radialGradient id="paint8_radial_7619_963" cx="0" cy="0" r="1" gradientUnits="userSpaceOnUse" gradientTransform="translate(42.4618 28.3634) rotate(64.5367) scale(3.45619 7.97927)">
<stop offset="0.4792" stop-color="#A9806D"/>
<stop offset="1" stop-color="#A9806D" stop-opacity="0"/>
</radialGradient>
<radialGradient id="paint9_radial_7619_963" cx="0" cy="0" r="1" gradientUnits="userSpaceOnUse" gradientTransform="translate(46.4726 12.9114) rotate(114.164) scale(42.8333 14.3031)">
<stop offset="0.164912" stop-color="#B48B7A"/>
<stop offset="0.748557" stop-color="#937263"/>
</radialGradient>
<radialGradient id="paint10_radial_7619_963" cx="0" cy="0" r="1" gradientUnits="userSpaceOnUse" gradientTransform="translate(28.6414 3.69864) rotate(100.798) scale(29.3467 9.43381)">
<stop offset="0.801269" stop-color="#927261"/>
<stop offset="1" stop-color="#A57A6F" stop-opacity="0"/>
</radialGradient>
<radialGradient id="paint11_radial_7619_963" cx="0" cy="0" r="1" gradientUnits="userSpaceOnUse" gradientTransform="translate(31.6132 30.5198) rotate(124.242) scale(10.6951 4.30808)">
<stop offset="0.444359" stop-color="#A77D6D"/>
<stop offset="1" stop-color="#A77D6D" stop-opacity="0"/>
</radialGradient>
<radialGradient id="paint12_radial_7619_963" cx="0" cy="0" r="1" gradientUnits="userSpaceOnUse" gradientTransform="translate(44.5409 14.9917) rotate(109.612) scale(13.7238 5.62788)">
<stop stop-color="#C19780"/>
<stop offset="1" stop-color="#C19780" stop-opacity="0"/>
</radialGradient>
<radialGradient id="paint13_radial_7619_963" cx="0" cy="0" r="1" gradientUnits="userSpaceOnUse" gradientTransform="translate(46.0268 10.9797) rotate(83.211) scale(6.28499 5.46514)">
<stop stop-color="#CCA289"/>
<stop offset="1" stop-color="#CCA289" stop-opacity="0"/>
</radialGradient>
<radialGradient id="paint14_radial_7619_963" cx="0" cy="0" r="1" gradientUnits="userSpaceOnUse" gradientTransform="translate(67.0911 30.7615) rotate(90) scale(16.8282 10.8303)">
<stop offset="0.0706402" stop-color="#DCB19D"/>
<stop offset="0.785872" stop-color="#A57A6F"/>
<stop offset="1" stop-color="#8A5E54"/>
</radialGradient>
<linearGradient id="paint15_linear_7619_963" x1="73.9264" y1="35.9623" x2="71.1031" y2="35.9623" gradientUnits="userSpaceOnUse">
<stop stop-color="#7E5E47"/>
<stop offset="0.684211" stop-color="#7E5E47" stop-opacity="0"/>
</linearGradient>
<radialGradient id="paint16_radial_7619_963" cx="0" cy="0" r="1" gradientUnits="userSpaceOnUse" gradientTransform="translate(75.6816 45.0265) rotate(124.356) scale(8.63973 4.92998)">
<stop offset="0.336779" stop-color="#704F43"/>
<stop offset="1" stop-color="#704F43" stop-opacity="0"/>
</radialGradient>
<radialGradient id="paint17_radial_7619_963" cx="0" cy="0" r="1" gradientUnits="userSpaceOnUse" gradientTransform="translate(65.3439 60.6841) rotate(89.2116) scale(16.1982 12.7639)">
<stop stop-color="#DCB19D"/>
<stop offset="0.683436" stop-color="#A57A6F"/>
<stop offset="1" stop-color="#8A5E54"/>
</radialGradient>
<radialGradient id="paint18_radial_7619_963" cx="0" cy="0" r="1" gradientUnits="userSpaceOnUse" gradientTransform="translate(75.374 71.5314) rotate(-97.1135) scale(14.2579 5.71349)">
<stop stop-color="#6C3861"/>
<stop offset="1" stop-color="#894D7B" stop-opacity="0"/>
</radialGradient>
<radialGradient id="paint19_radial_7619_963" cx="0" cy="0" r="1" gradientUnits="userSpaceOnUse" gradientTransform="translate(59.2516 91.963) rotate(-82.8317) scale(48.8231 4.97164)">
<stop offset="0.645549" stop-color="#653B38"/>
<stop offset="0.700392" stop-color="#653B38" stop-opacity="0"/>
</radialGradient>
<radialGradient id="paint20_radial_7619_963" cx="0" cy="0" r="1" gradientUnits="userSpaceOnUse" gradientTransform="translate(67.5728 61.8729) rotate(-90) scale(23.7006 18.1047)">
<stop offset="0.354232" stop-color="#7E5552" stop-opacity="0"/>
<stop offset="0.72369" stop-color="#7E5552"/>
</radialGradient>
<radialGradient id="paint21_radial_7619_963" cx="0" cy="0" r="1" gradientUnits="userSpaceOnUse" gradientTransform="translate(61.852 72.8688) rotate(77.3998) scale(12.9421 5.52918)">
<stop stop-color="#7E5352"/>
<stop offset="1" stop-color="#7E5352" stop-opacity="0"/>
</radialGradient>
<radialGradient id="paint22_radial_7619_963" cx="0" cy="0" r="1" gradientUnits="userSpaceOnUse" gradientTransform="translate(71.8078 74.9491) rotate(-52.125) scale(9.31824 3.04309)">
<stop stop-color="#98567D"/>
<stop offset="1" stop-color="#98567D" stop-opacity="0"/>
</radialGradient>
<radialGradient id="paint23_radial_7619_963" cx="0" cy="0" r="1" gradientUnits="userSpaceOnUse" gradientTransform="translate(65.4925 65.5134) rotate(-176.915) scale(12.4256 18.0839)">
<stop offset="0.507317" stop-color="#A1637C" stop-opacity="0"/>
<stop offset="0.658154" stop-color="#9C5F8A"/>
<stop offset="0.680473" stop-color="#A3689B"/>
</radialGradient>
<radialGradient id="paint24_radial_7619_963" cx="0" cy="0" r="1" gradientUnits="userSpaceOnUse" gradientTransform="translate(69.7274 75.7663) rotate(-28.3008) scale(7.67884 6.05077)">
<stop stop-color="#805653"/>
<stop offset="1" stop-color="#A57A6F" stop-opacity="0"/>
</radialGradient>
<radialGradient id="paint25_radial_7619_963" cx="0" cy="0" r="1" gradientUnits="userSpaceOnUse" gradientTransform="translate(68.4424 53.1908) rotate(90) scale(17.9694 10.6124)">
<stop offset="0.0706402" stop-color="#DCB19D"/>
<stop offset="0.785872" stop-color="#A57A6F"/>
<stop offset="1" stop-color="#8A5E54"/>
</radialGradient>
<radialGradient id="paint26_radial_7619_963" cx="0" cy="0" r="1" gradientUnits="userSpaceOnUse" gradientTransform="translate(80.0175 67.4083) rotate(-91.7184) scale(29.7321 9.08248)">
<stop stop-color="#652B3D"/>
<stop offset="1" stop-color="#7B3A2A" stop-opacity="0"/>
</radialGradient>
<radialGradient id="paint27_radial_7619_963" cx="0" cy="0" r="1" gradientUnits="userSpaceOnUse" gradientTransform="translate(74.0738 72.5348) rotate(-53.5194) scale(13.1211 4.0082)">
<stop stop-color="#905473"/>
<stop offset="1" stop-color="#A57A6F" stop-opacity="0"/>
</radialGradient>
<radialGradient id="paint28_radial_7619_963" cx="0" cy="0" r="1" gradientUnits="userSpaceOnUse" gradientTransform="translate(64.4895 71.1603) rotate(-89.9187) scale(52.3421 2.30256)">
<stop offset="0.39245" stop-color="#653B38"/>
<stop offset="0.858036" stop-color="#A57A6F" stop-opacity="0"/>
</radialGradient>
<radialGradient id="paint29_radial_7619_963" cx="0" cy="0" r="1" gradientUnits="userSpaceOnUse" gradientTransform="translate(69.1345 43.2218) rotate(90) scale(20.3308 9.79831)">
<stop offset="0.0706402" stop-color="#DCB19D"/>
<stop offset="0.785872" stop-color="#A57A6F"/>
<stop offset="1" stop-color="#8A5E54"/>
</radialGradient>
<radialGradient id="paint30_radial_7619_963" cx="0" cy="0" r="1" gradientUnits="userSpaceOnUse" gradientTransform="translate(77.9093 58.019) rotate(-90) scale(39.5259 6.98389)">
<stop stop-color="#6C3946"/>
<stop offset="1" stop-color="#966E63" stop-opacity="0"/>
</radialGradient>
</defs>
</svg>
