<svg width="80" height="78" viewBox="0 0 80 78" fill="none" xmlns="http://www.w3.org/2000/svg">
<g clip-path="url(#clip0_9722_2193)">
<path d="M57.3073 33.1242C60.2211 33.4252 64.162 34.6432 67.5033 35.9895C71.3067 37.5219 74.8626 40.0473 76.4543 43.8263V43.8263C77.5143 51.8916 44.813 55.2263 36.3051 43.8263C33.6823 40.0701 28.8467 35.5289 17.9733 29.9493C17.6695 29.7935 17.3611 29.6368 17.0479 29.4793C16.8657 29.42 16.6857 29.3604 16.5079 29.3005C16.3257 29.2392 16.1457 29.1777 15.968 29.1159C7.62986 26.2174 4.17897 22.7864 3.2637 19.2858L3.00667 17.5365C2.73586 10.612 10.807 3.71577 9.18095 0.397705C13.5771 1.17322 27.7238 22.5773 41.9149 35.6834C44.6628 38.4465 50.4084 39.8483 55.8211 38.2723C58.4064 37.5195 59.9301 33.7336 57.3073 33.1242V33.1242Z" fill="#D9D9D9"/>
<path d="M57.3073 33.1242C60.2211 33.4252 64.162 34.6432 67.5033 35.9895C71.3067 37.5219 74.8626 40.0473 76.4543 43.8263V43.8263C77.5143 51.8916 44.813 55.2263 36.3051 43.8263C33.6823 40.0701 28.8467 35.5289 17.9733 29.9493C17.6695 29.7935 17.3611 29.6368 17.0479 29.4793C16.8657 29.42 16.6857 29.3604 16.5079 29.3005C16.3257 29.2392 16.1457 29.1777 15.968 29.1159C7.62986 26.2174 4.17897 22.7864 3.2637 19.2858L3.00667 17.5365C2.73586 10.612 10.807 3.71577 9.18095 0.397705C13.5771 1.17322 27.7238 22.5773 41.9149 35.6834C44.6628 38.4465 50.4084 39.8483 55.8211 38.2723C58.4064 37.5195 59.9301 33.7336 57.3073 33.1242V33.1242Z" fill="#E17CA3"/>
<path d="M57.3073 33.1242C60.2211 33.4252 64.162 34.6432 67.5033 35.9895C71.3067 37.5219 74.8626 40.0473 76.4543 43.8263V43.8263C77.5143 51.8916 44.813 55.2263 36.3051 43.8263C33.6823 40.0701 28.8467 35.5289 17.9733 29.9493C17.6695 29.7935 17.3611 29.6368 17.0479 29.4793C16.8657 29.42 16.6857 29.3604 16.5079 29.3005C16.3257 29.2392 16.1457 29.1777 15.968 29.1159C7.62986 26.2174 4.17897 22.7864 3.2637 19.2858L3.00667 17.5365C2.73586 10.612 10.807 3.71577 9.18095 0.397705C13.5771 1.17322 27.7238 22.5773 41.9149 35.6834C44.6628 38.4465 50.4084 39.8483 55.8211 38.2723C58.4064 37.5195 59.9301 33.7336 57.3073 33.1242V33.1242Z" fill="url(#paint0_radial_9722_2193)"/>
<path d="M57.3073 33.1242C60.2211 33.4252 64.162 34.6432 67.5033 35.9895C71.3067 37.5219 74.8626 40.0473 76.4543 43.8263V43.8263C77.5143 51.8916 44.813 55.2263 36.3051 43.8263C33.6823 40.0701 28.8467 35.5289 17.9733 29.9493C17.6695 29.7935 17.3611 29.6368 17.0479 29.4793C16.8657 29.42 16.6857 29.3604 16.5079 29.3005C16.3257 29.2392 16.1457 29.1777 15.968 29.1159C7.62986 26.2174 4.17897 22.7864 3.2637 19.2858L3.00667 17.5365C2.73586 10.612 10.807 3.71577 9.18095 0.397705C13.5771 1.17322 27.7238 22.5773 41.9149 35.6834C44.6628 38.4465 50.4084 39.8483 55.8211 38.2723C58.4064 37.5195 59.9301 33.7336 57.3073 33.1242V33.1242Z" fill="url(#paint1_linear_9722_2193)"/>
<path d="M57.3073 33.1242C60.2211 33.4252 64.162 34.6432 67.5033 35.9895C71.3067 37.5219 74.8626 40.0473 76.4543 43.8263V43.8263C77.5143 51.8916 44.813 55.2263 36.3051 43.8263C33.6823 40.0701 28.8467 35.5289 17.9733 29.9493C17.6695 29.7935 17.3611 29.6368 17.0479 29.4793C16.8657 29.42 16.6857 29.3604 16.5079 29.3005C16.3257 29.2392 16.1457 29.1777 15.968 29.1159C7.62986 26.2174 4.17897 22.7864 3.2637 19.2858L3.00667 17.5365C2.73586 10.612 10.807 3.71577 9.18095 0.397705C13.5771 1.17322 27.7238 22.5773 41.9149 35.6834C44.6628 38.4465 50.4084 39.8483 55.8211 38.2723C58.4064 37.5195 59.9301 33.7336 57.3073 33.1242V33.1242Z" fill="url(#paint2_radial_9722_2193)"/>
<path d="M58.129 56.9546C52.233 57.5507 45.3615 57.6256 41.4864 53.1422C39.3538 50.6749 38.9816 47.6593 36.3051 43.8263C44.813 55.2263 77.5143 51.8916 76.4543 43.8263C80.1676 52.6422 68.5451 55.9016 58.129 56.9546Z" fill="#D9D9D9"/>
<path d="M58.129 56.9546C52.233 57.5507 45.3615 57.6256 41.4864 53.1422C39.3538 50.6749 38.9816 47.6593 36.3051 43.8263C44.813 55.2263 77.5143 51.8916 76.4543 43.8263C80.1676 52.6422 68.5451 55.9016 58.129 56.9546Z" fill="#E17CA3"/>
<path d="M58.129 56.9546C52.233 57.5507 45.3615 57.6256 41.4864 53.1422C39.3538 50.6749 38.9816 47.6593 36.3051 43.8263C44.813 55.2263 77.5143 51.8916 76.4543 43.8263C80.1676 52.6422 68.5451 55.9016 58.129 56.9546Z" fill="url(#paint3_radial_9722_2193)"/>
<path d="M58.129 56.9546C52.233 57.5507 45.3615 57.6256 41.4864 53.1422C39.3538 50.6749 38.9816 47.6593 36.3051 43.8263C44.813 55.2263 77.5143 51.8916 76.4543 43.8263C80.1676 52.6422 68.5451 55.9016 58.129 56.9546Z" fill="url(#paint4_linear_9722_2193)"/>
<path d="M58.129 56.9546C52.233 57.5507 45.3615 57.6256 41.4864 53.1422C39.3538 50.6749 38.9816 47.6593 36.3051 43.8263C44.813 55.2263 77.5143 51.8916 76.4543 43.8263C80.1676 52.6422 68.5451 55.9016 58.129 56.9546Z" fill="url(#paint5_radial_9722_2193)"/>
<path d="M58.129 56.9546C52.233 57.5507 45.3615 57.6256 41.4864 53.1422C39.3538 50.6749 38.9816 47.6593 36.3051 43.8263C44.813 55.2263 77.5143 51.8916 76.4543 43.8263C80.1676 52.6422 68.5451 55.9016 58.129 56.9546Z" fill="url(#paint6_radial_9722_2193)"/>
<path d="M16.5079 29.3005L15.968 49.6426V29.1159C16.1457 29.1777 16.3257 29.2392 16.5079 29.3005Z" fill="#FF2AC7"/>
<path d="M16.5079 29.3005C16.6857 29.3604 16.8657 29.42 17.0479 29.4793C17.3611 29.6368 17.6695 29.7935 17.9733 29.9493L17.5876 48.7895L17.2629 49.5592C16.802 50.6517 15.7515 51.3971 14.5657 51.395C12.2633 51.391 10.504 51.1075 7.79269 50.1079L3.2637 19.2858C4.17897 22.7864 7.62986 26.2174 15.968 29.1159V49.6426L16.5079 29.3005Z" fill="#D9D9D9"/>
<path d="M16.5079 29.3005C16.6857 29.3604 16.8657 29.42 17.0479 29.4793C17.3611 29.6368 17.6695 29.7935 17.9733 29.9493L17.5876 48.7895L17.2629 49.5592C16.802 50.6517 15.7515 51.3971 14.5657 51.395C12.2633 51.391 10.504 51.1075 7.79269 50.1079L3.2637 19.2858C4.17897 22.7864 7.62986 26.2174 15.968 29.1159V49.6426L16.5079 29.3005Z" fill="#E17CA3"/>
<path d="M16.5079 29.3005C16.6857 29.3604 16.8657 29.42 17.0479 29.4793C17.3611 29.6368 17.6695 29.7935 17.9733 29.9493L17.5876 48.7895L17.2629 49.5592C16.802 50.6517 15.7515 51.3971 14.5657 51.395C12.2633 51.391 10.504 51.1075 7.79269 50.1079L3.2637 19.2858C4.17897 22.7864 7.62986 26.2174 15.968 29.1159V49.6426L16.5079 29.3005Z" fill="url(#paint7_radial_9722_2193)"/>
<path d="M16.5079 29.3005C16.6857 29.3604 16.8657 29.42 17.0479 29.4793C17.3611 29.6368 17.6695 29.7935 17.9733 29.9493L17.5876 48.7895L17.2629 49.5592C16.802 50.6517 15.7515 51.3971 14.5657 51.395C12.2633 51.391 10.504 51.1075 7.79269 50.1079L3.2637 19.2858C4.17897 22.7864 7.62986 26.2174 15.968 29.1159V49.6426L16.5079 29.3005Z" fill="url(#paint8_linear_9722_2193)"/>
<path d="M16.5079 29.3005C16.6857 29.3604 16.8657 29.42 17.0479 29.4793C17.3611 29.6368 17.6695 29.7935 17.9733 29.9493L17.5876 48.7895L17.2629 49.5592C16.802 50.6517 15.7515 51.3971 14.5657 51.395C12.2633 51.391 10.504 51.1075 7.79269 50.1079L3.2637 19.2858C4.17897 22.7864 7.62986 26.2174 15.968 29.1159V49.6426L16.5079 29.3005Z" fill="url(#paint9_radial_9722_2193)"/>
<path d="M16.5079 29.3005C16.6857 29.3604 16.8657 29.42 17.0479 29.4793C17.3611 29.6368 17.6695 29.7935 17.9733 29.9493L17.5876 48.7895L17.2629 49.5592C16.802 50.6517 15.7515 51.3971 14.5657 51.395C12.2633 51.391 10.504 51.1075 7.79269 50.1079L3.2637 19.2858C4.17897 22.7864 7.62986 26.2174 15.968 29.1159V49.6426L16.5079 29.3005Z" fill="url(#paint10_radial_9722_2193)"/>
<path d="M41.9149 35.6834C27.7238 22.5773 13.5771 1.17322 9.18095 0.397705C17.0479 1.78548 53.4249 41.6863 57.3073 33.1242V33.1242C59.9301 33.7336 58.4064 37.5195 55.8211 38.2723C50.4084 39.8483 44.6628 38.4465 41.9149 35.6834Z" fill="url(#paint11_linear_9722_2193)"/>
<path d="M57.3073 33.1242C60.2211 33.4252 64.162 34.6432 67.5033 35.9895C71.3067 37.5219 74.8626 40.0473 76.4543 43.8263V43.8263M57.3073 33.1242V33.1242C59.9301 33.7336 58.4064 37.5195 55.8211 38.2723C50.4084 39.8483 44.6628 38.4465 41.9149 35.6834C27.7238 22.5773 13.5771 1.17322 9.18095 0.397705M57.3073 33.1242C53.4249 41.6863 17.0479 1.78548 9.18095 0.397705M9.18095 0.397705C10.807 3.71577 2.73586 10.612 3.00667 17.5365M16.5079 29.3005C16.6857 29.3604 16.8657 29.42 17.0479 29.4793C17.3611 29.6368 17.6695 29.7935 17.9733 29.9493M16.5079 29.3005L15.968 49.6426V29.1159M16.5079 29.3005C16.3257 29.2392 16.1457 29.1777 15.968 29.1159M15.968 29.1159C7.62986 26.2174 4.17897 22.7864 3.2637 19.2858M17.9733 29.9493L17.5876 48.7895L17.2629 49.5592C16.802 50.6517 15.7515 51.3971 14.5657 51.395C12.2633 51.391 10.504 51.1075 7.79269 50.1079L3.2637 19.2858M17.9733 29.9493C28.8467 35.5289 33.6823 40.0701 36.3051 43.8263M3.00667 17.5365L3.2637 19.2858M3.00667 17.5365C3.02949 18.1201 3.11157 18.7039 3.2637 19.2858M36.3051 43.8263C38.9816 47.6593 39.3538 50.6749 41.4864 53.1422C45.3615 57.6256 52.233 57.5507 58.129 56.9546C68.5451 55.9016 80.1676 52.6422 76.4543 43.8263M36.3051 43.8263C44.813 55.2263 77.5143 51.8916 76.4543 43.8263" stroke="#AA1D6E"/>
<path d="M57.3073 52.1242C60.2211 52.4252 64.162 53.6432 67.5033 54.9895C71.3067 56.5219 74.8626 59.0473 76.4543 62.8263V62.8263C77.5143 70.8916 44.813 74.2263 36.3051 62.8263C33.6823 59.0701 28.8467 54.5289 17.9733 48.9493C17.6695 48.7935 17.3611 48.6368 17.0479 48.4793C16.8657 48.42 16.6857 48.3604 16.5079 48.3005C16.3257 48.2392 16.1457 48.1777 15.968 48.1159C7.62986 45.2174 4.17897 41.7864 3.2637 38.2858L3.00667 36.5365C2.73586 29.612 10.807 22.7158 9.18095 19.3977C13.5771 20.1732 27.7238 41.5773 41.9149 54.6834C44.6628 57.4465 50.4084 58.8483 55.8211 57.2723C58.4064 56.5195 59.9301 52.7336 57.3073 52.1242V52.1242Z" fill="#D9D9D9"/>
<path d="M57.3073 52.1242C60.2211 52.4252 64.162 53.6432 67.5033 54.9895C71.3067 56.5219 74.8626 59.0473 76.4543 62.8263V62.8263C77.5143 70.8916 44.813 74.2263 36.3051 62.8263C33.6823 59.0701 28.8467 54.5289 17.9733 48.9493C17.6695 48.7935 17.3611 48.6368 17.0479 48.4793C16.8657 48.42 16.6857 48.3604 16.5079 48.3005C16.3257 48.2392 16.1457 48.1777 15.968 48.1159C7.62986 45.2174 4.17897 41.7864 3.2637 38.2858L3.00667 36.5365C2.73586 29.612 10.807 22.7158 9.18095 19.3977C13.5771 20.1732 27.7238 41.5773 41.9149 54.6834C44.6628 57.4465 50.4084 58.8483 55.8211 57.2723C58.4064 56.5195 59.9301 52.7336 57.3073 52.1242V52.1242Z" fill="#E17CA3"/>
<path d="M57.3073 52.1242C60.2211 52.4252 64.162 53.6432 67.5033 54.9895C71.3067 56.5219 74.8626 59.0473 76.4543 62.8263V62.8263C77.5143 70.8916 44.813 74.2263 36.3051 62.8263C33.6823 59.0701 28.8467 54.5289 17.9733 48.9493C17.6695 48.7935 17.3611 48.6368 17.0479 48.4793C16.8657 48.42 16.6857 48.3604 16.5079 48.3005C16.3257 48.2392 16.1457 48.1777 15.968 48.1159C7.62986 45.2174 4.17897 41.7864 3.2637 38.2858L3.00667 36.5365C2.73586 29.612 10.807 22.7158 9.18095 19.3977C13.5771 20.1732 27.7238 41.5773 41.9149 54.6834C44.6628 57.4465 50.4084 58.8483 55.8211 57.2723C58.4064 56.5195 59.9301 52.7336 57.3073 52.1242V52.1242Z" fill="url(#paint12_radial_9722_2193)"/>
<path d="M57.3073 52.1242C60.2211 52.4252 64.162 53.6432 67.5033 54.9895C71.3067 56.5219 74.8626 59.0473 76.4543 62.8263V62.8263C77.5143 70.8916 44.813 74.2263 36.3051 62.8263C33.6823 59.0701 28.8467 54.5289 17.9733 48.9493C17.6695 48.7935 17.3611 48.6368 17.0479 48.4793C16.8657 48.42 16.6857 48.3604 16.5079 48.3005C16.3257 48.2392 16.1457 48.1777 15.968 48.1159C7.62986 45.2174 4.17897 41.7864 3.2637 38.2858L3.00667 36.5365C2.73586 29.612 10.807 22.7158 9.18095 19.3977C13.5771 20.1732 27.7238 41.5773 41.9149 54.6834C44.6628 57.4465 50.4084 58.8483 55.8211 57.2723C58.4064 56.5195 59.9301 52.7336 57.3073 52.1242V52.1242Z" fill="url(#paint13_linear_9722_2193)"/>
<path d="M57.3073 52.1242C60.2211 52.4252 64.162 53.6432 67.5033 54.9895C71.3067 56.5219 74.8626 59.0473 76.4543 62.8263V62.8263C77.5143 70.8916 44.813 74.2263 36.3051 62.8263C33.6823 59.0701 28.8467 54.5289 17.9733 48.9493C17.6695 48.7935 17.3611 48.6368 17.0479 48.4793C16.8657 48.42 16.6857 48.3604 16.5079 48.3005C16.3257 48.2392 16.1457 48.1777 15.968 48.1159C7.62986 45.2174 4.17897 41.7864 3.2637 38.2858L3.00667 36.5365C2.73586 29.612 10.807 22.7158 9.18095 19.3977C13.5771 20.1732 27.7238 41.5773 41.9149 54.6834C44.6628 57.4465 50.4084 58.8483 55.8211 57.2723C58.4064 56.5195 59.9301 52.7336 57.3073 52.1242V52.1242Z" fill="url(#paint14_radial_9722_2193)"/>
<path d="M58.129 75.9546C52.233 76.5507 45.3615 76.6256 41.4864 72.1422C39.3538 69.6749 38.9816 66.6593 36.3051 62.8263C44.813 74.2263 77.5143 70.8916 76.4543 62.8263C80.1676 71.6422 68.5451 74.9016 58.129 75.9546Z" fill="#D9D9D9"/>
<path d="M58.129 75.9546C52.233 76.5507 45.3615 76.6256 41.4864 72.1422C39.3538 69.6749 38.9816 66.6593 36.3051 62.8263C44.813 74.2263 77.5143 70.8916 76.4543 62.8263C80.1676 71.6422 68.5451 74.9016 58.129 75.9546Z" fill="#E17CA3"/>
<path d="M58.129 75.9546C52.233 76.5507 45.3615 76.6256 41.4864 72.1422C39.3538 69.6749 38.9816 66.6593 36.3051 62.8263C44.813 74.2263 77.5143 70.8916 76.4543 62.8263C80.1676 71.6422 68.5451 74.9016 58.129 75.9546Z" fill="url(#paint15_radial_9722_2193)"/>
<path d="M58.129 75.9546C52.233 76.5507 45.3615 76.6256 41.4864 72.1422C39.3538 69.6749 38.9816 66.6593 36.3051 62.8263C44.813 74.2263 77.5143 70.8916 76.4543 62.8263C80.1676 71.6422 68.5451 74.9016 58.129 75.9546Z" fill="url(#paint16_linear_9722_2193)"/>
<path d="M58.129 75.9546C52.233 76.5507 45.3615 76.6256 41.4864 72.1422C39.3538 69.6749 38.9816 66.6593 36.3051 62.8263C44.813 74.2263 77.5143 70.8916 76.4543 62.8263C80.1676 71.6422 68.5451 74.9016 58.129 75.9546Z" fill="url(#paint17_radial_9722_2193)"/>
<path d="M58.129 75.9546C52.233 76.5507 45.3615 76.6256 41.4864 72.1422C39.3538 69.6749 38.9816 66.6593 36.3051 62.8263C44.813 74.2263 77.5143 70.8916 76.4543 62.8263C80.1676 71.6422 68.5451 74.9016 58.129 75.9546Z" fill="url(#paint18_radial_9722_2193)"/>
<path d="M16.5079 48.3005L15.968 68.6426V48.1159C16.1457 48.1777 16.3257 48.2392 16.5079 48.3005Z" fill="#FF2AC7"/>
<path d="M16.5079 48.3005C16.6857 48.3604 16.8657 48.42 17.0479 48.4793C17.3611 48.6368 17.6695 48.7935 17.9733 48.9493L17.5876 67.7895L17.2629 68.5592C16.802 69.6517 15.7515 70.3971 14.5657 70.395C12.2633 70.391 10.504 70.1075 7.79269 69.1079L3.2637 38.2858C4.17897 41.7864 7.62986 45.2174 15.968 48.1159V68.6426L16.5079 48.3005Z" fill="#D9D9D9"/>
<path d="M16.5079 48.3005C16.6857 48.3604 16.8657 48.42 17.0479 48.4793C17.3611 48.6368 17.6695 48.7935 17.9733 48.9493L17.5876 67.7895L17.2629 68.5592C16.802 69.6517 15.7515 70.3971 14.5657 70.395C12.2633 70.391 10.504 70.1075 7.79269 69.1079L3.2637 38.2858C4.17897 41.7864 7.62986 45.2174 15.968 48.1159V68.6426L16.5079 48.3005Z" fill="#E17CA3"/>
<path d="M16.5079 48.3005C16.6857 48.3604 16.8657 48.42 17.0479 48.4793C17.3611 48.6368 17.6695 48.7935 17.9733 48.9493L17.5876 67.7895L17.2629 68.5592C16.802 69.6517 15.7515 70.3971 14.5657 70.395C12.2633 70.391 10.504 70.1075 7.79269 69.1079L3.2637 38.2858C4.17897 41.7864 7.62986 45.2174 15.968 48.1159V68.6426L16.5079 48.3005Z" fill="url(#paint19_radial_9722_2193)"/>
<path d="M16.5079 48.3005C16.6857 48.3604 16.8657 48.42 17.0479 48.4793C17.3611 48.6368 17.6695 48.7935 17.9733 48.9493L17.5876 67.7895L17.2629 68.5592C16.802 69.6517 15.7515 70.3971 14.5657 70.395C12.2633 70.391 10.504 70.1075 7.79269 69.1079L3.2637 38.2858C4.17897 41.7864 7.62986 45.2174 15.968 48.1159V68.6426L16.5079 48.3005Z" fill="url(#paint20_linear_9722_2193)"/>
<path d="M16.5079 48.3005C16.6857 48.3604 16.8657 48.42 17.0479 48.4793C17.3611 48.6368 17.6695 48.7935 17.9733 48.9493L17.5876 67.7895L17.2629 68.5592C16.802 69.6517 15.7515 70.3971 14.5657 70.395C12.2633 70.391 10.504 70.1075 7.79269 69.1079L3.2637 38.2858C4.17897 41.7864 7.62986 45.2174 15.968 48.1159V68.6426L16.5079 48.3005Z" fill="url(#paint21_radial_9722_2193)"/>
<path d="M16.5079 48.3005C16.6857 48.3604 16.8657 48.42 17.0479 48.4793C17.3611 48.6368 17.6695 48.7935 17.9733 48.9493L17.5876 67.7895L17.2629 68.5592C16.802 69.6517 15.7515 70.3971 14.5657 70.395C12.2633 70.391 10.504 70.1075 7.79269 69.1079L3.2637 38.2858C4.17897 41.7864 7.62986 45.2174 15.968 48.1159V68.6426L16.5079 48.3005Z" fill="url(#paint22_radial_9722_2193)"/>
<path d="M41.9149 54.6834C27.7238 41.5773 13.5771 20.1732 9.18095 19.3977C17.0479 20.7855 53.4249 60.6863 57.3073 52.1242V52.1242C59.9301 52.7336 58.4064 56.5195 55.8211 57.2723C50.4084 58.8483 44.6628 57.4465 41.9149 54.6834Z" fill="url(#paint23_linear_9722_2193)"/>
<path d="M57.3073 52.1242C60.2211 52.4252 64.162 53.6432 67.5033 54.9895C71.3067 56.5219 74.8626 59.0473 76.4543 62.8263V62.8263M57.3073 52.1242V52.1242C59.9301 52.7336 58.4064 56.5195 55.8211 57.2723C50.4084 58.8483 44.6628 57.4465 41.9149 54.6834C27.7238 41.5773 13.5771 20.1732 9.18095 19.3977M57.3073 52.1242C53.4249 60.6863 17.0479 20.7855 9.18095 19.3977M9.18095 19.3977C10.807 22.7158 2.73586 29.612 3.00667 36.5365M16.5079 48.3005C16.6857 48.3604 16.8657 48.42 17.0479 48.4793C17.3611 48.6368 17.6695 48.7935 17.9733 48.9493M16.5079 48.3005L15.968 68.6426V48.1159M16.5079 48.3005C16.3257 48.2392 16.1457 48.1777 15.968 48.1159M15.968 48.1159C7.62986 45.2174 4.17897 41.7864 3.2637 38.2858M17.9733 48.9493L17.5876 67.7895L17.2629 68.5592C16.802 69.6517 15.7515 70.3971 14.5657 70.395C12.2633 70.391 10.504 70.1075 7.79269 69.1079L3.2637 38.2858M17.9733 48.9493C28.8467 54.5289 33.6823 59.0701 36.3051 62.8263M3.00667 36.5365L3.2637 38.2858M3.00667 36.5365C3.02949 37.1201 3.11157 37.7039 3.2637 38.2858M36.3051 62.8263C38.9816 66.6593 39.3538 69.6749 41.4864 72.1422C45.3615 76.6256 52.233 76.5507 58.129 75.9546C68.5451 74.9016 80.1676 71.6422 76.4543 62.8263M36.3051 62.8263C44.813 74.2263 77.5143 70.8916 76.4543 62.8263" stroke="#AA1D6E"/>
</g>
<defs>
<radialGradient id="paint0_radial_9722_2193" cx="0" cy="0" r="1" gradientUnits="userSpaceOnUse" gradientTransform="translate(21.5403 22.2816) rotate(53.0799) scale(50.9264 55.0196)">
<stop stop-color="#FFBAEA"/>
<stop offset="0.451156" stop-color="#FF97E4"/>
<stop offset="1" stop-color="#FF83E1" stop-opacity="0"/>
</radialGradient>
<linearGradient id="paint1_linear_9722_2193" x1="40.0806" y1="0.397704" x2="66.1423" y2="58.7481" gradientUnits="userSpaceOnUse">
<stop offset="0.399003" stop-color="#FF80E1" stop-opacity="0"/>
<stop offset="0.953305" stop-color="#E153BB"/>
</linearGradient>
<radialGradient id="paint2_radial_9722_2193" cx="0" cy="0" r="1" gradientUnits="userSpaceOnUse" gradientTransform="translate(5.78104 49.7638) rotate(41.8518) scale(23.6461 11.2629)">
<stop stop-color="#FF74DE"/>
<stop offset="1" stop-color="#FF73DB" stop-opacity="0"/>
</radialGradient>
<radialGradient id="paint3_radial_9722_2193" cx="0" cy="0" r="1" gradientUnits="userSpaceOnUse" gradientTransform="translate(21.5403 22.2816) rotate(53.0799) scale(50.9264 55.0196)">
<stop stop-color="#FFBAEA"/>
<stop offset="0.451156" stop-color="#FF97E4"/>
<stop offset="1" stop-color="#FF83E1" stop-opacity="0"/>
</radialGradient>
<linearGradient id="paint4_linear_9722_2193" x1="40.0806" y1="0.397704" x2="66.1423" y2="58.7481" gradientUnits="userSpaceOnUse">
<stop offset="0.399003" stop-color="#FF80E1" stop-opacity="0"/>
<stop offset="0.953305" stop-color="#E153BB"/>
</linearGradient>
<radialGradient id="paint5_radial_9722_2193" cx="0" cy="0" r="1" gradientUnits="userSpaceOnUse" gradientTransform="translate(5.78104 49.7638) rotate(41.8518) scale(23.6461 11.2629)">
<stop stop-color="#FF74DE"/>
<stop offset="1" stop-color="#FF73DB" stop-opacity="0"/>
</radialGradient>
<radialGradient id="paint6_radial_9722_2193" cx="0" cy="0" r="1" gradientUnits="userSpaceOnUse" gradientTransform="translate(60.475 57.3977) rotate(180) scale(20.3944 35.8795)">
<stop offset="0.465909" stop-color="#DB62C1"/>
<stop offset="0.545455" stop-color="#DE60C3" stop-opacity="0"/>
</radialGradient>
<radialGradient id="paint7_radial_9722_2193" cx="0" cy="0" r="1" gradientUnits="userSpaceOnUse" gradientTransform="translate(21.5403 22.2816) rotate(53.0799) scale(50.9264 55.0196)">
<stop stop-color="#FFBAEA"/>
<stop offset="0.451156" stop-color="#FF97E4"/>
<stop offset="1" stop-color="#FF83E1" stop-opacity="0"/>
</radialGradient>
<linearGradient id="paint8_linear_9722_2193" x1="40.0806" y1="0.397704" x2="66.1423" y2="58.7481" gradientUnits="userSpaceOnUse">
<stop offset="0.399003" stop-color="#FF80E1" stop-opacity="0"/>
<stop offset="0.953305" stop-color="#E153BB"/>
</linearGradient>
<radialGradient id="paint9_radial_9722_2193" cx="0" cy="0" r="1" gradientUnits="userSpaceOnUse" gradientTransform="translate(5.78104 49.7638) rotate(41.8518) scale(23.6461 11.2629)">
<stop stop-color="#FF74DE"/>
<stop offset="1" stop-color="#FF73DB" stop-opacity="0"/>
</radialGradient>
<radialGradient id="paint10_radial_9722_2193" cx="0" cy="0" r="1" gradientUnits="userSpaceOnUse" gradientTransform="translate(60.475 57.3977) rotate(180) scale(20.3944 35.8795)">
<stop offset="0.465909" stop-color="#DB62C1"/>
<stop offset="0.545455" stop-color="#DE60C3" stop-opacity="0"/>
</radialGradient>
<linearGradient id="paint11_linear_9722_2193" x1="15.5" y1="2.53052" x2="59" y2="33.5305" gradientUnits="userSpaceOnUse">
<stop stop-color="#FF98B3"/>
<stop offset="1" stop-color="#FCD8E2"/>
</linearGradient>
<radialGradient id="paint12_radial_9722_2193" cx="0" cy="0" r="1" gradientUnits="userSpaceOnUse" gradientTransform="translate(21.5403 41.2816) rotate(53.0799) scale(50.9264 55.0196)">
<stop stop-color="#FFBAEA"/>
<stop offset="0.451156" stop-color="#FF97E4"/>
<stop offset="1" stop-color="#FF83E1" stop-opacity="0"/>
</radialGradient>
<linearGradient id="paint13_linear_9722_2193" x1="40.0806" y1="19.3977" x2="66.1423" y2="77.7481" gradientUnits="userSpaceOnUse">
<stop offset="0.399003" stop-color="#FF80E1" stop-opacity="0"/>
<stop offset="0.953305" stop-color="#E153BB"/>
</linearGradient>
<radialGradient id="paint14_radial_9722_2193" cx="0" cy="0" r="1" gradientUnits="userSpaceOnUse" gradientTransform="translate(5.78104 68.7638) rotate(41.8518) scale(23.6461 11.2629)">
<stop stop-color="#FF74DE"/>
<stop offset="1" stop-color="#FF73DB" stop-opacity="0"/>
</radialGradient>
<radialGradient id="paint15_radial_9722_2193" cx="0" cy="0" r="1" gradientUnits="userSpaceOnUse" gradientTransform="translate(21.5403 41.2816) rotate(53.0799) scale(50.9264 55.0196)">
<stop stop-color="#FFBAEA"/>
<stop offset="0.451156" stop-color="#FF97E4"/>
<stop offset="1" stop-color="#FF83E1" stop-opacity="0"/>
</radialGradient>
<linearGradient id="paint16_linear_9722_2193" x1="40.0806" y1="19.3977" x2="66.1423" y2="77.7481" gradientUnits="userSpaceOnUse">
<stop offset="0.399003" stop-color="#FF80E1" stop-opacity="0"/>
<stop offset="0.953305" stop-color="#E153BB"/>
</linearGradient>
<radialGradient id="paint17_radial_9722_2193" cx="0" cy="0" r="1" gradientUnits="userSpaceOnUse" gradientTransform="translate(5.78104 68.7638) rotate(41.8518) scale(23.6461 11.2629)">
<stop stop-color="#FF74DE"/>
<stop offset="1" stop-color="#FF73DB" stop-opacity="0"/>
</radialGradient>
<radialGradient id="paint18_radial_9722_2193" cx="0" cy="0" r="1" gradientUnits="userSpaceOnUse" gradientTransform="translate(60.475 76.3977) rotate(180) scale(20.3944 35.8795)">
<stop offset="0.465909" stop-color="#DB62C1"/>
<stop offset="0.545455" stop-color="#DE60C3" stop-opacity="0"/>
</radialGradient>
<radialGradient id="paint19_radial_9722_2193" cx="0" cy="0" r="1" gradientUnits="userSpaceOnUse" gradientTransform="translate(21.5403 41.2816) rotate(53.0799) scale(50.9264 55.0196)">
<stop stop-color="#FFBAEA"/>
<stop offset="0.451156" stop-color="#FF97E4"/>
<stop offset="1" stop-color="#FF83E1" stop-opacity="0"/>
</radialGradient>
<linearGradient id="paint20_linear_9722_2193" x1="40.0806" y1="19.3977" x2="66.1423" y2="77.7481" gradientUnits="userSpaceOnUse">
<stop offset="0.399003" stop-color="#FF80E1" stop-opacity="0"/>
<stop offset="0.953305" stop-color="#E153BB"/>
</linearGradient>
<radialGradient id="paint21_radial_9722_2193" cx="0" cy="0" r="1" gradientUnits="userSpaceOnUse" gradientTransform="translate(5.78104 68.7638) rotate(41.8518) scale(23.6461 11.2629)">
<stop stop-color="#FF74DE"/>
<stop offset="1" stop-color="#FF73DB" stop-opacity="0"/>
</radialGradient>
<radialGradient id="paint22_radial_9722_2193" cx="0" cy="0" r="1" gradientUnits="userSpaceOnUse" gradientTransform="translate(60.475 76.3977) rotate(180) scale(20.3944 35.8795)">
<stop offset="0.465909" stop-color="#DB62C1"/>
<stop offset="0.545455" stop-color="#DE60C3" stop-opacity="0"/>
</radialGradient>
<linearGradient id="paint23_linear_9722_2193" x1="15.5" y1="21.5305" x2="59" y2="52.5305" gradientUnits="userSpaceOnUse">
<stop stop-color="#FF98B3"/>
<stop offset="1" stop-color="#FCD8E2"/>
</linearGradient>
<clipPath id="clip0_9722_2193">
<rect width="80" height="77" fill="white" transform="translate(0 0.132568)"/>
</clipPath>
</defs>
</svg>
