<svg width="78" height="77" viewBox="0 0 78 77" fill="none" xmlns="http://www.w3.org/2000/svg">
<path d="M52.5994 50.3656L26.9252 24.8169L11.3978 40.3443C4.32534 47.4167 4.32534 58.8834 11.3978 65.9558C18.4702 73.0282 29.9368 73.0282 37.0092 65.9558L52.5994 50.3656Z" fill="url(#paint0_radial_8311_2767)"/>
<path d="M52.5994 50.3656L26.9252 24.8169L11.3978 40.3443C4.32534 47.4167 4.32534 58.8834 11.3978 65.9558C18.4702 73.0282 29.9368 73.0282 37.0092 65.9558L52.5994 50.3656Z" fill="url(#paint1_radial_8311_2767)"/>
<path d="M52.5994 50.3656L26.9252 24.8169L11.3978 40.3443C4.32534 47.4167 4.32534 58.8834 11.3978 65.9558C18.4702 73.0282 29.9368 73.0282 37.0092 65.9558L52.5994 50.3656Z" fill="url(#paint2_radial_8311_2767)"/>
<path d="M52.5994 50.3656L26.9252 24.8169L11.3978 40.3443C4.32534 47.4167 4.32534 58.8834 11.3978 65.9558C18.4702 73.0282 29.9368 73.0282 37.0092 65.9558L52.5994 50.3656Z" fill="url(#paint3_radial_8311_2767)"/>
<path d="M52.5994 50.3656L26.9252 24.8169L11.3978 40.3443C4.32534 47.4167 4.32534 58.8834 11.3978 65.9558C18.4702 73.0282 29.9368 73.0282 37.0092 65.9558L52.5994 50.3656Z" fill="url(#paint4_radial_8311_2767)"/>
<path d="M52.5994 50.3656L26.9252 24.8169L11.3978 40.3443C4.32534 47.4167 4.32534 58.8834 11.3978 65.9558C18.4702 73.0282 29.9368 73.0282 37.0092 65.9558L52.5994 50.3656Z" fill="url(#paint5_radial_8311_2767)"/>
<path d="M52.5994 50.3656L26.9252 24.8169L11.3978 40.3443C4.32534 47.4167 4.32534 58.8834 11.3978 65.9558C18.4702 73.0282 29.9368 73.0282 37.0092 65.9558L52.5994 50.3656Z" fill="url(#paint6_radial_8311_2767)"/>
<path d="M52.5994 50.3656L26.9252 24.8169L11.3978 40.3443C4.32534 47.4167 4.32534 58.8834 11.3978 65.9558C18.4702 73.0282 29.9368 73.0282 37.0092 65.9558L52.5994 50.3656Z" fill="url(#paint7_radial_8311_2767)"/>
<path d="M52.5994 50.3656L26.9252 24.8169L11.3978 40.3443C4.32534 47.4167 4.32534 58.8834 11.3978 65.9558C18.4702 73.0282 29.9368 73.0282 37.0092 65.9558L52.5994 50.3656Z" fill="url(#paint8_linear_8311_2767)"/>
<path d="M52.5994 50.3656L26.9252 24.8169L11.3978 40.3443C4.32534 47.4167 4.32534 58.8834 11.3978 65.9558C18.4702 73.0282 29.9368 73.0282 37.0092 65.9558L52.5994 50.3656Z" fill="url(#paint9_radial_8311_2767)"/>
<path d="M52.5994 50.3656L26.9252 24.8169L11.3978 40.3443C4.32534 47.4167 4.32534 58.8834 11.3978 65.9558C18.4702 73.0282 29.9368 73.0282 37.0092 65.9558L52.5994 50.3656Z" fill="url(#paint10_radial_8311_2767)"/>
<path d="M51.7698 51.1949L26.1582 25.5835L40.9895 10.7523C48.0619 3.67989 59.5286 3.67989 66.601 10.7523C73.6734 17.8247 73.6734 29.2913 66.601 36.3638L51.7698 51.1949Z" fill="#E17CA3"/>
<path d="M51.7698 51.1949L26.1582 25.5835L40.9895 10.7523C48.0619 3.67989 59.5286 3.67989 66.601 10.7523C73.6734 17.8247 73.6734 29.2913 66.601 36.3638L51.7698 51.1949Z" fill="url(#paint11_radial_8311_2767)"/>
<path d="M51.7698 51.1949L26.1582 25.5835L40.9895 10.7523C48.0619 3.67989 59.5286 3.67989 66.601 10.7523C73.6734 17.8247 73.6734 29.2913 66.601 36.3638L51.7698 51.1949Z" fill="url(#paint12_linear_8311_2767)"/>
<path d="M51.7698 51.1949L26.1582 25.5835L40.9895 10.7523C48.0619 3.67989 59.5286 3.67989 66.601 10.7523C73.6734 17.8247 73.6734 29.2913 66.601 36.3638L51.7698 51.1949Z" fill="url(#paint13_radial_8311_2767)"/>
<path d="M51.7698 51.1949L26.1582 25.5835L40.9895 10.7523C48.0619 3.67989 59.5286 3.67989 66.601 10.7523C73.6734 17.8247 73.6734 29.2913 66.601 36.3638L51.7698 51.1949Z" fill="url(#paint14_radial_8311_2767)"/>
<ellipse cx="62.364" cy="22.9321" rx="4.45781" ry="5.49797" fill="url(#paint15_linear_8311_2767)"/>
<defs>
<radialGradient id="paint0_radial_8311_2767" cx="0" cy="0" r="1" gradientUnits="userSpaceOnUse" gradientTransform="translate(27.6063 9.34337) rotate(88.728) scale(61.321 55.3272)">
<stop stop-color="#F12E52"/>
<stop offset="0.67675" stop-color="#FF3B79"/>
<stop offset="1" stop-color="#FF4EC6"/>
</radialGradient>
<radialGradient id="paint1_radial_8311_2767" cx="0" cy="0" r="1" gradientUnits="userSpaceOnUse" gradientTransform="translate(24.8857 38.3567) rotate(49.3648) scale(5.92203 3.86514)">
<stop stop-color="#FF93BA" stop-opacity="0.4"/>
<stop offset="1" stop-color="#FF73A6" stop-opacity="0"/>
</radialGradient>
<radialGradient id="paint2_radial_8311_2767" cx="0" cy="0" r="1" gradientUnits="userSpaceOnUse" gradientTransform="translate(40.9551 28.0846) rotate(175.754) scale(4.95495 3.67045)">
<stop stop-color="#FF93BA" stop-opacity="0.3"/>
<stop offset="1" stop-color="#FF73A6" stop-opacity="0"/>
</radialGradient>
<radialGradient id="paint3_radial_8311_2767" cx="0" cy="0" r="1" gradientUnits="userSpaceOnUse" gradientTransform="translate(17.092 28.2222) rotate(1.22229) scale(4.29956 2.51075)">
<stop stop-color="#FF93BA" stop-opacity="0.3"/>
<stop offset="1" stop-color="#FF73A6" stop-opacity="0"/>
</radialGradient>
<radialGradient id="paint4_radial_8311_2767" cx="0" cy="0" r="1" gradientUnits="userSpaceOnUse" gradientTransform="translate(32.358 40.3745) rotate(-90) scale(11.0517 3.5396)">
<stop stop-color="#FA1E3A" stop-opacity="0.7"/>
<stop offset="1" stop-color="#FA1E3A" stop-opacity="0"/>
</radialGradient>
<radialGradient id="paint5_radial_8311_2767" cx="0" cy="0" r="1" gradientUnits="userSpaceOnUse" gradientTransform="translate(42.3278 36.925) rotate(-148.735) scale(10.9668 11.7344)">
<stop stop-color="#FA1E3A" stop-opacity="0.7"/>
<stop offset="1" stop-color="#FA1E3A" stop-opacity="0"/>
</radialGradient>
<radialGradient id="paint6_radial_8311_2767" cx="0" cy="0" r="1" gradientUnits="userSpaceOnUse" gradientTransform="translate(35.8333 49.1792) rotate(-155.968) scale(38.7197 60.0705)">
<stop offset="0.40984" stop-color="#B91D43" stop-opacity="0"/>
<stop offset="0.833898" stop-color="#B91D43"/>
</radialGradient>
<radialGradient id="paint7_radial_8311_2767" cx="0" cy="0" r="1" gradientUnits="userSpaceOnUse" gradientTransform="translate(28.4291 41.6104) rotate(90) scale(37.7178 33.0427)">
<stop offset="0.671096" stop-color="#FF7AF2" stop-opacity="0"/>
<stop offset="0.933555" stop-color="#FFBCE6"/>
</radialGradient>
<linearGradient id="paint8_linear_8311_2767" x1="32.0759" y1="46.0256" x2="47.5579" y2="62.1666" gradientUnits="userSpaceOnUse">
<stop offset="0.694491" stop-color="#FF7AF2" stop-opacity="0"/>
<stop offset="0.933555" stop-color="#FFBCE6"/>
</linearGradient>
<radialGradient id="paint9_radial_8311_2767" cx="0" cy="0" r="1" gradientUnits="userSpaceOnUse" gradientTransform="translate(29.2356 31.9698) rotate(-90) scale(22.5918 23.5814)">
<stop stop-color="#FC0D1A" stop-opacity="0.6"/>
<stop offset="0.802083" stop-color="#FC1020" stop-opacity="0"/>
</radialGradient>
<radialGradient id="paint10_radial_8311_2767" cx="0" cy="0" r="1" gradientUnits="userSpaceOnUse" gradientTransform="translate(47.1146 32.9788) rotate(125.571) scale(18.5147 11.8059)">
<stop stop-color="#FF93BA" stop-opacity="0.5"/>
<stop offset="1" stop-color="#FF73A6" stop-opacity="0"/>
</radialGradient>
<radialGradient id="paint11_radial_8311_2767" cx="0" cy="0" r="1" gradientUnits="userSpaceOnUse" gradientTransform="translate(60.4685 23.0115) rotate(120.007) scale(37.7339 36.7622)">
<stop stop-color="#FFBAEA"/>
<stop offset="0.451156" stop-color="#FF97E4"/>
<stop offset="1" stop-color="#FF83E1" stop-opacity="0"/>
</radialGradient>
<linearGradient id="paint12_linear_8311_2767" x1="49.0318" y1="5.448" x2="24.6295" y2="47.4404" gradientUnits="userSpaceOnUse">
<stop offset="0.399003" stop-color="#FF80E1" stop-opacity="0"/>
<stop offset="0.953305" stop-color="#E153BB"/>
</linearGradient>
<radialGradient id="paint13_radial_8311_2767" cx="0" cy="0" r="1" gradientUnits="userSpaceOnUse" gradientTransform="translate(70.1898 45.0681) rotate(130.632) scale(16.6846 7.90252)">
<stop stop-color="#FF74DE"/>
<stop offset="1" stop-color="#FF73DB" stop-opacity="0"/>
</radialGradient>
<radialGradient id="paint14_radial_8311_2767" cx="0" cy="0" r="1" gradientUnits="userSpaceOnUse" gradientTransform="translate(36.4513 51.1949) scale(12.5804 28.7961)">
<stop offset="0.465909" stop-color="#DB62C1"/>
<stop offset="0.545455" stop-color="#DE60C3" stop-opacity="0"/>
</radialGradient>
<linearGradient id="paint15_linear_8311_2767" x1="62.364" y1="17.4341" x2="62.364" y2="29.5073" gradientUnits="userSpaceOnUse">
<stop offset="0.0769231" stop-color="#FFFBFF"/>
<stop offset="1" stop-color="#FFFBFF" stop-opacity="0"/>
</linearGradient>
</defs>
</svg>
