<svg width="93" height="92" viewBox="0 0 93 92" fill="none" xmlns="http://www.w3.org/2000/svg">
<rect x="0.86731" width="92" height="92" rx="46" fill="#E9EAEB"/>
<path d="M30.5717 40H28.263V35.9407L24.4177 28.9687H26.9175L29.3485 33.5861H29.4862L31.9095 28.9687H34.4093L30.5717 35.9407V40ZM40.4716 28.6859C43.7282 28.6859 45.7693 30.9105 45.7693 34.4805C45.7693 38.0582 43.7358 40.2829 40.4716 40.2829C37.1996 40.2829 35.1585 38.0582 35.1585 34.4805C35.1585 30.9028 37.2302 28.6859 40.4716 28.6859ZM40.4716 30.7117C38.6827 30.7117 37.5207 32.1718 37.5207 34.4805C37.5207 36.7816 38.6598 38.257 40.4716 38.257C42.2681 38.257 43.4148 36.7816 43.4148 34.4805C43.4148 32.1718 42.2681 30.7117 40.4716 30.7117ZM50.2873 28.9687V35.956C50.2873 37.3473 51.1206 38.2341 52.596 38.2341C54.0791 38.2341 54.9124 37.3473 54.9124 35.956V28.9687H57.2211V36.1929C57.2211 38.6392 55.4246 40.2829 52.596 40.2829C49.7751 40.2829 47.9786 38.6392 47.9786 36.1929V28.9687H50.2873ZM62.2207 30.834V34.2283H64.2465C65.4085 34.2283 66.0889 33.6014 66.0889 32.5388C66.0889 31.4915 65.3703 30.834 64.2236 30.834H62.2207ZM62.2207 36.0018V40H59.912V28.9687H64.5447C66.968 28.9687 68.4588 30.3142 68.4588 32.5082C68.4588 33.9148 67.7249 35.138 66.4559 35.6425L68.7798 40H66.1654L64.1089 36.0018H62.2207Z" fill="#535862"/>
<path d="M32.4217 60.9894V63H25.2051V51.9687H27.5138V60.9894H32.4217ZM39.0344 51.6859C42.291 51.6859 44.3321 53.9105 44.3321 57.4805C44.3321 61.0582 42.2986 63.2829 39.0344 63.2829C35.7624 63.2829 33.7213 61.0582 33.7213 57.4805C33.7213 53.9028 35.793 51.6859 39.0344 51.6859ZM39.0344 53.7117C37.2455 53.7117 36.0835 55.1718 36.0835 57.4805C36.0835 59.7816 37.2226 61.257 39.0344 61.257C40.8309 61.257 41.9776 59.7816 41.9776 57.4805C41.9776 55.1718 40.8309 53.7117 39.0344 53.7117ZM56.212 58.4973C56.212 61.4481 54.3314 63.2829 51.3194 63.2829C48.0398 63.2829 46.0293 61.0812 46.0293 57.4729C46.0293 53.9181 48.0551 51.6859 51.2659 51.6859C53.8727 51.6859 55.7915 53.1919 56.1126 55.4853H53.8192C53.4752 54.3692 52.5502 53.7194 51.2659 53.7194C49.4847 53.7194 48.3915 55.1336 48.3915 57.45C48.3915 59.8122 49.5382 61.2494 51.3576 61.2494C52.8712 61.2494 53.9186 60.3549 53.9644 59.0248L53.9721 58.826H51.5793V57.0907H56.212V58.4973ZM63.2527 51.6859C66.5094 51.6859 68.5505 53.9105 68.5505 57.4805C68.5505 61.0582 66.517 63.2829 63.2527 63.2829C59.9808 63.2829 57.9397 61.0582 57.9397 57.4805C57.9397 53.9028 60.0114 51.6859 63.2527 51.6859ZM63.2527 53.7117C61.4639 53.7117 60.3019 55.1718 60.3019 57.4805C60.3019 59.7816 61.4409 61.257 63.2527 61.257C65.0492 61.257 66.1959 59.7816 66.1959 57.4805C66.1959 55.1718 65.0492 53.7117 63.2527 53.7117Z" fill="#535862"/>
</svg>
