<svg width="77" height="77" viewBox="0 0 77 77" fill="none" xmlns="http://www.w3.org/2000/svg">
<path d="M30.1516 22.2943C34.1304 16.1182 36.3585 10.4429 37.4154 6.67098C37.7187 5.58858 39.0855 5.14579 39.9074 5.91262C56.7286 21.6065 62.1893 33.4942 63.2682 47.2596C64.0484 60.4101 57.5845 72.1118 40.2363 72.1118C23.9487 72.1118 11.929 60.7444 13.5635 42.7275C14.5894 31.4177 19.156 22.9374 22.5717 18.1616C23.38 17.0314 25.0151 17.0181 25.9204 18.0723L29.58 22.3339C29.7356 22.515 30.0223 22.495 30.1516 22.2943Z" fill="url(#paint0_radial_7619_1044)"/>
<path d="M30.1516 22.2943C34.1304 16.1182 36.3585 10.4429 37.4154 6.67098C37.7187 5.58858 39.0855 5.14579 39.9074 5.91262C56.7286 21.6065 62.1893 33.4942 63.2682 47.2596C64.0484 60.4101 57.5845 72.1118 40.2363 72.1118C23.9487 72.1118 11.929 60.7444 13.5635 42.7275C14.5894 31.4177 19.156 22.9374 22.5717 18.1616C23.38 17.0314 25.0151 17.0181 25.9204 18.0723L29.58 22.3339C29.7356 22.515 30.0223 22.495 30.1516 22.2943Z" fill="url(#paint1_radial_7619_1044)"/>
<path d="M30.1516 22.2943C34.1304 16.1182 36.3585 10.4429 37.4154 6.67098C37.7187 5.58858 39.0855 5.14579 39.9074 5.91262C56.7286 21.6065 62.1893 33.4942 63.2682 47.2596C64.0484 60.4101 57.5845 72.1118 40.2363 72.1118C23.9487 72.1118 11.929 60.7444 13.5635 42.7275C14.5894 31.4177 19.156 22.9374 22.5717 18.1616C23.38 17.0314 25.0151 17.0181 25.9204 18.0723L29.58 22.3339C29.7356 22.515 30.0223 22.495 30.1516 22.2943Z" fill="url(#paint2_radial_7619_1044)"/>
<path d="M30.1516 22.2943C34.1304 16.1182 36.3585 10.4429 37.4154 6.67098C37.7187 5.58858 39.0855 5.14579 39.9074 5.91262C56.7286 21.6065 62.1893 33.4942 63.2682 47.2596C64.0484 60.4101 57.5845 72.1118 40.2363 72.1118C23.9487 72.1118 11.929 60.7444 13.5635 42.7275C14.5894 31.4177 19.156 22.9374 22.5717 18.1616C23.38 17.0314 25.0151 17.0181 25.9204 18.0723L29.58 22.3339C29.7356 22.515 30.0223 22.495 30.1516 22.2943Z" fill="url(#paint3_linear_7619_1044)"/>
<path d="M30.1516 22.2943C34.1304 16.1182 36.3585 10.4429 37.4154 6.67098C37.7187 5.58858 39.0855 5.14579 39.9074 5.91262C56.7286 21.6065 62.1893 33.4942 63.2682 47.2596C64.0484 60.4101 57.5845 72.1118 40.2363 72.1118C23.9487 72.1118 11.929 60.7444 13.5635 42.7275C14.5894 31.4177 19.156 22.9374 22.5717 18.1616C23.38 17.0314 25.0151 17.0181 25.9204 18.0723L29.58 22.3339C29.7356 22.515 30.0223 22.495 30.1516 22.2943Z" fill="url(#paint4_radial_7619_1044)"/>
<path d="M30.1516 22.2943C34.1304 16.1182 36.3585 10.4429 37.4154 6.67098C37.7187 5.58858 39.0855 5.14579 39.9074 5.91262C56.7286 21.6065 62.1893 33.4942 63.2682 47.2596C64.0484 60.4101 57.5845 72.1118 40.2363 72.1118C23.9487 72.1118 11.929 60.7444 13.5635 42.7275C14.5894 31.4177 19.156 22.9374 22.5717 18.1616C23.38 17.0314 25.0151 17.0181 25.9204 18.0723L29.58 22.3339C29.7356 22.515 30.0223 22.495 30.1516 22.2943Z" fill="url(#paint5_radial_7619_1044)"/>
<path d="M30.1516 22.2943C34.1304 16.1182 36.3585 10.4429 37.4154 6.67098C37.7187 5.58858 39.0855 5.14579 39.9074 5.91262C56.7286 21.6065 62.1893 33.4942 63.2682 47.2596C64.0484 60.4101 57.5845 72.1118 40.2363 72.1118C23.9487 72.1118 11.929 60.7444 13.5635 42.7275C14.5894 31.4177 19.156 22.9374 22.5717 18.1616C23.38 17.0314 25.0151 17.0181 25.9204 18.0723L29.58 22.3339C29.7356 22.515 30.0223 22.495 30.1516 22.2943Z" fill="url(#paint6_radial_7619_1044)"/>
<path d="M30.1516 22.2943C34.1304 16.1182 36.3585 10.4429 37.4154 6.67098C37.7187 5.58858 39.0855 5.14579 39.9074 5.91262C56.7286 21.6065 62.1893 33.4942 63.2682 47.2596C64.0484 60.4101 57.5845 72.1118 40.2363 72.1118C23.9487 72.1118 11.929 60.7444 13.5635 42.7275C14.5894 31.4177 19.156 22.9374 22.5717 18.1616C23.38 17.0314 25.0151 17.0181 25.9204 18.0723L29.58 22.3339C29.7356 22.515 30.0223 22.495 30.1516 22.2943Z" fill="url(#paint7_radial_7619_1044)"/>
<path d="M30.1516 22.2943C34.1304 16.1182 36.3585 10.4429 37.4154 6.67098C37.7187 5.58858 39.0855 5.14579 39.9074 5.91262C56.7286 21.6065 62.1893 33.4942 63.2682 47.2596C64.0484 60.4101 57.5845 72.1118 40.2363 72.1118C23.9487 72.1118 11.929 60.7444 13.5635 42.7275C14.5894 31.4177 19.156 22.9374 22.5717 18.1616C23.38 17.0314 25.0151 17.0181 25.9204 18.0723L29.58 22.3339C29.7356 22.515 30.0223 22.495 30.1516 22.2943Z" fill="url(#paint8_radial_7619_1044)"/>
<path d="M30.1516 22.2943C34.1304 16.1182 36.3585 10.4429 37.4154 6.67098C37.7187 5.58858 39.0855 5.14579 39.9074 5.91262C56.7286 21.6065 62.1893 33.4942 63.2682 47.2596C64.0484 60.4101 57.5845 72.1118 40.2363 72.1118C23.9487 72.1118 11.929 60.7444 13.5635 42.7275C14.5894 31.4177 19.156 22.9374 22.5717 18.1616C23.38 17.0314 25.0151 17.0181 25.9204 18.0723L29.58 22.3339C29.7356 22.515 30.0223 22.495 30.1516 22.2943Z" fill="url(#paint9_radial_7619_1044)"/>
<path d="M30.1516 22.2943C34.1304 16.1182 36.3585 10.4429 37.4154 6.67098C37.7187 5.58858 39.0855 5.14579 39.9074 5.91262C56.7286 21.6065 62.1893 33.4942 63.2682 47.2596C64.0484 60.4101 57.5845 72.1118 40.2363 72.1118C23.9487 72.1118 11.929 60.7444 13.5635 42.7275C14.5894 31.4177 19.156 22.9374 22.5717 18.1616C23.38 17.0314 25.0151 17.0181 25.9204 18.0723L29.58 22.3339C29.7356 22.515 30.0223 22.495 30.1516 22.2943Z" fill="url(#paint10_radial_7619_1044)"/>
<path d="M30.1516 22.2943C34.1304 16.1182 36.3585 10.4429 37.4154 6.67098C37.7187 5.58858 39.0855 5.14579 39.9074 5.91262C56.7286 21.6065 62.1893 33.4942 63.2682 47.2596C64.0484 60.4101 57.5845 72.1118 40.2363 72.1118C23.9487 72.1118 11.929 60.7444 13.5635 42.7275C14.5894 31.4177 19.156 22.9374 22.5717 18.1616C23.38 17.0314 25.0151 17.0181 25.9204 18.0723L29.58 22.3339C29.7356 22.515 30.0223 22.495 30.1516 22.2943Z" fill="url(#paint11_radial_7619_1044)"/>
<path d="M30.1516 22.2943C34.1304 16.1182 36.3585 10.4429 37.4154 6.67098C37.7187 5.58858 39.0855 5.14579 39.9074 5.91262C56.7286 21.6065 62.1893 33.4942 63.2682 47.2596C64.0484 60.4101 57.5845 72.1118 40.2363 72.1118C23.9487 72.1118 11.929 60.7444 13.5635 42.7275C14.5894 31.4177 19.156 22.9374 22.5717 18.1616C23.38 17.0314 25.0151 17.0181 25.9204 18.0723L29.58 22.3339C29.7356 22.515 30.0223 22.495 30.1516 22.2943Z" fill="url(#paint12_radial_7619_1044)"/>
<path d="M30.1516 22.2943C34.1304 16.1182 36.3585 10.4429 37.4154 6.67098C37.7187 5.58858 39.0855 5.14579 39.9074 5.91262C56.7286 21.6065 62.1893 33.4942 63.2682 47.2596C64.0484 60.4101 57.5845 72.1118 40.2363 72.1118C23.9487 72.1118 11.929 60.7444 13.5635 42.7275C14.5894 31.4177 19.156 22.9374 22.5717 18.1616C23.38 17.0314 25.0151 17.0181 25.9204 18.0723L29.58 22.3339C29.7356 22.515 30.0223 22.495 30.1516 22.2943Z" fill="url(#paint13_radial_7619_1044)" fill-opacity="0.2"/>
<path d="M30.1516 22.2943C34.1304 16.1182 36.3585 10.4429 37.4154 6.67098C37.7187 5.58858 39.0855 5.14579 39.9074 5.91262C56.7286 21.6065 62.1893 33.4942 63.2682 47.2596C64.0484 60.4101 57.5845 72.1118 40.2363 72.1118C23.9487 72.1118 11.929 60.7444 13.5635 42.7275C14.5894 31.4177 19.156 22.9374 22.5717 18.1616C23.38 17.0314 25.0151 17.0181 25.9204 18.0723L29.58 22.3339C29.7356 22.515 30.0223 22.495 30.1516 22.2943Z" fill="url(#paint14_radial_7619_1044)"/>
<path d="M30.1516 22.2943C34.1304 16.1182 36.3585 10.4429 37.4154 6.67098C37.7187 5.58858 39.0855 5.14579 39.9074 5.91262C56.7286 21.6065 62.1893 33.4942 63.2682 47.2596C64.0484 60.4101 57.5845 72.1118 40.2363 72.1118C23.9487 72.1118 11.929 60.7444 13.5635 42.7275C14.5894 31.4177 19.156 22.9374 22.5717 18.1616C23.38 17.0314 25.0151 17.0181 25.9204 18.0723L29.58 22.3339C29.7356 22.515 30.0223 22.495 30.1516 22.2943Z" fill="url(#paint15_radial_7619_1044)"/>
<path d="M30.1516 22.2943C34.1304 16.1182 36.3585 10.4429 37.4154 6.67098C37.7187 5.58858 39.0855 5.14579 39.9074 5.91262C56.7286 21.6065 62.1893 33.4942 63.2682 47.2596C64.0484 60.4101 57.5845 72.1118 40.2363 72.1118C23.9487 72.1118 11.929 60.7444 13.5635 42.7275C14.5894 31.4177 19.156 22.9374 22.5717 18.1616C23.38 17.0314 25.0151 17.0181 25.9204 18.0723L29.58 22.3339C29.7356 22.515 30.0223 22.495 30.1516 22.2943Z" fill="url(#paint16_radial_7619_1044)"/>
<path d="M30.1516 22.2943C34.1304 16.1182 36.3585 10.4429 37.4154 6.67098C37.7187 5.58858 39.0855 5.14579 39.9074 5.91262C56.7286 21.6065 62.1893 33.4942 63.2682 47.2596C64.0484 60.4101 57.5845 72.1118 40.2363 72.1118C23.9487 72.1118 11.929 60.7444 13.5635 42.7275C14.5894 31.4177 19.156 22.9374 22.5717 18.1616C23.38 17.0314 25.0151 17.0181 25.9204 18.0723L29.58 22.3339C29.7356 22.515 30.0223 22.495 30.1516 22.2943Z" fill="url(#paint17_radial_7619_1044)"/>
<path d="M30.1516 22.2943C34.1304 16.1182 36.3585 10.4429 37.4154 6.67098C37.7187 5.58858 39.0855 5.14579 39.9074 5.91262C56.7286 21.6065 62.1893 33.4942 63.2682 47.2596C64.0484 60.4101 57.5845 72.1118 40.2363 72.1118C23.9487 72.1118 11.929 60.7444 13.5635 42.7275C14.5894 31.4177 19.156 22.9374 22.5717 18.1616C23.38 17.0314 25.0151 17.0181 25.9204 18.0723L29.58 22.3339C29.7356 22.515 30.0223 22.495 30.1516 22.2943Z" fill="url(#paint18_radial_7619_1044)" fill-opacity="0.3"/>
<path d="M30.1516 22.2943C34.1304 16.1182 36.3585 10.4429 37.4154 6.67098C37.7187 5.58858 39.0855 5.14579 39.9074 5.91262C56.7286 21.6065 62.1893 33.4942 63.2682 47.2596C64.0484 60.4101 57.5845 72.1118 40.2363 72.1118C23.9487 72.1118 11.929 60.7444 13.5635 42.7275C14.5894 31.4177 19.156 22.9374 22.5717 18.1616C23.38 17.0314 25.0151 17.0181 25.9204 18.0723L29.58 22.3339C29.7356 22.515 30.0223 22.495 30.1516 22.2943Z" fill="url(#paint19_radial_7619_1044)" fill-opacity="0.4"/>
<path d="M30.1516 22.2943C34.1304 16.1182 36.3585 10.4429 37.4154 6.67098C37.7187 5.58858 39.0855 5.14579 39.9074 5.91262C56.7286 21.6065 62.1893 33.4942 63.2682 47.2596C64.0484 60.4101 57.5845 72.1118 40.2363 72.1118C23.9487 72.1118 11.929 60.7444 13.5635 42.7275C14.5894 31.4177 19.156 22.9374 22.5717 18.1616C23.38 17.0314 25.0151 17.0181 25.9204 18.0723L29.58 22.3339C29.7356 22.515 30.0223 22.495 30.1516 22.2943Z" fill="url(#paint20_radial_7619_1044)"/>
<path d="M30.1516 22.2943C34.1304 16.1182 36.3585 10.4429 37.4154 6.67098C37.7187 5.58858 39.0855 5.14579 39.9074 5.91262C56.7286 21.6065 62.1893 33.4942 63.2682 47.2596C64.0484 60.4101 57.5845 72.1118 40.2363 72.1118C23.9487 72.1118 11.929 60.7444 13.5635 42.7275C14.5894 31.4177 19.156 22.9374 22.5717 18.1616C23.38 17.0314 25.0151 17.0181 25.9204 18.0723L29.58 22.3339C29.7356 22.515 30.0223 22.495 30.1516 22.2943Z" fill="url(#paint21_radial_7619_1044)"/>
<path d="M30.1516 22.2943C34.1304 16.1182 36.3585 10.4429 37.4154 6.67098C37.7187 5.58858 39.0855 5.14579 39.9074 5.91262C56.7286 21.6065 62.1893 33.4942 63.2682 47.2596C64.0484 60.4101 57.5845 72.1118 40.2363 72.1118C23.9487 72.1118 11.929 60.7444 13.5635 42.7275C14.5894 31.4177 19.156 22.9374 22.5717 18.1616C23.38 17.0314 25.0151 17.0181 25.9204 18.0723L29.58 22.3339C29.7356 22.515 30.0223 22.495 30.1516 22.2943Z" fill="url(#paint22_radial_7619_1044)"/>
<path d="M30.1516 22.2943C34.1304 16.1182 36.3585 10.4429 37.4154 6.67098C37.7187 5.58858 39.0855 5.14579 39.9074 5.91262C56.7286 21.6065 62.1893 33.4942 63.2682 47.2596C64.0484 60.4101 57.5845 72.1118 40.2363 72.1118C23.9487 72.1118 11.929 60.7444 13.5635 42.7275C14.5894 31.4177 19.156 22.9374 22.5717 18.1616C23.38 17.0314 25.0151 17.0181 25.9204 18.0723L29.58 22.3339C29.7356 22.515 30.0223 22.495 30.1516 22.2943Z" fill="url(#paint23_radial_7619_1044)" fill-opacity="0.8"/>
<path d="M30.1516 22.2943C34.1304 16.1182 36.3585 10.4429 37.4154 6.67098C37.7187 5.58858 39.0855 5.14579 39.9074 5.91262C56.7286 21.6065 62.1893 33.4942 63.2682 47.2596C64.0484 60.4101 57.5845 72.1118 40.2363 72.1118C23.9487 72.1118 11.929 60.7444 13.5635 42.7275C14.5894 31.4177 19.156 22.9374 22.5717 18.1616C23.38 17.0314 25.0151 17.0181 25.9204 18.0723L29.58 22.3339C29.7356 22.515 30.0223 22.495 30.1516 22.2943Z" fill="url(#paint24_radial_7619_1044)" fill-opacity="0.2"/>
<path d="M30.1516 22.2943C34.1304 16.1182 36.3585 10.4429 37.4154 6.67098C37.7187 5.58858 39.0855 5.14579 39.9074 5.91262C56.7286 21.6065 62.1893 33.4942 63.2682 47.2596C64.0484 60.4101 57.5845 72.1118 40.2363 72.1118C23.9487 72.1118 11.929 60.7444 13.5635 42.7275C14.5894 31.4177 19.156 22.9374 22.5717 18.1616C23.38 17.0314 25.0151 17.0181 25.9204 18.0723L29.58 22.3339C29.7356 22.515 30.0223 22.495 30.1516 22.2943Z" fill="url(#paint25_radial_7619_1044)" fill-opacity="0.2"/>
<path d="M30.1516 22.2943C34.1304 16.1182 36.3585 10.4429 37.4154 6.67098C37.7187 5.58858 39.0855 5.14579 39.9074 5.91262C56.7286 21.6065 62.1893 33.4942 63.2682 47.2596C64.0484 60.4101 57.5845 72.1118 40.2363 72.1118C23.9487 72.1118 11.929 60.7444 13.5635 42.7275C14.5894 31.4177 19.156 22.9374 22.5717 18.1616C23.38 17.0314 25.0151 17.0181 25.9204 18.0723L29.58 22.3339C29.7356 22.515 30.0223 22.495 30.1516 22.2943Z" fill="url(#paint26_radial_7619_1044)"/>
<path d="M30.1516 22.2943C34.1304 16.1182 36.3585 10.4429 37.4154 6.67098C37.7187 5.58858 39.0855 5.14579 39.9074 5.91262C56.7286 21.6065 62.1893 33.4942 63.2682 47.2596C64.0484 60.4101 57.5845 72.1118 40.2363 72.1118C23.9487 72.1118 11.929 60.7444 13.5635 42.7275C14.5894 31.4177 19.156 22.9374 22.5717 18.1616C23.38 17.0314 25.0151 17.0181 25.9204 18.0723L29.58 22.3339C29.7356 22.515 30.0223 22.495 30.1516 22.2943Z" fill="url(#paint27_radial_7619_1044)"/>
<path d="M30.1516 22.2943C34.1304 16.1182 36.3585 10.4429 37.4154 6.67098C37.7187 5.58858 39.0855 5.14579 39.9074 5.91262C56.7286 21.6065 62.1893 33.4942 63.2682 47.2596C64.0484 60.4101 57.5845 72.1118 40.2363 72.1118C23.9487 72.1118 11.929 60.7444 13.5635 42.7275C14.5894 31.4177 19.156 22.9374 22.5717 18.1616C23.38 17.0314 25.0151 17.0181 25.9204 18.0723L29.58 22.3339C29.7356 22.515 30.0223 22.495 30.1516 22.2943Z" fill="url(#paint28_radial_7619_1044)"/>
<path d="M30.1516 22.2943C34.1304 16.1182 36.3585 10.4429 37.4154 6.67098C37.7187 5.58858 39.0855 5.14579 39.9074 5.91262C56.7286 21.6065 62.1893 33.4942 63.2682 47.2596C64.0484 60.4101 57.5845 72.1118 40.2363 72.1118C23.9487 72.1118 11.929 60.7444 13.5635 42.7275C14.5894 31.4177 19.156 22.9374 22.5717 18.1616C23.38 17.0314 25.0151 17.0181 25.9204 18.0723L29.58 22.3339C29.7356 22.515 30.0223 22.495 30.1516 22.2943Z" fill="url(#paint29_radial_7619_1044)"/>
<path d="M24.5831 48.1772C27.807 40.5051 34.5616 31.9815 38.8426 27.7041C39.7715 26.7759 41.2478 26.7615 42.225 27.6386C50.8955 35.4206 53.4355 42.4001 55.5838 50.5547C57.7707 58.8562 55.5838 72.2319 39.1278 72.2319C24.9561 72.2319 20.0469 58.9723 24.5831 48.1772Z" fill="url(#paint30_radial_7619_1044)"/>
<path d="M24.5831 48.1772C27.807 40.5051 34.5616 31.9815 38.8426 27.7041C39.7715 26.7759 41.2478 26.7615 42.225 27.6386C50.8955 35.4206 53.4355 42.4001 55.5838 50.5547C57.7707 58.8562 55.5838 72.2319 39.1278 72.2319C24.9561 72.2319 20.0469 58.9723 24.5831 48.1772Z" fill="url(#paint31_radial_7619_1044)"/>
<path d="M24.5831 48.1772C27.807 40.5051 34.5616 31.9815 38.8426 27.7041C39.7715 26.7759 41.2478 26.7615 42.225 27.6386C50.8955 35.4206 53.4355 42.4001 55.5838 50.5547C57.7707 58.8562 55.5838 72.2319 39.1278 72.2319C24.9561 72.2319 20.0469 58.9723 24.5831 48.1772Z" fill="url(#paint32_radial_7619_1044)"/>
<path d="M24.5831 48.1772C27.807 40.5051 34.5616 31.9815 38.8426 27.7041C39.7715 26.7759 41.2478 26.7615 42.225 27.6386C50.8955 35.4206 53.4355 42.4001 55.5838 50.5547C57.7707 58.8562 55.5838 72.2319 39.1278 72.2319C24.9561 72.2319 20.0469 58.9723 24.5831 48.1772Z" fill="url(#paint33_radial_7619_1044)"/>
<path d="M24.5831 48.1772C27.807 40.5051 34.5616 31.9815 38.8426 27.7041C39.7715 26.7759 41.2478 26.7615 42.225 27.6386C50.8955 35.4206 53.4355 42.4001 55.5838 50.5547C57.7707 58.8562 55.5838 72.2319 39.1278 72.2319C24.9561 72.2319 20.0469 58.9723 24.5831 48.1772Z" fill="url(#paint34_linear_7619_1044)"/>
<path d="M24.5831 48.1772C27.807 40.5051 34.5616 31.9815 38.8426 27.7041C39.7715 26.7759 41.2478 26.7615 42.225 27.6386C50.8955 35.4206 53.4355 42.4001 55.5838 50.5547C57.7707 58.8562 55.5838 72.2319 39.1278 72.2319C24.9561 72.2319 20.0469 58.9723 24.5831 48.1772Z" fill="url(#paint35_radial_7619_1044)"/>
<path d="M24.5831 48.1772C27.807 40.5051 34.5616 31.9815 38.8426 27.7041C39.7715 26.7759 41.2478 26.7615 42.225 27.6386C50.8955 35.4206 53.4355 42.4001 55.5838 50.5547C57.7707 58.8562 55.5838 72.2319 39.1278 72.2319C24.9561 72.2319 20.0469 58.9723 24.5831 48.1772Z" fill="url(#paint36_radial_7619_1044)"/>
<path d="M24.5831 48.1772C27.807 40.5051 34.5616 31.9815 38.8426 27.7041C39.7715 26.7759 41.2478 26.7615 42.225 27.6386C50.8955 35.4206 53.4355 42.4001 55.5838 50.5547C57.7707 58.8562 55.5838 72.2319 39.1278 72.2319C24.9561 72.2319 20.0469 58.9723 24.5831 48.1772Z" fill="url(#paint37_radial_7619_1044)" fill-opacity="0.7"/>
<defs>
<radialGradient id="paint0_radial_7619_1044" cx="0" cy="0" r="1" gradientUnits="userSpaceOnUse" gradientTransform="translate(57.4504 47.8044) rotate(-179.474) scale(40.6522 61.3063)">
<stop stop-color="#FF953D"/>
<stop offset="1" stop-color="#FF5141"/>
</radialGradient>
<radialGradient id="paint1_radial_7619_1044" cx="0" cy="0" r="1" gradientUnits="userSpaceOnUse" gradientTransform="translate(25.0456 38.1397) rotate(-157.937) scale(24.5931 42.4371)">
<stop stop-color="#CE5327"/>
<stop offset="1" stop-color="#CE5327" stop-opacity="0"/>
</radialGradient>
<radialGradient id="paint2_radial_7619_1044" cx="0" cy="0" r="1" gradientUnits="userSpaceOnUse" gradientTransform="translate(19.139 48.3684) rotate(15.4786) scale(5.00033 18.2197)">
<stop stop-color="#F38758"/>
<stop offset="0.363071" stop-color="#F38758" stop-opacity="0.703001"/>
<stop offset="0.71349" stop-color="#F38758" stop-opacity="0.210142"/>
<stop offset="1" stop-color="#F38758" stop-opacity="0"/>
</radialGradient>
<linearGradient id="paint3_linear_7619_1044" x1="43.9798" y1="72.1118" x2="43.9798" y2="59.9902" gradientUnits="userSpaceOnUse">
<stop stop-color="#FF7583"/>
<stop offset="1" stop-color="#FF7583" stop-opacity="0"/>
</linearGradient>
<radialGradient id="paint4_radial_7619_1044" cx="0" cy="0" r="1" gradientUnits="userSpaceOnUse" gradientTransform="translate(12.1708 35.1357) rotate(24.0149) scale(7.3813 61.0994)">
<stop stop-color="#FFAA7B"/>
<stop offset="0.845295" stop-color="#FFAA7B" stop-opacity="0.0923529"/>
<stop offset="1" stop-color="#FFAA7B" stop-opacity="0"/>
</radialGradient>
<radialGradient id="paint5_radial_7619_1044" cx="0" cy="0" r="1" gradientUnits="userSpaceOnUse" gradientTransform="translate(22.5204 15.7818) rotate(77.3196) scale(9.13042 11.3927)">
<stop stop-color="#FF5E47"/>
<stop offset="1" stop-color="#FF5E47" stop-opacity="0"/>
</radialGradient>
<radialGradient id="paint6_radial_7619_1044" cx="0" cy="0" r="1" gradientUnits="userSpaceOnUse" gradientTransform="translate(39.4451 4.16748) rotate(87.8819) scale(24.1016 22.3085)">
<stop stop-color="#FF2F3C"/>
<stop offset="1" stop-color="#FF2F3C" stop-opacity="0"/>
</radialGradient>
<radialGradient id="paint7_radial_7619_1044" cx="0" cy="0" r="1" gradientUnits="userSpaceOnUse" gradientTransform="translate(29.105 21.7579) rotate(152.832) scale(2.96244 1.25929)">
<stop stop-color="#FFA682"/>
<stop offset="0.686162" stop-color="#FFA682" stop-opacity="0.266248"/>
<stop offset="0.821066" stop-color="#FFA682" stop-opacity="0.117186"/>
<stop offset="1" stop-color="#FFA682" stop-opacity="0"/>
</radialGradient>
<radialGradient id="paint8_radial_7619_1044" cx="0" cy="0" r="1" gradientUnits="userSpaceOnUse" gradientTransform="translate(28.7489 21.7458) rotate(114.808) scale(9.20739 0.911766)">
<stop stop-color="#FFA682"/>
<stop offset="0.701678" stop-color="#FFA682" stop-opacity="0.199672"/>
<stop offset="1" stop-color="#FFA682" stop-opacity="0"/>
</radialGradient>
<radialGradient id="paint9_radial_7619_1044" cx="0" cy="0" r="1" gradientUnits="userSpaceOnUse" gradientTransform="translate(20.8946 24.7228) rotate(20.9596) scale(2.12427 10.0754)">
<stop stop-color="#FF815B"/>
<stop offset="0.24804" stop-color="#FF815B" stop-opacity="0.869521"/>
<stop offset="0.815487" stop-color="#FF815B" stop-opacity="0.150116"/>
<stop offset="1" stop-color="#FF815B" stop-opacity="0"/>
</radialGradient>
<radialGradient id="paint10_radial_7619_1044" cx="0" cy="0" r="1" gradientUnits="userSpaceOnUse" gradientTransform="translate(22.5148 21.6749) rotate(16.4224) scale(2.60707 8.62256)">
<stop stop-color="#FF815B"/>
<stop offset="0.24804" stop-color="#FF815B" stop-opacity="0.869521"/>
<stop offset="0.822875" stop-color="#FF815B" stop-opacity="0.150116"/>
<stop offset="1" stop-color="#FF815B" stop-opacity="0"/>
</radialGradient>
<radialGradient id="paint11_radial_7619_1044" cx="0" cy="0" r="1" gradientUnits="userSpaceOnUse" gradientTransform="translate(25.7357 17.028) rotate(99.2111) scale(2.59739 10.3494)">
<stop stop-color="#FF2F3C"/>
<stop offset="0.739036" stop-color="#FF2F3C" stop-opacity="0.119038"/>
<stop offset="1" stop-color="#FF2F3C" stop-opacity="0"/>
</radialGradient>
<radialGradient id="paint12_radial_7619_1044" cx="0" cy="0" r="1" gradientUnits="userSpaceOnUse" gradientTransform="translate(27.9081 20.1995) rotate(105.173) scale(13.8657 3.65234)">
<stop stop-color="#FF2F3C" stop-opacity="0.72"/>
<stop offset="0.739036" stop-color="#FF2F3C" stop-opacity="0.119038"/>
<stop offset="1" stop-color="#FF2F3C" stop-opacity="0"/>
</radialGradient>
<radialGradient id="paint13_radial_7619_1044" cx="0" cy="0" r="1" gradientUnits="userSpaceOnUse" gradientTransform="translate(28.4692 32.3957) rotate(31.1593) scale(6.59818 29.8551)">
<stop stop-color="#CA0B4A"/>
<stop offset="0.680964" stop-color="#CA0B4A" stop-opacity="0.54"/>
<stop offset="1" stop-color="#CA0B4A" stop-opacity="0"/>
</radialGradient>
<radialGradient id="paint14_radial_7619_1044" cx="0" cy="0" r="1" gradientUnits="userSpaceOnUse" gradientTransform="translate(33.8697 16.2388) rotate(23.7601) scale(5.36396 19.5446)">
<stop stop-color="#F38758"/>
<stop offset="0.363071" stop-color="#F38758" stop-opacity="0.703001"/>
<stop offset="0.71349" stop-color="#F38758" stop-opacity="0.210142"/>
<stop offset="1" stop-color="#F38758" stop-opacity="0"/>
</radialGradient>
<radialGradient id="paint15_radial_7619_1044" cx="0" cy="0" r="1" gradientUnits="userSpaceOnUse" gradientTransform="translate(29.5535 26.6257) rotate(28.8359) scale(3.97288 14.4759)">
<stop stop-color="#F38758" stop-opacity="0.86"/>
<stop offset="0.262244" stop-color="#F38758" stop-opacity="0.703001"/>
<stop offset="0.675284" stop-color="#F38758" stop-opacity="0.210142"/>
<stop offset="0.861713" stop-color="#F38758" stop-opacity="0.0623553"/>
<stop offset="1" stop-color="#F38758" stop-opacity="0"/>
</radialGradient>
<radialGradient id="paint16_radial_7619_1044" cx="0" cy="0" r="1" gradientUnits="userSpaceOnUse" gradientTransform="translate(23.3598 37.8957) rotate(24.6769) scale(5.85268 21.3253)">
<stop stop-color="#F38758"/>
<stop offset="0.363071" stop-color="#F38758" stop-opacity="0.703001"/>
<stop offset="0.71349" stop-color="#F38758" stop-opacity="0.210142"/>
<stop offset="1" stop-color="#F38758" stop-opacity="0"/>
</radialGradient>
<radialGradient id="paint17_radial_7619_1044" cx="0" cy="0" r="1" gradientUnits="userSpaceOnUse" gradientTransform="translate(29.8945 53.4167) rotate(-160.017) scale(13.8255 28.1756)">
<stop stop-color="#CE5327"/>
<stop offset="0.844833" stop-color="#CE5327" stop-opacity="0.434204"/>
<stop offset="0.945717" stop-color="#CE5327" stop-opacity="0.12821"/>
<stop offset="1" stop-color="#CE5327" stop-opacity="0"/>
</radialGradient>
<radialGradient id="paint18_radial_7619_1044" cx="0" cy="0" r="1" gradientUnits="userSpaceOnUse" gradientTransform="translate(39.2643 14.8346) rotate(-176.122) scale(2.77438 11.091)">
<stop stop-color="#CE5327" stop-opacity="0.65"/>
<stop offset="0.481357" stop-color="#CE5327" stop-opacity="0.434204"/>
<stop offset="0.738276" stop-color="#CE5327" stop-opacity="0.12821"/>
<stop offset="1" stop-color="#CE5327" stop-opacity="0"/>
</radialGradient>
<radialGradient id="paint19_radial_7619_1044" cx="0" cy="0" r="1" gradientUnits="userSpaceOnUse" gradientTransform="translate(38.1582 19.8761) rotate(-164.148) scale(2.83714 11.3419)">
<stop stop-color="#CE5327" stop-opacity="0.65"/>
<stop offset="0.481357" stop-color="#CE5327" stop-opacity="0.434204"/>
<stop offset="0.738276" stop-color="#CE5327" stop-opacity="0.12821"/>
<stop offset="1" stop-color="#CE5327" stop-opacity="0"/>
</radialGradient>
<radialGradient id="paint20_radial_7619_1044" cx="0" cy="0" r="1" gradientUnits="userSpaceOnUse" gradientTransform="translate(20.9832 33.5282) rotate(-154.011) scale(1.7497 14.7497)">
<stop stop-color="#CE5327" stop-opacity="0.87"/>
<stop offset="0.493785" stop-color="#CE5327" stop-opacity="0.53"/>
<stop offset="0.852631" stop-color="#CE5327" stop-opacity="0.123929"/>
<stop offset="1" stop-color="#CE5327" stop-opacity="0"/>
</radialGradient>
<radialGradient id="paint21_radial_7619_1044" cx="0" cy="0" r="1" gradientUnits="userSpaceOnUse" gradientTransform="translate(28.2167 25.2707) rotate(-145.909) scale(0.742718 4.59936)">
<stop stop-color="#FF5E47"/>
<stop offset="1" stop-color="#FF5E47" stop-opacity="0"/>
</radialGradient>
<radialGradient id="paint22_radial_7619_1044" cx="0" cy="0" r="1" gradientUnits="userSpaceOnUse" gradientTransform="translate(18.9437 22.0235) rotate(29.1817) scale(3.20733 19.8617)">
<stop offset="0.25679" stop-color="#FF5E47"/>
<stop offset="0.779632" stop-color="#FF5E47" stop-opacity="0.216117"/>
<stop offset="1" stop-color="#FF5E47" stop-opacity="0"/>
</radialGradient>
<radialGradient id="paint23_radial_7619_1044" cx="0" cy="0" r="1" gradientUnits="userSpaceOnUse" gradientTransform="translate(29.5111 22.7015) rotate(-155.855) scale(1.02991 5.05701)">
<stop stop-color="#FF2F3C"/>
<stop offset="0.361378" stop-color="#FF2F3C" stop-opacity="0.44772"/>
<stop offset="0.739036" stop-color="#FF2F3C" stop-opacity="0.119038"/>
<stop offset="1" stop-color="#FF2F3C" stop-opacity="0"/>
</radialGradient>
<radialGradient id="paint24_radial_7619_1044" cx="0" cy="0" r="1" gradientUnits="userSpaceOnUse" gradientTransform="translate(39.4293 14.912) rotate(-177.99) scale(4.27025 22.555)">
<stop stop-color="#CA0B4A"/>
<stop offset="0.680964" stop-color="#CA0B4A" stop-opacity="0.183465"/>
<stop offset="1" stop-color="#CA0B4A" stop-opacity="0"/>
</radialGradient>
<radialGradient id="paint25_radial_7619_1044" cx="0" cy="0" r="1" gradientUnits="userSpaceOnUse" gradientTransform="translate(39.5184 8.81583) rotate(-180) scale(2.26494 11.9632)">
<stop stop-color="#CA0B4A"/>
<stop offset="0.680964" stop-color="#CA0B4A" stop-opacity="0.183465"/>
<stop offset="1" stop-color="#CA0B4A" stop-opacity="0"/>
</radialGradient>
<radialGradient id="paint26_radial_7619_1044" cx="0" cy="0" r="1" gradientUnits="userSpaceOnUse" gradientTransform="translate(18.9739 43.7811) rotate(22.249) scale(1.60865 10.1103)">
<stop stop-color="#F38758"/>
<stop offset="0.277249" stop-color="#F38758" stop-opacity="0.771452"/>
<stop offset="0.585568" stop-color="#F38758" stop-opacity="0.288453"/>
<stop offset="1" stop-color="#F38758" stop-opacity="0"/>
</radialGradient>
<radialGradient id="paint27_radial_7619_1044" cx="0" cy="0" r="1" gradientUnits="userSpaceOnUse" gradientTransform="translate(22.37 37.5509) rotate(29.7449) scale(1.44488 9.08099)">
<stop stop-color="#F38758"/>
<stop offset="0.277249" stop-color="#F38758" stop-opacity="0.771452"/>
<stop offset="0.585568" stop-color="#F38758" stop-opacity="0.288453"/>
<stop offset="1" stop-color="#F38758" stop-opacity="0"/>
</radialGradient>
<radialGradient id="paint28_radial_7619_1044" cx="0" cy="0" r="1" gradientUnits="userSpaceOnUse" gradientTransform="translate(26.0441 31.901) rotate(37.4054) scale(1.32313 8.31579)">
<stop stop-color="#F38758"/>
<stop offset="0.277249" stop-color="#F38758" stop-opacity="0.771452"/>
<stop offset="0.585568" stop-color="#F38758" stop-opacity="0.288453"/>
<stop offset="1" stop-color="#F38758" stop-opacity="0"/>
</radialGradient>
<radialGradient id="paint29_radial_7619_1044" cx="0" cy="0" r="1" gradientUnits="userSpaceOnUse" gradientTransform="translate(30.5269 41.939) rotate(-151.033) scale(10.1272 22.0358)">
<stop stop-color="#CE5327"/>
<stop offset="0.638398" stop-color="#CE5327" stop-opacity="0.417024"/>
<stop offset="0.913732" stop-color="#CE5327" stop-opacity="0.123929"/>
<stop offset="1" stop-color="#CE5327" stop-opacity="0"/>
</radialGradient>
<radialGradient id="paint30_radial_7619_1044" cx="0" cy="0" r="1" gradientUnits="userSpaceOnUse" gradientTransform="translate(50.7984 58.8742) rotate(-168.558) scale(23.8441 29.6927)">
<stop stop-color="#FFDA2F"/>
<stop offset="0.352487" stop-color="#FFC634"/>
<stop offset="1" stop-color="#FF8E41"/>
</radialGradient>
<radialGradient id="paint31_radial_7619_1044" cx="0" cy="0" r="1" gradientUnits="userSpaceOnUse" gradientTransform="translate(47.2906 54.4852) rotate(-174.878) scale(24.4415 59.8435)">
<stop offset="0.627719" stop-color="#D7812D" stop-opacity="0"/>
<stop offset="0.728983" stop-color="#D7812D" stop-opacity="0.137125"/>
<stop offset="0.855913" stop-color="#D7812D" stop-opacity="0.404199"/>
<stop offset="1" stop-color="#D7812D"/>
</radialGradient>
<radialGradient id="paint32_radial_7619_1044" cx="0" cy="0" r="1" gradientUnits="userSpaceOnUse" gradientTransform="translate(64.1011 68.727) rotate(-135.822) scale(47.7238 56.2756)">
<stop stop-color="#D7812D" stop-opacity="0"/>
<stop offset="0.688904" stop-color="#D7812D" stop-opacity="0"/>
<stop offset="0.767023" stop-color="#D7812D" stop-opacity="0.103983"/>
<stop offset="0.837368" stop-color="#D7812D" stop-opacity="0.404199"/>
<stop offset="0.951078" stop-color="#D7812D"/>
</radialGradient>
<radialGradient id="paint33_radial_7619_1044" cx="0" cy="0" r="1" gradientUnits="userSpaceOnUse" gradientTransform="translate(29.8687 21.3489) rotate(69.0442) scale(33.6237 29.2145)">
<stop offset="0.152609" stop-color="#FD5639"/>
<stop offset="0.835743" stop-color="#FE5534" stop-opacity="0.0858814"/>
<stop offset="1" stop-color="#FE5533" stop-opacity="0"/>
</radialGradient>
<linearGradient id="paint34_linear_7619_1044" x1="39.6194" y1="26.1504" x2="39.6194" y2="34.8218" gradientUnits="userSpaceOnUse">
<stop stop-color="#F95131"/>
<stop offset="1" stop-color="#F95131" stop-opacity="0"/>
</linearGradient>
<radialGradient id="paint35_radial_7619_1044" cx="0" cy="0" r="1" gradientUnits="userSpaceOnUse" gradientTransform="translate(55.033 45.6225) rotate(143.063) scale(38.1696 27.6203)">
<stop offset="0.725303" stop-color="#F18A52" stop-opacity="0"/>
<stop offset="0.816284" stop-color="#F18A52" stop-opacity="0.230883"/>
<stop offset="1" stop-color="#F18A52"/>
</radialGradient>
<radialGradient id="paint36_radial_7619_1044" cx="0" cy="0" r="1" gradientUnits="userSpaceOnUse" gradientTransform="translate(57.7498 55.3003) rotate(-148.858) scale(32.7632 53.9612)">
<stop stop-color="#F39D5D" stop-opacity="0"/>
<stop offset="0.928937" stop-color="#F39D5D" stop-opacity="0"/>
<stop offset="0.938719" stop-color="#F39D5D" stop-opacity="0.0581965"/>
<stop offset="0.950197" stop-color="#F39D5D" stop-opacity="0.180239"/>
<stop offset="0.983595" stop-color="#F39D5D"/>
</radialGradient>
<radialGradient id="paint37_radial_7619_1044" cx="0" cy="0" r="1" gradientUnits="userSpaceOnUse" gradientTransform="translate(63.9811 57.045) rotate(-178.108) scale(41.523 42.0844)">
<stop stop-color="#F39D5D" stop-opacity="0"/>
<stop offset="0.939537" stop-color="#F39D5D" stop-opacity="0"/>
<stop offset="0.951154" stop-color="#F39D5D" stop-opacity="0.0581965"/>
<stop offset="0.96296" stop-color="#F39D5D" stop-opacity="0.180239"/>
<stop offset="0.980969" stop-color="#F39D5D"/>
</radialGradient>
</defs>
</svg>
