<svg width="77" height="77" viewBox="0 0 77 77" fill="none" xmlns="http://www.w3.org/2000/svg">
<path d="M38.8707 71.452C61.0633 71.452 72.1529 56.551 72.1529 38.1697C72.1529 19.7884 61.0633 4.88745 38.8707 4.88745C16.6781 4.88745 5.58839 19.7884 5.58839 38.1697C5.58839 56.551 16.6781 71.452 38.8707 71.452Z" fill="url(#paint0_radial_7619_953)"/>
<path d="M38.8707 71.452C61.0633 71.452 72.1529 56.551 72.1529 38.1697C72.1529 19.7884 61.0633 4.88745 38.8707 4.88745C16.6781 4.88745 5.58839 19.7884 5.58839 38.1697C5.58839 56.551 16.6781 71.452 38.8707 71.452Z" fill="url(#paint1_radial_7619_953)"/>
<path d="M38.8707 71.452C61.0633 71.452 72.1529 56.551 72.1529 38.1697C72.1529 19.7884 61.0633 4.88745 38.8707 4.88745C16.6781 4.88745 5.58839 19.7884 5.58839 38.1697C5.58839 56.551 16.6781 71.452 38.8707 71.452Z" fill="url(#paint2_radial_7619_953)"/>
<path d="M38.8707 71.452C61.0633 71.452 72.1529 56.551 72.1529 38.1697C72.1529 19.7884 61.0633 4.88745 38.8707 4.88745C16.6781 4.88745 5.58839 19.7884 5.58839 38.1697C5.58839 56.551 16.6781 71.452 38.8707 71.452Z" fill="url(#paint3_radial_7619_953)" fill-opacity="0.6"/>
<path d="M38.8707 71.452C61.0633 71.452 72.1529 56.551 72.1529 38.1697C72.1529 19.7884 61.0633 4.88745 38.8707 4.88745C16.6781 4.88745 5.58839 19.7884 5.58839 38.1697C5.58839 56.551 16.6781 71.452 38.8707 71.452Z" fill="url(#paint4_radial_7619_953)"/>
<path d="M38.8707 71.452C61.0633 71.452 72.1529 56.551 72.1529 38.1697C72.1529 19.7884 61.0633 4.88745 38.8707 4.88745C16.6781 4.88745 5.58839 19.7884 5.58839 38.1697C5.58839 56.551 16.6781 71.452 38.8707 71.452Z" fill="url(#paint5_radial_7619_953)"/>
<path d="M38.8707 71.452C61.0633 71.452 72.1529 56.551 72.1529 38.1697C72.1529 19.7884 61.0633 4.88745 38.8707 4.88745C16.6781 4.88745 5.58839 19.7884 5.58839 38.1697C5.58839 56.551 16.6781 71.452 38.8707 71.452Z" fill="url(#paint6_radial_7619_953)"/>
<path d="M38.8707 71.452C61.0633 71.452 72.1529 56.551 72.1529 38.1697C72.1529 19.7884 61.0633 4.88745 38.8707 4.88745C16.6781 4.88745 5.58839 19.7884 5.58839 38.1697C5.58839 56.551 16.6781 71.452 38.8707 71.452Z" fill="url(#paint7_radial_7619_953)"/>
<path d="M38.8707 71.452C61.0633 71.452 72.1529 56.551 72.1529 38.1697C72.1529 19.7884 61.0633 4.88745 38.8707 4.88745C16.6781 4.88745 5.58839 19.7884 5.58839 38.1697C5.58839 56.551 16.6781 71.452 38.8707 71.452Z" fill="url(#paint8_radial_7619_953)"/>
<path d="M38.8707 71.452C61.0633 71.452 72.1529 56.551 72.1529 38.1697C72.1529 19.7884 61.0633 4.88745 38.8707 4.88745C16.6781 4.88745 5.58839 19.7884 5.58839 38.1697C5.58839 56.551 16.6781 71.452 38.8707 71.452Z" fill="url(#paint9_radial_7619_953)"/>
<path d="M38.8707 71.452C61.0633 71.452 72.1529 56.551 72.1529 38.1697C72.1529 19.7884 61.0633 4.88745 38.8707 4.88745C16.6781 4.88745 5.58839 19.7884 5.58839 38.1697C5.58839 56.551 16.6781 71.452 38.8707 71.452Z" fill="url(#paint10_radial_7619_953)"/>
<path d="M38.8707 71.452C61.0633 71.452 72.1529 56.551 72.1529 38.1697C72.1529 19.7884 61.0633 4.88745 38.8707 4.88745C16.6781 4.88745 5.58839 19.7884 5.58839 38.1697C5.58839 56.551 16.6781 71.452 38.8707 71.452Z" fill="url(#paint11_radial_7619_953)"/>
<path d="M38.8735 59.5701C17.476 59.5701 17.476 38.1726 17.476 38.1726H60.2709C60.2709 38.1726 60.2709 59.5701 38.8735 59.5701Z" fill="url(#paint12_radial_7619_953)"/>
<path d="M19.8535 39.9458V38.1726H57.8934V39.9458C57.8934 40.9361 57.0906 41.7389 56.1003 41.7389H21.6465C20.6563 41.7389 19.8535 40.9361 19.8535 39.9458Z" fill="url(#paint13_linear_7619_953)"/>
<path d="M8.3963 23.3139C13.1893 28.8456 19.5659 31.2681 22.8344 32.2035C24.1732 32.5867 25.5781 32.2023 26.5696 31.2244C29.4071 28.4257 35.1259 22.0038 36.3484 14.6716C38.0554 4.43268 25.217 1.31136 20.0432 9.75044C7.94052 4.06573 1.53831 15.399 8.3963 23.3139Z" fill="url(#paint14_linear_7619_953)"/>
<path d="M8.3963 23.3139C13.1893 28.8456 19.5659 31.2681 22.8344 32.2035C24.1732 32.5867 25.5781 32.2023 26.5696 31.2244C29.4071 28.4257 35.1259 22.0038 36.3484 14.6716C38.0554 4.43268 25.217 1.31136 20.0432 9.75044C7.94052 4.06573 1.53831 15.399 8.3963 23.3139Z" fill="url(#paint15_radial_7619_953)"/>
<path d="M8.3963 23.3139C13.1893 28.8456 19.5659 31.2681 22.8344 32.2035C24.1732 32.5867 25.5781 32.2023 26.5696 31.2244C29.4071 28.4257 35.1259 22.0038 36.3484 14.6716C38.0554 4.43268 25.217 1.31136 20.0432 9.75044C7.94052 4.06573 1.53831 15.399 8.3963 23.3139Z" fill="url(#paint16_radial_7619_953)"/>
<path d="M8.3963 23.3139C13.1893 28.8456 19.5659 31.2681 22.8344 32.2035C24.1732 32.5867 25.5781 32.2023 26.5696 31.2244C29.4071 28.4257 35.1259 22.0038 36.3484 14.6716C38.0554 4.43268 25.217 1.31136 20.0432 9.75044C7.94052 4.06573 1.53831 15.399 8.3963 23.3139Z" fill="url(#paint17_radial_7619_953)"/>
<path d="M8.3963 23.3139C13.1893 28.8456 19.5659 31.2681 22.8344 32.2035C24.1732 32.5867 25.5781 32.2023 26.5696 31.2244C29.4071 28.4257 35.1259 22.0038 36.3484 14.6716C38.0554 4.43268 25.217 1.31136 20.0432 9.75044C7.94052 4.06573 1.53831 15.399 8.3963 23.3139Z" fill="url(#paint18_radial_7619_953)"/>
<path d="M8.3963 23.3139C13.1893 28.8456 19.5659 31.2681 22.8344 32.2035C24.1732 32.5867 25.5781 32.2023 26.5696 31.2244C29.4071 28.4257 35.1259 22.0038 36.3484 14.6716C38.0554 4.43268 25.217 1.31136 20.0432 9.75044C7.94052 4.06573 1.53831 15.399 8.3963 23.3139Z" fill="url(#paint19_radial_7619_953)"/>
<path d="M8.3963 23.3139C13.1893 28.8456 19.5659 31.2681 22.8344 32.2035C24.1732 32.5867 25.5781 32.2023 26.5696 31.2244C29.4071 28.4257 35.1259 22.0038 36.3484 14.6716C38.0554 4.43268 25.217 1.31136 20.0432 9.75044C7.94052 4.06573 1.53831 15.399 8.3963 23.3139Z" fill="url(#paint20_radial_7619_953)"/>
<path d="M8.3963 23.3139C13.1893 28.8456 19.5659 31.2681 22.8344 32.2035C24.1732 32.5867 25.5781 32.2023 26.5696 31.2244C29.4071 28.4257 35.1259 22.0038 36.3484 14.6716C38.0554 4.43268 25.217 1.31136 20.0432 9.75044C7.94052 4.06573 1.53831 15.399 8.3963 23.3139Z" fill="url(#paint21_radial_7619_953)"/>
<path d="M8.3963 23.3139C13.1893 28.8456 19.5659 31.2681 22.8344 32.2035C24.1732 32.5867 25.5781 32.2023 26.5696 31.2244C29.4071 28.4257 35.1259 22.0038 36.3484 14.6716C38.0554 4.43268 25.217 1.31136 20.0432 9.75044C7.94052 4.06573 1.53831 15.399 8.3963 23.3139Z" fill="url(#paint22_radial_7619_953)"/>
<path d="M8.3963 23.3139C13.1893 28.8456 19.5659 31.2681 22.8344 32.2035C24.1732 32.5867 25.5781 32.2023 26.5696 31.2244C29.4071 28.4257 35.1259 22.0038 36.3484 14.6716C38.0554 4.43268 25.217 1.31136 20.0432 9.75044C7.94052 4.06573 1.53831 15.399 8.3963 23.3139Z" fill="url(#paint23_radial_7619_953)"/>
<path d="M8.3963 23.3139C13.1893 28.8456 19.5659 31.2681 22.8344 32.2035C24.1732 32.5867 25.5781 32.2023 26.5696 31.2244C29.4071 28.4257 35.1259 22.0038 36.3484 14.6716C38.0554 4.43268 25.217 1.31136 20.0432 9.75044C7.94052 4.06573 1.53831 15.399 8.3963 23.3139Z" fill="url(#paint24_radial_7619_953)"/>
<path d="M8.3963 23.3139C13.1893 28.8456 19.5659 31.2681 22.8344 32.2035C24.1732 32.5867 25.5781 32.2023 26.5696 31.2244C29.4071 28.4257 35.1259 22.0038 36.3484 14.6716C38.0554 4.43268 25.217 1.31136 20.0432 9.75044C7.94052 4.06573 1.53831 15.399 8.3963 23.3139Z" fill="url(#paint25_radial_7619_953)"/>
<path d="M8.3963 23.3139C13.1893 28.8456 19.5659 31.2681 22.8344 32.2035C24.1732 32.5867 25.5781 32.2023 26.5696 31.2244C29.4071 28.4257 35.1259 22.0038 36.3484 14.6716C38.0554 4.43268 25.217 1.31136 20.0432 9.75044C7.94052 4.06573 1.53831 15.399 8.3963 23.3139Z" fill="url(#paint26_radial_7619_953)"/>
<path d="M8.3963 23.3139C13.1893 28.8456 19.5659 31.2681 22.8344 32.2035C24.1732 32.5867 25.5781 32.2023 26.5696 31.2244C29.4071 28.4257 35.1259 22.0038 36.3484 14.6716C38.0554 4.43268 25.217 1.31136 20.0432 9.75044C7.94052 4.06573 1.53831 15.399 8.3963 23.3139Z" fill="url(#paint27_radial_7619_953)"/>
<path d="M69.3465 23.3179C64.5558 28.8469 58.1825 31.2684 54.9151 32.2036C53.5762 32.5868 52.1714 32.2025 51.1799 31.2246C48.3434 28.4267 42.6276 22.0078 41.4058 14.6791C39.6994 4.44434 52.5327 1.32429 57.7043 9.75993C69.8021 4.07754 76.2017 15.4062 69.3465 23.3179Z" fill="#CB0C4C"/>
<path d="M69.3465 23.3179C64.5558 28.8469 58.1825 31.2684 54.9151 32.2036C53.5762 32.5868 52.1714 32.2025 51.1799 31.2246C48.3434 28.4267 42.6276 22.0078 41.4058 14.6791C39.6994 4.44434 52.5327 1.32429 57.7043 9.75993C69.8021 4.07754 76.2017 15.4062 69.3465 23.3179Z" fill="url(#paint28_radial_7619_953)"/>
<path d="M69.3465 23.3179C64.5558 28.8469 58.1825 31.2684 54.9151 32.2036C53.5762 32.5868 52.1714 32.2025 51.1799 31.2246C48.3434 28.4267 42.6276 22.0078 41.4058 14.6791C39.6994 4.44434 52.5327 1.32429 57.7043 9.75993C69.8021 4.07754 76.2017 15.4062 69.3465 23.3179Z" fill="url(#paint29_linear_7619_953)"/>
<path d="M69.3465 23.3179C64.5558 28.8469 58.1825 31.2684 54.9151 32.2036C53.5762 32.5868 52.1714 32.2025 51.1799 31.2246C48.3434 28.4267 42.6276 22.0078 41.4058 14.6791C39.6994 4.44434 52.5327 1.32429 57.7043 9.75993C69.8021 4.07754 76.2017 15.4062 69.3465 23.3179Z" fill="url(#paint30_radial_7619_953)"/>
<path d="M69.3465 23.3179C64.5558 28.8469 58.1825 31.2684 54.9151 32.2036C53.5762 32.5868 52.1714 32.2025 51.1799 31.2246C48.3434 28.4267 42.6276 22.0078 41.4058 14.6791C39.6994 4.44434 52.5327 1.32429 57.7043 9.75993C69.8021 4.07754 76.2017 15.4062 69.3465 23.3179Z" fill="url(#paint31_radial_7619_953)"/>
<path d="M69.3465 23.3179C64.5558 28.8469 58.1825 31.2684 54.9151 32.2036C53.5762 32.5868 52.1714 32.2025 51.1799 31.2246C48.3434 28.4267 42.6276 22.0078 41.4058 14.6791C39.6994 4.44434 52.5327 1.32429 57.7043 9.75993C69.8021 4.07754 76.2017 15.4062 69.3465 23.3179Z" fill="url(#paint32_radial_7619_953)"/>
<path d="M69.3465 23.3179C64.5558 28.8469 58.1825 31.2684 54.9151 32.2036C53.5762 32.5868 52.1714 32.2025 51.1799 31.2246C48.3434 28.4267 42.6276 22.0078 41.4058 14.6791C39.6994 4.44434 52.5327 1.32429 57.7043 9.75993C69.8021 4.07754 76.2017 15.4062 69.3465 23.3179Z" fill="url(#paint33_radial_7619_953)"/>
<path d="M69.3465 23.3179C64.5558 28.8469 58.1825 31.2684 54.9151 32.2036C53.5762 32.5868 52.1714 32.2025 51.1799 31.2246C48.3434 28.4267 42.6276 22.0078 41.4058 14.6791C39.6994 4.44434 52.5327 1.32429 57.7043 9.75993C69.8021 4.07754 76.2017 15.4062 69.3465 23.3179Z" fill="url(#paint34_radial_7619_953)"/>
<path d="M69.3465 23.3179C64.5558 28.8469 58.1825 31.2684 54.9151 32.2036C53.5762 32.5868 52.1714 32.2025 51.1799 31.2246C48.3434 28.4267 42.6276 22.0078 41.4058 14.6791C39.6994 4.44434 52.5327 1.32429 57.7043 9.75993C69.8021 4.07754 76.2017 15.4062 69.3465 23.3179Z" fill="url(#paint35_radial_7619_953)"/>
<path d="M69.3465 23.3179C64.5558 28.8469 58.1825 31.2684 54.9151 32.2036C53.5762 32.5868 52.1714 32.2025 51.1799 31.2246C48.3434 28.4267 42.6276 22.0078 41.4058 14.6791C39.6994 4.44434 52.5327 1.32429 57.7043 9.75993C69.8021 4.07754 76.2017 15.4062 69.3465 23.3179Z" fill="url(#paint36_radial_7619_953)"/>
<path d="M69.3465 23.3179C64.5558 28.8469 58.1825 31.2684 54.9151 32.2036C53.5762 32.5868 52.1714 32.2025 51.1799 31.2246C48.3434 28.4267 42.6276 22.0078 41.4058 14.6791C39.6994 4.44434 52.5327 1.32429 57.7043 9.75993C69.8021 4.07754 76.2017 15.4062 69.3465 23.3179Z" fill="url(#paint37_radial_7619_953)"/>
<defs>
<radialGradient id="paint0_radial_7619_953" cx="0" cy="0" r="1" gradientUnits="userSpaceOnUse" gradientTransform="translate(61.4595 21.5299) rotate(132.839) scale(89.164)">
<stop stop-color="#FFF478"/>
<stop offset="0.474827" stop-color="#FFB02E"/>
<stop offset="1" stop-color="#F70A8D"/>
</radialGradient>
<radialGradient id="paint1_radial_7619_953" cx="0" cy="0" r="1" gradientUnits="userSpaceOnUse" gradientTransform="translate(61.4595 21.5299) rotate(131.878) scale(92.6003)">
<stop stop-color="#FFF478"/>
<stop offset="0.474827" stop-color="#FFB02E"/>
<stop offset="1" stop-color="#F70A8D"/>
</radialGradient>
<radialGradient id="paint2_radial_7619_953" cx="0" cy="0" r="1" gradientUnits="userSpaceOnUse" gradientTransform="translate(38.8733 29.8511) rotate(101.31) scale(42.4301 54.3449)">
<stop offset="0.787821" stop-color="#F59639" stop-opacity="0"/>
<stop offset="0.972509" stop-color="#FF7DCE"/>
</radialGradient>
<radialGradient id="paint3_radial_7619_953" cx="0" cy="0" r="1" gradientUnits="userSpaceOnUse" gradientTransform="translate(43.6283 33.4174) rotate(135) scale(97.5063)">
<stop offset="0.314853" stop-opacity="0"/>
<stop offset="1"/>
</radialGradient>
<radialGradient id="paint4_radial_7619_953" cx="0" cy="0" r="1" gradientUnits="userSpaceOnUse" gradientTransform="translate(38.8733 40.5499) rotate(77.692) scale(66.9192)">
<stop offset="0.507903" stop-color="#7D6133" stop-opacity="0"/>
<stop offset="1" stop-color="#715B32"/>
</radialGradient>
<radialGradient id="paint5_radial_7619_953" cx="0" cy="0" r="1" gradientUnits="userSpaceOnUse" gradientTransform="translate(40.0621 39.3611) rotate(55.7131) scale(31.6528 22.9436)">
<stop stop-color="#FFB849"/>
<stop offset="1" stop-color="#FFB847" stop-opacity="0"/>
</radialGradient>
<radialGradient id="paint6_radial_7619_953" cx="0" cy="0" r="1" gradientUnits="userSpaceOnUse" gradientTransform="translate(49.572 42.9274) rotate(9.86581) scale(27.7516)">
<stop stop-color="#FFA64B"/>
<stop offset="0.900412" stop-color="#FFAE46" stop-opacity="0"/>
</radialGradient>
<radialGradient id="paint7_radial_7619_953" cx="0" cy="0" r="1" gradientUnits="userSpaceOnUse" gradientTransform="translate(42.4396 35.7949) rotate(43.9708) scale(140.398)">
<stop offset="0.185425" stop-opacity="0"/>
<stop offset="1" stop-opacity="0.4"/>
</radialGradient>
<radialGradient id="paint8_radial_7619_953" cx="0" cy="0" r="1" gradientUnits="userSpaceOnUse" gradientTransform="translate(12.8286 23.1439) rotate(35.4031) scale(16.4004 8.56523)">
<stop stop-color="#CE5635"/>
<stop offset="1" stop-color="#CE5635" stop-opacity="0"/>
</radialGradient>
<radialGradient id="paint9_radial_7619_953" cx="0" cy="0" r="1" gradientUnits="userSpaceOnUse" gradientTransform="translate(44.8935 14.9104) rotate(57.7713) scale(9.3384)">
<stop stop-color="#DF7536"/>
<stop offset="1" stop-color="#DF7536" stop-opacity="0"/>
</radialGradient>
<radialGradient id="paint10_radial_7619_953" cx="0" cy="0" r="1" gradientUnits="userSpaceOnUse" gradientTransform="translate(47.5606 19.5584) rotate(62.5467) scale(14.5476 9.1354)">
<stop stop-color="#DF7536"/>
<stop offset="1" stop-color="#DF7536" stop-opacity="0"/>
</radialGradient>
<radialGradient id="paint11_radial_7619_953" cx="0" cy="0" r="1" gradientUnits="userSpaceOnUse" gradientTransform="translate(47.1933 21.3318) rotate(49.834) scale(15.2678 9.65328)">
<stop stop-color="#DF7536"/>
<stop offset="1" stop-color="#DF7536" stop-opacity="0"/>
</radialGradient>
<radialGradient id="paint12_radial_7619_953" cx="0" cy="0" r="1" gradientUnits="userSpaceOnUse" gradientTransform="translate(38.8734 64.3251) rotate(-90) scale(26.1524 52.3049)">
<stop stop-color="#F70A8D"/>
<stop offset="1" stop-color="#89029C"/>
</radialGradient>
<linearGradient id="paint13_linear_7619_953" x1="38.8734" y1="38.1726" x2="38.8734" y2="41.7389" gradientUnits="userSpaceOnUse">
<stop stop-color="#ECCDFF"/>
<stop offset="1" stop-color="white"/>
</linearGradient>
<linearGradient id="paint14_linear_7619_953" x1="57.903" y1="8.06757" x2="52.8294" y2="33.897" gradientUnits="userSpaceOnUse">
<stop stop-color="#CA0B4A"/>
<stop offset="1" stop-color="#F70A8D"/>
</linearGradient>
<radialGradient id="paint15_radial_7619_953" cx="0" cy="0" r="1" gradientUnits="userSpaceOnUse" gradientTransform="translate(17.5455 30.1286) rotate(16.6993) scale(11.3247 5.06057)">
<stop stop-color="#D6246F"/>
<stop offset="1" stop-color="#D6246F" stop-opacity="0"/>
</radialGradient>
<radialGradient id="paint16_radial_7619_953" cx="0" cy="0" r="1" gradientUnits="userSpaceOnUse" gradientTransform="translate(12.4557 26.207) rotate(33.5535) scale(11.1136 4.86841)">
<stop stop-color="#D6246F"/>
<stop offset="1" stop-color="#D6246F" stop-opacity="0"/>
</radialGradient>
<radialGradient id="paint17_radial_7619_953" cx="0" cy="0" r="1" gradientUnits="userSpaceOnUse" gradientTransform="translate(6.99147 19.8936) rotate(51.7817) scale(13.4514 2.67909)">
<stop stop-color="#D6246F"/>
<stop offset="1" stop-color="#D6246F" stop-opacity="0"/>
</radialGradient>
<radialGradient id="paint18_radial_7619_953" cx="0" cy="0" r="1" gradientUnits="userSpaceOnUse" gradientTransform="translate(6.00512 19.8513) rotate(58.4957) scale(4.2483 1.03061)">
<stop stop-color="#A41B36"/>
<stop offset="1" stop-color="#A41B36" stop-opacity="0"/>
</radialGradient>
<radialGradient id="paint19_radial_7619_953" cx="0" cy="0" r="1" gradientUnits="userSpaceOnUse" gradientTransform="translate(5.35097 15.9488) rotate(75.0124) scale(4.58586 0.962626)">
<stop stop-color="#A41B36"/>
<stop offset="1" stop-color="#A41B36" stop-opacity="0"/>
</radialGradient>
<radialGradient id="paint20_radial_7619_953" cx="0" cy="0" r="1" gradientUnits="userSpaceOnUse" gradientTransform="translate(5.58839 12.4498) rotate(90) scale(3.51024 1.06554)">
<stop stop-color="#A41B36"/>
<stop offset="1" stop-color="#A41B36" stop-opacity="0"/>
</radialGradient>
<radialGradient id="paint21_radial_7619_953" cx="0" cy="0" r="1" gradientUnits="userSpaceOnUse" gradientTransform="translate(5.70914 10.628) rotate(91.2259) scale(5.64376 1.71318)">
<stop stop-color="#A41B36"/>
<stop offset="1" stop-color="#A41B36" stop-opacity="0"/>
</radialGradient>
<radialGradient id="paint22_radial_7619_953" cx="0" cy="0" r="1" gradientUnits="userSpaceOnUse" gradientTransform="translate(8.06037 9.48626) rotate(116.065) scale(2.80841 0.852503)">
<stop stop-color="#A41B36"/>
<stop offset="1" stop-color="#A41B36" stop-opacity="0"/>
</radialGradient>
<radialGradient id="paint23_radial_7619_953" cx="0" cy="0" r="1" gradientUnits="userSpaceOnUse" gradientTransform="translate(19.873 25.2149) rotate(39.4337) scale(9.8318 6.19098)">
<stop stop-color="#F944A5" stop-opacity="0.69"/>
<stop offset="1" stop-color="#F944A5" stop-opacity="0"/>
</radialGradient>
<radialGradient id="paint24_radial_7619_953" cx="0" cy="0" r="1" gradientUnits="userSpaceOnUse" gradientTransform="translate(27.1328 17.5354) rotate(111.882) scale(10.2265 3.84153)">
<stop stop-color="#E63277"/>
<stop offset="1" stop-color="#E63277" stop-opacity="0"/>
</radialGradient>
<radialGradient id="paint25_radial_7619_953" cx="0" cy="0" r="1" gradientUnits="userSpaceOnUse" gradientTransform="translate(18.5973 14.2373) rotate(46.1088) scale(8.61282 4.77263)">
<stop offset="0.194665" stop-color="#EC6686"/>
<stop offset="1" stop-color="#EC6686" stop-opacity="0"/>
</radialGradient>
<radialGradient id="paint26_radial_7619_953" cx="0" cy="0" r="1" gradientUnits="userSpaceOnUse" gradientTransform="translate(30.5861 10.5236) rotate(107.745) scale(6.25561 4.91099)">
<stop stop-color="#F87797"/>
<stop offset="1" stop-color="#EB6385" stop-opacity="0"/>
</radialGradient>
<radialGradient id="paint27_radial_7619_953" cx="0" cy="0" r="1" gradientUnits="userSpaceOnUse" gradientTransform="translate(20.1087 9.18317) rotate(71.0992) scale(7.80602 1.3472)">
<stop stop-color="#CE2356"/>
<stop offset="1" stop-color="#DE265D" stop-opacity="0"/>
</radialGradient>
<radialGradient id="paint28_radial_7619_953" cx="0" cy="0" r="1" gradientUnits="userSpaceOnUse" gradientTransform="translate(54.7235 11.2651) rotate(56.0304) scale(8.87373 5.57462)">
<stop offset="0.363657" stop-color="#EC6686"/>
<stop offset="1" stop-color="#EC6686" stop-opacity="0"/>
</radialGradient>
<linearGradient id="paint29_linear_7619_953" x1="58.2998" y1="12.4947" x2="56.0719" y2="12.1128" gradientUnits="userSpaceOnUse">
<stop offset="0.308486" stop-color="#CB0C4C"/>
<stop offset="1" stop-color="#CB0C4C" stop-opacity="0"/>
</linearGradient>
<radialGradient id="paint30_radial_7619_953" cx="0" cy="0" r="1" gradientUnits="userSpaceOnUse" gradientTransform="translate(53.8205 24.9411) rotate(49.9554) scale(17.9615 11.3102)">
<stop stop-color="#F944A5" stop-opacity="0.69"/>
<stop offset="1" stop-color="#F944A5" stop-opacity="0"/>
</radialGradient>
<radialGradient id="paint31_radial_7619_953" cx="0" cy="0" r="1" gradientUnits="userSpaceOnUse" gradientTransform="translate(57.8346 9.02435) rotate(97.2889) scale(5.80241 1.00141)">
<stop stop-color="#CE2356"/>
<stop offset="1" stop-color="#DE265D" stop-opacity="0"/>
</radialGradient>
<radialGradient id="paint32_radial_7619_953" cx="0" cy="0" r="1" gradientUnits="userSpaceOnUse" gradientTransform="translate(62.7864 17.5416) rotate(130.989) scale(10.9182 4.10136)">
<stop stop-color="#E63277"/>
<stop offset="1" stop-color="#E63277" stop-opacity="0"/>
</radialGradient>
<radialGradient id="paint33_radial_7619_953" cx="0" cy="0" r="1" gradientUnits="userSpaceOnUse" gradientTransform="translate(66.2742 14.2753) rotate(137.878) scale(6.48424 3.71506)">
<stop stop-color="#F87797"/>
<stop offset="1" stop-color="#EB6385" stop-opacity="0"/>
</radialGradient>
<radialGradient id="paint34_radial_7619_953" cx="0" cy="0" r="1" gradientUnits="userSpaceOnUse" gradientTransform="translate(51.0462 30.2654) rotate(31.4346) scale(6.62865 2.96207)">
<stop stop-color="#D6246F"/>
<stop offset="1" stop-color="#D6246F" stop-opacity="0"/>
</radialGradient>
<radialGradient id="paint35_radial_7619_953" cx="0" cy="0" r="1" gradientUnits="userSpaceOnUse" gradientTransform="translate(45.9393 25.3156) rotate(45.8212) scale(9.80835 4.29662)">
<stop stop-color="#D6246F"/>
<stop offset="1" stop-color="#D6246F" stop-opacity="0"/>
</radialGradient>
<radialGradient id="paint36_radial_7619_953" cx="0" cy="0" r="1" gradientUnits="userSpaceOnUse" gradientTransform="translate(42.718 17.3802) rotate(65.4042) scale(12.27 2.44379)">
<stop stop-color="#D6246F"/>
<stop offset="1" stop-color="#D6246F" stop-opacity="0"/>
</radialGradient>
<radialGradient id="paint37_radial_7619_953" cx="0" cy="0" r="1" gradientUnits="userSpaceOnUse" gradientTransform="translate(65.1764 24.0855) rotate(117.896) scale(9.35092 8.72323)">
<stop stop-color="#F944A5" stop-opacity="0.69"/>
<stop offset="1" stop-color="#F944A5" stop-opacity="0"/>
</radialGradient>
</defs>
</svg>
