<svg width="77" height="77" viewBox="0 0 77 77" fill="none" xmlns="http://www.w3.org/2000/svg">
<path d="M70.0441 7.14555C67.7924 4.89385 63.6244 4.77467 60.9658 6.1369C58.7966 6.88176 56.5114 7.72177 54.1807 8.66372L54.2056 8.68881C48.0822 11.2898 38.9243 15.9137 31.5947 22.7184C26.4493 27.4954 23.5012 31.1728 21.5266 34.5222L8.93009 39.159C7.30155 39.7585 6.84314 41.8442 8.07023 43.0713C16.8967 51.8978 25.7231 60.7242 34.5496 69.5507C35.7767 70.7777 37.8624 70.3193 38.4618 68.6908L43.7005 54.4593C47.5252 52.181 51.3626 49.3119 55.3697 45.3048C61.0528 39.6217 65.7491 29.7106 68.4778 23.059L68.4976 23.0789C69.451 20.7239 70.3004 18.4147 71.0527 16.2238C72.4149 13.5652 72.8117 9.91323 70.0441 7.14555Z" fill="#CA0B4A"/>
<path d="M56.0134 10.5093C50.0296 12.9809 40.6119 17.5912 33.2123 24.4609C28.4227 28.9076 25.6736 32.2935 23.8467 35.2771C22.0183 38.2632 21.0529 40.9372 19.8934 44.1702L19.8875 44.1868C19.4829 45.3148 19.0539 46.5109 18.5596 47.7875L29.3901 58.618C37.955 55.1025 45.4159 51.8964 53.6885 43.6238C59.279 38.0333 64.0043 27.8317 66.6562 21.2251L56.0134 10.5093Z" fill="#F4F4F4"/>
<path d="M58.9356 26.8792C58.9356 31.1466 55.4762 34.6061 51.2088 34.6061C46.9413 34.6061 43.4819 31.1466 43.4819 26.8792C43.4819 22.6118 46.9413 19.1523 51.2088 19.1523C55.4762 19.1523 58.9356 22.6118 58.9356 26.8792Z" fill="#9B9B9B"/>
<path d="M56.5581 26.8791C56.5581 29.8335 54.1631 32.2285 51.2088 32.2285C48.2544 32.2285 45.8594 29.8335 45.8594 26.8791C45.8594 23.9248 48.2544 21.5298 51.2088 21.5298C54.1631 21.5298 56.5581 23.9248 56.5581 26.8791Z" fill="#83CBFF"/>
<path d="M6.4488 70.5322C4.76765 68.8511 5.4421 57.1924 11.3858 54.8149C11.3858 54.8149 17.3295 52.4374 21.1597 56.2427C24.9899 60.048 23.2732 64.3247 23.2732 64.3247C21.5922 69.3682 14.4351 71.3729 13.5945 70.5324C13.1303 70.0682 13.9663 69.223 13.5945 68.8513C13.2228 68.4796 12.6489 68.9038 11.0728 69.6918C9.95207 70.2522 7.12125 71.2047 6.4488 70.5322Z" fill="#FF8257"/>
<path d="M15.096 50.2042C16.4887 48.8115 18.7467 48.8115 20.1395 50.2042L28.5452 58.6099C29.9379 60.0026 29.9379 62.2606 28.5452 63.6533C27.1525 65.046 24.8944 65.046 23.5017 63.6533L15.096 55.2476C13.7033 53.8549 13.7033 51.5969 15.096 50.2042Z" fill="#533566"/>
<path d="M37.5555 44.6438C38.6061 41.7895 35.8311 39.0145 32.9769 40.0651L16.0625 46.2913C14.434 46.8908 13.9756 48.9765 15.2027 50.2036L27.417 62.418C28.6441 63.645 30.7298 63.1866 31.3293 61.5581L37.5555 44.6438Z" fill="#F92F60"/>
</svg>
