<svg width="86" height="66" viewBox="0 0 86 66" fill="none" xmlns="http://www.w3.org/2000/svg">
<path fill-rule="evenodd" clip-rule="evenodd" d="M85.6196 16.4919L70.0343 0.218416L16.7383 0.132568L0.380434 16.4919L41.4931 66L85.6196 16.4919Z" fill="#ED1C24"/>
<path fill-rule="evenodd" clip-rule="evenodd" d="M7.5309 16.7854L18.4154 5.53706L25.2536 5.62145C14.6945 10.7266 12.1361 17.6574 13.8806 23.9722L7.5309 16.7854ZM31.6072 45.7384C40.0613 48.0548 45.2786 48.4365 52.7972 46.1293L41.9718 57.4746L31.6072 45.7384ZM17.2665 29.4829L26.0907 39.3925C27.4313 34.2015 41.3723 37.3744 42.5955 41.6255C48.4389 43.5481 58.3966 40.2767 58.5358 37.2299C58.5086 29.8806 24.5721 35.9781 17.2665 29.4829ZM69.3893 7.35681L69.1526 17.8402H55.4065C55.5927 10.909 50.3256 7.50522 40.185 7.78458C33.0447 7.92426 26.1838 10.715 26.0907 15.3201C26.0907 26.2517 64.5363 14.4365 67.6064 29.6938L78.7557 16.8004L69.3893 7.35681ZM53.0387 5.66025L60.3308 5.66898L58.7327 11.0962C57.3887 7.81029 55.1262 6.61086 53.0387 5.66025Z" fill="#FFF200"/>
</svg>
