<svg width="90" height="77" viewBox="0 0 90 77" fill="none" xmlns="http://www.w3.org/2000/svg">
<g clip-path="url(#clip0_8302_2746)">
<path d="M42.7612 74.3163C44.6442 75.3908 46.9298 75.3296 48.8055 74.2425C59.799 67.8713 78.419 53.6135 85.7874 35.1619C96.7399 10.8334 71.0235 -8.58708 53.2501 5.38084C51.4842 6.76863 49.2855 8.34739 47.6942 9.85929C46.8384 10.6724 45.3437 10.7554 44.4627 9.96966C42.3502 8.08551 39.2196 5.75301 37.1819 4.37434C22.0296 -5.87713 -5.54032 7.63606 6.22004 36.4764C10.4799 49.2767 30.5997 67.3769 42.7612 74.3163Z" fill="url(#paint0_radial_8302_2746)"/>
<path d="M42.7612 74.3163C44.6442 75.3908 46.9298 75.3296 48.8055 74.2425C59.799 67.8713 78.419 53.6135 85.7874 35.1619C96.7399 10.8334 71.0235 -8.58708 53.2501 5.38084C51.4842 6.76863 49.2855 8.34739 47.6942 9.85929C46.8384 10.6724 45.3437 10.7554 44.4627 9.96966C42.3502 8.08551 39.2196 5.75301 37.1819 4.37434C22.0296 -5.87713 -5.54032 7.63606 6.22004 36.4764C10.4799 49.2767 30.5997 67.3769 42.7612 74.3163Z" fill="url(#paint1_radial_8302_2746)"/>
<path d="M42.7612 74.3163C44.6442 75.3908 46.9298 75.3296 48.8055 74.2425C59.799 67.8713 78.419 53.6135 85.7874 35.1619C96.7399 10.8334 71.0235 -8.58708 53.2501 5.38084C51.4842 6.76863 49.2855 8.34739 47.6942 9.85929C46.8384 10.6724 45.3437 10.7554 44.4627 9.96966C42.3502 8.08551 39.2196 5.75301 37.1819 4.37434C22.0296 -5.87713 -5.54032 7.63606 6.22004 36.4764C10.4799 49.2767 30.5997 67.3769 42.7612 74.3163Z" fill="url(#paint2_radial_8302_2746)"/>
<path d="M42.7612 74.3163C44.6442 75.3908 46.9298 75.3296 48.8055 74.2425C59.799 67.8713 78.419 53.6135 85.7874 35.1619C96.7399 10.8334 71.0235 -8.58708 53.2501 5.38084C51.4842 6.76863 49.2855 8.34739 47.6942 9.85929C46.8384 10.6724 45.3437 10.7554 44.4627 9.96966C42.3502 8.08551 39.2196 5.75301 37.1819 4.37434C22.0296 -5.87713 -5.54032 7.63606 6.22004 36.4764C10.4799 49.2767 30.5997 67.3769 42.7612 74.3163Z" fill="url(#paint3_radial_8302_2746)"/>
<path d="M42.7612 74.3163C44.6442 75.3908 46.9298 75.3296 48.8055 74.2425C59.799 67.8713 78.419 53.6135 85.7874 35.1619C96.7399 10.8334 71.0235 -8.58708 53.2501 5.38084C51.4842 6.76863 49.2855 8.34739 47.6942 9.85929C46.8384 10.6724 45.3437 10.7554 44.4627 9.96966C42.3502 8.08551 39.2196 5.75301 37.1819 4.37434C22.0296 -5.87713 -5.54032 7.63606 6.22004 36.4764C10.4799 49.2767 30.5997 67.3769 42.7612 74.3163Z" fill="url(#paint4_radial_8302_2746)"/>
<path d="M42.7612 74.3163C44.6442 75.3908 46.9298 75.3296 48.8055 74.2425C59.799 67.8713 78.419 53.6135 85.7874 35.1619C96.7399 10.8334 71.0235 -8.58708 53.2501 5.38084C51.4842 6.76863 49.2855 8.34739 47.6942 9.85929C46.8384 10.6724 45.3437 10.7554 44.4627 9.96966C42.3502 8.08551 39.2196 5.75301 37.1819 4.37434C22.0296 -5.87713 -5.54032 7.63606 6.22004 36.4764C10.4799 49.2767 30.5997 67.3769 42.7612 74.3163Z" fill="url(#paint5_linear_8302_2746)"/>
<path d="M42.7612 74.3163C44.6442 75.3908 46.9298 75.3296 48.8055 74.2425C59.799 67.8713 78.419 53.6135 85.7874 35.1619C96.7399 10.8334 71.0235 -8.58708 53.2501 5.38084C51.4842 6.76863 49.2855 8.34739 47.6942 9.85929C46.8384 10.6724 45.3437 10.7554 44.4627 9.96966C42.3502 8.08551 39.2196 5.75301 37.1819 4.37434C22.0296 -5.87713 -5.54032 7.63606 6.22004 36.4764C10.4799 49.2767 30.5997 67.3769 42.7612 74.3163Z" fill="url(#paint6_linear_8302_2746)"/>
<path d="M42.7612 74.3163C44.6442 75.3908 46.9298 75.3296 48.8055 74.2425C59.799 67.8713 78.419 53.6135 85.7874 35.1619C96.7399 10.8334 71.0235 -8.58708 53.2501 5.38084C51.4842 6.76863 49.2855 8.34739 47.6942 9.85929C46.8384 10.6724 45.3437 10.7554 44.4627 9.96966C42.3502 8.08551 39.2196 5.75301 37.1819 4.37434C22.0296 -5.87713 -5.54032 7.63606 6.22004 36.4764C10.4799 49.2767 30.5997 67.3769 42.7612 74.3163Z" fill="url(#paint7_radial_8302_2746)"/>
<path d="M42.7612 74.3163C44.6442 75.3908 46.9298 75.3296 48.8055 74.2425C59.799 67.8713 78.419 53.6135 85.7874 35.1619C96.7399 10.8334 71.0235 -8.58708 53.2501 5.38084C51.4842 6.76863 49.2855 8.34739 47.6942 9.85929C46.8384 10.6724 45.3437 10.7554 44.4627 9.96966C42.3502 8.08551 39.2196 5.75301 37.1819 4.37434C22.0296 -5.87713 -5.54032 7.63606 6.22004 36.4764C10.4799 49.2767 30.5997 67.3769 42.7612 74.3163Z" fill="url(#paint8_radial_8302_2746)"/>
<path d="M42.7612 74.3163C44.6442 75.3908 46.9298 75.3296 48.8055 74.2425C59.799 67.8713 78.419 53.6135 85.7874 35.1619C96.7399 10.8334 71.0235 -8.58708 53.2501 5.38084C51.4842 6.76863 49.2855 8.34739 47.6942 9.85929C46.8384 10.6724 45.3437 10.7554 44.4627 9.96966C42.3502 8.08551 39.2196 5.75301 37.1819 4.37434C22.0296 -5.87713 -5.54032 7.63606 6.22004 36.4764C10.4799 49.2767 30.5997 67.3769 42.7612 74.3163Z" fill="url(#paint9_radial_8302_2746)"/>
<path d="M42.7612 74.3163C44.6442 75.3908 46.9298 75.3296 48.8055 74.2425C59.799 67.8713 78.419 53.6135 85.7874 35.1619C96.7399 10.8334 71.0235 -8.58708 53.2501 5.38084C51.4842 6.76863 49.2855 8.34739 47.6942 9.85929C46.8384 10.6724 45.3437 10.7554 44.4627 9.96966C42.3502 8.08551 39.2196 5.75301 37.1819 4.37434C22.0296 -5.87713 -5.54032 7.63606 6.22004 36.4764C10.4799 49.2767 30.5997 67.3769 42.7612 74.3163Z" fill="url(#paint10_radial_8302_2746)"/>
<path d="M42.7612 74.3163C44.6442 75.3908 46.9298 75.3296 48.8055 74.2425C59.799 67.8713 78.419 53.6135 85.7874 35.1619C96.7399 10.8334 71.0235 -8.58708 53.2501 5.38084C51.4842 6.76863 49.2855 8.34739 47.6942 9.85929C46.8384 10.6724 45.3437 10.7554 44.4627 9.96966C42.3502 8.08551 39.2196 5.75301 37.1819 4.37434C22.0296 -5.87713 -5.54032 7.63606 6.22004 36.4764C10.4799 49.2767 30.5997 67.3769 42.7612 74.3163Z" fill="url(#paint11_radial_8302_2746)"/>
<path d="M42.7612 74.3163C44.6442 75.3908 46.9298 75.3296 48.8055 74.2425C59.799 67.8713 78.419 53.6135 85.7874 35.1619C96.7399 10.8334 71.0235 -8.58708 53.2501 5.38084C51.4842 6.76863 49.2855 8.34739 47.6942 9.85929C46.8384 10.6724 45.3437 10.7554 44.4627 9.96966C42.3502 8.08551 39.2196 5.75301 37.1819 4.37434C22.0296 -5.87713 -5.54032 7.63606 6.22004 36.4764C10.4799 49.2767 30.5997 67.3769 42.7612 74.3163Z" fill="url(#paint12_radial_8302_2746)"/>
<path d="M42.7612 74.3163C44.6442 75.3908 46.9298 75.3296 48.8055 74.2425C59.799 67.8713 78.419 53.6135 85.7874 35.1619C96.7399 10.8334 71.0235 -8.58708 53.2501 5.38084C51.4842 6.76863 49.2855 8.34739 47.6942 9.85929C46.8384 10.6724 45.3437 10.7554 44.4627 9.96966C42.3502 8.08551 39.2196 5.75301 37.1819 4.37434C22.0296 -5.87713 -5.54032 7.63606 6.22004 36.4764C10.4799 49.2767 30.5997 67.3769 42.7612 74.3163Z" fill="url(#paint13_radial_8302_2746)"/>
<path d="M42.7612 74.3163C44.6442 75.3908 46.9298 75.3296 48.8055 74.2425C59.799 67.8713 78.419 53.6135 85.7874 35.1619C96.7399 10.8334 71.0235 -8.58708 53.2501 5.38084C51.4842 6.76863 49.2855 8.34739 47.6942 9.85929C46.8384 10.6724 45.3437 10.7554 44.4627 9.96966C42.3502 8.08551 39.2196 5.75301 37.1819 4.37434C22.0296 -5.87713 -5.54032 7.63606 6.22004 36.4764C10.4799 49.2767 30.5997 67.3769 42.7612 74.3163Z" fill="url(#paint14_radial_8302_2746)"/>
<path d="M9.60867 43.3159H81.6875C83.2722 40.7046 84.6615 37.982 85.7879 35.1615C86.9736 32.5277 87.7295 29.9514 88.1123 27.4688H3.68994C4.09786 30.2755 4.91793 33.2817 6.22046 36.476C6.93791 38.6318 8.10524 40.938 9.60867 43.3159Z" fill="#FFE042"/>
<path d="M9.60867 43.3159H81.6875C83.2722 40.7046 84.6615 37.982 85.7879 35.1615C86.9736 32.5277 87.7295 29.9514 88.1123 27.4688H3.68994C4.09786 30.2755 4.91793 33.2817 6.22046 36.476C6.93791 38.6318 8.10524 40.938 9.60867 43.3159Z" fill="url(#paint15_radial_8302_2746)"/>
<path d="M9.60867 43.3159H81.6875C83.2722 40.7046 84.6615 37.982 85.7879 35.1615C86.9736 32.5277 87.7295 29.9514 88.1123 27.4688H3.68994C4.09786 30.2755 4.91793 33.2817 6.22046 36.476C6.93791 38.6318 8.10524 40.938 9.60867 43.3159Z" fill="url(#paint16_linear_8302_2746)"/>
<path d="M13.6056 38.3071L24.9394 42.4323L17.4556 62.994C17.104 63.9601 15.7499 63.9933 15.3512 63.0457L13.8799 59.548C13.4468 58.5186 12.2355 58.0672 11.2344 58.5623L7.6636 60.3282C6.74955 60.7803 5.75137 59.8864 6.10014 58.9282L13.6056 38.3071Z" fill="url(#paint17_linear_8302_2746)"/>
<path d="M13.6056 38.3071L24.9394 42.4323L17.4556 62.994C17.104 63.9601 15.7499 63.9933 15.3512 63.0457L13.8799 59.548C13.4468 58.5186 12.2355 58.0672 11.2344 58.5623L7.6636 60.3282C6.74955 60.7803 5.75137 59.8864 6.10014 58.9282L13.6056 38.3071Z" fill="url(#paint18_linear_8302_2746)"/>
<path d="M13.6056 38.3071L24.9394 42.4323L17.4556 62.994C17.104 63.9601 15.7499 63.9933 15.3512 63.0457L13.8799 59.548C13.4468 58.5186 12.2355 58.0672 11.2344 58.5623L7.6636 60.3282C6.74955 60.7803 5.75137 59.8864 6.10014 58.9282L13.6056 38.3071Z" fill="url(#paint19_radial_8302_2746)"/>
<path d="M13.6056 38.3071L24.9394 42.4323L17.4556 62.994C17.104 63.9601 15.7499 63.9933 15.3512 63.0457L13.8799 59.548C13.4468 58.5186 12.2355 58.0672 11.2344 58.5623L7.6636 60.3282C6.74955 60.7803 5.75137 59.8864 6.10014 58.9282L13.6056 38.3071Z" fill="url(#paint20_linear_8302_2746)"/>
<path d="M35.0721 38.3071L23.7382 42.4323L31.2221 62.994C31.5737 63.9601 32.9278 63.9933 33.3264 63.0457L34.7978 59.548C35.2309 58.5186 36.4422 58.0672 37.4433 58.5623L41.0141 60.3282C41.9281 60.7803 42.9263 59.8864 42.5775 58.9282L35.0721 38.3071Z" fill="url(#paint21_linear_8302_2746)"/>
<path d="M35.0721 38.3071L23.7382 42.4323L31.2221 62.994C31.5737 63.9601 32.9278 63.9933 33.3264 63.0457L34.7978 59.548C35.2309 58.5186 36.4422 58.0672 37.4433 58.5623L41.0141 60.3282C41.9281 60.7803 42.9263 59.8864 42.5775 58.9282L35.0721 38.3071Z" fill="url(#paint22_linear_8302_2746)"/>
<path d="M35.0721 38.3071L23.7382 42.4323L31.2221 62.994C31.5737 63.9601 32.9278 63.9933 33.3264 63.0457L34.7978 59.548C35.2309 58.5186 36.4422 58.0672 37.4433 58.5623L41.0141 60.3282C41.9281 60.7803 42.9263 59.8864 42.5775 58.9282L35.0721 38.3071Z" fill="url(#paint23_linear_8302_2746)"/>
<path d="M0.135803 28.4165C0.145798 24.0588 5.33185 20.8859 10.6965 22.7767L17.1802 25.6652C17.8568 25.9666 18.5771 26.1585 19.314 26.2338V42.4595L0.135803 41.3996V28.4165Z" fill="url(#paint24_linear_8302_2746)"/>
<path d="M0.135803 28.4165C0.145798 24.0588 5.33185 20.8859 10.6965 22.7767L17.1802 25.6652C17.8568 25.9666 18.5771 26.1585 19.314 26.2338V42.4595L0.135803 41.3996V28.4165Z" fill="url(#paint25_linear_8302_2746)"/>
<path d="M0.135803 28.4165C0.145798 24.0588 5.33185 20.8859 10.6965 22.7767L17.1802 25.6652C17.8568 25.9666 18.5771 26.1585 19.314 26.2338V42.4595L0.135803 41.3996V28.4165Z" fill="url(#paint26_radial_8302_2746)"/>
<path fill-rule="evenodd" clip-rule="evenodd" d="M0.135817 41.4299V41.4266L0.135804 41.4202C0.135805 38.6981 2.06408 36.8473 4.23388 35.9798C6.39837 35.1143 9.1104 35.0708 11.305 36.1553L11.3086 36.1571L19.7395 40.2669C20.1836 40.4834 20.4653 40.9342 20.4653 41.4282C20.4653 41.9223 20.1836 42.3731 19.7395 42.5896L11.3086 46.6994L11.3051 46.7011C9.11047 47.7857 6.3984 47.7422 4.23388 46.8767C2.06408 46.0091 0.135803 44.1601 0.135803 41.438L0.135817 41.4299Z" fill="url(#paint27_linear_8302_2746)"/>
<path fill-rule="evenodd" clip-rule="evenodd" d="M0.135817 41.4299V41.4266L0.135804 41.4202C0.135805 38.6981 2.06408 36.8473 4.23388 35.9798C6.39837 35.1143 9.1104 35.0708 11.305 36.1553L11.3086 36.1571L19.7395 40.2669C20.1836 40.4834 20.4653 40.9342 20.4653 41.4282C20.4653 41.9223 20.1836 42.3731 19.7395 42.5896L11.3086 46.6994L11.3051 46.7011C9.11047 47.7857 6.3984 47.7422 4.23388 46.8767C2.06408 46.0091 0.135803 44.1601 0.135803 41.438L0.135817 41.4299Z" fill="url(#paint28_radial_8302_2746)"/>
<path fill-rule="evenodd" clip-rule="evenodd" d="M0.135817 41.4299V41.4266L0.135804 41.4202C0.135805 38.6981 2.06408 36.8473 4.23388 35.9798C6.39837 35.1143 9.1104 35.0708 11.305 36.1553L11.3086 36.1571L19.7395 40.2669C20.1836 40.4834 20.4653 40.9342 20.4653 41.4282C20.4653 41.9223 20.1836 42.3731 19.7395 42.5896L11.3086 46.6994L11.3051 46.7011C9.11047 47.7857 6.3984 47.7422 4.23388 46.8767C2.06408 46.0091 0.135803 44.1601 0.135803 41.438L0.135817 41.4299Z" fill="url(#paint29_linear_8302_2746)"/>
<path fill-rule="evenodd" clip-rule="evenodd" d="M0.135817 41.4299V41.4266L0.135804 41.4202C0.135805 38.6981 2.06408 36.8473 4.23388 35.9798C6.39837 35.1143 9.1104 35.0708 11.305 36.1553L11.3086 36.1571L19.7395 40.2669C20.1836 40.4834 20.4653 40.9342 20.4653 41.4282C20.4653 41.9223 20.1836 42.3731 19.7395 42.5896L11.3086 46.6994L11.3051 46.7011C9.11047 47.7857 6.3984 47.7422 4.23388 46.8767C2.06408 46.0091 0.135803 44.1601 0.135803 41.438L0.135817 41.4299Z" fill="url(#paint30_radial_8302_2746)"/>
<path fill-rule="evenodd" clip-rule="evenodd" d="M0.135817 41.4299V41.4266L0.135804 41.4202C0.135805 38.6981 2.06408 36.8473 4.23388 35.9798C6.39837 35.1143 9.1104 35.0708 11.305 36.1553L11.3086 36.1571L19.7395 40.2669C20.1836 40.4834 20.4653 40.9342 20.4653 41.4282C20.4653 41.9223 20.1836 42.3731 19.7395 42.5896L11.3086 46.6994L11.3051 46.7011C9.11047 47.7857 6.3984 47.7422 4.23388 46.8767C2.06408 46.0091 0.135803 44.1601 0.135803 41.438L0.135817 41.4299Z" fill="url(#paint31_radial_8302_2746)"/>
<path fill-rule="evenodd" clip-rule="evenodd" d="M0.135817 41.4299V41.4266L0.135804 41.4202C0.135805 38.6981 2.06408 36.8473 4.23388 35.9798C6.39837 35.1143 9.1104 35.0708 11.305 36.1553L11.3086 36.1571L19.7395 40.2669C20.1836 40.4834 20.4653 40.9342 20.4653 41.4282C20.4653 41.9223 20.1836 42.3731 19.7395 42.5896L11.3086 46.6994L11.3051 46.7011C9.11047 47.7857 6.3984 47.7422 4.23388 46.8767C2.06408 46.0091 0.135803 44.1601 0.135803 41.438L0.135817 41.4299Z" fill="url(#paint32_radial_8302_2746)"/>
<path fill-rule="evenodd" clip-rule="evenodd" d="M0.135817 41.4299V41.4266L0.135804 41.4202C0.135805 38.6981 2.06408 36.8473 4.23388 35.9798C6.39837 35.1143 9.1104 35.0708 11.305 36.1553L11.3086 36.1571L19.7395 40.2669C20.1836 40.4834 20.4653 40.9342 20.4653 41.4282C20.4653 41.9223 20.1836 42.3731 19.7395 42.5896L11.3086 46.6994L11.3051 46.7011C9.11047 47.7857 6.3984 47.7422 4.23388 46.8767C2.06408 46.0091 0.135803 44.1601 0.135803 41.438L0.135817 41.4299Z" fill="url(#paint33_radial_8302_2746)"/>
<path fill-rule="evenodd" clip-rule="evenodd" d="M0.135817 41.4299V41.4266L0.135804 41.4202C0.135805 38.6981 2.06408 36.8473 4.23388 35.9798C6.39837 35.1143 9.1104 35.0708 11.305 36.1553L11.3086 36.1571L19.7395 40.2669C20.1836 40.4834 20.4653 40.9342 20.4653 41.4282C20.4653 41.9223 20.1836 42.3731 19.7395 42.5896L11.3086 46.6994L11.3051 46.7011C9.11047 47.7857 6.3984 47.7422 4.23388 46.8767C2.06408 46.0091 0.135803 44.1601 0.135803 41.438L0.135817 41.4299Z" fill="url(#paint34_radial_8302_2746)"/>
<path d="M1.42749 41.4183C1.42749 37.3907 7.08692 35.5095 10.7353 37.3148L19.173 41.428L10.7353 45.5412C7.08692 47.3466 1.42749 45.4654 1.42749 41.4378L1.4275 41.428L1.42749 41.4183Z" fill="url(#paint35_radial_8302_2746)"/>
<path d="M1.42749 41.4183C1.42749 37.3907 7.08692 35.5095 10.7353 37.3148L19.173 41.428L10.7353 45.5412C7.08692 47.3466 1.42749 45.4654 1.42749 41.4378L1.4275 41.428L1.42749 41.4183Z" fill="url(#paint36_radial_8302_2746)"/>
<path d="M49.1004 28.4165C49.0904 24.0588 43.9044 20.8859 38.5397 22.7767L32.056 25.6652C31.3794 25.9666 30.6591 26.1585 29.9222 26.2338V42.4595L49.1004 41.3996V28.4165Z" fill="url(#paint37_linear_8302_2746)"/>
<path d="M49.1004 28.4165C49.0904 24.0588 43.9044 20.8859 38.5397 22.7767L32.056 25.6652C31.3794 25.9666 30.6591 26.1585 29.9222 26.2338V42.4595L49.1004 41.3996V28.4165Z" fill="url(#paint38_linear_8302_2746)"/>
<path d="M49.1004 28.4165C49.0904 24.0588 43.9044 20.8859 38.5397 22.7767L32.056 25.6652C31.3794 25.9666 30.6591 26.1585 29.9222 26.2338V42.4595L49.1004 41.3996V28.4165Z" fill="url(#paint39_radial_8302_2746)"/>
<path d="M49.1004 28.4165C49.0904 24.0588 43.9044 20.8859 38.5397 22.7767L32.056 25.6652C31.3794 25.9666 30.6591 26.1585 29.9222 26.2338V42.4595L49.1004 41.3996V28.4165Z" fill="url(#paint40_linear_8302_2746)"/>
<path fill-rule="evenodd" clip-rule="evenodd" d="M49.1004 41.4299V41.4266L49.1004 41.4202C49.1004 38.6981 47.1721 36.8473 45.0023 35.9798C42.8378 35.1143 40.1258 35.0708 37.9312 36.1553L37.9276 36.1571L29.4968 40.2669C29.0527 40.4834 28.7709 40.9342 28.7709 41.4282C28.7709 41.9223 29.0527 42.3731 29.4968 42.5896L37.9276 46.6994L37.9311 46.7011C40.1257 47.7857 42.8378 47.7422 45.0023 46.8767C47.1721 46.0091 49.1004 44.1601 49.1004 41.438L49.1004 41.4299Z" fill="url(#paint41_linear_8302_2746)"/>
<path fill-rule="evenodd" clip-rule="evenodd" d="M49.1004 41.4299V41.4266L49.1004 41.4202C49.1004 38.6981 47.1721 36.8473 45.0023 35.9798C42.8378 35.1143 40.1258 35.0708 37.9312 36.1553L37.9276 36.1571L29.4968 40.2669C29.0527 40.4834 28.7709 40.9342 28.7709 41.4282C28.7709 41.9223 29.0527 42.3731 29.4968 42.5896L37.9276 46.6994L37.9311 46.7011C40.1257 47.7857 42.8378 47.7422 45.0023 46.8767C47.1721 46.0091 49.1004 44.1601 49.1004 41.438L49.1004 41.4299Z" fill="url(#paint42_radial_8302_2746)"/>
<path fill-rule="evenodd" clip-rule="evenodd" d="M49.1004 41.4299V41.4266L49.1004 41.4202C49.1004 38.6981 47.1721 36.8473 45.0023 35.9798C42.8378 35.1143 40.1258 35.0708 37.9312 36.1553L37.9276 36.1571L29.4968 40.2669C29.0527 40.4834 28.7709 40.9342 28.7709 41.4282C28.7709 41.9223 29.0527 42.3731 29.4968 42.5896L37.9276 46.6994L37.9311 46.7011C40.1257 47.7857 42.8378 47.7422 45.0023 46.8767C47.1721 46.0091 49.1004 44.1601 49.1004 41.438L49.1004 41.4299Z" fill="url(#paint43_linear_8302_2746)"/>
<path fill-rule="evenodd" clip-rule="evenodd" d="M49.1004 41.4299V41.4266L49.1004 41.4202C49.1004 38.6981 47.1721 36.8473 45.0023 35.9798C42.8378 35.1143 40.1258 35.0708 37.9312 36.1553L37.9276 36.1571L29.4968 40.2669C29.0527 40.4834 28.7709 40.9342 28.7709 41.4282C28.7709 41.9223 29.0527 42.3731 29.4968 42.5896L37.9276 46.6994L37.9311 46.7011C40.1257 47.7857 42.8378 47.7422 45.0023 46.8767C47.1721 46.0091 49.1004 44.1601 49.1004 41.438L49.1004 41.4299Z" fill="url(#paint44_radial_8302_2746)"/>
<path fill-rule="evenodd" clip-rule="evenodd" d="M49.1004 41.4299V41.4266L49.1004 41.4202C49.1004 38.6981 47.1721 36.8473 45.0023 35.9798C42.8378 35.1143 40.1258 35.0708 37.9312 36.1553L37.9276 36.1571L29.4968 40.2669C29.0527 40.4834 28.7709 40.9342 28.7709 41.4282C28.7709 41.9223 29.0527 42.3731 29.4968 42.5896L37.9276 46.6994L37.9311 46.7011C40.1257 47.7857 42.8378 47.7422 45.0023 46.8767C47.1721 46.0091 49.1004 44.1601 49.1004 41.438L49.1004 41.4299Z" fill="url(#paint45_radial_8302_2746)"/>
<path fill-rule="evenodd" clip-rule="evenodd" d="M49.1004 41.4299V41.4266L49.1004 41.4202C49.1004 38.6981 47.1721 36.8473 45.0023 35.9798C42.8378 35.1143 40.1258 35.0708 37.9312 36.1553L37.9276 36.1571L29.4968 40.2669C29.0527 40.4834 28.7709 40.9342 28.7709 41.4282C28.7709 41.9223 29.0527 42.3731 29.4968 42.5896L37.9276 46.6994L37.9311 46.7011C40.1257 47.7857 42.8378 47.7422 45.0023 46.8767C47.1721 46.0091 49.1004 44.1601 49.1004 41.438L49.1004 41.4299Z" fill="url(#paint46_radial_8302_2746)"/>
<path fill-rule="evenodd" clip-rule="evenodd" d="M49.1004 41.4299V41.4266L49.1004 41.4202C49.1004 38.6981 47.1721 36.8473 45.0023 35.9798C42.8378 35.1143 40.1258 35.0708 37.9312 36.1553L37.9276 36.1571L29.4968 40.2669C29.0527 40.4834 28.7709 40.9342 28.7709 41.4282C28.7709 41.9223 29.0527 42.3731 29.4968 42.5896L37.9276 46.6994L37.9311 46.7011C40.1257 47.7857 42.8378 47.7422 45.0023 46.8767C47.1721 46.0091 49.1004 44.1601 49.1004 41.438L49.1004 41.4299Z" fill="url(#paint47_radial_8302_2746)"/>
<path fill-rule="evenodd" clip-rule="evenodd" d="M49.1004 41.4299V41.4266L49.1004 41.4202C49.1004 38.6981 47.1721 36.8473 45.0023 35.9798C42.8378 35.1143 40.1258 35.0708 37.9312 36.1553L37.9276 36.1571L29.4968 40.2669C29.0527 40.4834 28.7709 40.9342 28.7709 41.4282C28.7709 41.9223 29.0527 42.3731 29.4968 42.5896L37.9276 46.6994L37.9311 46.7011C40.1257 47.7857 42.8378 47.7422 45.0023 46.8767C47.1721 46.0091 49.1004 44.1601 49.1004 41.438L49.1004 41.4299Z" fill="url(#paint48_radial_8302_2746)"/>
<path d="M47.8081 41.4183C47.8081 37.3907 42.1487 35.5095 38.5003 37.3148L30.0626 41.428L38.5003 45.5412C42.1487 47.3466 47.8081 45.4654 47.8081 41.4378L47.8081 41.428L47.8081 41.4183Z" fill="url(#paint49_radial_8302_2746)"/>
<path d="M47.8081 41.4183C47.8081 37.3907 42.1487 35.5095 38.5003 37.3148L30.0626 41.428L38.5003 45.5412C42.1487 47.3466 47.8081 45.4654 47.8081 41.4378L47.8081 41.428L47.8081 41.4183Z" fill="url(#paint50_radial_8302_2746)"/>
<rect x="18.2322" y="23.3301" width="12.2134" height="22.61" rx="1.79307" fill="url(#paint51_linear_8302_2746)"/>
<rect x="18.2322" y="23.3301" width="12.2134" height="22.61" rx="1.79307" fill="url(#paint52_linear_8302_2746)"/>
<rect x="18.2322" y="23.3301" width="12.2134" height="22.61" rx="1.79307" fill="url(#paint53_linear_8302_2746)"/>
<rect x="18.2322" y="23.3301" width="12.2134" height="22.61" rx="1.79307" fill="url(#paint54_linear_8302_2746)"/>
<rect x="18.2322" y="23.3301" width="12.2134" height="22.61" rx="1.79307" fill="url(#paint55_radial_8302_2746)"/>
<rect x="18.2322" y="23.3301" width="12.2134" height="22.61" rx="1.79307" fill="url(#paint56_radial_8302_2746)"/>
<rect x="18.2322" y="23.3301" width="12.2134" height="22.61" rx="1.79307" fill="url(#paint57_radial_8302_2746)"/>
</g>
<defs>
<radialGradient id="paint0_radial_8302_2746" cx="0" cy="0" r="1" gradientUnits="userSpaceOnUse" gradientTransform="translate(42.7141 -24.0917) rotate(88.5481) scale(98.2355 101.159)">
<stop stop-color="#F12E52"/>
<stop offset="0.67675" stop-color="#FF3B79"/>
<stop offset="1" stop-color="#FF4EC6"/>
</radialGradient>
<radialGradient id="paint1_radial_8302_2746" cx="0" cy="0" r="1" gradientUnits="userSpaceOnUse" gradientTransform="translate(66.9979 20.112) rotate(142.986) scale(80.0318 149.907)">
<stop offset="0.483055" stop-color="#B91D43" stop-opacity="0"/>
<stop offset="0.833898" stop-color="#B91D43"/>
</radialGradient>
<radialGradient id="paint2_radial_8302_2746" cx="0" cy="0" r="1" gradientUnits="userSpaceOnUse" gradientTransform="translate(57.7574 39.7201) rotate(-158.663) scale(69.4208 98.1361)">
<stop offset="0.40984" stop-color="#B91D43" stop-opacity="0"/>
<stop offset="0.833898" stop-color="#B91D43"/>
</radialGradient>
<radialGradient id="paint3_radial_8302_2746" cx="0" cy="0" r="1" gradientUnits="userSpaceOnUse" gradientTransform="translate(24.4874 45.3093) rotate(90) scale(14.7369 14.7369)">
<stop stop-color="#AA092B"/>
<stop offset="1" stop-color="#AA092B" stop-opacity="0"/>
</radialGradient>
<radialGradient id="paint4_radial_8302_2746" cx="0" cy="0" r="1" gradientUnits="userSpaceOnUse" gradientTransform="translate(44.2186 27.5959) rotate(90) scale(60.419 60.419)">
<stop offset="0.671096" stop-color="#FF7AF2" stop-opacity="0"/>
<stop offset="0.933555" stop-color="#FFBCE6"/>
</radialGradient>
<linearGradient id="paint5_linear_8302_2746" x1="50.887" y1="34.6683" x2="75.3375" y2="63.7665" gradientUnits="userSpaceOnUse">
<stop offset="0.694491" stop-color="#FF7AF2" stop-opacity="0"/>
<stop offset="0.933555" stop-color="#FFBCE6"/>
</linearGradient>
<linearGradient id="paint6_linear_8302_2746" x1="47.8559" y1="35.8807" x2="19.1619" y2="68.212" gradientUnits="userSpaceOnUse">
<stop offset="0.694491" stop-color="#FF7AF2" stop-opacity="0"/>
<stop offset="0.933555" stop-color="#FFBCE6"/>
</linearGradient>
<radialGradient id="paint7_radial_8302_2746" cx="0" cy="0" r="1" gradientUnits="userSpaceOnUse" gradientTransform="translate(52.7232 24.789) rotate(164.618) scale(52.532 55.4784)">
<stop offset="0.802083" stop-color="#FF73A6" stop-opacity="0"/>
<stop offset="1" stop-color="#FF93BA" stop-opacity="0.6"/>
</radialGradient>
<radialGradient id="paint8_radial_8302_2746" cx="0" cy="0" r="1" gradientUnits="userSpaceOnUse" gradientTransform="translate(45.6933 12.1528) rotate(-90) scale(36.1892 43.119)">
<stop stop-color="#FC0D1A" stop-opacity="0.6"/>
<stop offset="0.802083" stop-color="#FC1020" stop-opacity="0"/>
</radialGradient>
<radialGradient id="paint9_radial_8302_2746" cx="0" cy="0" r="1" gradientUnits="userSpaceOnUse" gradientTransform="translate(78.3853 13.7691) rotate(129.227) scale(31.1414 20.559)">
<stop stop-color="#FF93BA" stop-opacity="0.5"/>
<stop offset="1" stop-color="#FF73A6" stop-opacity="0"/>
</radialGradient>
<radialGradient id="paint10_radial_8302_2746" cx="0" cy="0" r="1" gradientUnits="userSpaceOnUse" gradientTransform="translate(37.7395 22.3838) rotate(45.5907) scale(10.0774 6.65291)">
<stop stop-color="#FF93BA" stop-opacity="0.4"/>
<stop offset="1" stop-color="#FF73A6" stop-opacity="0"/>
</radialGradient>
<radialGradient id="paint11_radial_8302_2746" cx="0" cy="0" r="1" gradientUnits="userSpaceOnUse" gradientTransform="translate(67.1227 5.92924) rotate(176.279) scale(9.05443 5.88332)">
<stop stop-color="#FF93BA" stop-opacity="0.3"/>
<stop offset="1" stop-color="#FF73A6" stop-opacity="0"/>
</radialGradient>
<radialGradient id="paint12_radial_8302_2746" cx="0" cy="0" r="1" gradientUnits="userSpaceOnUse" gradientTransform="translate(23.4886 6.14961) rotate(1.07082) scale(7.86138 4.0221)">
<stop stop-color="#FF93BA" stop-opacity="0.3"/>
<stop offset="1" stop-color="#FF73A6" stop-opacity="0"/>
</radialGradient>
<radialGradient id="paint13_radial_8302_2746" cx="0" cy="0" r="1" gradientUnits="userSpaceOnUse" gradientTransform="translate(51.4027 25.616) rotate(-90) scale(17.7034 6.47221)">
<stop stop-color="#FA1E3A" stop-opacity="0.7"/>
<stop offset="1" stop-color="#FA1E3A" stop-opacity="0"/>
</radialGradient>
<radialGradient id="paint14_radial_8302_2746" cx="0" cy="0" r="1" gradientUnits="userSpaceOnUse" gradientTransform="translate(69.6326 20.0905) rotate(-151.991) scale(19.4148)">
<stop stop-color="#FA1E3A" stop-opacity="0.7"/>
<stop offset="1" stop-color="#FA1E3A" stop-opacity="0"/>
</radialGradient>
<radialGradient id="paint15_radial_8302_2746" cx="0" cy="0" r="1" gradientUnits="userSpaceOnUse" gradientTransform="translate(46.4884 36.6541) scale(22.61 27.017)">
<stop stop-color="#D9810E"/>
<stop offset="0.322917" stop-color="#FFA022"/>
<stop offset="1" stop-color="#FFA022" stop-opacity="0"/>
</radialGradient>
<linearGradient id="paint16_linear_8302_2746" x1="91.9102" y1="41.2972" x2="77.8799" y2="34.5344" gradientUnits="userSpaceOnUse">
<stop stop-color="#FFA630"/>
<stop offset="1" stop-color="#FFA022" stop-opacity="0"/>
</linearGradient>
<linearGradient id="paint17_linear_8302_2746" x1="19.7401" y1="68.7522" x2="11.7661" y2="40.4898" gradientUnits="userSpaceOnUse">
<stop stop-color="#F8EC1D"/>
<stop offset="0.568974" stop-color="#F89C20"/>
<stop offset="0.848958" stop-color="#C13A24"/>
</linearGradient>
<linearGradient id="paint18_linear_8302_2746" x1="6.3659" y1="54.2172" x2="8.58653" y2="54.949" gradientUnits="userSpaceOnUse">
<stop stop-color="#D06400"/>
<stop offset="1" stop-color="#D06400" stop-opacity="0"/>
</linearGradient>
<radialGradient id="paint19_radial_8302_2746" cx="0" cy="0" r="1" gradientUnits="userSpaceOnUse" gradientTransform="translate(6.2145 75.3636) rotate(-67.6363) scale(19.1007 11.053)">
<stop offset="0.717917" stop-color="#D06400"/>
<stop offset="0.974296" stop-color="#D06400" stop-opacity="0"/>
</radialGradient>
<linearGradient id="paint20_linear_8302_2746" x1="16.8634" y1="62.7212" x2="18.2513" y2="63.2259" gradientUnits="userSpaceOnUse">
<stop stop-color="#FFC42D" stop-opacity="0"/>
<stop offset="0.447917" stop-color="#FFC42D"/>
</linearGradient>
<linearGradient id="paint21_linear_8302_2746" x1="31.4489" y1="70.0644" x2="35.1836" y2="39.3794" gradientUnits="userSpaceOnUse">
<stop offset="0.140625" stop-color="#F8EC1D"/>
<stop offset="0.625" stop-color="#F89C20"/>
<stop offset="0.848958" stop-color="#C13A24"/>
</linearGradient>
<linearGradient id="paint22_linear_8302_2746" x1="28.1684" y1="55.378" x2="28.9759" y2="55.1004" gradientUnits="userSpaceOnUse">
<stop stop-color="#D06400"/>
<stop offset="1" stop-color="#D06400" stop-opacity="0"/>
</linearGradient>
<linearGradient id="paint23_linear_8302_2746" x1="41.694" y1="58.1033" x2="42.7539" y2="57.6996" gradientUnits="userSpaceOnUse">
<stop stop-color="#FFE601" stop-opacity="0"/>
<stop offset="1" stop-color="#FFF101"/>
</linearGradient>
<linearGradient id="paint24_linear_8302_2746" x1="6.69678" y1="30.8976" x2="-2.53899" y2="30.8976" gradientUnits="userSpaceOnUse">
<stop stop-color="#FFEA3F"/>
<stop offset="0.911458" stop-color="#A2831C"/>
</linearGradient>
<linearGradient id="paint25_linear_8302_2746" x1="21.8599" y1="31.2433" x2="16.0055" y2="31.2433" gradientUnits="userSpaceOnUse">
<stop offset="0.255208" stop-color="#EB8D10"/>
<stop offset="1" stop-color="#FFA022" stop-opacity="0"/>
</linearGradient>
<radialGradient id="paint26_radial_8302_2746" cx="0" cy="0" r="1" gradientUnits="userSpaceOnUse" gradientTransform="translate(11.239 40.4362) rotate(-79.1359) scale(5.08758 9.04871)">
<stop stop-color="#FFF45A"/>
<stop offset="1" stop-color="#FFF45A" stop-opacity="0"/>
</radialGradient>
<linearGradient id="paint27_linear_8302_2746" x1="9.46045" y1="39.834" x2="23.087" y2="39.834" gradientUnits="userSpaceOnUse">
<stop stop-color="#F9AB4E"/>
<stop offset="1" stop-color="#F89B4C"/>
</linearGradient>
<radialGradient id="paint28_radial_8302_2746" cx="0" cy="0" r="1" gradientUnits="userSpaceOnUse" gradientTransform="translate(14.3054 37.0582) rotate(103.422) scale(13.6979 29.7833)">
<stop offset="0.838542" stop-color="#F48629" stop-opacity="0"/>
<stop offset="1" stop-color="#F48629"/>
</radialGradient>
<linearGradient id="paint29_linear_8302_2746" x1="7.89592" y1="49.1202" x2="22.0776" y2="42.9125" gradientUnits="userSpaceOnUse">
<stop offset="0.64551" stop-color="#F48629" stop-opacity="0"/>
<stop offset="1" stop-color="#F48629"/>
</linearGradient>
<radialGradient id="paint30_radial_8302_2746" cx="0" cy="0" r="1" gradientUnits="userSpaceOnUse" gradientTransform="translate(5.92764 42.7107) rotate(106.504) scale(4.26363 5.48135)">
<stop offset="0.0341" stop-color="#FFF45A"/>
<stop offset="1" stop-color="#FFF45A" stop-opacity="0"/>
</radialGradient>
<radialGradient id="paint31_radial_8302_2746" cx="0" cy="0" r="1" gradientUnits="userSpaceOnUse" gradientTransform="translate(11.5549 44.1995) rotate(66.666) scale(1.40159 5.37418)">
<stop stop-color="#FFF45A" stop-opacity="0.911283"/>
<stop offset="1" stop-color="#FFF45A" stop-opacity="0"/>
</radialGradient>
<radialGradient id="paint32_radial_8302_2746" cx="0" cy="0" r="1" gradientUnits="userSpaceOnUse" gradientTransform="translate(12.3876 48.7164) rotate(-137.479) scale(16.9135 12.3016)">
<stop offset="0.872134" stop-color="#FFF45A" stop-opacity="0"/>
<stop offset="0.971574" stop-color="#D8CC28" stop-opacity="0.911283"/>
</radialGradient>
<radialGradient id="paint33_radial_8302_2746" cx="0" cy="0" r="1" gradientUnits="userSpaceOnUse" gradientTransform="translate(9.51092 49.8268) rotate(-65.9204) scale(13.7921 39.2227)">
<stop offset="0.868756" stop-color="#FFF45A" stop-opacity="0"/>
<stop offset="0.971574" stop-color="#FFF45A" stop-opacity="0.911283"/>
</radialGradient>
<radialGradient id="paint34_radial_8302_2746" cx="0" cy="0" r="1" gradientUnits="userSpaceOnUse" gradientTransform="translate(19.6551 41.0957) rotate(180) scale(20.4903 12.008)">
<stop offset="0.895262" stop-color="#A2831C" stop-opacity="0"/>
<stop offset="1" stop-color="#A2831C"/>
</radialGradient>
<radialGradient id="paint35_radial_8302_2746" cx="0" cy="0" r="1" gradientUnits="userSpaceOnUse" gradientTransform="translate(5.27123 49.9275) rotate(-72.2065) scale(13.5426 35.5032)">
<stop offset="0.0192045" stop-color="#FC8306"/>
<stop offset="0.217544" stop-color="#F78E13"/>
<stop offset="0.817108" stop-color="#B23A28"/>
</radialGradient>
<radialGradient id="paint36_radial_8302_2746" cx="0" cy="0" r="1" gradientUnits="userSpaceOnUse" gradientTransform="translate(7.78119 39.8902) rotate(103.496) scale(3.4346 6.34775)">
<stop stop-color="#B23A28"/>
<stop offset="1" stop-color="#B23A28" stop-opacity="0"/>
</radialGradient>
<linearGradient id="paint37_linear_8302_2746" x1="40.8361" y1="30.8976" x2="18.6299" y2="30.8976" gradientUnits="userSpaceOnUse">
<stop stop-color="#FFEA3F"/>
<stop offset="0.911458" stop-color="#A2831C"/>
</linearGradient>
<linearGradient id="paint38_linear_8302_2746" x1="29.1274" y1="31.3045" x2="31.9536" y2="31.3045" gradientUnits="userSpaceOnUse">
<stop offset="0.255208" stop-color="#FF9B16"/>
<stop offset="1" stop-color="#FFA022" stop-opacity="0"/>
</linearGradient>
<radialGradient id="paint39_radial_8302_2746" cx="0" cy="0" r="1" gradientUnits="userSpaceOnUse" gradientTransform="translate(37.9972 40.4362) rotate(-100.864) scale(5.08758 9.04871)">
<stop stop-color="#FFF45A"/>
<stop offset="1" stop-color="#FFF45A" stop-opacity="0"/>
</radialGradient>
<linearGradient id="paint40_linear_8302_2746" x1="53.958" y1="31.2433" x2="47.397" y2="31.2433" gradientUnits="userSpaceOnUse">
<stop offset="0.255208" stop-color="#EB8D10"/>
<stop offset="1" stop-color="#FFA022" stop-opacity="0"/>
</linearGradient>
<linearGradient id="paint41_linear_8302_2746" x1="39.7758" y1="39.834" x2="26.1492" y2="39.834" gradientUnits="userSpaceOnUse">
<stop stop-color="#F9AB4E"/>
<stop offset="1" stop-color="#F89B4C"/>
</linearGradient>
<radialGradient id="paint42_radial_8302_2746" cx="0" cy="0" r="1" gradientUnits="userSpaceOnUse" gradientTransform="translate(34.9308 37.0582) rotate(76.5782) scale(13.6979 29.7833)">
<stop offset="0.838542" stop-color="#F48629" stop-opacity="0"/>
<stop offset="1" stop-color="#F48629"/>
</radialGradient>
<linearGradient id="paint43_linear_8302_2746" x1="41.3403" y1="49.1202" x2="27.1586" y2="42.9125" gradientUnits="userSpaceOnUse">
<stop offset="0.64551" stop-color="#F48629" stop-opacity="0"/>
<stop offset="1" stop-color="#F48629"/>
</linearGradient>
<radialGradient id="paint44_radial_8302_2746" cx="0" cy="0" r="1" gradientUnits="userSpaceOnUse" gradientTransform="translate(43.3086 42.7107) rotate(73.4956) scale(4.26363 5.48135)">
<stop offset="0.0341" stop-color="#FFF45A"/>
<stop offset="1" stop-color="#FFF45A" stop-opacity="0"/>
</radialGradient>
<radialGradient id="paint45_radial_8302_2746" cx="0" cy="0" r="1" gradientUnits="userSpaceOnUse" gradientTransform="translate(37.9089 43.7705) rotate(113.839) scale(2.37256 9.09727)">
<stop stop-color="#FFF45A" stop-opacity="0.911283"/>
<stop offset="1" stop-color="#FFF45A" stop-opacity="0"/>
</radialGradient>
<radialGradient id="paint46_radial_8302_2746" cx="0" cy="0" r="1" gradientUnits="userSpaceOnUse" gradientTransform="translate(36.8486 48.7164) rotate(-42.521) scale(16.9135 12.3016)">
<stop offset="0.872134" stop-color="#FFF45A" stop-opacity="0"/>
<stop offset="0.971574" stop-color="#D8CC28" stop-opacity="0.911283"/>
</radialGradient>
<radialGradient id="paint47_radial_8302_2746" cx="0" cy="0" r="1" gradientUnits="userSpaceOnUse" gradientTransform="translate(39.7253 49.8268) rotate(-114.08) scale(13.7921 39.2227)">
<stop offset="0.868756" stop-color="#FFF45A" stop-opacity="0"/>
<stop offset="0.971574" stop-color="#FFF45A" stop-opacity="0.911283"/>
</radialGradient>
<radialGradient id="paint48_radial_8302_2746" cx="0" cy="0" r="1" gradientUnits="userSpaceOnUse" gradientTransform="translate(39.6249 42.206) rotate(-5.92458) scale(10.7568 7.65286)">
<stop offset="0.868756" stop-color="#FFF45A" stop-opacity="0"/>
<stop offset="0.971574" stop-color="#FFF45A" stop-opacity="0.911283"/>
</radialGradient>
<radialGradient id="paint49_radial_8302_2746" cx="0" cy="0" r="1" gradientUnits="userSpaceOnUse" gradientTransform="translate(43.9644 49.9275) rotate(-107.793) scale(13.5426 35.5032)">
<stop offset="0.0192045" stop-color="#FC8306"/>
<stop offset="0.217544" stop-color="#F78E13"/>
<stop offset="0.817108" stop-color="#B23A28"/>
</radialGradient>
<radialGradient id="paint50_radial_8302_2746" cx="0" cy="0" r="1" gradientUnits="userSpaceOnUse" gradientTransform="translate(41.4544 39.8902) rotate(76.5043) scale(3.4346 6.34775)">
<stop stop-color="#B23A28"/>
<stop offset="1" stop-color="#B23A28" stop-opacity="0"/>
</radialGradient>
<linearGradient id="paint51_linear_8302_2746" x1="30.4456" y1="31.0013" x2="16.6111" y2="49.3719" gradientUnits="userSpaceOnUse">
<stop stop-color="#F8EC1D"/>
<stop offset="1" stop-color="#F89C20"/>
</linearGradient>
<linearGradient id="paint52_linear_8302_2746" x1="11.6652" y1="43.3157" x2="23.172" y2="43.3157" gradientUnits="userSpaceOnUse">
<stop stop-color="#CC872E"/>
<stop offset="1" stop-color="#CC872E" stop-opacity="0"/>
</linearGradient>
<linearGradient id="paint53_linear_8302_2746" x1="23.7777" y1="30.2948" x2="23.7777" y2="50.028" gradientUnits="userSpaceOnUse">
<stop offset="0.671096" stop-color="#FF7AF2" stop-opacity="0"/>
<stop offset="0.933555" stop-color="#FFBCE6"/>
</linearGradient>
<linearGradient id="paint54_linear_8302_2746" x1="14.1886" y1="33.4794" x2="20.4467" y2="33.121" gradientUnits="userSpaceOnUse">
<stop offset="0.510417" stop-color="#FF9B16"/>
<stop offset="1" stop-color="#FFA022" stop-opacity="0"/>
</linearGradient>
<radialGradient id="paint55_radial_8302_2746" cx="0" cy="0" r="1" gradientUnits="userSpaceOnUse" gradientTransform="translate(24.3389 41.7253) rotate(90) scale(2.72531 6.79923)">
<stop stop-color="#FFAB44"/>
<stop offset="1" stop-color="#FFAB44" stop-opacity="0"/>
</radialGradient>
<radialGradient id="paint56_radial_8302_2746" cx="0" cy="0" r="1" gradientUnits="userSpaceOnUse" gradientTransform="translate(28.1217 39.3533) rotate(150.132) scale(2.60837)">
<stop stop-color="#FFF58C" stop-opacity="0.6"/>
<stop offset="1" stop-color="#FFF58C" stop-opacity="0"/>
</radialGradient>
<radialGradient id="paint57_radial_8302_2746" cx="0" cy="0" r="1" gradientUnits="userSpaceOnUse" gradientTransform="translate(27.945 25.1968) rotate(114.228) scale(2.76716)">
<stop stop-color="#FFF58C" stop-opacity="0.7"/>
<stop offset="1" stop-color="#FFF58C" stop-opacity="0"/>
</radialGradient>
<clipPath id="clip0_8302_2746">
<rect width="89.6657" height="76.08" fill="white" transform="translate(0.293823 0.132568)"/>
</clipPath>
</defs>
</svg>
